<?xml version="1.0" encoding="utf-8"?>
<!-- Generator: Adobe Illustrator 25.4.1, SVG Export Plug-In . SVG Version: 6.00 Build 0)  -->
<svg version="1.1" id="Layer_1" xmlns="http://www.w3.org/2000/svg" xmlns:xlink="http://www.w3.org/1999/xlink" x="0px" y="0px"
	 viewBox="0 0 2500 780" style="enable-background:new 0 0 2500 780;" xml:space="preserve">
<style type="text/css">
	.st0{fill:#FF5A5F;}
</style>
<path class="st0" d="M714.81,554.35c-3.9-9.37-7.8-19.51-11.7-28.11c-6.26-14.05-12.51-27.33-17.96-39.82l-0.78-0.78
	c-53.88-117.12-111.65-235.79-172.56-352.89l-2.34-4.7c-6.4-12.15-12.64-24.38-18.72-36.7c-7.82-14.06-15.62-28.88-28.11-42.94
	c-24.99-31.23-60.9-48.42-99.15-48.42c-39.05,0-74.18,17.19-99.94,46.85c-11.71,14.05-20.31,28.88-28.11,42.94
	c-6.09,12.31-12.33,24.55-18.72,36.7l-2.35,4.7C154.25,248.28,95.69,366.96,41.82,484.07l-0.79,1.56
	c-5.46,12.51-11.71,25.77-17.96,39.81c-3.9,8.6-7.8,17.97-11.7,28.11C1.21,582.44-1.91,609.77,2,637.89
	c8.59,58.56,47.62,107.73,101.5,129.61c20.3,8.59,41.39,12.49,63.24,12.49c6.25,0,14.05-0.78,20.3-1.57
	c25.78-3.12,52.32-11.7,78.09-26.53c32.01-17.96,62.46-43.72,96.81-81.2c34.35,37.48,65.58,63.24,96.81,81.2
	c25.78,14.83,52.32,23.41,78.08,26.53c6.25,0.8,14.06,1.57,20.31,1.57c21.86,0,43.72-3.9,63.23-12.49
	c54.66-21.88,92.91-71.83,101.51-129.61C728.08,610.56,724.96,583.25,714.81,554.35z M362.7,594.95
	c-42.17-53.09-69.5-103.06-78.86-145.21c-3.9-17.96-4.69-33.58-2.34-47.63c1.55-12.5,6.25-23.44,12.5-32.8
	c14.83-21.07,39.81-34.35,68.71-34.35c28.89,0,54.66,12.49,68.71,34.35c6.25,9.36,10.93,20.31,12.5,32.8
	c2.34,14.06,1.56,30.45-2.34,47.63C432.18,491.11,404.85,541.08,362.7,594.95z M674.21,631.65c-5.46,40.6-32.79,75.74-71.04,91.36
	c-18.74,7.8-39.05,10.14-59.34,7.8c-19.51-2.35-39.04-8.6-59.33-20.3c-28.11-15.63-56.21-39.82-89.01-75.74
	c51.52-63.24,82.75-121.02,94.47-172.54c5.47-24.21,6.26-46.07,3.9-66.38c-3.11-19.52-10.15-37.48-21.08-53.09
	c-24.21-35.15-64.82-55.44-110.09-55.44s-85.88,21.09-110.08,55.44c-10.93,15.61-17.96,33.57-21.08,53.09
	c-3.12,20.31-2.35,42.95,3.9,66.38c11.7,51.52,43.72,110.08,94.46,173.32c-32.01,35.92-60.9,60.13-89.01,75.74
	c-20.3,11.72-39.81,17.96-59.33,20.3c-21.07,2.34-41.38-0.78-59.34-7.8c-38.25-15.62-65.58-50.76-71.04-91.36
	c-2.34-19.52-0.79-39.03,7.03-60.9c2.33-7.81,6.25-15.61,10.15-24.98c5.46-12.49,11.7-25.78,17.95-39.05l0.79-1.55
	c53.87-116.34,111.64-235.01,171.76-350.56l2.34-4.7c6.26-11.7,12.5-24.19,18.74-35.91c6.25-12.49,13.27-24.21,21.87-34.36
	c16.39-18.72,38.25-28.89,62.46-28.89c24.21,0,46.06,10.17,62.46,28.89c8.59,10.17,15.61,21.89,21.86,34.36
	c6.26,11.72,12.5,24.21,18.74,35.91l2.34,4.7c59.21,116.03,116.22,233.16,170.99,351.34v0.78c6.26,12.51,11.72,26.55,17.97,39.06
	c3.9,9.36,7.8,17.16,10.14,24.97C675,591.82,677.34,611.35,674.21,631.65z"/>
<path class="st0" d="M2341.16,263.5c-54.2,0-79.67,32.86-79.67,32.86V123.09h-78.82V580.5h66.51c6.57,0,11.49-5.75,11.49-11.5
	v-13.96c0,0,25.47,33.67,79.65,33.67c89.53,0,159.32-68.97,159.32-162.58S2429.84,263.5,2341.16,263.5z M2328.01,513.97
	c-30.39,0-54.2-15.59-66.52-33.67V370.26c12.33-16.42,38.6-33.67,66.52-33.67c52.56,0,92.8,32.85,92.8,88.7
	C2420.81,481.12,2380.58,513.97,2328.01,513.97z"/>
<path class="st0" d="M2141.61,397.37v183.95h-78.85V406.39c0-50.9-16.42-71.45-60.74-71.45c-23.8,0-48.44,12.33-64.07,30.4v215.16
	h-78.82V271.73h62.39c6.57,0,11.51,5.75,11.51,11.51v13.14c22.99-23.82,53.37-32.86,83.75-32.86c34.49,0,63.23,9.87,86.24,29.57
	C2130.92,316.08,2141.61,345.63,2141.61,397.37z"/>
<path class="st0" d="M1667.77,263.5c-54.19,0-79.65,32.86-79.65,32.86V123.09h-78.83V580.5h66.5c6.57,0,11.51-5.75,11.51-11.5
	v-13.96c0,0,25.46,33.67,79.65,33.67c89.52,0,159.31-68.97,159.31-162.58C1827.08,332.5,1757.28,263.5,1667.77,263.5z
	 M1654.62,513.97c-30.38,0-54.19-15.59-66.5-33.67V370.26c12.32-16.42,38.6-33.67,66.5-33.67c52.57,0,92.8,32.85,92.8,88.7
	C1747.42,481.12,1707.19,513.97,1654.62,513.97z"/>
<path class="st0" d="M1477.25,267.61v73.08c0,0-65.69-22.17-106.74,24.64v215.97h-78.85V271.71h66.52c6.57,0,11.49,5.75,11.49,11.51
	v13.14c14.8-17.25,46.84-32.86,71.46-32.86C1464.93,263.5,1477.25,267.61,1477.25,267.61z"/>
<path class="st0" d="M1256.35,175.65c0,29.57-23.82,53.37-53.39,53.37c-29.57,0-53.38-23.8-53.38-53.37
	c0-29.57,23-53.38,53.38-53.38C1233.37,123.09,1256.35,146.91,1256.35,175.65z"/>
<rect x="1163.56" y="271.71" class="st0" width="78.83" height="308.78"/>
<path class="st0" d="M1047.77,271.69c-6.56,0.02-11.5,5.78-11.5,11.54v13.14c0,0-25.45-32.86-79.65-32.86
	c-89.51,0-159.31,68.16-159.31,162.59c0,93.62,68.99,162.59,159.31,162.59c55.02,0,79.65-33.67,79.65-33.67v13.96
	c0,6.57,4.93,11.49,11.5,11.49h66.51V271.69H1047.77z M1036.27,481.12c-12.31,18.07-36.95,33.68-66.51,33.68
	c-52.55,0-92.8-32.85-92.8-88.7c0-55.85,40.25-88.7,92.8-88.7c28.76,0,55.03,16.43,66.51,33.67V481.12z"/>
</svg>
