<?xml version="1.0" encoding="utf-8"?>
<!-- Generator: Adobe Illustrator 25.4.1, SVG Export Plug-In . SVG Version: 6.00 Build 0)  -->
<svg version="1.1" id="Layer_1" xmlns="http://www.w3.org/2000/svg" xmlns:xlink="http://www.w3.org/1999/xlink" x="0px" y="0px"
	 viewBox="0 0 438.72 127.63" style="enable-background:new 0 0 438.72 127.63;" xml:space="preserve">
<style type="text/css">
	.st0{fill:none;stroke:#000000;stroke-width:0.5;stroke-miterlimit:10;}
</style>
<path class="st0" d="M107.48,107.75c-10.96,10.96-26.1,17.74-42.83,17.74c-33.45,0-60.57-27.12-60.57-60.57S31.19,4.34,64.64,4.34
	c16.51,0,31.48,6.61,42.41,17.32"/>
<g>
	<path d="M49.79,90.34c-1.19,0-2.42,0.06-3.71,0.2c-1.29,0.13-2.46,0.26-3.51,0.4c-1.06,0.13-2.24,0.33-3.56,0.59l0.99-4.26
		c3.1-0.59,5.23-1.47,6.38-2.62c1.15-1.15,1.9-3.15,2.23-5.99l5.15-41.96c0.26-2.11,0.21-3.53-0.15-4.26
		c-0.36-0.72-1.27-1.09-2.72-1.09c-0.53,0-1.58,0.07-3.17,0.2l-0.2-0.4l1.19-4.06c1.45,0.07,2.72,0.12,3.81,0.15
		c1.09,0.03,2.23,0.07,3.41,0.1c1.19,0.03,2.21,0.05,3.07,0.05c0.86,0,1.81-0.02,2.87-0.05c1.06-0.03,2.06-0.08,3.02-0.15
		c0.96-0.07,2.03-0.13,3.22-0.2c5.48,0,10,1.12,13.56,3.37c3.56,2.24,5.34,5.48,5.34,9.7c0,3.83-1.17,7.21-3.51,10.14
		c-2.34,2.94-5.56,5.26-9.65,6.98c4.16,0.92,7.39,2.61,9.7,5.05c2.31,2.44,3.46,5.34,3.46,8.71c0,3.56-1.02,6.9-3.07,10
		c-2.05,3.1-4.79,5.61-8.21,7.52c-3.43,1.91-7.22,2.87-11.38,2.87c-1.06,0-2.18-0.05-3.36-0.15c-1.19-0.1-2.41-0.21-3.66-0.35
		c-1.25-0.13-2.52-0.25-3.81-0.35C52.21,90.39,50.98,90.34,49.79,90.34z M57.51,60.65l-2.77,19c-0.26,2.57,0.36,4.39,1.88,5.44
		c1.52,1.06,4.29,1.58,8.31,1.58c4.29,0,7.7-1.3,10.24-3.91c2.54-2.61,3.81-6.02,3.81-10.24c0-3.23-0.96-5.89-2.87-7.97
		c-1.91-2.08-4.82-3.45-8.71-4.11L57.51,60.65z M58.2,55.8c1.72,0.13,3.15,0.26,4.31,0.4c1.15,0.13,2.23,0.23,3.22,0.3
		c0.99,0.07,1.65,0.1,1.98,0.1c2.38-0.79,4.32-1.72,5.84-2.77c1.52-1.05,2.87-2.56,4.06-4.5c1.19-1.94,1.78-4.47,1.78-7.57
		c0-7.32-5.15-10.99-15.44-10.99c-0.66,0-1.12,0.15-1.39,0.45c-0.26,0.3-0.49,0.91-0.69,1.83c-0.4,2.18-0.79,4.47-1.19,6.88
		c-0.4,2.41-0.79,4.93-1.19,7.57C59.09,50.12,58.66,52.9,58.2,55.8z"/>
	<path d="M106.1,91.52c-3.23,0-5.89-1.47-7.97-4.4s-3.12-6.88-3.12-11.83c0-4.09,0.59-7.98,1.78-11.68
		c1.19-3.69,2.84-6.98,4.95-9.85c2.11-2.87,4.52-5.15,7.22-6.83c2.7-1.68,5.54-2.52,8.51-2.52c3.5,0,6.25,1.29,8.26,3.86
		c2.01,2.57,3.02,6.2,3.02,10.89c0,4.35-0.59,8.48-1.78,12.37c-1.19,3.89-2.82,7.34-4.9,10.34c-2.08,3-4.49,5.36-7.22,7.08
		C112.12,90.66,109.2,91.52,106.1,91.52z M110.06,86.08c2.18,0,4.12-0.92,5.84-2.77c1.72-1.85,3.05-4.4,4.01-7.67
		c0.96-3.27,1.43-6.94,1.43-11.03c0-4.42-0.71-7.9-2.13-10.44c-1.42-2.54-3.38-3.81-5.89-3.81c-2.11,0-4.02,0.88-5.74,2.62
		c-1.72,1.75-3.05,4.12-4.01,7.12c-0.96,3-1.43,6.42-1.43,10.24c0,4.62,0.74,8.4,2.23,11.33S107.75,86.08,110.06,86.08z"/>
	<path d="M146.28,91.52c-3.23,0-5.89-1.47-7.97-4.4s-3.12-6.88-3.12-11.83c0-4.09,0.59-7.98,1.78-11.68
		c1.19-3.69,2.84-6.98,4.95-9.85c2.11-2.87,4.52-5.15,7.22-6.83c2.7-1.68,5.54-2.52,8.51-2.52c3.5,0,6.25,1.29,8.26,3.86
		c2.01,2.57,3.02,6.2,3.02,10.89c0,4.35-0.59,8.48-1.78,12.37s-2.82,7.34-4.9,10.34c-2.08,3-4.49,5.36-7.22,7.08
		C152.3,90.66,149.38,91.52,146.28,91.52z M150.24,86.08c2.18,0,4.12-0.92,5.84-2.77c1.72-1.85,3.05-4.4,4.01-7.67
		c0.96-3.27,1.43-6.94,1.43-11.03c0-4.42-0.71-7.9-2.13-10.44c-1.42-2.54-3.38-3.81-5.89-3.81c-2.11,0-4.02,0.88-5.74,2.62
		c-1.72,1.75-3.05,4.12-4.01,7.12c-0.96,3-1.43,6.42-1.43,10.24c0,4.62,0.74,8.4,2.23,11.33S147.93,86.08,150.24,86.08z"/>
	<path d="M192.49,72.62l0.4-1.48c2.31-1.19,4.3-2.34,5.99-3.46c1.68-1.12,3.08-2.24,4.21-3.36c1.12-1.12,1.94-2.28,2.47-3.46
		c0.53-1.19,0.79-2.37,0.79-3.56c0-1.12-0.31-2.01-0.94-2.67c-0.63-0.66-1.4-0.99-2.32-0.99c-1.39,0-3.1,1.15-5.15,3.46
		c-2.05,2.31-4.22,5.49-6.53,9.55c-2.31,4.06-4.59,8.76-6.83,14.1l-1.09,8.21c0,0.2-0.41,0.48-1.24,0.84
		c-0.83,0.36-1.72,0.69-2.67,0.99c-0.96,0.3-1.7,0.45-2.23,0.45l-0.69-0.89c0.66-4.35,1.29-8.35,1.88-11.97
		c0.59-3.63,1.22-7.65,1.88-12.07c0.66-4.42,1.32-8.86,1.98-13.31c0.66-4.45,1.29-8.63,1.88-12.52c0.59-3.89,1.06-7.12,1.39-9.7
		s0.5-4.16,0.5-4.75c0-2.57-1.39-3.86-4.16-3.86h-4.06l0.59-3.76c1.52,0,3.18-0.03,5-0.1c1.81-0.06,3.56-0.13,5.25-0.2
		c1.68-0.07,3.58-0.17,5.69-0.3l0.89,1.19c-0.92,3.89-1.75,7.54-2.47,10.94c-0.73,3.4-1.53,7.29-2.43,11.68
		c-0.89,4.39-1.78,9.04-2.67,13.95c-0.89,4.92-1.7,9.85-2.43,14.79l0.5,0.3c3.43-6.66,6.88-12.25,10.34-16.77
		c3.46-4.52,6.71-7.67,9.75-9.45c2.11,0,3.89,0.89,5.34,2.67c1.45,1.78,2.18,3.93,2.18,6.43c0,3.04-1.3,6.14-3.91,9.3
		c-2.61,3.17-6.38,6.2-11.33,9.1c1.58,2.44,3.08,4.67,4.5,6.68c1.42,2.01,2.7,3.74,3.86,5.2c1.15,1.45,2.39,2.97,3.71,4.55l0.2,1.19
		l-6.04,3.17l-1.29-0.69L192.49,72.62z"/>
	<path d="M284.63,77.07l5.15-41.37c0.13-1.45-0.03-2.52-0.49-3.22c-0.46-0.69-1.19-1.04-2.18-1.04c-0.86,0-1.68,0.02-2.48,0.05
		c-0.79,0.03-1.15,0.05-1.09,0.05l-0.2-0.4l1.39-4.16c1.19,0.07,2.26,0.13,3.22,0.2c0.96,0.07,1.93,0.12,2.92,0.15
		c0.99,0.03,1.88,0.05,2.67,0.05c1.32,0,2.7-0.06,4.16-0.2c1.45-0.13,3.2-0.36,5.24-0.69l-0.99,4.35c-2.24,0.26-3.94,0.89-5.1,1.88
		c-1.16,0.99-1.9,2.44-2.23,4.35l-8.12,56.01l-2.47,1.39c-3.76-7.72-7.37-14.94-10.84-21.67c-3.46-6.73-6.57-12.65-9.3-17.76
		c-2.74-5.11-5.69-10.57-8.86-16.38h-0.4l-5.94,43.64c-0.2,1.45-0.1,2.46,0.3,3.02c0.4,0.56,1.12,0.84,2.18,0.84
		c0.33,0,0.89,0,1.68,0s1.85,0,3.17,0l0.2,0.3l-1.39,4.26c-1.25-0.07-2.37-0.13-3.36-0.2c-0.99-0.07-2.06-0.12-3.22-0.15
		c-1.15-0.03-2.26-0.05-3.31-0.05c-1.19,0-2.48,0.06-3.86,0.2c-1.39,0.13-3.03,0.33-4.95,0.59l1.09-4.26
		c1.98-0.26,3.51-0.86,4.6-1.78c1.09-0.92,1.77-2.41,2.03-4.45l6.63-43.84c0.26-1.98-0.15-3.4-1.24-4.26
		c-1.09-0.86-3.22-1.45-6.38-1.78c0-0.13-0.02-0.23-0.05-0.3c-0.03-0.07-0.05-0.13-0.05-0.2l1.09-3.37
		c1.98,0.13,3.59,0.25,4.85,0.35c1.25,0.1,2.31,0.15,3.17,0.15c1.05,0,2.04-0.03,2.97-0.1c0.92-0.06,1.98-0.16,3.17-0.3
		c3.23,6.53,6.4,12.78,9.5,18.75c3.1,5.97,5.9,11.32,8.41,16.03c2.51,4.72,5.28,9.81,8.31,15.29H284.63z"/>
	<path d="M313.43,91.52c-3.23,0-5.89-1.47-7.97-4.4c-2.08-2.94-3.12-6.88-3.12-11.83c0-4.09,0.59-7.98,1.78-11.68
		c1.19-3.69,2.84-6.98,4.95-9.85c2.11-2.87,4.52-5.15,7.22-6.83c2.7-1.68,5.54-2.52,8.51-2.52c3.5,0,6.25,1.29,8.26,3.86
		c2.01,2.57,3.02,6.2,3.02,10.89c0,4.35-0.59,8.48-1.78,12.37s-2.82,7.34-4.9,10.34c-2.08,3-4.49,5.36-7.22,7.08
		C319.45,90.66,316.53,91.52,313.43,91.52z M317.38,86.08c2.18,0,4.12-0.92,5.84-2.77c1.72-1.85,3.05-4.4,4.01-7.67
		c0.96-3.27,1.43-6.94,1.43-11.03c0-4.42-0.71-7.9-2.13-10.44c-1.42-2.54-3.38-3.81-5.89-3.81c-2.11,0-4.02,0.88-5.74,2.62
		c-1.72,1.75-3.05,4.12-4.01,7.12c-0.96,3-1.43,6.42-1.43,10.24c0,4.62,0.74,8.4,2.23,11.33C313.18,84.61,315.07,86.08,317.38,86.08
		z"/>
	<path d="M356.97,84.6c3.03-4.42,5.62-8.61,7.77-12.57c2.14-3.96,3.74-7.55,4.8-10.79l-1.68-14.15l0.69-0.99l5.54-1.68
		c1.12,0.66,1.98,1.67,2.57,3.02c0.59,1.35,0.89,2.86,0.89,4.5c0,1.06-0.13,2.14-0.4,3.27c-0.26,1.12-0.73,2.51-1.39,4.16
		l2.67,25.24h0.89c4.09-6.07,7.32-11.66,9.7-16.77c2.37-5.11,3.56-9.06,3.56-11.83c0-1.52-0.45-3-1.34-4.45
		c-0.89-1.45-2.03-2.54-3.41-3.27l0.4-1.68l8.02-2.18c1.12,0.73,1.98,1.75,2.57,3.07c0.59,1.32,0.89,2.81,0.89,4.45
		c0,3.36-1.65,8.38-4.95,15.04c-3.3,6.66-8.12,14.81-14.45,24.44h-5.74l-1.48-1.19l-2.08-19.59h-0.69
		c-1.25,2.44-2.87,5.31-4.85,8.61c-1.98,3.3-4.49,7.36-7.52,12.17h-5.74l-1.48-1.19c-0.07-3.56-0.28-7.49-0.64-11.78
		c-0.36-4.29-0.79-8.54-1.29-12.77c-0.5-4.22-1.04-7.95-1.63-11.18c-0.26-1.52-0.68-2.56-1.24-3.12c-0.56-0.56-1.5-0.84-2.82-0.84
		c-0.4,0-1.12,0.05-2.18,0.15c-1.06,0.1-2.05,0.21-2.97,0.35l0.3-3.76c1.98-0.26,4.39-0.63,7.22-1.09c2.84-0.46,5.31-0.89,7.42-1.29
		L354,45.9c0.72,6,1.27,12.19,1.63,18.56c0.36,6.37,0.51,13.08,0.45,20.14H356.97z"/>
</g>
</svg>
