<?xml version="1.0" encoding="utf-8"?>
<!-- Generator: Adobe Illustrator 25.4.1, SVG Export Plug-In . SVG Version: 6.00 Build 0)  -->
<svg version="1.1" id="Layer_1" xmlns="http://www.w3.org/2000/svg" xmlns:xlink="http://www.w3.org/1999/xlink" x="0px" y="0px"
	 viewBox="0 0 246.72 292.02" style="enable-background:new 0 0 246.72 292.02;" xml:space="preserve">
<style type="text/css">
	.st0{fill:none;stroke:#AEADAE;stroke-miterlimit:10;}
</style>
<path class="st0" d="M153.1,43.11c1.84,4.21,3.84,7.78,5.09,11.65c1.46,4.48,3.35,8.86,3.47,13.69c0.04,1.45,0.44,2.82,0.92,4.2
	c0.4,1.15,0.7,2.38,0.82,3.59c0.59,5.61,1.14,11.23,1.65,16.85c0.14,1.64-0.09,3.27-0.45,4.9c-0.45,1.99-0.25,3.96,0.27,5.93
	c1.79,6.84,5.71,12.17,11.28,16.47c3.27,2.53,5.8,5.8,7.74,9.49c1.59,3.02,3.96,5.52,5.65,8.46c3.5,6.05,5.29,12.69,6.42,19.52
	c1.08,6.46,0.37,12.91-0.4,19.34c-0.44,3.72-0.82,7.46-1.22,11.18c-0.58,5.51,0.21,10.86,1.84,16.12c1.3,4.23,1.76,8.68,3.27,12.85
	c2.01,5.53,2.88,11.5,6.07,16.61c2.81,4.52,4.04,9.66,5.51,14.68c0.84,2.91,0.39,5.84-0.61,8.75c-1.88,5.47-5.18,9.83-9.63,13.44
	c-2.37,1.92-4.03,4.48-5.62,7.08c-1.51,2.49-2.95,5.08-5.45,6.78c-3.27,2.21-6.96,3.38-10.8,2.74c-7.32-1.21-14.7-1.51-22.05-2.22
	c-3.99-0.38-7.64-1.59-10.36-4.8c-1.71-2.03-2.99-4.32-3.88-6.81c-2.9-8.14-6.85-15.75-11.55-22.95
	c-3.41-5.24-8.13-9.17-13.13-12.87c-4.46-3.31-8.95-6.55-13.9-9.11c-4.42-2.28-7.53-6.12-11.1-9.44
	c-8.73-8.09-14.59-17.98-18.72-29.01c-0.77-2.07-1.47-4.17-1.68-6.4c-0.12-1.29-0.37-2.58-0.9-3.74c-2.06-4.48-2.43-9.19-2.29-14.01
	c0.06-2.1,0-4.21-0.03-6.31c-0.07-5.64-2.85-9.84-6.76-13.66c-4.8-4.7-10.45-8.57-14.55-13.94c-6.42-8.41-12.72-16.93-16.94-26.76
	c-4.78-11.16-8.13-22.65-7.84-34.91c0.16-6.91,1.48-13.59,4.64-19.8c1.19-2.35,2.67-4.51,4.48-6.42c1.94-2.07,3.72-2.36,6.19-0.94
	c2.59,1.49,4.38,3.83,6.41,5.94c6.95,7.22,13.64,14.65,20.14,22.27c4.52,5.29,8.46,11,12.3,16.76c1.95,2.93,4.47,5.37,6.6,8.12
	c2.95,3.83,5.44,7.98,7.92,12.14c1.31,2.22,2.75,4.34,3.25,6.94c0.21,1.09,0.86,0.67,1.26,0.13c0.61-0.82,1.15-1.71,1.68-2.57
	c3.69-5.85,9.41-8.35,15.9-9.43c3.03-0.5,6.1-0.71,9.17-1.05c1.22-0.14,1.59-0.71,1.05-1.89c-3.68-8.04-6.22-16.5-7.58-25.15
	c-1.22-7.77-3.94-14.98-6.37-22.32c-2.1-6.33-2.6-12.87-3.01-19.42c-0.21-3.24-0.44-6.45-0.93-9.66c-0.56-3.49-0.31-7.06-1.16-10.55
	c-0.4-1.61,2.02-3.7,4.07-4.07c7.62-1.36,14.03,1.1,19.7,6.1c0.77,0.69,1.69,1.16,2.63,1.61c1.26,0.59,2.43,1.32,3.49,2.24
	c1.21,1.04,2.51,1.92,4,2.58c2.07,0.93,3.46,2.67,4.78,4.47C147.71,31.82,151.12,37.36,153.1,43.11z M130.82,24.36
	c-0.42-0.91-1.01-1.68-1.71-2.37c-1.24-1.22-2.72-1.62-4.2-0.78c-1.09,0.62-1.57,0.2-2.34-0.49c-1.71-1.56-3.71-2.6-6.09-2.56
	c-2.97,0.06-4.16,2-2.91,4.66c0.24,0.51,0.5,1.01,0.68,1.56c0.33,0.99,0.14,1.74-0.88,2.31c-1.72,0.93-1.93,2.02-0.83,3.64
	c1.24,1.85,2.87,3.25,5.04,3.83c3.22,0.88,6.18,2.19,8.57,4.6c0.17,0.19,0.41,0.31,0.64,0.44c0.44,0.26,0.89,0.7,1.4,0.47
	c0.63-0.3,0.46-1.02,0.36-1.52c-0.42-2.25,0.39-4.05,1.65-5.86C131.92,29.82,131.92,27.08,130.82,24.36z M29.39,67.81
	c0.47,0.89,1.98,1.97,3.51,3c2.91,1.92,6.11,3.36,8.82,5.6c0.34,0.29,0.81,0.46,1.23,0.59c0.62,0.18,1.11,0.05,1.18-0.76
	c0.22-3.09,1.61-5.82,2.67-8.64c0.64-1.72,1.25-3.49,1.23-5.36c-0.03-2.84-2.74-5.29-5.47-4.56c-1.84,0.49-2.86-0.18-4-1.31
	c-1.22-1.2-2.56-2.39-4.46-1.48c-1.91,0.93-1.93,2.71-1.88,4.5c0.01,0.3-0.01,0.64,0.11,0.91c0.68,1.6,0.04,2.27-1.55,2.66
	C28.74,63.46,28.08,65.13,29.39,67.81z M118.45,129.12c4.49-2.15,6.76-5.86,6.57-9.99c-0.04-0.99-0.07-1.97,0.34-2.89
	c0.57-1.29-0.08-1.95-1.23-2.03c-3.93-0.27-7.85,0.02-11.3,2.1c-2.62,1.59-5.02,3.57-7.19,5.76c-0.83,0.83-1.67,1.67-2.13,2.8
	c-0.35,0.86-0.22,1.49,0.72,1.85c2.1,0.84,4.17,1.77,6.29,2.54C113.45,130.36,116.36,130.07,118.45,129.12z M113.87,188.29
	c5.1-2.83,6.98-7.93,9.59-12.45c0.44-0.75-0.06-1.48-0.77-1.96c-0.78-0.51-1.48-0.27-2.1,0.28c-1.14,1-1.86,2.33-2.45,3.7
	c-1.12,2.57-2.95,4.4-5.41,5.67c-3.68,1.91-7.36,3.53-11.75,2.44c-3.41-0.85-6.63-2.15-9.92-3.3c-2.06-0.71-2.62-0.66-3.92,0.79
	c-0.6,0.67-0.72,1.11,0.37,1.32c2.4,0.45,4.47,1.62,6.62,2.74C100.62,190.91,107.28,190.48,113.87,188.29z M162.56,165.97
	c4.03-2.06,7.36-5.49,9.55-10.13c1.66-3.53,1.78-7.34,2.41-11.08c0.11-0.64-0.2-1.05-0.79-1.32c-2.24-1.03-3.65-0.28-3.8,2.18
	c-0.11,1.81-0.34,3.59-0.86,5.31c-1.37,4.54-3.16,8.8-7.7,11.19c-3.46,1.81-6.92,3.37-10.99,2.05c-1.06-0.34-2.21-0.46-3.35-0.3
	c-0.63,0.08-1.34,0.17-1.39,0.94c-0.05,0.68,0.66,0.88,1.18,1.02c1.58,0.44,3.22,0.7,4.77,1.21
	C155.2,168.23,158.65,167.79,162.56,165.97z M132.28,145.89c-0.62-1-1.44-2.17-2.41-3.23c-2.3-2.53-5.26-4.4-7.18-7.35
	c-0.87-1.34-2.17-0.95-2.71,0.64c-0.55,1.62-0.21,3.25,0.19,4.85c1.06,4.2,2.87,7.94,6.65,10.39c1.71,1.12,3.32,1.05,4.56-0.02
	C132.93,149.82,133.3,148.05,132.28,145.89z M191.81,259.92c4.18-1.96,6.57-5.02,6.13-9.74c-0.23-2.56-0.97-4.91-2.43-7.04
	c-0.95-1.39-2.14-2.48-3.77-3.04c-0.67-0.23-1.34-0.19-1.82,0.42c-0.4,0.51-0.38,1.12,0.01,1.57c2.27,2.67,1.73,5.89,1.77,8.96
	c0.02,1.98-0.6,3.84-1.54,5.58c-0.66,1.23-1.99,1.75-2.83,2.78c-0.39,0.48-0.89,0.98-0.35,1.61c0.47,0.56,1.07,0.72,1.79,0.35
	C189.77,260.87,190.81,260.41,191.81,259.92z M168.3,272.32c0.92-0.37,1.72-1.08,2.53-1.81c0.57-0.52,1.29-0.98,0.94-1.9
	c-0.33-0.85-1.14-0.5-1.75-0.59c-0.3-0.04-0.62-0.01-0.93-0.02c-3.63-0.2-6.94-1.33-9.75-3.7c-1.81-1.5-2.6-3.48-2.78-5.78
	c-0.04-0.62-0.39-1.05-1.08-1.09c-0.84-0.04-1.12,0.59-1.13,1.19c-0.08,3.3-0.6,6.6,1.52,9.65
	C159.04,272.85,163.71,274.54,168.3,272.32z M135.26,108.11c-2.3,1.41-4.44,2.71-6.43,4.27c-0.56,0.43-1.26,0.95-1.09,1.74
	c0.2,0.91,1.15,0.95,1.88,1.04c2.85,0.35,5.72,0.37,8.59,0.31c1.46-0.03,2.82-0.49,3.91-1.57c1.28-1.27,1.89-3.7,1.14-5.12
	c-0.87-1.63-2.42-1.95-4.09-1.87C137.7,106.99,136.37,107.51,135.26,108.11z M104.8,134.28c-0.81,0.46-1.46,1.01-2.05,1.67
	c-0.66,0.77-1.3,1.61-2.09,2.21c-2.34,1.8-3.16,4.19-3,7.02c0.11,2.08,0.96,3.34,2.4,3.72c1.57,0.41,3.28-0.3,4.38-1.84
	c1.1-1.54,1.68-3.3,1.76-5.16c0.09-2,0.29-3.96,0.78-5.92c0.16-0.6,0.36-1.36-0.32-1.84C106.02,133.71,105.38,134.16,104.8,134.28z
	 M115.5,137.72c-0.24-0.51-0.32-0.7-0.42-0.88c-0.25-0.44-0.46-1.02-1.1-0.86c-0.53,0.13-0.57,0.65-0.56,1.14
	c0.02,0.93-0.55,1.62-0.95,2.39c-1.79,3.39-3.25,6.85-2.71,10.84c0.19,1.42,0.92,2.35,2.32,2.72c1.77,0.48,3.09-0.35,3.98-2.48
	C117.96,146.07,116.61,141.74,115.5,137.72z M142.8,91.38c1.59-0.6,1.77-1.1,0.66-2.43c-1.7-2.02-3.79-3.59-6.16-4.74
	c-1.64-0.79-3.39-0.71-5.08-0.07c-2.23,0.85-2.73,2.79-1.24,4.65C133.46,91.88,138.55,92.99,142.8,91.38z M129.95,231.03
	c-2.96-5-5.6-6.1-11.11-4.46c-0.7,0.21-1.32,0.62-1.31,1.51c0.01,0.91,0.69,1.21,1.39,1.42c0.89,0.26,1.8,0.43,2.69,0.64
	c3.22,0.73,5.25,3.2,5.32,6.43c0.01,0.71,0.06,1.43,0.13,2.16c0.07,0.8,0.25,1.55,1.3,1.59c1.01,0.04,1.75-0.36,1.96-1.36
	C130.94,236.2,130.68,233.46,129.95,231.03z M120.65,220.3c0.58,0.74,1.23,1.71,2.05,2.56c0.73,0.78,1.48,0.7,1.82-0.44
	c0.99-3.34,1.79-6.76,2.07-10.23c0.18-2.18-1.31-3.97-3.11-4.12c-1.62-0.14-3.27,1.25-3.63,3.33
	C119.33,214.32,119.67,217.22,120.65,220.3z M148.06,79.54c3.35-1.49,6.1-6.35,5.93-9.99c-0.08-1.85-0.86-2.36-2.46-1.38
	c-1.61,0.98-3.21,2.03-4.63,3.26c-1.96,1.69-3.12,3.93-3.42,6.51c-0.21,1.86,0.85,2.67,2.65,2.19
	C146.92,79.93,147.68,79.66,148.06,79.54z M140.13,138.74c1.19-0.66,1.53-1.82,1.56-3.1c0.05-1.54-0.56-2.8-2-3.34
	c-3.03-1.13-6.15-2.02-9.44-1.84c-0.83,0.04-1.78,0.16-2.09,1.01c-0.33,0.86,0.36,1.54,0.96,2.1c1.94,1.86,4.19,3.3,6.52,4.61
	C137,138.96,138.52,139.23,140.13,138.74z M135.95,223.71c0.96-0.47,2.65-1.24,3.61-2.94c0.9-1.58,0.79-3.32-0.25-4.44
	c-1.01-1.08-2.61-1.29-4.25-0.43c-3.34,1.74-5.06,4.81-6.34,8.16c-0.43,1.13,0.19,1.77,1.43,1.64
	C131.96,225.51,133.61,224.79,135.95,223.71z M70.01,123.42c0.5,0.87,1.13,1.97,2.52,1.85c1.23-0.09,1.34-1.3,1.62-2.17
	c0.68-2.1,1.27-4.22,1.81-6.35c0.3-1.2,0.24-2.45-0.01-3.66c-0.5-2.47-1.84-2.9-3.77-1.24C69.08,114.53,68.1,119.46,70.01,123.42z
	 M137.04,70.21c-1.85-3.98-6.69-6.62-11-6.02c-1.97,0.27-2.66,1.86-1.5,3.46c0.73,1.01,1.63,1.91,2.76,2.39
	c2.5,1.04,5.05,1.96,7.6,2.86c0.76,0.27,1.63,0.49,2.26-0.34C137.72,71.77,137.3,70.99,137.04,70.21z M51.62,111.49
	c-0.36,0.2-0.73,0.39-1.06,0.64c-1.35,0.99-2.04,2.57-1.65,3.87c0.48,1.6,1.83,1.82,3.18,1.92c2.79,0.21,5.56,1.1,8.4,0.42
	c0.55-0.14,1.33,0.32,1.66-0.42c0.32-0.75-0.13-1.44-0.58-1.98c-1.47-1.73-3.14-3.27-5.19-4.28
	C54.84,110.9,53.24,110.65,51.62,111.49z M183.74,207.89c1.76,2.46,4.35,3.53,7.04,4.39c0.93,0.29,1.21-0.52,1.19-1.33
	c-0.04-0.87-0.58-1.44-1.34-1.71c-1.11-0.41-1.78-1.22-2.11-2.29c-0.48-1.5-1.01-3.01-1.2-4.6c-0.18-1.54-0.16-3.08,0.66-4.48
	c0.66-1.14,0.05-1.47-0.93-1.58c-1.62-0.18-3.1,0.85-3.82,2.71C182.02,202.05,183.11,204.95,183.74,207.89z M69.8,126.68
	c-0.22-0.16-0.44-0.44-0.72-0.51c-1-0.27-1.65-1.01-2.33-1.69c-2.66-2.71-6.28-3.5-9.71-1.93c-1.06,0.48-2.56,0.9-2.51,2.38
	c0.04,1.35,1.46,1.69,2.48,2.23c0.31,0.17,0.68,0.25,0.99,0.43c3.65,2.04,7.44,0.45,11.16,0.43C69.94,128,69.93,127.34,69.8,126.68z
	 M94.48,130.19c-1.54,0.86-2.93,1.62-4.31,2.42c-2.18,1.27-2.86,3.66-1.61,5.48c1.16,1.66,3.51,1.74,5.42,0.09
	c2.26-1.96,3.7-4.64,5.81-6.73c0.45-0.45,0.52-1.13,0.24-1.74c-0.33-0.69-0.99-0.69-1.6-0.63
	C96.99,129.16,95.65,129.69,94.48,130.19z M184.88,178.75c-0.21-0.67-0.64-1.18-1.06-1.69c-1.28-1.59-2.99-1.43-3.97,0.35
	c-0.53,0.99-0.57,2.07-0.43,3.15c0.49,3.65,2.2,6.69,4.77,9.27c0.42,0.42,0.9,0.99,1.57,0.81c0.79-0.22,0.76-1.05,0.82-1.68
	C186.89,185.42,186.16,182.04,184.88,178.75z M136.66,37.71c0.9-0.65,1.94-1.09,2.76-1.89c1.55-1.53,1.74-3.32,0.51-4.96
	c-1.18-1.59-3.39-2.04-5.1-1.05c-3.07,1.78-4.67,8.59-2.71,11.55c0.08,0.13,0.2,0.23,0.3,0.36c0.26,0.32,0.56,0.76,0.97,0.61
	c0.46-0.15,0.32-0.71,0.26-1.09c-0.28-1.9,0.66-2.88,2.4-3.3C136.25,37.86,136.44,37.78,136.66,37.71z M145.63,68.41
	c1.98-0.93,3.22-2.11,4.01-3.74c0.75-1.53,1.18-3.16,1.5-4.83c0.2-1.04,0.71-2.32-0.26-3.03c-0.97-0.69-1.92,0.34-2.73,0.86
	c-2.85,1.8-5.43,3.89-6.15,7.47c-0.23,1.16-0.35,2.4,0.81,3.23C143.86,69.12,144.94,68.75,145.63,68.41z M115.32,219.2
	c-1.59-2.48-2.83-5.28-4.83-7.58c-0.83-0.96-1.82-1.56-3.11-0.92c-1.19,0.58-1.65,1.98-1.21,3.48c0.45,1.55,1.3,2.9,2.33,4.13
	c1.77,2.15,3.72,4.11,6.19,5.45c0.48,0.26,1.05,0.58,1.59,0.15c0.53-0.43,0.33-1.07,0.19-1.58
	C116.14,221.29,115.72,220.29,115.32,219.2z M63.45,94.88c-0.35-0.49-0.77-1.43-1.93-1.49c-1.07-0.05-1.67,0.68-2.18,1.45
	c-0.31,0.46-0.56,0.98-0.75,1.51c-0.98,2.73-1.08,5.53-0.46,8.34c0.16,0.68,0.46,1.38,0.86,1.96c0.91,1.29,2.35,1.11,3-0.33
	c0.5-1.12,1-2.25,1.48-3.38C64.54,100.4,64.85,97.81,63.45,94.88z M169.88,186.28c-0.89,0.58-1.96,1.23-1.86,2.53
	c0.11,1.62,0.94,2.95,2.39,3.73c1.63,0.87,3.31,1.62,4.99,2.4c1.23,0.57,2.57,0.75,3.9,0.79c1.26,0.03,1.8-0.74,1.03-1.73
	c-2.12-2.68-4.05-5.56-6.99-7.49C172.27,185.81,171.12,185.74,169.88,186.28z M131.77,120.92c-0.97,0.58-2.18,0.99-1.99,2.3
	c0.18,1.29,1.42,1.55,2.49,1.67c1.38,0.14,2.55,0.69,3.73,1.34c0.8,0.45,1.64,0.87,2.56,1.02c1.88,0.32,4.02-1.03,4.41-2.77
	c0.38-1.69-0.66-3.4-2.64-3.92C137.44,119.82,134.54,119.87,131.77,120.92z M150.5,91.41c2.99-2,5.39-4.48,5.83-8.34
	c0.1-0.92,0.19-1.93-0.74-2.5c-0.85-0.53-1.71-0.12-2.46,0.34c-3.01,1.83-4.87,4.64-6.38,7.7c-0.41,0.82-0.77,1.83-0.1,2.62
	c0.69,0.82,1.75,0.74,2.73,0.49C149.74,91.64,150.08,91.53,150.5,91.41z M51.4,67.8c-2.25,1.09-4.88,7.76-3.97,10.09
	c0.48,1.25,1.84,1.47,2.63,0.25c1.22-1.87,2.93-2.9,4.87-3.79c2.06-0.95,2.71-2.56,1.88-4.21C55.76,68.1,53.13,66.96,51.4,67.8z
	 M64.92,114.65c0.41,0.55,0.62,1.56,1.67,1.37c0.96-0.16,1.04-1.09,1.08-1.83c0.08-1.63,0.81-2.91,1.75-4.16
	c0.64-0.85,1.23-1.78,1.64-2.76c0.98-2.32-0.5-4.92-2.98-5.41c-0.98-0.2-1.82,0.03-2.21,0.93
	C64.25,106.59,63.26,110.46,64.92,114.65z M116.03,37.92c-0.27,0.16-0.56,0.28-0.79,0.47c-0.99,0.79-1.93,1.65-1.69,3.06
	c0.22,1.34,1.33,1.85,2.48,2.26c1.45,0.51,2.81,0.09,4.22-0.21c4.61-1,4.35-1.13,6.66,2.22c0.27,0.39,0.58,0.63,1.01,0.48
	c0.41-0.15,0.59-0.55,0.54-0.99c-0.12-1.11-0.58-2.09-1.3-2.9c-2.2-2.43-4.91-4.02-8.12-4.7C117.99,37.39,116.97,37.42,116.03,37.92
	z M181.44,224.51c1.09-0.71,2.08-1.49,2.44-2.73c0.65-2.22,0.77-4.53,1.03-6.81c0.11-0.9-0.45-1.32-1.29-1.35
	c-0.88-0.04-1.84-0.03-2.48,0.61c-1.9,1.88-3.62,3.93-4.41,6.56c-0.41,1.41,0.16,2.52,1.24,3.37
	C179.07,225,180.28,224.95,181.44,224.51z M55.4,108.88c1.12-0.49,1.23-1.05,0.62-1.68c-2.14-2.16-4.63-3.73-7.69-4.14
	c-1.35-0.19-2.64,0.19-3.71,1.13c-0.7,0.62-1.71,1.03-1.58,2.24c0.15,1.33,1.03,2.12,2.19,2.52
	C48.73,110.14,52.21,109.3,55.4,108.88z M41.13,94.89c-1.1,0.58-1.83,1.52-1.75,2.81c0.08,1.27,0.97,2.02,2.15,2.31
	c2.44,0.59,4.88,1.11,7.34,1.63c0.45,0.09,0.92,0.05,1.37-0.01c0.79-0.11,1.49-0.45,1.8-1.24c0.32-0.85-0.31-1.39-0.83-1.83
	c-2.06-1.72-4.35-3.07-6.92-3.91C43.25,94.28,42.18,94.38,41.13,94.89z M144.16,249.23c-0.6-1.17-1.48-1.84-2.55-2.27
	c-1.42-0.57-2.87-1.1-4.31-1.59c-0.73-0.25-1.47-0.44-2.22-0.61c-0.5-0.11-1.06-0.2-1.41,0.29c-0.33,0.45-0.01,0.89,0.22,1.28
	c0.99,1.74,2.02,3.46,3.37,4.93c0.91,0.99,1.96,1.85,3.29,2.16c1.14,0.25,2.37,0.58,3.29-0.52
	C144.8,251.73,144.56,250.42,144.16,249.23z M57.55,85.45c-3.61,1.71-6.03,9.07-4.13,12.61c0.19,0.36,0.39,0.77,0.85,0.8
	c0.51,0.04,0.71-0.42,0.82-0.8c0.6-1.98,1.96-3.41,3.23-4.97c1.49-1.83,2.28-4.01,1.55-6.47C59.49,85.39,58.61,84.96,57.55,85.45z
	 M140.9,224.27c-2.2,1.33-3.98,3.08-5.54,5.05c-0.25,0.32-0.54,0.72-0.32,1.12c0.25,0.5,0.78,0.39,1.23,0.32
	c1.67-0.27,3.36-0.34,5.05-0.28c1.13,0.04,2.23-0.34,3.27-0.73c1.64-0.61,2.56-2.64,2.07-4.31c-0.44-1.51-1.77-2.18-3.74-1.8
	C142.23,223.77,141.58,224.05,140.9,224.27z M172.76,208.75c-1.09,0.35-2.07,1.48-2.58,3.03c-0.32,0.96-0.37,1.96,0.4,2.75
	c0.82,0.86,1.89,1.05,2.98,0.75c0.99-0.27,1.87-0.8,2.7-1.43c1.3-1,2.48-2.14,3.95-2.92c1.4-0.74,1.41-1.39,0.07-2.32
	C177.96,206.97,175.6,207.61,172.76,208.75z M192.4,220.48c-0.46-0.97-0.91-1.95-1.4-2.91c-0.2-0.39-0.29-0.96-0.9-0.9
	c-0.51,0.05-0.79,0.49-0.97,0.91c-0.18,0.42-0.39,0.89-0.35,1.32c0.15,1.46-0.15,2.87-0.35,4.28c-0.13,0.97-0.22,1.95,0.01,2.91
	c0.52,2.19,2.38,3.78,3.93,3.42c1.62-0.38,2.64-2.93,2.08-5.06C194.06,222.97,193.24,221.73,192.4,220.48z M31.51,77.3
	c-1.02,0.58-2,1.3-2.04,2.62c-0.04,1.37,0.97,2.09,2.04,2.66c1.23,0.66,2.57,0.7,3.9,0.57c1.52-0.15,3.03-0.52,4.54,0.14
	c0.48,0.21,1.05,0.12,1.38-0.37c0.35-0.52,0.03-1.02-0.28-1.41c-1.44-1.92-3.09-3.59-5.45-4.34C34.25,76.72,32.89,76.63,31.51,77.3z
	 M177.6,202.81c1.05-0.49,1.19-0.89,0.6-1.65c-0.34-0.44-0.78-0.82-1.22-1.15c-2.41-1.8-5.27-1.79-8.08-1.96
	c-1.4-0.08-2.99,0.01-3.37,1.7c-0.38,1.67,1.06,2.43,2.27,3.08C171.14,204.61,174.48,203.26,177.6,202.81z M139.76,81.46
	c1.03-0.49,1.2-1.34,0.3-2.21c-2.99-2.94-6.55-4.69-10.79-4.87c-0.76-0.03-1.61-0.1-1.96,0.82c-0.34,0.9,0.33,1.45,0.89,1.94
	c2.61,2.25,5.6,3.77,8.98,4.47C138.04,81.77,138.92,81.77,139.76,81.46z M137.66,235.59c-1.17,0.54-1.46,1.33-0.14,2.2
	c2.12,1.4,4.48,2.29,6.98,2.64c1.75,0.24,3.48-1.01,3.91-2.54c0.37-1.35-0.51-2.69-2.31-3.54c-0.47-0.23-0.95-0.34-1.48-0.35
	C142.43,233.92,140.35,234.38,137.66,235.59z M172.62,172.39c-1.47-2.04-3.14-3.76-5.36-4.85c-0.73-0.37-1.57-0.72-2.33-0.1
	c-0.77,0.65-0.76,1.57-0.42,2.42c0.95,2.4,2.28,4.6,4.03,6.5c0.74,0.81,1.72,1.46,2.88,0.89c1.15-0.58,1.66-1.64,1.52-2.95
	C172.89,173.65,172.74,173,172.62,172.39z M141.2,60.06c1.75-1.94,3.58-4.6,5.23-7.37c0.09-0.16,0.07-0.4,0.07-0.61
	c-0.02-1.29-1-2.09-2.25-1.84c-3.61,0.72-6.76,5.25-6.15,8.81C138.37,60.62,139.18,61.04,141.2,60.06z M111.11,198.17
	c0.66,1.42,1.31,2.53,2.36,3.33c1.22,0.94,2.4,0.75,3.3-0.51c0.66-0.93,0.87-1.96,0.47-3.06c-0.87-2.43-2.4-4.4-4.44-5.93
	c-1.15-0.86-2.01-0.5-2.4,0.91C109.87,194.85,110.51,196.65,111.11,198.17z M174.98,162.19c0.8,1.37,2.09,3.07,4.03,4.17
	c1.49,0.85,2.67,0.7,3.6-0.38c1.01-1.19,1.09-2.69,0.07-3.96c-1.56-1.94-3.63-3.02-6.1-3.19
	C174.26,158.66,173.69,159.58,174.98,162.19z M101.26,193.87c-0.84-1.98-1.66-2.09-2.76-0.61c-1.45,1.96-2.06,4.2-1.97,6.64
	c0.02,0.75,0.29,1.42,0.73,1.99c0.74,0.95,1.61,1.84,2.94,1.54c1.43-0.32,1.88-1.49,1.95-2.79
	C102.28,198.2,101.83,195.84,101.26,193.87z M78.35,129.58c-0.71-1.73-2.31-2.52-3.83-1.89c-2.03,0.83-3.35,3.95-2.53,5.99
	c0.68,1.67,3.06,2.52,4.86,1.73C78.66,134.62,79.34,131.96,78.35,129.58z M121.95,187.23c0.89,1.45,2.25,2.71,4.21,3.21
	c1.22,0.31,2.24-0.01,2.98-1.04c0.72-1,0.8-2.08,0.22-3.19c-0.89-1.73-3.51-3.13-5.42-2.9
	C121.74,183.55,120.88,185.05,121.95,187.23z M135.78,61.79c-1.27-2.24-2.89-4.05-5.16-5.21c-1.09-0.56-2.22-0.75-3.42-0.46
	c-1.62,0.39-1.99,1.36-0.81,2.49c2.26,2.18,4.81,3.98,7.83,5c0.56,0.19,1.26,0.52,1.72-0.02C136.46,63,135.94,62.35,135.78,61.79z
	 M157.1,173.31c-0.47-1.11-1.2-2.04-2.12-2.8c-0.61-0.5-1.3-0.9-2.11-0.57c-0.82,0.35-1.04,1.08-1.06,1.89
	c-0.09,2.21,0.41,4.27,1.64,6.14c0.56,0.86,1.25,1.58,2.38,1.3c1.22-0.3,1.92-1.18,2.07-2.41
	C158.05,175.59,157.69,174.41,157.1,173.31z M91.54,190.48c-0.84-1.86-1.93-1.99-3.15-0.36c-1.37,1.83-1.78,3.91-1.55,6.11
	c0.12,1.15,0.83,2.19,1.92,2.62c0.99,0.39,1.5-0.64,2.1-1.22C93.12,195.44,92.49,192.97,91.54,190.48z M148.84,96.56
	c-0.95-1.95-2.5-2.71-4.06-1.99c-1.74,0.81-2.82,3.37-2.08,4.96c0.92,1.97,3.41,3.02,5.13,2.14
	C149.54,100.81,149.94,98.83,148.84,96.56z M180.36,146.82c-0.83,0.55-1.91,0.96-2.68,1.82c-0.39,0.44-0.72,1.01,0.01,1.41
	c2,1.07,4.06,2.05,6.4,1.61c1.77-0.33,2.54-1.4,2.36-3.02c-0.18-1.67-1.25-2.59-3.04-2.58
	C182.39,146.05,181.41,146.34,180.36,146.82z M50.16,87.6c-0.92-1.97-2.64-2.93-4.11-2.3c-1.78,0.77-2.49,3.44-1.48,5.5
	c0.88,1.78,2.57,2.43,4.2,1.64C50.59,91.56,51.13,89.67,50.16,87.6z M135.02,53.94c1.58-0.74,2.06-2.13,1.27-3.68
	c-1.12-2.18-3.06-2.25-5.09-0.16c-0.71,0.73-1.55,1.53-1.02,2.66c0.51,1.13,1.57,1.56,2.78,1.59
	C133.66,54.39,134.37,54.3,135.02,53.94z"/>
</svg>
