<?xml version="1.0" encoding="utf-8"?>
<!-- Generator: Adobe Illustrator 25.4.1, SVG Export Plug-In . SVG Version: 6.00 Build 0)  -->
<svg version="1.1" id="Layer_1" xmlns="http://www.w3.org/2000/svg" xmlns:xlink="http://www.w3.org/1999/xlink" x="0px" y="0px"
	 viewBox="0 0 246.72 292.02" style="enable-background:new 0 0 246.72 292.02;" xml:space="preserve">
<style type="text/css">
	.st0{fill:none;stroke:#AEADAE;stroke-miterlimit:10;}
</style>
<path class="st0" d="M174.71,46.19c0.66,4.55,1.65,8.52,1.83,12.58c0.22,4.71,0.88,9.43-0.28,14.12c-0.34,1.41-0.32,2.84-0.22,4.29
	c0.08,1.22,0.04,2.48-0.16,3.68c-0.92,5.57-1.87,11.13-2.87,16.68c-0.3,1.62-0.95,3.13-1.73,4.6c-0.96,1.8-1.29,3.76-1.31,5.79
	c-0.08,7.07,2.29,13.25,6.52,18.87c2.48,3.31,4.06,7.13,4.95,11.2c0.73,3.33,2.35,6.37,3.21,9.66c1.77,6.76,1.74,13.63,1.03,20.52
	c-0.67,6.52-3.06,12.55-5.5,18.55c-1.41,3.47-2.76,6.98-4.13,10.46c-2.01,5.16-2.67,10.53-2.49,16.03
	c0.14,4.42-0.59,8.84-0.25,13.25c0.48,5.87-0.26,11.85,1.46,17.62c1.51,5.1,1.35,10.38,1.43,15.61c0.04,3.03-1.17,5.73-2.9,8.28
	c-3.26,4.78-7.59,8.11-12.85,10.42c-2.8,1.23-5.08,3.25-7.29,5.34c-2.12,2-4.19,4.12-7.05,5.09c-3.74,1.27-7.6,1.42-11.14-0.21
	c-6.73-3.1-13.77-5.35-20.68-7.97c-3.74-1.42-6.95-3.56-8.72-7.37c-1.11-2.41-1.74-4.95-1.94-7.59c-0.64-8.62-2.44-17-5.06-25.19
	c-1.9-5.95-5.42-11-9.26-15.89c-3.43-4.37-6.9-8.68-11-12.46c-3.66-3.37-5.65-7.9-8.21-12.04c-6.28-10.11-9.31-21.2-10.38-32.93
	c-0.2-2.2-0.31-4.41,0.07-6.62c0.23-1.27,0.33-2.59,0.12-3.85c-0.8-4.86,0.09-9.51,1.49-14.12c0.62-2.01,1.11-4.06,1.64-6.1
	c1.42-5.46-0.14-10.25-2.91-14.96c-3.38-5.8-7.81-11.02-10.34-17.29c-3.97-9.81-7.79-19.69-9.26-30.29
	c-1.66-12.03-1.85-23.99,1.68-35.74c1.98-6.62,5.03-12.71,9.71-17.87c1.77-1.95,3.77-3.64,6.02-5.01c2.42-1.49,4.21-1.3,6.22,0.73
	c2.1,2.12,3.21,4.85,4.61,7.43c4.79,8.8,9.28,17.74,13.53,26.81c2.96,6.3,5.25,12.84,7.43,19.42c1.11,3.34,2.89,6.36,4.22,9.58
	c1.84,4.47,3.14,9.13,4.42,13.8c0.68,2.49,1.5,4.91,1.3,7.55c-0.09,1.1,0.65,0.87,1.18,0.46c0.81-0.63,1.56-1.34,2.3-2.03
	c5.11-4.67,11.28-5.56,17.82-4.89c3.06,0.32,6.07,0.93,9.12,1.41c1.21,0.19,1.72-0.26,1.51-1.54c-1.42-8.72-1.63-17.55-0.66-26.26
	c0.88-7.81,0.16-15.49-0.24-23.21c-0.35-6.66,0.9-13.1,2.23-19.53c0.65-3.18,1.28-6.34,1.65-9.56c0.39-3.52,1.57-6.89,1.67-10.48
	c0.04-1.66,2.92-3.04,5-2.84c7.71,0.71,13.24,4.78,17.38,11.09c0.56,0.87,1.32,1.57,2.11,2.24c1.06,0.91,1.99,1.92,2.77,3.08
	c0.89,1.32,1.92,2.51,3.17,3.55c1.76,1.44,2.63,3.48,3.43,5.58C172.5,33.88,174.32,40.12,174.71,46.19z M158.18,22.22
	c-0.16-0.98-0.53-1.89-1.02-2.74c-0.87-1.51-2.2-2.28-3.84-1.86c-1.21,0.31-1.57-0.22-2.12-1.09c-1.24-1.95-2.89-3.49-5.2-4.08
	c-2.88-0.72-4.54,0.83-4.04,3.72c0.1,0.56,0.21,1.11,0.25,1.68c0.05,1.04-0.32,1.72-1.46,1.99c-1.91,0.44-2.39,1.44-1.76,3.29
	c0.71,2.11,1.91,3.89,3.85,5.03c2.87,1.7,5.38,3.74,7.05,6.7c0.12,0.23,0.31,0.4,0.5,0.59c0.35,0.37,0.68,0.91,1.22,0.82
	c0.69-0.12,0.71-0.87,0.75-1.37c0.19-2.28,1.45-3.8,3.15-5.22C157.8,27.78,158.52,25.14,158.18,22.22z M48.87,37.29
	c0.21,0.99,1.39,2.43,2.6,3.82c2.3,2.62,5.01,4.85,7.03,7.73c0.25,0.37,0.66,0.66,1.04,0.89c0.55,0.34,1.06,0.35,1.34-0.42
	c1.03-2.92,3.09-5.18,4.86-7.63c1.08-1.49,2.13-3.03,2.6-4.85c0.72-2.75-1.25-5.83-4.07-5.84c-1.9-0.02-2.71-0.93-3.51-2.33
	c-0.86-1.48-1.83-2.98-3.91-2.61c-2.08,0.39-2.58,2.1-3,3.84c-0.07,0.3-0.18,0.62-0.13,0.9c0.23,1.72-0.56,2.2-2.2,2.16
	C49.39,32.92,48.32,34.36,48.87,37.29z M118.54,119.98c4.9-0.88,8.07-3.87,8.98-7.89c0.22-0.96,0.45-1.91,1.09-2.69
	c0.89-1.1,0.44-1.9-0.64-2.29c-3.72-1.3-7.58-2.06-11.45-0.96c-2.95,0.84-5.78,2.12-8.46,3.65c-1.02,0.59-2.05,1.17-2.79,2.14
	c-0.56,0.73-0.6,1.38,0.2,1.98c1.81,1.37,3.55,2.81,5.4,4.12C113.39,119.85,116.27,120.34,118.54,119.98z M98.48,175.83
	c5.67-1.38,8.83-5.8,12.54-9.47c0.62-0.61,0.33-1.45-0.23-2.09c-0.62-0.7-1.35-0.65-2.1-0.28c-1.37,0.66-2.41,1.76-3.34,2.92
	c-1.76,2.18-4.01,3.46-6.72,4.03c-4.05,0.87-8.03,1.46-11.98-0.75c-3.07-1.72-5.82-3.83-8.7-5.81c-1.8-1.23-2.35-1.33-3.99-0.28
	c-0.76,0.49-0.99,0.88,0.01,1.37c2.2,1.07,3.89,2.74,5.66,4.4C85,174.85,91.54,176.2,98.48,175.83z M151.33,167.17
	c4.43-0.92,8.55-3.35,11.89-7.25c2.54-2.96,3.66-6.61,5.25-10.05c0.27-0.59,0.09-1.07-0.41-1.49c-1.89-1.58-3.45-1.23-4.25,1.1
	c-0.58,1.71-1.28,3.37-2.23,4.89c-2.52,4.02-5.37,7.65-10.39,8.76c-3.82,0.83-7.57,1.42-11.14-0.93c-0.93-0.6-2.01-1.03-3.15-1.18
	c-0.63-0.09-1.34-0.19-1.59,0.54c-0.23,0.64,0.4,1.03,0.86,1.3c1.41,0.84,2.92,1.53,4.28,2.43
	C143.64,167.41,147.08,167.9,151.33,167.17z M127.45,139.8c-0.33-1.12-0.81-2.48-1.47-3.76c-1.55-3.05-3.91-5.64-4.98-8.99
	c-0.49-1.53-1.84-1.49-2.78-0.1c-0.96,1.42-1.06,3.08-1.1,4.73c-0.08,4.33,0.67,8.42,3.66,11.78c1.36,1.53,2.93,1.89,4.41,1.19
	C127.04,143.77,127.85,142.16,127.45,139.8z M154.69,265.52c4.55-0.78,7.67-3.11,8.49-7.77c0.45-2.53,0.36-5-0.48-7.43
	c-0.55-1.59-1.41-2.96-2.83-3.92c-0.59-0.4-1.24-0.54-1.86-0.08c-0.52,0.39-0.67,0.98-0.41,1.52c1.48,3.17,0.11,6.14-0.66,9.11
	c-0.5,1.91-1.59,3.54-2.97,4.97c-0.97,1.01-2.38,1.16-3.47,1.93c-0.5,0.36-1.12,0.71-0.76,1.46c0.31,0.66,0.85,0.97,1.63,0.81
	C152.47,265.9,153.59,265.72,154.69,265.52z M128.74,271.27c0.98-0.11,1.95-0.59,2.92-1.08c0.69-0.34,1.5-0.6,1.41-1.58
	c-0.09-0.91-0.96-0.78-1.53-1.03c-0.28-0.12-0.59-0.17-0.89-0.27c-3.45-1.16-6.34-3.12-8.43-6.15c-1.35-1.93-1.59-4.05-1.15-6.31
	c0.13-0.61-0.1-1.12-0.75-1.33c-0.8-0.27-1.24,0.27-1.41,0.85c-0.95,3.16-2.32,6.21-1.09,9.71
	C119.67,269.33,123.73,272.18,128.74,271.27z M140.31,104.16c-2.59,0.75-5,1.44-7.33,2.42c-0.65,0.27-1.47,0.59-1.51,1.39
	c-0.05,0.93,0.85,1.22,1.54,1.5c2.66,1.09,5.42,1.87,8.2,2.57c1.42,0.35,2.85,0.27,4.18-0.48c1.57-0.88,2.8-3.07,2.45-4.64
	c-0.41-1.8-1.82-2.52-3.45-2.88C142.96,103.72,141.54,103.88,140.31,104.16z M104.01,121.34c-0.9,0.23-1.68,0.58-2.42,1.06
	c-0.84,0.56-1.68,1.2-2.61,1.58c-2.73,1.12-4.16,3.21-4.75,5.98c-0.44,2.04,0.05,3.48,1.33,4.23c1.41,0.81,3.24,0.58,4.71-0.62
	c1.47-1.2,2.49-2.74,3.07-4.51c0.61-1.91,1.32-3.74,2.32-5.5c0.31-0.54,0.71-1.21,0.18-1.86
	C105.34,121.11,104.6,121.38,104.01,121.34z M113.42,127.48c-0.1-0.56-0.12-0.76-0.18-0.96c-0.13-0.49-0.17-1.11-0.83-1.12
	c-0.55-0.01-0.72,0.48-0.84,0.95c-0.23,0.9-0.96,1.42-1.55,2.05c-2.62,2.8-4.94,5.75-5.48,9.74c-0.19,1.42,0.27,2.51,1.52,3.24
	c1.58,0.93,3.07,0.48,4.5-1.34C113.59,136.19,113.43,131.66,113.42,127.48z M152.01,90.02c1.69-0.16,2-0.59,1.28-2.17
	c-1.1-2.4-2.71-4.47-4.69-6.2c-1.38-1.2-3.08-1.58-4.88-1.41c-2.38,0.23-3.37,1.97-2.43,4.15
	C142.86,88.03,147.48,90.45,152.01,90.02z M102.68,221.3c-1.53-5.61-3.78-7.36-9.53-7.24c-0.73,0.02-1.43,0.25-1.66,1.11
	c-0.23,0.88,0.34,1.35,0.97,1.73c0.78,0.49,1.62,0.89,2.43,1.33c2.91,1.55,4.22,4.48,3.43,7.61c-0.18,0.69-0.32,1.4-0.44,2.11
	c-0.14,0.79-0.17,1.56,0.83,1.88c0.96,0.31,1.79,0.11,2.25-0.79C102.26,226.54,102.73,223.83,102.68,221.3z M96.54,208.49
	c0.37,0.86,0.74,1.98,1.3,3.01c0.5,0.94,1.24,1.07,1.87,0.05c1.84-2.96,3.51-6.04,4.7-9.32c0.75-2.06-0.22-4.18-1.9-4.8
	c-1.53-0.57-3.48,0.34-4.38,2.25C96.85,202.37,96.42,205.26,96.54,208.49z M160.21,80c3.62-0.55,7.56-4.51,8.36-8.07
	c0.41-1.8-0.21-2.5-2-1.98c-1.81,0.52-3.64,1.11-5.33,1.92c-2.33,1.12-4.05,2.96-5.02,5.38c-0.7,1.73,0.11,2.8,1.97,2.81
	C159.01,80.07,159.81,80.01,160.21,80z M136.9,134.98c1.32-0.32,1.95-1.35,2.33-2.58c0.45-1.47,0.2-2.85-1.05-3.75
	c-2.63-1.9-5.4-3.57-8.62-4.28c-0.82-0.18-1.76-0.31-2.28,0.42c-0.55,0.75-0.06,1.58,0.37,2.28c1.38,2.3,3.17,4.29,5.06,6.17
	C133.82,134.37,135.23,135.03,136.9,134.98z M110.4,215.82c1.05-0.2,2.88-0.49,4.26-1.88c1.28-1.29,1.64-2.99,0.93-4.35
	c-0.69-1.31-2.18-1.94-3.99-1.54c-3.68,0.8-6.16,3.3-8.27,6.2c-0.72,0.98-0.29,1.76,0.95,1.96
	C106.07,216.51,107.86,216.25,110.4,215.82z M73.34,101.66c0.25,0.97,0.57,2.2,1.94,2.45c1.21,0.24,1.63-0.89,2.14-1.67
	c1.21-1.85,2.34-3.73,3.43-5.65c0.61-1.08,0.88-2.3,0.96-3.53c0.17-2.52-1.01-3.29-3.3-2.2C74.79,92.84,72.54,97.34,73.34,101.66z
	 M152.05,68.08c-0.74-4.32-4.7-8.15-9.02-8.72c-1.97-0.25-3.05,1.09-2.36,2.94c0.43,1.16,1.07,2.27,2.03,3.04
	c2.14,1.66,4.35,3.23,6.57,4.76c0.66,0.46,1.44,0.9,2.27,0.27C152.3,69.76,152.09,68.9,152.05,68.08z M58.75,85.3
	c-0.4,0.1-0.81,0.18-1.19,0.33c-1.57,0.6-2.65,1.94-2.62,3.29c0.04,1.66,1.28,2.24,2.56,2.69c2.64,0.94,5.07,2.53,7.99,2.62
	c0.57,0.01,1.2,0.66,1.71,0.04c0.51-0.63,0.26-1.42-0.04-2.06c-0.96-2.06-2.16-3.98-3.88-5.5C62.01,85.58,60.54,84.92,58.75,85.3z
	 M160.67,213.21c1.04,2.84,3.26,4.55,5.62,6.1c0.82,0.53,1.31-0.18,1.5-0.97c0.19-0.85-0.18-1.54-0.84-2.01
	c-0.97-0.69-1.39-1.64-1.43-2.76c-0.06-1.58-0.18-3.17,0.06-4.75c0.23-1.53,0.66-3.01,1.82-4.14c0.94-0.92,0.44-1.41-0.48-1.77
	c-1.51-0.6-3.22,0-4.41,1.6C160.56,207.12,160.84,210.2,160.67,213.21z M72.27,104.76c-0.17-0.21-0.31-0.54-0.56-0.68
	c-0.89-0.53-1.32-1.41-1.8-2.25c-1.85-3.32-5.13-5.03-8.85-4.43c-1.15,0.19-2.71,0.19-3.05,1.63c-0.31,1.31,0.96,2.02,1.8,2.81
	c0.26,0.24,0.59,0.42,0.84,0.68c2.98,2.93,7.06,2.4,10.65,3.37C72.06,106.07,72.22,105.43,72.27,104.76z M95.14,114.66
	c-1.71,0.42-3.26,0.78-4.79,1.2c-2.44,0.65-3.72,2.77-3,4.86c0.68,1.9,2.92,2.61,5.21,1.52c2.7-1.29,4.8-3.49,7.39-4.95
	c0.55-0.31,0.8-0.95,0.69-1.61c-0.13-0.75-0.77-0.92-1.38-1.04C97.83,114.34,96.4,114.49,95.14,114.66z M169.47,185.41
	c-0.02-0.7-0.31-1.31-0.58-1.91c-0.82-1.87-2.51-2.17-3.92-0.71c-0.78,0.81-1.1,1.85-1.24,2.93c-0.49,3.65,0.35,7.03,2.14,10.2
	c0.3,0.52,0.61,1.19,1.3,1.2c0.82-0.01,1.01-0.81,1.24-1.4C169.65,192.37,169.84,188.91,169.47,185.41z M160.28,36.63
	c1.04-0.39,2.16-0.54,3.17-1.1c1.9-1.06,2.56-2.74,1.8-4.65c-0.72-1.84-2.73-2.87-4.64-2.36c-3.43,0.9-6.77,7.05-5.67,10.43
	c0.05,0.15,0.13,0.28,0.19,0.43c0.17,0.38,0.34,0.88,0.78,0.85c0.48-0.03,0.5-0.6,0.54-0.98c0.23-1.91,1.4-2.6,3.19-2.55
	C159.85,36.67,160.05,36.64,160.28,36.63z M160.81,68.61c2.16-0.37,3.66-1.18,4.86-2.55c1.13-1.28,1.97-2.74,2.73-4.26
	c0.47-0.95,1.3-2.04,0.55-2.99c-0.75-0.92-1.95-0.18-2.86,0.11c-3.22,0.98-6.27,2.32-7.91,5.57c-0.53,1.06-0.97,2.23-0.07,3.33
	C158.92,68.83,160.05,68.76,160.81,68.61z M91.7,206.02c-0.88-2.81-1.33-5.84-2.65-8.59c-0.55-1.14-1.35-1.99-2.76-1.71
	c-1.3,0.24-2.12,1.47-2.09,3.03c0.03,1.61,0.49,3.14,1.15,4.59c1.14,2.55,2.5,4.95,4.53,6.89c0.39,0.38,0.86,0.84,1.49,0.57
	s0.6-0.94,0.6-1.48C91.93,208.25,91.79,207.18,91.7,206.02z M74.56,72.4c-0.21-0.56-0.36-1.58-1.47-1.94
	c-1.02-0.33-1.79,0.21-2.49,0.83c-0.42,0.36-0.8,0.8-1.12,1.25c-1.67,2.37-2.51,5.05-2.65,7.92c-0.03,0.69,0.08,1.45,0.31,2.12
	c0.54,1.49,1.97,1.7,2.98,0.48c0.78-0.95,1.56-1.9,2.32-2.87C74.15,78.02,75.13,75.61,74.56,72.4z M153.03,188.7
	c-1.01,0.33-2.21,0.67-2.46,1.94c-0.32,1.59,0.13,3.09,1.32,4.23c1.34,1.27,2.76,2.43,4.18,3.63c1.04,0.88,2.28,1.4,3.55,1.79
	c1.21,0.36,1.93-0.24,1.45-1.4c-1.33-3.15-2.44-6.44-4.76-9.07C155.45,188.88,154.36,188.51,153.03,188.7z M133.56,115.59
	c-1.09,0.3-2.37,0.38-2.53,1.69c-0.17,1.29,0.96,1.87,1.96,2.27c1.29,0.5,2.28,1.34,3.24,2.28c0.66,0.65,1.35,1.27,2.2,1.66
	c1.73,0.81,4.15,0.07,4.99-1.5c0.82-1.53,0.26-3.46-1.51-4.48C139.31,116.03,136.51,115.31,133.56,115.59z M159.42,92.08
	c3.41-1.14,6.38-2.9,7.83-6.5c0.34-0.86,0.7-1.81-0.05-2.61c-0.68-0.74-1.61-0.57-2.46-0.33c-3.39,0.97-5.92,3.18-8.18,5.74
	c-0.61,0.68-1.23,1.56-0.79,2.5c0.45,0.98,1.49,1.18,2.51,1.2C158.63,92.1,158.99,92.09,159.42,92.08z M70.1,43.11
	c-2.46,0.45-6.75,6.19-6.5,8.68c0.13,1.33,1.39,1.91,2.47,0.94c1.67-1.48,3.6-2.02,5.7-2.37c2.24-0.37,3.29-1.75,2.92-3.56
	C74.22,44.55,71.99,42.75,70.1,43.11z M70.75,91.86c0.25,0.64,0.19,1.67,1.25,1.77c0.97,0.1,1.3-0.78,1.52-1.48
	c0.51-1.55,1.55-2.6,2.79-3.55c0.85-0.65,1.66-1.39,2.31-2.23c1.56-1.98,0.82-4.87-1.44-6c-0.9-0.45-1.77-0.45-2.38,0.31
	C72.23,83.91,70.25,87.38,70.75,91.86z M140.33,31.38c-0.3,0.08-0.61,0.12-0.89,0.24c-1.17,0.5-2.3,1.08-2.44,2.5
	c-0.14,1.35,0.8,2.14,1.8,2.83c1.26,0.87,2.69,0.83,4.13,0.91c4.71,0.25,4.49,0.06,5.83,3.9c0.15,0.45,0.39,0.77,0.85,0.73
	c0.44-0.04,0.72-0.37,0.79-0.81c0.17-1.1,0-2.17-0.49-3.14c-1.47-2.93-3.67-5.17-6.59-6.68C142.36,31.39,141.37,31.15,140.33,31.38z
	 M154.06,228.63c1.24-0.39,2.4-0.89,3.07-1.99c1.21-1.97,1.94-4.17,2.8-6.29c0.34-0.84-0.08-1.39-0.88-1.65
	c-0.84-0.27-1.76-0.51-2.56-0.07c-2.33,1.31-4.53,2.83-5.99,5.16c-0.77,1.25-0.51,2.47,0.31,3.58
	C151.64,228.47,152.82,228.75,154.06,228.63z M63.09,83.78c1.21-0.17,1.47-0.69,1.04-1.45c-1.49-2.65-3.48-4.82-6.32-6.03
	c-1.25-0.54-2.6-0.52-3.88,0.11c-0.84,0.42-1.92,0.54-2.11,1.74c-0.2,1.32,0.43,2.32,1.45,3.01C56.33,83.23,59.9,83.34,63.09,83.78z
	 M53.03,66.51c-1.21,0.27-2.17,0.98-2.43,2.24c-0.26,1.25,0.4,2.21,1.46,2.8c2.2,1.22,4.42,2.36,6.65,3.51
	c0.41,0.21,0.87,0.29,1.32,0.35c0.79,0.1,1.55-0.04,2.06-0.72c0.54-0.73,0.07-1.43-0.32-1.98c-1.53-2.21-3.38-4.11-5.64-5.6
	C55.24,66.49,54.17,66.3,53.03,66.51z M111.56,242.6c-0.27-1.28-0.94-2.17-1.86-2.86c-1.22-0.92-2.48-1.82-3.74-2.68
	c-0.64-0.44-1.3-0.81-1.99-1.17c-0.45-0.23-0.97-0.47-1.44-0.09c-0.44,0.35-0.24,0.85-0.13,1.29c0.49,1.94,1.03,3.87,1.95,5.64
	c0.62,1.19,1.4,2.3,2.6,2.95c1.03,0.54,2.13,1.19,3.31,0.37C111.52,245.18,111.64,243.86,111.56,242.6z M71.36,61.76
	c-3.94,0.69-8.22,7.15-7.32,11.07c0.09,0.4,0.17,0.85,0.61,0.99c0.48,0.17,0.8-0.22,1.01-0.55c1.11-1.75,2.79-2.77,4.43-3.94
	c1.92-1.37,3.26-3.27,3.21-5.83C73.25,62.21,72.51,61.56,71.36,61.76z M115.02,217.68c-2.47,0.7-4.65,1.92-6.68,3.4
	c-0.33,0.24-0.71,0.56-0.61,0.99c0.11,0.55,0.64,0.59,1.1,0.63c1.68,0.19,3.33,0.56,4.94,1.07c1.09,0.33,2.24,0.26,3.35,0.16
	c1.74-0.16,3.17-1.87,3.13-3.6c-0.03-1.58-1.13-2.57-3.13-2.73C116.44,217.55,115.73,217.64,115.02,217.68z M149.86,211.14
	c-1.14,0.05-2.39,0.88-3.29,2.24c-0.57,0.84-0.87,1.79-0.35,2.76c0.56,1.04,1.54,1.51,2.67,1.51c1.03,0,2.02-0.28,2.98-0.67
	c1.52-0.62,2.96-1.41,4.58-1.77c1.55-0.34,1.72-0.97,0.68-2.22C155.34,210.79,152.89,210.78,149.86,211.14z M165.69,227.64
	c-0.19-1.06-0.36-2.12-0.57-3.18c-0.09-0.42-0.03-1.01-0.63-1.11c-0.51-0.09-0.89,0.27-1.18,0.62c-0.28,0.35-0.61,0.76-0.68,1.18
	c-0.24,1.45-0.9,2.72-1.47,4.04c-0.38,0.9-0.72,1.82-0.76,2.81c-0.07,2.25,1.3,4.27,2.88,4.33c1.66,0.06,3.32-2.12,3.35-4.33
	C166.63,230.48,166.17,229.07,165.69,227.64z M48.41,47c-1.14,0.29-2.28,0.72-2.66,1.99c-0.4,1.31,0.38,2.27,1.26,3.11
	c1.01,0.97,2.29,1.35,3.61,1.58c1.51,0.26,3.06,0.3,4.34,1.34c0.4,0.33,0.98,0.39,1.43,0.01c0.48-0.41,0.29-0.97,0.11-1.44
	c-0.88-2.23-2.03-4.28-4.11-5.63C51.2,47.17,49.91,46.73,48.41,47z M156.09,206.68c1.15-0.2,1.38-0.54,1.01-1.43
	c-0.21-0.51-0.54-0.99-0.87-1.43c-1.85-2.38-4.61-3.12-7.27-4.02c-1.33-0.45-2.89-0.78-3.7,0.75c-0.8,1.51,0.38,2.63,1.37,3.57
	C149.38,206.71,152.97,206.29,156.09,206.68z M151.7,79.65c1.12-0.2,1.51-0.97,0.88-2.05c-2.1-3.62-5.07-6.26-9.12-7.55
	c-0.73-0.23-1.53-0.52-2.1,0.28c-0.56,0.78-0.07,1.49,0.35,2.11c1.92,2.86,4.41,5.11,7.47,6.68
	C149.96,79.5,150.81,79.73,151.7,79.65z M108.9,227.73c-1.27,0.21-1.76,0.89-0.72,2.08c1.67,1.91,3.71,3.4,6.04,4.39
	c1.62,0.69,3.63-0.06,4.44-1.42c0.71-1.2,0.22-2.73-1.29-4.03c-0.39-0.34-0.83-0.58-1.34-0.72
	C113.95,227.39,111.82,227.28,108.9,227.73z M159.34,176.03c-0.88-2.35-2.04-4.45-3.89-6.1c-0.61-0.55-1.33-1.11-2.22-0.71
	c-0.92,0.43-1.15,1.32-1.04,2.22c0.28,2.56,0.98,5.04,2.17,7.34c0.5,0.98,1.27,1.87,2.55,1.62c1.26-0.26,2.04-1.15,2.25-2.45
	C159.26,177.32,159.29,176.65,159.34,176.03z M158.75,59.39c2.2-1.4,4.67-3.48,6.99-5.73c0.13-0.13,0.17-0.37,0.22-0.57
	c0.33-1.25-0.41-2.28-1.69-2.37c-3.67-0.26-7.91,3.28-8.26,6.87C155.87,59.18,156.54,59.8,158.75,59.39z M93.2,184.63
	c0.26,1.55,0.6,2.78,1.39,3.83c0.93,1.22,2.12,1.36,3.32,0.38c0.89-0.73,1.35-1.66,1.27-2.83c-0.19-2.57-1.15-4.88-2.71-6.89
	c-0.88-1.14-1.8-1.01-2.55,0.24C92.88,181.09,93.03,183,93.2,184.63z M164.31,166.82c0.41,1.54,1.2,3.52,2.78,5.09
	c1.21,1.22,2.39,1.38,3.57,0.59c1.29-0.88,1.76-2.31,1.11-3.8c-0.99-2.28-2.71-3.87-5.04-4.69
	C164.55,163.22,163.76,163.96,164.31,166.82z M84.84,177.87c-0.29-2.13-1.05-2.46-2.5-1.32c-1.92,1.51-3.09,3.51-3.66,5.88
	c-0.18,0.73-0.09,1.45,0.18,2.11c0.46,1.12,1.07,2.2,2.43,2.26c1.46,0.07,2.21-0.94,2.62-2.18
	C84.68,182.31,84.86,179.92,84.84,177.87z M79.75,109.81c-0.23-1.85-1.56-3.04-3.19-2.84c-2.18,0.26-4.27,2.92-4.02,5.11
	c0.21,1.79,2.29,3.24,4.23,2.95C78.72,114.76,80.07,112.37,79.75,109.81z M106.55,176.94c0.47,1.64,1.46,3.21,3.21,4.21
	c1.09,0.62,2.16,0.58,3.15-0.22c0.96-0.77,1.32-1.8,1.06-3.02c-0.4-1.91-2.56-3.94-4.46-4.23
	C107.32,173.33,106.09,174.56,106.55,176.94z M153.07,59.63c-0.63-2.5-1.72-4.67-3.59-6.39c-0.9-0.83-1.94-1.31-3.17-1.35
	c-1.66-0.05-2.28,0.78-1.44,2.19c1.6,2.7,3.59,5.11,6.23,6.89c0.49,0.33,1.07,0.83,1.67,0.43C153.4,60.97,153.07,60.21,153.07,59.63
	z M144.13,172.81c-0.16-1.2-0.62-2.29-1.31-3.26c-0.46-0.64-1.02-1.21-1.89-1.11c-0.88,0.12-1.28,0.77-1.52,1.54
	c-0.67,2.11-0.74,4.23-0.04,6.36c0.31,0.98,0.79,1.85,1.96,1.88c1.25,0.03,2.16-0.63,2.63-1.78
	C144.44,175.26,144.4,174.03,144.13,172.81z M76.36,172.04c-0.32-2.02-1.34-2.43-2.94-1.18c-1.81,1.4-2.76,3.3-3.11,5.48
	c-0.19,1.14,0.22,2.33,1.16,3.03c0.85,0.64,1.62-0.22,2.35-0.62C76.57,177.23,76.61,174.69,76.36,172.04z M156.47,96.61
	c-0.4-2.13-1.69-3.28-3.38-2.99c-1.89,0.32-3.61,2.5-3.32,4.23c0.36,2.14,2.48,3.82,4.38,3.42
	C156.01,100.9,156.92,99.09,156.47,96.61z M173.56,153.42c-0.95,0.31-2.1,0.43-3.06,1.05c-0.49,0.32-0.96,0.79-0.37,1.36
	c1.64,1.56,3.37,3.05,5.75,3.24c1.8,0.15,2.82-0.68,3.08-2.29c0.27-1.66-0.52-2.83-2.25-3.29
	C175.73,153.22,174.71,153.23,173.56,153.42z M63.67,61.87c-0.36-2.14-1.77-3.53-3.35-3.3c-1.92,0.27-3.31,2.66-2.88,4.91
	c0.38,1.95,1.83,3.02,3.61,2.69C63.03,65.8,64.05,64.13,63.67,61.87z M154.41,51.86c1.72-0.3,2.55-1.51,2.19-3.22
	c-0.51-2.39-2.35-2.98-4.87-1.5c-0.88,0.51-1.9,1.06-1.69,2.3c0.2,1.22,1.1,1.92,2.26,2.27C152.98,51.93,153.68,52.03,154.41,51.86z
	"/>
</svg>
