<?xml version="1.0" encoding="utf-8"?>
<!-- Generator: Adobe Illustrator 25.4.1, SVG Export Plug-In . SVG Version: 6.00 Build 0)  -->
<svg version="1.1" id="Layer_1" xmlns="http://www.w3.org/2000/svg" xmlns:xlink="http://www.w3.org/1999/xlink" x="0px" y="0px"
	 viewBox="0 0 542.86 239.62" style="enable-background:new 0 0 542.86 239.62;" xml:space="preserve">
<style type="text/css">
	.st0{fill:#F58470;}
	.st1{fill:#FCC497;}
	.st2{fill:#69C6B7;}
	.st3{fill:#06B0AB;}
	.st4{fill:#F4772B;}
	.st5{fill:#DD6A27;}
	.st6{fill:#F4772C;}
	.st7{fill:#FDD0B1;}
	.st8{fill:#FFFDFB;}
</style>
<path class="st0" d="M144.47,44.41c-0.58-1.37-0.97-2.83-1.98-3.99c-0.36-0.9-0.72-1.81-1.08-2.72c-1.7-4.25-4.29-7.63-8.77-9.3
	c-2.31-0.87-3.72-0.34-4.65,1.83c-1.07,2.52-2.06,5.1-3.79,7.29c0.06,1.66-0.56,2.97-1.96,3.9c-0.19,0.06-0.36,0.1-0.52,0.1
	c-0.03,0.04-0.06,0.07-0.09,0.11c-1.87,4.11-3.99,8.1-4.92,12.6c-0.81,3.94-1.36,8.01-2.86,11.73c-2.48,6.14-4.12,12.5-5.54,18.92
	c-0.4,1.83-1.11,2.2-2.67,1.33c-0.57-0.32-1.17-0.61-1.77-0.87c-4.99-2.18-10.03-3.25-15.23-0.68c-0.3,0.14-0.62,0.21-0.97-0.19
	c0.19-6.14,0.1-12.35-0.86-18.57c-1.1-7.13-0.99-14.41-2.51-21.52c-0.75-3.53-1.45-7.09-1.89-10.69l-0.03-0.06
	c-0.06-0.01-0.12-0.03-0.18-0.05c-1.63-0.9-1.44-2.47-1.49-3.96c-0.01-0.03-0.03-0.05-0.05-0.08c-0.8-1.87-0.74-3.97-1.65-5.83
	c-1.01-2.07-2.39-2.92-4.72-2.11c-4.44,1.54-8.06,4.16-10.95,7.85c0.01,0.01,0.02,0.01,0.03,0.02c0.8,1.4,2.15,2.18,3.45,3h0.01
	l-0.01-0.01c1.13-0.37,2.16-0.72,2.58-2.11c0.34-1.13,1.23-2,2.6-1.85c1.29,0.14,1.63,1.2,1.98,2.24c0.27,0.78,0.63,1.52,0.95,2.27
	v0.01c1.19-0.55,2.32-0.7,3.18,0.57c1.05,1.55,0.17,2.68-0.8,3.81v0.01c-0.61,2.19-2.59,3.11-4.2,4.28
	c-1.24,0.9-2.06,3.02-3.42,2.77c-1.48-0.27-1.43-2.57-2.22-3.9c-0.68-1.13-1.83-2.12-1.62-3.66c-1.8-1.15-3.61-2.3-5.41-3.44
	c-0.01-0.01-0.02-0.03-0.03-0.04c0,0.01-0.01,0.01-0.01,0.01c-0.92,0.76-1.37,1.84-1.9,2.84c-7,13.41-7.56,27.7-5.75,42.3
	c0.61,4.93,2.65,9.48,3.86,14.26c0.97,3.84,0.66,7.35-1.57,10.59c-4.45,6.46-6.45,13.82-7.67,21.36
	c-1.89,11.72,0.03,22.9,5.86,33.32c2.22,3.97,3.85,8.19,5.22,12.49c2.53,7.91,1.64,15.94,0.19,23.91
	c-1.05,5.82,0.13,10.55,5.44,13.86c3.7,2.31,7.11,5.02,10.52,7.75c3.09,2.48,6.82,3.65,10.61,1.79c4.17-2.04,8.54-3.27,12.95-4.61
	c5.16-1.57,8.89-4.79,10.26-10.55c1.51-6.32,1.43-12.84,3.25-19.15c2.66-9.2,5.02-18.41,11.83-25.66c0.78-0.84,1.43-1.81,2.13-2.72
	c9.25-12.02,10.14-25.4,6.4-39.51c-0.8-3.03-1.4-6.02-0.98-9.21c0.44-3.33,2.38-5.78,4-8.55c4.12-7.01,7.19-14.55,9.35-22.42
	c1.47-5.34,1.93-10.86,2.38-16.32C147.19,54.18,147.62,48.96,144.47,44.41z M127.34,40.25c0.74-0.78,1.51-0.1,2.27,0.07
	c0.17-0.78,0.4-1.55,0.48-2.34c0.11-1.02,0.26-2.01,1.39-2.35c1.13-0.33,2.09,0.19,2.88,0.96c0.46,0.45,0.94,0.98,1.14,1.57
	c0.5,1.54,1.55,2.48,2.93,3.15c0.01,0.01,0.03,0.01,0.04,0.01c1.87,1.96,1.88,2.94,0.08,4.41c-0.01,0-0.01,0.01-0.02,0.01
	c0.5,1.1,0.26,2.11-1.23,2.82c-1.92,0.91-3.43,2.13-4.58,4.68c-1.12-3.74-3.08-6.32-5.07-8.88c-0.2-0.53-0.37-1.08-0.6-1.6
	C126.63,41.85,126.65,40.98,127.34,40.25z M132.23,65.61c1.05-2,2.85-2.54,4.93-2.56c0.88,0.03,1.95-0.16,2.23,0.98
	c0.28,1.14-0.7,1.55-1.52,1.91c-1.41,0.61-2.81,1.32-4.29,1.64C132.02,67.91,131.44,67.12,132.23,65.61z M129.62,59.86
	c0.06-1.52,1.5-1.58,2.6-1.62c1.25-0.05,1.55,0.99,1.75,1.96c-0.25,1.12-0.86,1.92-2.02,1.76
	C130.79,61.79,129.56,61.25,129.62,59.86z M124.49,47.68c1.16-0.55,2.2-0.41,3.24,0.32c2.57,1.81,3.89,5.41,2.55,8.34
	c0.05-3.32-2.24-3.97-4.6-4.65c-1.15-0.33-1.96-1.23-2.16-2.47C123.4,48.5,123.82,48,124.49,47.68z M129.61,65.89
	c-0.05,0.89,0.08,1.72-0.67,1.93c-0.59,0.16-0.96-0.52-1.3-0.98c-1.04-1.4-1.7-2.99-2.31-4.6c-0.2-0.53-0.37-1.18,0.26-1.54
	c0.54-0.3,1.13-0.12,1.62,0.23C128.99,62.21,129.32,64.16,129.61,65.89z M121.51,65.03c1.04-0.8,1.83,0.11,2.61,0.63
	c2.04,1.37,3.22,3.22,3.07,5.98c-0.1,0.54,0.34,1.57-0.76,1.87c-0.84,0.23-1.39-0.4-1.78-1.04c-1-1.59-2.65-2.71-3.33-4.52
	C120.96,66.98,120.4,65.87,121.51,65.03z M120.9,71.82c1.73,0.59,5.07,5.14,5.01,7.19c-0.05,0.59-0.41,0.94-1.27,0.7
	c-1.67-0.45-5.04-5.16-4.96-6.98C119.72,71.92,119.96,71.51,120.9,71.82z M125.07,91.66c-0.32,1.4-0.63,2.96-2.43,2.91
	c-1.54-0.05-2.3-1.32-2.28-2.72c0.02-1.54,1.19-2.35,2.61-2.42C124.38,89.36,124.91,90.42,125.07,91.66z M119.98,78.96
	c2,0.37,4.98,5.03,4.53,7.01c-0.12,0.54-0.46,0.8-1.04,0.83c-2.5,0.18-6.33-3.52-6.25-6.06C117.29,78.84,118.56,78.7,119.98,78.96z
	 M106.87,97.82c1.2-0.18,2.44-0.16,3.33-0.22c1.64,0.12,2.98-0.19,4.22,0.39c1.29,0.61,2.69,1.32,2.21,3.04
	c-0.47,1.68-1.81,2.58-3.59,2.23c-2.65-0.51-4.65-2.3-6.69-3.91C105.48,98.66,105.98,97.96,106.87,97.82z M103.88,104.46
	c0.42-0.64,1.07-0.67,1.34-0.65c2.32,0.35,3.97,1.26,5.35,2.56c1.04,0.97,1.51,2.26,0.33,3.45c-1.24,1.25-2.62,0.88-3.66-0.26
	c-1.14-1.25-1.84-2.88-3.19-3.99C103.75,105.32,103.61,104.86,103.88,104.46z M104.65,117.19c-0.94-0.11-1.69-0.56-2.26-1.3
	c-1.31-1.71-2.1-3.68-2.7-5.71c-0.39-1.33,0.33-1.91,1.62-1.29c2.18,1.05,3.84,2.76,5.12,4.76
	C107.28,114.97,106.1,117.09,104.65,117.19z M88.47,95.8c4.9-1.56,9.76-2.17,14.4,0.87c1.15,0.75,1.11,1.28,0.39,2.53
	c-1.66,2.84-3.79,4.68-8.19,4.86c-1.93,0-7.16-4.12-7.67-6.85C87.24,96.35,87.88,95.99,88.47,95.8z M108.9,161.01
	c-0.03,0.76,0.16,1.32-0.4,1.6c-0.43,0.21-0.78-0.11-1.1-0.34c-1.93-1.39-3.09-3.39-3.92-5.5c-0.39-0.98-0.44-2.36,1.09-2.83
	c1.42-0.44,2.38,0.15,3,1.42C108.48,157.22,108.39,159.32,108.9,161.01z M108.43,142.35c0.04-0.69,0.43-1.34,1.11-1.5
	c0.75-0.18,1.19,0.45,1.51,1.03c0.68,1.24,1.01,2.6,1.28,3.98c-0.24,1.23-0.39,2.62-1.97,2.73c-1.71,0.12-1.91-1.27-1.97-2.54
	C108.33,144.82,108.36,143.58,108.43,142.35z M105,164.91c0.2,0.96-0.12,1.33-0.89,1.1c-2.22-0.66-4.43-1.37-5.74-3.52
	c-0.46-0.74-0.74-1.62-0.16-2.31c0.63-0.74,1.55-0.48,2.26-0.01C102.39,161.44,104.47,162.58,105,164.91z M94.9,121.35
	c-2.08,0.41-2.69-1.19-3.2-2.67c-1.09-3.22-0.4-6.29,1.09-9.22c0.33-0.64,0.81-1.38,1.65-1.26c0.91,0.13,1.01,1.04,1,1.74
	c-0.02,2.75,1.93,5.08,1.59,7.76C97.25,119.55,96.83,120.97,94.9,121.35z M98.85,167.98c1.13-0.07,2.29,0.24,3.29,0.85
	c0.85,0.52,1.79,1.25,1.65,2.28c-0.18,1.33-1.47,0.51-2.24,0.71c-0.87,0.24-1.77,0.32-2.67,0.46c-1.33-0.19-2.88-0.31-2.83-2.06
	C96.09,168.65,97.48,168.07,98.85,167.98z M100.6,144.47c-1.24,0.18-1.67-0.99-1.54-2.04c0.21-1.69,0.29-3.88,2.2-4.28
	c1.55-0.32,1.47,1.57,1.69,2.7C102.8,142.51,102.52,144.19,100.6,144.47z M85.73,102.65c1.15,1.56-1.75,2.81-2.55,4.43
	c-0.76,1.54-2.28,2.54-4.14,2.71c-1.68-0.04-2.71-1.36-2.22-3c0.52-1.75,1.66-3.19,3.45-3.49
	C82.14,102.98,84.55,101.05,85.73,102.65z M82.4,96.56c0.61,0.25,1.32,0.43,1.29,1.27c-0.03,0.7-0.64,0.89-1.18,1.08
	c-1.47,0.51-2.94,1.02-4.42,1.52c-1.27,0.43-2.44,0.31-3.39-0.72c-0.57-0.61-0.55-1.38-0.25-2.09c0.57-1.37,1.77-1.57,3.08-1.49
	c0.4,0.05,0.81,0.02,1.22,0.02C79.98,96.2,81.22,96.08,82.4,96.56z M59.4,76.92c0.43-0.82,1.29-0.43,1.92-0.52
	c2.98,0.16,6.36,3.95,6.06,6.74c-0.05,0.5-0.3,0.75-0.8,0.51c-2.48-1.19-5.2-2.05-6.65-4.71C59.58,78.31,59,77.69,59.4,76.92z
	 M60.91,68.08c2.03-0.41,3.56,0.35,4.42,2.26c0.7,1.56,1.5,3.13,0.87,5.02c-2.73-0.58-4.61-2.48-6.55-4.19
	C58.5,70.15,59.26,68.41,60.91,68.08z M69.64,85.61c1.43-0.09,2.13,0.92,1.93,2.23c-0.23,1.48-0.81,2.88-2.69,3.01
	c-1.32-0.26-2.42-0.98-2.36-2.37C66.61,86.68,67.92,85.72,69.64,85.61z M75.06,62.8c-0.28,2-3.16,5.34-5.2,5.81
	c-1.49,0.35-1.53-0.74-1.49-1.89c0.73-2.31,1.93-4.39,4.17-5.73c0.6-0.36,1.25-0.55,1.85-0.15C75.07,61.29,75.17,62.02,75.06,62.8z
	 M75.89,68.87c0.71,1.38,0.46,2.56-0.81,3.45c-1.53,1.07-3.54,1.41-4.62,3.14c-0.12,0.19-0.41,0.26-0.61,0.37
	c-0.75-0.16-0.85-0.71-0.84-1.31c0.02-2.02,3.09-6.16,4.96-6.73C75.02,67.47,75.49,68.1,75.89,68.87z M70.67,83.17
	c-0.92,0.65-1.8-0.31-1.75-1.8c0.09-2.67,2.88-5.72,5.44-5.92c1.53-0.12,2.27,0.45,1.61,2.02C74.91,80.01,72.82,81.65,70.67,83.17z
	 M72.46,45.4c0.8-0.82,1.6-1.66,2.52-2.33c1.15-0.84,2.47-1.44,3.81-0.34c0.98,0.81,1.25,1.98,0.88,3.13
	c-0.53,1.66-1.97,1.41-3.48,1.3c-0.71-0.02-1.61-0.04-2.47,0.33c-0.61,0.26-1.3,0.56-1.76-0.13C71.46,46.6,71.94,45.93,72.46,45.4z
	 M74.53,54.72c1.17,0.02,1.42,0.64,1.23,1.59c-0.28,1.4-1.28,2.32-2.5,2.83c-1.62,0.69-3.29,1.27-4.82,2.39
	C68.23,58.17,71.54,54.66,74.53,54.72z M67.91,50.62c1.45-0.11,1.84,1.06,1.94,2.3c-0.09,1.44-0.62,2.6-2.21,2.74
	c-1.41,0.12-2.15-0.87-2.13-2.13C65.54,52.05,66.27,50.74,67.91,50.62z M60.56,41.52c0.96-1.19,2.37-0.95,3.55-0.14
	c1.69,1.15,2.23,2.95,2.46,5.05c-0.03,0.6-0.34,1.36-1.11,0.64c-1.17-1.11-2.81-1.35-3.96-2.41C60.58,43.81,59.55,42.77,60.56,41.52
	z M60.29,55.19c0.59-0.64,1.34-0.86,2.23-0.59c1.36,0.41,4.26,4.57,4.15,6.24c-0.27,1.1-1.26,1.13-2,0.54
	c-1.58-1.27-3.03-2.72-4.44-4.18C59.69,56.64,59.71,55.81,60.29,55.19z M59.04,62.04c0.39-0.9,1.3-0.86,2.12-0.89
	c2.12,0.04,5.47,3.79,5.16,5.78c-0.11,0.69-0.58,0.79-1.06,0.62c-2.08-0.74-4.11-1.59-5.67-3.25C59,63.67,58.69,62.86,59.04,62.04z
	 M54.38,132.48c-1.03-0.1-1.09-0.89-1.11-1.61c-0.04-1.48,2.51-4.04,3.86-3.96c1.15,0.07,0.88,0.94,0.92,1.51
	C57.91,130.64,56.04,132.64,54.38,132.48z M58.7,134.39c0.93-1.01,1.97-2.17,3.46-1.93c1.02,0.16,0.56,1.2,0.31,1.84
	c-0.72,1.85-1.02,4.02-3.18,4.82c-0.98-0.1-1.36-0.73-1.63-1.43C57.15,136.33,57.86,135.3,58.7,134.39z M58.03,148.3
	c0.13-1.06,0.5-2.16,1.89-2.18c1.32-0.02,1.54,1.05,1.7,2.02c0.14,0.96,0.13,1.95,0.2,2.93c0.07,1.49-0.13,2.95-0.44,4.39
	c-0.1,0.45-0.37,1.13-0.68,1.2c-0.62,0.16-0.98-0.48-1.21-1C58.43,153.32,57.71,150.9,58.03,148.3z M62.17,170.84
	c-0.65-0.37-0.65-0.92-0.3-1.46c1.95-3.07,1.45-5.7-1.34-7.98c-0.44-0.36-0.83-0.9-0.48-1.51c0.42-0.72,1.16-0.46,1.77-0.33
	c2.73,0.62,4.3,2.6,4.36,5.7c-0.16,1.92-1.14,3.68-2.47,5.28C63.32,171.02,62.77,171.18,62.17,170.84z M67.51,150.6
	c0.83-0.77,1.88-1.17,2.89-0.39c1.03,0.8,1.23,1.95,0.55,3.07c-1.25,2.03-2.96,3.68-4.64,5.35c-0.3,0.3-0.76,0.56-1.1,0.28
	c-0.6-0.49-0.59-1.3-0.72-2.13C64.91,154.51,65.7,152.29,67.51,150.6z M67.84,137.31c0.3-0.6,0.69-1.19,1.47-1.08
	c0.79,0.11,0.97,0.81,1.11,1.46c0.2,0.88,0.34,1.77,0.51,2.65c-0.06,0.86-0.16,1.68-0.75,2.33c-0.5,0.56-1.06,1.09-1.91,0.87
	c-0.73-0.19-1.01-0.82-1.18-1.47C66.64,140.38,67.08,138.82,67.84,137.31z M72.06,159.17c0.59-0.25,1.29-0.22,1.58-0.27
	c1.68,0,2.89,0.3,3.12,1.83c0.24,1.58-0.72,2.45-2.14,2.81c-0.7,0.18-1.5,0.39-2.16,0.22c-1.63-0.43-4.39,0.19-4.56-1.73
	C67.76,160.39,70.45,159.88,72.06,159.17z M66.93,183.36c-1.71,1.02-2.47-0.59-3.13-1.76c-0.65-1.17-0.65-2.53-0.75-3.79
	c0.1-0.75-0.33-1.72,0.45-2.07c0.81-0.37,1.24,0.6,1.7,1.1c0.78,0.83,1.49,1.74,2.16,2.67C68.36,180.9,68.47,182.44,66.93,183.36z
	 M69.55,171.38c1.89,0.43,3.7,0.73,4.89,2.27c0.61,0.8,1.08,1.72,0.17,2.63c-0.75,0.74-1.62,1.09-2.65,0.53
	c-1.72-0.94-2.8-2.5-3.61-4.18C67.72,171.31,68.89,171.45,69.55,171.38z M77.33,202.85c-0.15,0.84-1.05,0.67-1.64,0.8
	c-3.89,0.89-7.31-2.32-7.35-7.01c-0.29-2.21,1.27-3.83,2.37-5.64c0.23-0.37,0.62-0.57,1.06-0.35c0.48,0.24,0.38,0.65,0.24,1.05
	c-1.65,4.53,0.91,7.29,4.09,9.8C76.59,201.88,77.48,202.02,77.33,202.85z M77.81,168.66c-0.47,1.52-1.74,2.02-3.13,1.48
	c-1.8-0.68-3.49-1.63-5.73-2.73c2.59-1.21,4.61-1.83,6.77-1.41C77.07,166.26,78.34,166.92,77.81,168.66z M79.92,141.07
	c-1.92-0.26-2.33-2-2.69-3.54c0.08-1.16,0.42-2.06,1.63-2.16c1.3-0.11,3.14,2.12,3.03,3.64C81.81,140.22,81.08,141.23,79.92,141.07z
	 M80.85,131.88c-8.66,4.91-15.86,2.94-20.8-5.74c-0.64-1.1-1.65-1.81-2.45-2.98c1.14-0.97,2-0.66,2.8,0.32
	c0.98,1.21,2,2.39,3.01,3.58c4.38,5.22,9.54,6.19,15.5,2.92c0.22-0.12,0.43-0.25,0.66-0.33c0.93-0.34,2.01-1.39,2.73,0.1
	C82.92,131.03,81.65,131.42,80.85,131.88z M85.74,115.87c-1.02,0.62-2,0.74-2.92-0.16c-0.84-0.82-0.77-1.74-0.26-2.71
	c0.9-1.72,2.23-3.04,3.82-4.1c1.14-0.75,2.27-1.51,3.46-2.3C90.3,109.73,88.18,114.4,85.74,115.87z M100.47,196.77
	c-0.03,6.13-4.3,9.34-10.04,7.75c-0.5-0.14-1.05-0.24-1.08-0.78c-0.03-0.59,0.54-0.72,1.04-0.84c4.64-1.07,6.63-4.32,7.19-8.74
	c0.07-0.59,0.13-1.21,0.79-1.36c0.66-0.16,1.05,0.38,1.36,0.85C100.36,194.63,100.57,195.75,100.47,196.77z M99.55,180.22
	c-1.37,0.01-2.16-0.45-2.58-1.49c-0.4-0.98-0.07-1.77,0.67-2.43c0.37-0.33,0.75-0.68,1.2-0.86c1.63-0.65,3.2-1.91,5.09-0.74
	c0.54,0.33,0.53,0.87,0.17,1.27C102.68,177.59,101.86,179.91,99.55,180.22z M106.86,181.63c-0.05,1.56-0.01,3.15-1.11,4.44
	c-0.54,0.64-1.21,1.23-2.12,0.95c-1.03-0.31-1.26-1.2-1.25-2.17c0.02-2.58,2.12-3.96,3.44-5.76c0.43-0.59,1.04-0.29,1.04,0.56
	V181.63z M111.23,167.58c-1.58,2.13-2.56,4.39-1.6,7.08c0.23,0.66,0.46,1.34-0.34,1.69c-0.67,0.29-1.03-0.35-1.34-0.81
	c-0.81-1.24-1.73-2.43-1.78-4.17c0.52-2.09,1.06-4.36,3.22-5.69c0.88-0.54,1.98-0.7,2.7,0.21
	C112.83,166.81,111.61,167.07,111.23,167.58z M117.05,154.03c-0.27,2.29-0.96,4.47-2.17,6.45c-0.34,0.55-0.73,1.32-1.4,1.23
	c-0.75-0.1-0.71-1.01-0.86-1.62c-0.18-0.71-0.24-1.45-0.32-1.97c0.08-2.04,0.39-3.8,1.51-5.3c0.49-0.66,1.15-1.25,2.07-0.97
	C116.94,152.17,117.15,153.11,117.05,154.03z M119.89,146.11c-1.38,0.07-2.59-2.23-2.56-4.87c0.18-0.64-0.18-1.81,1.19-1.83
	c1.33-0.02,3.25,2.64,3.31,4.42C121.88,145.2,121.27,146.05,119.89,146.11z M122.31,131.73c-3.72,5.42-8.7,8.09-15.35,6.96
	c-2.98-0.5-6.31-3.28-7.72-6.23c1.17-0.49,1.85,0.37,2.57,0.96c4.97,4.1,10.7,3.98,15.49-0.41c0.96-0.88,1.77-1.93,2.61-2.93
	c0.7-0.83,1.33-1.85,2.6-0.98C123.9,130.05,122.92,130.84,122.31,131.73z M127.21,138.26c-1.21,0.05-4.05-2.3-3.89-3.33
	c0.17-1.13,1.29-0.97,1.97-0.91c1.6,0.13,3.33,0.29,3.83,2.26C128.9,137.43,128.42,138.21,127.21,138.26z M134.03,86.69
	c-1.43,1.75-3.31,2.58-5.2,2.68c-1.42,0.01-2.66,0.01-3.04-1.17c-0.37-1.16,0.82-1.68,1.62-2.14c1.7-0.98,3.49-1.8,5.52-1.75
	c0.56,0.01,1.19-0.02,1.5,0.6C134.78,85.59,134.47,86.16,134.03,86.69z M137.53,77.86c-0.84,1.74-4.28,3.96-6.32,3.9
	c-0.93-0.52-2.66,0.11-2.99-1.44c-0.31-1.4,1.02-2.08,2.02-2.78c1.93-1.35,4.2-1.17,6.37-1.32
	C137.6,76.15,138.04,76.77,137.53,77.86z M139.48,70.9c-1.57,1.71-3.18,3.43-5.75,3.38c-0.88-0.02-1.88-0.1-2.24-1.17
	c-0.31-0.92,0.25-1.56,0.82-2.18c1.65-1.83,3.92-1.87,6.24-2.14c0.51,0.08,1.32-0.05,1.62,0.63C140.43,70,139.86,70.48,139.48,70.9z
	 M140.41,54.37c-0.49,0.06-0.98,0.17-1.46,0.14c-2.52-0.13-2.51-0.14-4.13,1.09c-0.19-2.74,2.17-5.91,4.68-6.28
	c1.76-0.26,2.96,0.54,3.26,2.24C143.05,53.24,142.05,54.15,140.41,54.37z"/>
<path class="st0" d="M144.47,44.41c-0.58-1.37-0.97-2.83-1.98-3.99C144.03,41.31,144.83,42.58,144.47,44.41z"/>
<path class="st1" d="M259.3,83.34c1.25-4.14,1.96-8.45,2.7-12.72c1.08-6.22,0.24-12.48-0.06-18.69c-0.21-4.43-0.96-8.87-3.92-12.72
	c-1.91-2.47-4.11-4.94-4.98-8.12c-1.04,0.69-2.08,0.96-3.14,0.04c-1.22-1.07-0.42-2.27-0.22-3.43l0.01-0.01
	c-1.76-1.77-4.08-2.38-6.36-2.94c-1.61-0.4-3.32-0.33-3.94,1.77c-1.33,4.52-2.65,9.05-3.98,13.57l0.01,0.01
	c0-0.01,0.01-0.01,0.01-0.01c2.9-1.23,5.17-3.31,7.37-5.48c0.01-0.02,0.01-0.04,0.02-0.06c-0.02,0.02-0.03,0.04-0.05,0.06
	c-0.54-2.11,0.04-2.78,2.07-2.39c1.04-0.62,2.1-0.93,3.09,0.02c0.87,0.84,0.81,1.85,0.3,2.88v0.01c0.4,0.38,0.83,1.11,1.19,1.08
	c1.96-0.19,2.99,0.73,3.24,2.53c0.32,2.32-0.06,4.49-2.23,5.84c-1.02,0.64-1.84,1.33-2.29,2.46c-0.2,0.49-0.25,1.25-0.98,1.27
	c-0.69,0.02-0.9-0.66-1.12-1.16c-0.99-2.28-2.72-3.84-4.77-5.13h-0.01c-2.95,1.5-5.74,3.32-8.9,4.39c-0.03,0.06-0.06,0.12-0.11,0.17
	v0.01c0.21,1.83-0.42,3.57-0.57,5.37c-0.36,4.33-0.3,8.77-1.29,12.98c-1.49,6.36-2.26,12.78-2.59,19.27
	c-0.09,1.84-0.75,2.38-2.44,1.75c-0.39-0.15-0.79-0.26-1.18-0.38c-5.26-1.67-10.47-2.26-15.46,0.85c-1.08,0.68-1.38,0.26-1.5-0.86
	c-1.02-9.87-4.36-19.23-6.4-28.88c-0.76-3.57-2.04-7-3.32-10.42c-0.23-0.18-0.44-0.41-0.6-0.7c-2.47-0.9-4.63-2.38-6.94-3.58h-0.01
	c-0.92,3.25-4.2,4.68-5.74,7.46c-0.37,0.68-1,0.35-1.34-0.24c-1.61-2.74-3.94-5-5.29-7.91c-0.44-0.94-0.86-1.94,0.01-2.98
	c0.92-1.09,1.91-0.46,2.9-0.22h0.01c-1.26-2.27-0.18-3.37,1.96-3.94h0.01c1.17-0.98,2.17-0.84,3,0.45v0.01h0.01
	c2.92,1.51,5.85,3.02,8.77,4.53c-1.46-3.8-2.35-7.83-4.45-11.39c-1.15-1.94-2.64-2.41-4.77-1.4c-3.76,1.79-6.4,4.79-9.04,7.83v0.01
	c-0.81,1.36-1.21,3.17-3.38,2.93c1.35,0.63,0.75,1.49,0.32,2.39c-3.22,6.8-4.4,14.05-4.72,21.49c-0.35,8.13,1.34,15.98,3.28,23.8
	c1.3,5.25,4.25,9.78,6.22,14.74c1.41,3.55,1.61,6.93,0.03,10.48c-1.2,2.69-2.59,5.43-3.06,8.29c-1.22,7.44-2.44,14.93-1.06,22.51
	c1.46,8.01,4.16,15.51,8.95,22.17c4.43,6.15,8.88,12.34,10.51,19.91c1.28,5.96,1.55,12.05,1.28,18.15
	c-0.23,5.36,2.08,9.13,6.93,11.43c4.09,1.93,8.06,4.08,11.96,6.39c4.01,2.38,8.18,2.33,12.04-0.52c2.94-2.17,6.18-3.65,9.56-5.01
	c4.75-1.92,8.55-5.07,9.62-10.39c0.55-2.72,0.95-5.61,0.61-8.32c-0.85-6.8,0.23-13.41,1.16-20.07c0.7-5.04,1.27-10.11,3.85-14.66
	c1.71-3.01,3.35-6.04,5.1-9.02c3.81-6.51,5.66-13.74,5.06-21.02c-0.54-6.59-1.47-13.35-4.92-19.42c-2.44-4.3-3.13-9.34-0.93-13.74
	C256.57,92.38,257.93,87.87,259.3,83.34z M256.78,65.34c-1.29,2.1-2.72,4.07-5.35,4.68c-0.98,0.23-1.81,0.07-2.39-0.75
	c-0.62-0.88-0.28-1.69,0.33-2.45c1.67-2.06,4.05-2.6,6.37-3.02C257.05,63.78,257.36,64.39,256.78,65.34z M254.14,44.32
	c1.4-0.11,2.35,0.55,2.79,1.88c0.5,1.48-0.34,2.41-1.49,2.97c-0.86,0.41-1.9,0.67-2.84,0.62c-1.39-0.06-2.1,0.62-2.7,2.16
	C248.81,48.7,251.35,44.54,254.14,44.32z M253.03,58.35c1.3-0.08,2.11-0.08,2.43,0.75c0.33,0.83-0.22,1.44-0.86,1.84
	c-1.31,0.83-2.65,1.62-4.01,2.37c-0.65,0.36-1.39,0.65-2.02-0.05c-0.64-0.72-0.15-1.42,0.18-2.04
	C249.79,59.34,251.48,58.47,253.03,58.35z M247.39,54.38c1.39-0.17,1.86,0.77,2.12,1.88c-0.09,1.25-0.9,1.79-1.97,1.77
	c-1.22-0.02-2.44-0.48-2.45-1.9C245.08,54.8,246.31,54.52,247.39,54.38z M245.23,88.88c-0.19,1.41-0.61,2.78-2.26,2.73
	c-1.5-0.04-2.41-1.27-2.41-2.67c0.01-1.5,1.17-2.34,2.64-2.4C244.71,86.49,244.96,87.74,245.23,88.88z M243.16,70.28
	c-2.25-1.57-4.57-3.22-5.56-5.98c-0.56-1.56,0.24-2.2,1.73-1.96c2.63,0.44,5.45,3.96,5.38,6.79
	C244.6,69.88,244.35,71.1,243.16,70.28z M244.76,63.95c-1.73-1.34-2.81-3.2-3.7-5.16c-0.19-0.41-0.15-0.81,0.22-1.11
	c0.53-0.43,1.06-0.25,1.62-0.02c1.43,0.6,3.33,3.78,3.25,5.95C246.11,64.18,245.61,64.61,244.76,63.95z M238.22,45.08
	c1.04-0.64,2.11-0.79,3.27-0.25c2.86,1.33,4.99,5.32,3.74,7.98c-0.41-3.25-2.6-3.73-5.14-3.96c-1.27-0.12-2.17-1.14-2.61-2.36
	C237.25,45.87,237.7,45.4,238.22,45.08z M237.77,69.36c1.9-0.11,6.46,4.53,6.42,6.36c-0.02,1-0.71,0.95-1.37,0.85
	c-1.55-0.24-5.47-4.44-5.74-6.06C236.95,69.78,237.25,69.45,237.77,69.36z M238.03,76.59c2.27-0.03,5.94,4.01,5.71,6.28
	c-0.07,0.7-0.45,0.97-1.14,1.01c-2.29,0.1-5.88-2.35-6.57-4.52C235.5,77.67,236.26,76.62,238.03,76.59z M228.32,97.22
	c2.55-0.79,5.11-1.68,7.85-0.97c1.48,0.39,2.69,1.23,2.41,2.85c-0.3,1.69-1.64,2.54-3.48,2.69c-2.36-0.66-4.65-1.72-6.83-2.98
	C227.52,98.38,227.2,97.57,228.32,97.22z M226.62,103.97c0.51-0.87,1.41-0.66,2.36-0.71c1.64,0.13,3.17,0.94,4.56,1.97
	c1.15,0.85,1.37,2.19,0.48,3.26c-0.86,1.03-2.2,1.14-3.33,0.26c-1.35-1.06-2.29-2.57-3.82-3.46
	C226.42,105.03,226.33,104.44,226.62,103.97z M196.04,142.14c1.86-0.09,1.66,2.74,2.27,4.19c-0.11,1.56-0.49,2.97-2.07,3.03
	c-1.4,0.05-1.56-1.4-1.85-2.49c-0.02-0.08-0.02-0.16-0.02-0.24C194.41,144.88,194.04,142.23,196.04,142.14z M196.58,155.27
	c0.7-1.09,1.81-1.49,2.99-0.92c1.21,0.59,1.51,1.75,1.03,2.93c-0.9,2.22-2.52,4-3.93,5.89c-0.64,0.86-1.34,0.36-1.63-0.46
	c-0.21-0.59-0.2-1.27-0.23-1.49C194.78,158.75,195.52,156.94,196.58,155.27z M200.74,164c1.04-0.76,2.26-1.34,3.49-1.75
	c1.44-0.47,2.7,0.16,3.22,1.53s-0.37,2.35-1.57,2.93c-1.27,0.61-2.64,0.88-4.06,0.78c-1.13-0.06-2.68,0.14-3.06-1.01
	C198.36,165.28,199.88,164.62,200.74,164z M204.2,142.06c-0.03-1.54,0.43-2.35,1.73-2.16c1.92,0.28,2.82,1.7,3.01,3.41
	c0.13,1.13-0.66,2.17-1.98,1.95C205.07,144.93,204.39,143.45,204.2,142.06z M201.94,170.67c1.59-0.86,3.21-1.74,5.1-1.6
	c1.37,0.1,2.73,0.47,2.61,2.26c-0.12,1.71-1.45,1.99-2.73,2.14c-1.87-0.09-3.35-1.12-5-1.58
	C200.99,171.63,201.37,170.98,201.94,170.67z M207.25,118.13c-1.07-0.81-1.21-1.83-0.72-3.06c0.96-2.4,2.92-3.93,4.7-5.63
	c0.48-0.45,0.92-0.94,1.89-1.95c0.17,4.22-0.33,7.49-3.06,10.09C209.23,118.37,208.38,118.99,207.25,118.13z M208.35,104.75
	c0.74,0.92-0.28,1.64-0.75,2.34c-0.91,1.35-1.31,3.02-2.6,4.15c-0.82,0.71-1.64,1.36-2.37,1.44c-2.1,0.07-3.19-1.22-2.71-2.9
	c0.52-1.81,1.62-3.22,3.42-3.95c0.83-0.34,1.69-0.62,2.53-0.94C206.69,104.58,207.63,103.86,208.35,104.75z M198.3,99.46
	c1.34-0.32,2.73-0.4,4.33-0.62c0.43,0.08,1.07,0.17,1.69,0.35c0.54,0.15,1.17,0.32,1.25,1.01s-0.49,0.96-1.02,1.21
	c-1.69,0.8-3.34,1.72-5.09,2.37c-1.32,0.49-2.72,0.3-3.08-1.38C196.06,100.91,196.83,99.81,198.3,99.46z M194.58,81.67
	c-0.74,2.54-2.65,4.25-4.27,6.16c-0.37,0.43-0.83,0.46-1.31,0.15c-0.72-0.47-0.66-1.28-0.87-1.9c-0.09-2.59,1.95-5.53,4.33-6.31
	c0.64-0.21,1.29-0.38,1.86,0.1C194.91,80.37,194.77,81,194.58,81.67z M188.77,65.68c0.54-0.46,1.2-0.63,1.84-0.33
	c1.03,0.5,0.79,1.51,0.82,2.67c-0.23,2.52-2.35,4-4.27,5.45c-0.98,0.74-1.7-0.36-1.62-1.37C185.74,69.55,186.79,67.37,188.77,65.68z
	 M184.78,66.83c-0.59-3.63,1.99-6.7,4.37-7.37c0.71-0.2,1.53-0.5,2.03,0.23c0.44,0.63,0.33,1.47-0.15,2.08
	c-0.6,0.76-1.22,1.63-2.03,2.09C187.58,64.66,186.27,65.59,184.78,66.83z M191.76,92.72c-0.09,1.51-0.72,3.03-2.55,3.02
	c-1.28,0-2.34-0.72-2.3-2.73c0.15-1.34,1.05-2.47,2.88-2.56C191.28,90.38,191.83,91.54,191.76,92.72z M193.22,76.23
	c-1.42,1.45-3.48,2.19-4.52,4.09c-0.09,0.15-0.65,0.21-0.87,0.09c-0.62-0.35-0.31-1.03-0.47-1.55c0.24-2.63,1.68-4.6,3.48-6.32
	c0.78-0.74,1.7-0.55,2.34,0.32C193.99,73.95,194.24,75.19,193.22,76.23z M186.24,50.62c1.02-1.36,1.81-2.93,3.41-3.79
	c0.91-0.49,1.79-0.82,2.73-0.11c0.88,0.68,1.31,1.62,1.49,2.56c-0.14,1.49-1.13,1.95-2.22,2.04c-1.4,0.11-2.76,0.18-3.99,0.95
	c-0.42,0.26-0.97,0.31-1.37-0.08C185.8,51.71,185.89,51.07,186.24,50.62z M183.21,56c1.39,0.03,1.78,1.23,1.79,2.68
	c-0.04,1.31-0.69,2.48-2.25,2.48c-1.34,0-2.02-1.15-2-2.37C180.78,57.29,181.52,55.96,183.21,56z M181.82,67.25
	c-1.13,0.06-5.71-3.11-6.11-4.22c-0.27-0.73,0.01-1.27,0.56-1.72c0.86-0.72,1.85-0.78,2.72-0.19c1.72,1.18,2.91,2.85,3.81,4.71
	C183.22,66.73,182.8,67.24,181.82,67.25z M174.35,49.9c-0.35-0.56-0.67-1.14-0.28-1.82c0.47-0.78,1.23-0.99,1.94-1.08
	c2.08,0,4.95,3.2,4.87,5.27c-0.02,0.48-0.39,1-0.63,0.81C178.45,51.7,175.71,52.05,174.35,49.9z M175.66,68.69
	c0.33-1.25,1.62-0.85,2.21-1.32c1.79-0.01,5.12,2.94,5.49,4.62c0.25,1.16-0.42,1.29-1.24,1.11c-1.83-0.4-3.62-0.97-5.21-1.99
	C176.05,70.56,175.36,69.83,175.66,68.69z M177.65,77.73c-0.73-0.42-1.08-1.21-0.59-2.13c0.61-1.17,1.58-1.59,2.7-1.5
	c2.19,0.06,5.56,4.09,5.12,5.97c-0.18,0.76-0.65,0.73-1.31,0.59C181.35,80.16,179.55,78.83,177.65,77.73z M178.56,84.76
	c-0.91-1.26-0.49-1.95,0.95-2.22c2.26-0.42,4.65,0.67,5.86,2.8c0.58,1.05,1.01,2.18,1.63,3.52
	C183.52,88.48,180.59,87.56,178.56,84.76z M180.63,140.37c-1.06-0.04-1.1-0.77-1.12-1.54c-0.05-1.58,1.83-4.21,3.12-4.31
	c1.16-0.08,1.25,0.78,1.31,1.45C183.99,138.21,182.23,140.43,180.63,140.37z M183.85,131.87c-0.48-0.28-1.45-0.64-0.93-1.39
	c0.52-0.76,1.46-0.69,2.18-0.07c1.43,1.23,2.84,2.49,4.24,3.76c4.5,4.08,10.06,4.23,15,0.57c0.97-0.72,2.29-2.65,3.47-1.12
	c1.19,1.55-0.95,2.22-1.96,3.01c-2.33,1.84-4.65,3.73-8.26,3.69c-4.41-0.65-8.66-2.36-11.74-6.31
	C185.25,133.23,184.75,132.4,183.85,131.87z M185.94,146.18c-0.97-0.27-1.49-1.06-1.43-2.06c0.13-2.18,1.42-3.71,3.24-4.59
	c1.32-0.64,1.46,0.43,1.24,1.53c-0.08,1.36-0.48,2.7-1.13,3.93C187.47,145.72,186.91,146.46,185.94,146.18z M189.74,161.51
	c-1.48-2.37-2.73-4.84-2.73-7.73c0-1.09,0.57-1.9,1.71-2.05c1.14-0.15,1.61,0.65,1.79,1.6c0.39,1.99,0.71,3.99,1.06,5.99
	c-0.06,0.01-0.13,0.02-0.19,0.03c0,0.57,0.01,1.14,0,1.71c-0.01,0.43-0.15,0.84-0.61,0.95
	C190.33,162.11,189.96,161.88,189.74,161.51z M194.55,175.86c-0.88-0.25-0.88-1.09-0.61-1.61c1.82-3.51,0.17-5.72-2.64-7.59
	c-0.45-0.3-0.96-0.75-0.6-1.43c0.31-0.59,0.9-0.63,1.5-0.58c3.08,0.21,5.51,2.87,5.43,5.75c-0.25,1.82-0.8,3.35-1.66,4.77
	C195.63,175.72,195.19,176.04,194.55,175.86z M200.77,187.72c-1.03,0.73-1.85-0.03-2.56-0.72c-1.44-1.41-1.71-3.27-1.95-4.94
	c0.11-0.66-0.39-1.21,0.16-1.55c0.49-0.31,0.96,0.08,1.33,0.36c1.42,1.09,2.85,2.2,3.72,3.82
	C202.09,185.86,201.83,186.97,200.77,187.72z M201.73,178.02c-0.54-0.59-1.4-1.18-1.04-2.04c0.37-0.93,1.42-0.46,2.22-0.57
	c1.39,0.06,2.74,0.32,3.85,1.27c0.88,0.75,1.39,1.76,0.72,2.81c-0.64,1-1.8,1.17-2.85,0.74
	C203.5,179.76,202.56,178.94,201.73,178.02z M213.91,205.45c-0.34,1.21-2,1.1-2.98,1.15c-4.84,0.01-8.02-4.75-6.44-9.28
	c0.11-0.31,0.23-0.63,0.42-0.89c0.58-0.8,0.5-2.59,1.73-2.27c1.32,0.34,0.03,1.67,0.14,2.57c0.39,3.18,2.23,5.32,4.83,7.02
	C212.43,204.29,214.24,204.21,213.91,205.45z M219.84,121.93c-1.28,0.42-2.19-0.13-2.94-1.16c-1.37-1.82-1.45-3.92-1.36-6.07
	c-0.05-1.73-0.06-3.47,1.04-4.94c0.64-0.85,1.6-1.31,1.93,0.11c0.59,2.58,2.08,4.79,2.79,7.3c0.2,0.7,0.2,1.45,0.28,2.17
	C221.73,120.69,221.08,121.53,219.84,121.93z M217.74,104.74c-2.83,0.05-7.61-3.14-8.46-5.63c-0.32-0.94,0.25-1.42,0.95-1.72
	c4.36-1.84,8.74-3.22,13.48-1.19c1.63,0.7,2.08,1.34,1.12,3.08C222.81,102.95,220.79,104.68,217.74,104.74z M223.72,108.75
	c1.7-0.49,6.83,3.63,6.77,5.44c-0.06,2.07-1.62,2.99-3.3,1.82c-2.01-1.4-3.12-3.51-4.06-5.69
	C222.88,109.73,222.81,109.01,223.72,108.75z M224.91,134.23c1.18-0.52,1.84-0.34,2.34,0.07c3.1,2.54,6.68,2.73,10.25,1.69
	c3.67-1.07,5.85-4.06,7.78-7.18c0.3-0.49,0.54-1.03,0.93-1.44c0.58-0.6,1.21-0.3,1.76,0.14c0.47,0.38,0.83,0.78,0.49,1.46
	c-2.69,5.42-6.75,10.05-14.46,10.01C230.13,138.96,227.81,136.5,224.91,134.23z M227.89,145.68c-1.81-0.03-1.32-1.7-1.47-2.85
	c0.14-1.45,0.11-3.48,1.83-3.51c1.51-0.02,1.72,1.93,1.7,3.34C229.93,144.09,229.73,145.71,227.89,145.68z M230.99,159.91
	c1.89,0.83,3.77,1.7,4.82,3.63c0.18,0.34,0.37,0.82,0.26,1.14c-0.2,0.58-0.82,0.33-1.31,0.35c-1.95-0.51-4.02-0.77-5.52-2.39
	c-0.65-0.71-1.15-1.55-0.65-2.44C229.16,159.18,230.17,159.54,230.99,159.91z M228.01,169.41c0.73-1.26,1.87-1.78,3.36-1.86
	c0.8,0.18,1.71,0.3,2.55,0.61c0.98,0.37,1.79,1.18,1.72,2.2c-0.06,0.99-1.21,0.5-1.86,0.72c-0.7,0.24-1.44,0.35-2.13,0.6
	c-1.25,0.44-2.45,0.5-3.46-0.46C227.66,170.73,227.63,170.05,228.01,169.41z M230.94,175.48c1.2-0.98,2.5-1.84,4.02-2.08
	c1.33,0.11,2.31,0.42,1.44,1.95c-0.69,1.2-1.32,2.49-2.27,3.47c-1.08,1.12-2.52,1.68-3.84,0.2
	C229.03,177.61,229.77,176.43,230.94,175.48z M233.04,155.6c-0.55-0.93-0.17-2.16,1.04-2.68c1.23-0.53,2.29-0.19,3,0.94
	c1.15,1.83,1.46,4,2.22,5.88c0.07,1.34-0.5,1.58-1.5,1.05C235.6,159.63,234.24,157.63,233.04,155.6z M238.28,148.48
	c-1.41,0.27-1.78-0.88-2-1.92c-0.29-1.34-0.54-2.69-0.63-4.05c-0.03-0.56,0.09-1.36,0.87-1.6c0.73-0.22,1.26,0.14,1.67,0.71
	c0.9,1.26,1.62,2.62,1.69,4.22C239.96,147.1,239.64,148.21,238.28,148.48z M234.96,201.94c-1.39,2.55-3.81,3.11-6.46,3.14
	c-0.49,0-0.98,0.01-1.48,0c-0.43-0.01-0.86-0.12-0.94-0.6c-0.08-0.47,0.24-0.75,0.66-0.89c4.77-1.57,5.94-5.4,6.14-9.83
	c0.03-0.56-0.14-1.3,0.61-1.41c0.97-0.15,1.47,0.64,1.83,1.37C236.73,196.51,236.43,199.27,234.96,201.94z M240.28,183.17
	c-0.27,1.51-1.03,2.88-2.69,2.55c-1.7-0.34-1.93-1.88-1.3-3.35c0.64-1.5,1.4-2.96,2.25-4.35c0.42-0.68,1.09-0.84,1.28,0.27
	c0.21,1.21,0.37,2.43,0.47,3.16C240.29,182.35,240.35,182.77,240.28,183.17z M242.36,165.69c-1.19,2.29-1.65,4.62-0.49,7.04
	c0.31,0.64,0.69,1.28,0,1.74c-0.76,0.51-1.13-0.34-1.58-0.76c-1.17-1.09-2.06-2.34-2.37-3.92c0.48-2.09,0.53-4.32,2.34-5.84
	c0.91-0.76,1.99-1.08,2.89-0.17C244.13,164.77,242.68,165.08,242.36,165.69z M244.99,158.08c-0.21,0.57-0.4,1.38-1.23,1.3
	c-0.65-0.06-0.77-0.77-0.95-1.29c-0.64-1.86-0.97-3.76-0.54-5.73c0.3-1.39,0.67-3.05,2.33-2.97c1.89,0.08,1.61,1.88,1.65,3.54
	C246.39,154.58,245.64,156.32,244.99,158.08z M249.11,143.27c-0.4,0.97-1.18,1.6-2.32,1.21c-1.38-0.47-3.02-4.47-2.42-5.77
	c0.19-0.4,0.47-0.64,0.47-0.64C247.03,137.93,249.78,141.63,249.11,143.27z M255.12,134.03c-0.03,1.13-0.81,1.97-1.94,1.72
	c-1.62-0.35-3.48-1.16-3.7-2.83c-0.19-1.5,1.86-0.68,2.62-1.33C253.55,132,255.17,132.09,255.12,134.03z M253.45,82.25
	c-0.65,1.61-4.38,3.83-6.13,3.63c-0.81-0.09-1.68-0.34-1.97-1.24c-0.23-0.73,0.33-1.22,0.81-1.67c1.27-1.21,4.69-2.91,5.89-2.92
	C253.84,79.94,253.98,80.94,253.45,82.25z M249.24,77.64c-0.83-0.12-2.01,0.3-2.45-0.97c-0.39-1.13,0.46-1.82,1.14-2.54
	c1.7-1.81,3.96-2.21,6.25-2.49c1.21-0.15,1.69,0.33,1.21,1.6C254.52,75.53,251.71,77.61,249.24,77.64z"/>
<path class="st2" d="M373.79,101.31c-2.49-4.69-3.91-9.69-1.78-14.68c3.62-8.45,4.89-17.31,5.66-26.29
	c0.53-6.16-0.31-12.33-1.13-18.42c-0.5-3.77-1.18-7.68-3.6-10.88c-1.68-2.22-3.46-4.36-5.2-6.53c-0.01-0.01-0.01,0-0.02,0
	c-3.5,0.12-4.26-0.87-2.98-3.88c0.01,0,0.01,0,0.02,0c-2.16-2.54-4.94-3.98-8.21-4.4c-1.71-0.22-3.55-0.37-4.09,1.96
	c-0.64,2.78-1.24,5.56-1.86,8.34c2.08,0.23,3.74-0.74,5.37-1.83c0.4-1.45,1.41-1.75,2.74-1.45c2.36-0.54,3.35,0.51,3.23,2.82
	c0.49,0.29,0.47,1.01,1.17,1.18c3.66,0.93,4.81,3.71,2.78,6.81c-1.18,1.81-3.55,2.74-3.84,5.25c-0.06,0.5-0.76,0.47-0.94,0.08
	c-1.5-3.37-5.16-4.78-6.98-7.84c-0.16-0.28-0.22-0.62-0.32-0.93c-1.45,0.15-2.9,0.3-4.34,0.45c-0.22,0.14-0.43,0.24-0.65,0.31
	c-0.34,0.47-0.49,1.03-0.63,1.59c-1.02,4.16-1.97,8.3-1.89,12.65c0.07,3.86,0.5,7.77-0.29,11.58c-1.27,6.16-1.64,12.38-1.62,18.64
	c0.01,2.95-0.03,3.02-2.83,2.37c-0.4-0.1-0.8-0.21-1.2-0.3c-5.51-1.27-10.79-1.2-15.44,2.63c-0.19,0.16-0.42,0.25-0.82,0.03
	c-0.23-1.09-0.31-2.31-0.5-3.51c-0.9-5.73-3.26-11.03-4.82-16.56c-2.4-8.5-5.42-16.75-8.81-24.88c-0.79-1.89-1.62-3.78-2.86-5.45
	c-0.11-0.05-0.21-0.11-0.31-0.16c-0.08-0.01-0.17-0.02-0.25-0.04c-2.85-0.79-3.25-1.81-1.63-4.23v-0.01
	c-0.37-0.64-0.72-1.27-1.09-1.9c-1.9-3.2-3.68-3.65-6.8-1.62c-2.33,1.51-4.35,3.38-5.87,5.75c2.06,1.24,4.1,1.93,6.62,1.1
	c2.81-0.93,3.8,0.32,2.95,3.32c3.79,0.36,4.91,2.63,2.89,5.88c-1.39,2.23-3.51,3.9-4.67,6.3c-0.48,0.98-1.08,0.45-1.5-0.08
	c-1.89-2.37-3.81-4.71-5.57-7.17c-0.89-1.24-1.32-2.71,0.24-3.92c-1.14-0.49-2.27-0.98-3.41-1.47c-0.01,0-0.01-0.01-0.02-0.01
	c-1.34,2.18-2.3,4.53-2.93,7c-4.49,17.65-1.65,34.34,6.69,50.3c1.3,2.48,2.58,4.96,3.81,7.47c1.1,2.24,1.24,4.65,0.53,6.98
	c-1.63,5.33-2.97,10.59-3.46,16.27c-1.28,14.94,2.8,27.87,12.21,39.36c4.8,5.86,9.4,11.89,11.15,19.51
	c1.29,5.62,1.93,11.32,2.13,17.08c0.16,4.53,2.22,7.82,6.38,9.73c4.7,2.16,9.47,4.15,14.13,6.43c3.32,1.63,7.16,1.74,10.29-0.79
	c3.55-2.87,7.51-4.93,11.52-7.04c3.74-1.97,6.91-5.06,7.52-9.53c0.5-3.64,0.66-7.44-0.09-11.07c-1.07-5.18-0.23-10.32-0.14-15.47
	c0.06-3.52,0.54-7.04,1.06-10.53c0.8-5.29,3.47-9.91,5.83-14.59C382.49,128.81,381.04,114.96,373.79,101.31z M371.49,63.64
	c-0.77,2.56-3.81,4.98-6.37,4.97c-0.8-0.04-1.73,0.17-2.16-0.76c-0.4-0.86,0.09-1.57,0.59-2.24c1.71-2.28,4.25-2.94,6.83-3.45
	C371.46,61.95,371.83,62.53,371.49,63.64z M360.35,60.33c0.03,1.25-0.73,1.85-1.67,1.14c-1.93-1.45-4.19-2.6-5.42-4.86
	c-0.41-0.76-0.62-1.59-0.06-2.31c0.63-0.82,1.47-0.42,2.25-0.14C358.22,55.17,360.39,57.9,360.35,60.33z M356.19,49.28
	c0.43-0.48,0.99-0.43,1.58-0.25c1.71,0.5,3.61,3.32,3.61,5.4c-0.03,0.39,0.1,0.86-0.33,1.08c-0.44,0.21-0.78-0.12-1.08-0.38
	c-1.47-1.3-2.79-2.73-3.67-4.51C356.08,50.18,355.79,49.72,356.19,49.28z M360.36,67.08c-0.03,0.93-0.62,1.02-1.35,0.91
	c-1.43-0.2-5.58-4.14-5.95-5.61c-0.21-0.82,0-1.26,0.91-1.26C355.77,61.11,360.39,65.39,360.36,67.08z M354.61,68.14
	c1.99,0.07,5.58,3.73,5.75,5.81c0.08,1-0.44,1.32-1.3,1.36c-2.34,0.12-5.67-1.96-6.57-4.11C351.75,69.41,352.68,68.07,354.61,68.14z
	 M360.07,77.91c1.73-0.14,1.84,1.27,2.26,2.28c-0.27,1.39-0.49,2.66-2.13,2.72c-1.64,0.05-2.48-1.08-2.56-2.45
	C357.55,78.99,358.53,78.03,360.07,77.91z M362.11,75.93c-0.38-0.76,0.25-1.22,0.68-1.68c1.49-1.57,3.21-2.77,5.31-3.41
	c0.66-0.2,1.29-0.37,1.83,0.19c0.54,0.56,0.34,1.2,0.09,1.83c-0.72,1.88-4.09,4.14-6.07,4.07
	C363.17,76.91,362.47,76.66,362.11,75.93z M363.77,52.74c0.53-2.09,3.74-4.25,5.75-3.85c0.64,0.12,1.03,0.46,1.18,1.26
	c-0.18,0.31-0.33,0.86-0.68,1.12c-1.44,1.07-2.93,2.09-4.44,3.07c-0.47,0.3-1.08,0.51-1.6,0.01
	C363.49,53.88,363.62,53.33,363.77,52.74z M372.43,55.29c-0.09,2.13-3.9,5.68-6.28,5.64c-1.19-0.24-2.21-0.71-1.55-2.41
	c0.77-2,5-4.53,7.03-4.19C372.17,54.42,372.46,54.66,372.43,55.29z M367.85,35.07c1.44-0.38,2.66,0.09,3.21,1.52
	c0.59,1.52,0.12,2.74-1.51,3.31c-0.61,0.21-1.26,0.47-1.88,0.46c-1.58-0.01-2.71,0.51-3.12,2.79
	C363.4,39.7,365.28,35.76,367.85,35.07z M362.58,45.43c1.16-0.08,1.66,0.87,1.76,1.96c-0.11,1.19-0.83,1.83-1.94,1.8
	c-1.21-0.03-2.47-0.54-2.39-1.92C360.09,45.94,361.47,45.5,362.58,45.43z M352.83,36.51c1.51-0.9,2.79-0.39,4.08,0.55
	c1.95,1.42,3.24,3.23,3.74,5.51c-0.01,0.5-0.03,0.96-0.48,1.12c-0.55,0.2-0.71-0.26-0.78-0.66c-0.38-2.29-2.25-2.39-3.93-2.53
	c-1.61-0.13-2.92-0.55-3.51-2.16C351.66,37.54,352.13,36.92,352.83,36.51z M346.77,89.82c2.03-0.56,4.08-1.09,5.72-1.51
	c1.87,0.15,3.21,0.42,4.03,1.78c0.63,1.05,0.11,1.93-0.5,2.69c-0.96,1.19-2.29,1.59-3.73,1.12c-1.86-0.61-3.68-1.34-5.5-2.05
	c-0.52-0.2-1.16-0.43-1.08-1.15C345.77,90.16,346.29,89.94,346.77,89.82z M345.1,96.83c0.46-0.9,1.44-0.57,2.12-0.82
	c1.85,0.23,3.6,0.63,5.05,1.78c0.96,0.76,1.6,1.77,0.74,2.96c-0.88,1.23-2.2,1.55-3.43,0.7c-1.39-0.96-2.47-2.35-4.02-3.14
	C345.02,98.03,344.8,97.42,345.1,96.83z M326.27,98.71c0.71,0.05,1.28,0.46,0.94,1.05c-1.45,2.51-1.94,5.67-4.73,7.31
	c-0.83,0.49-1.69,0.6-2.56,0.03c-0.84-0.57-1.08-1.4-1.06-1.9C319.17,102.34,323.83,98.54,326.27,98.71z M317.94,149.45
	c0.72-1.14,1.82-1.87,3.12-1.12c1.18,0.68,1.56,1.94,0.91,3.22c-0.85,1.68-1.81,3.31-2.79,4.92c-0.36,0.59-0.6,1.56-1.51,1.38
	c-0.84-0.17-0.8-1.15-1.04-1.81c-0.16-0.47-0.19-0.97-0.27-1.39C316.63,152.79,316.96,151,317.94,149.45z M314.98,140.57
	c-0.18-0.53-0.11-1.14-0.15-1.72c0.04-0.49,0.01-1,0.13-1.47c0.21-0.78,0.39-1.77,1.34-1.88c0.99-0.11,1.3,0.85,1.6,1.61
	c0.32,0.84,0.65,1.7,0.84,2.57c0.32,1.46-0.07,2.77-1.65,3.09C315.54,143.08,315.32,141.62,314.98,140.57z M321.97,158.49
	c1.22-1.25,2.62-2.22,4.37-2.56c1.34-0.27,2.48-0.03,3.01,1.38c0.49,1.32-0.31,2.22-1.25,2.91c-1.47,1.08-3.33,0.58-4.73,1.14
	c-1.12-0.14-2.24,0.01-2.61-0.94C320.41,159.53,321.43,159.05,321.97,158.49z M324.31,134.6c-0.06-1.2,0.46-1.96,1.7-1.81
	c1.83,0.22,2.93,1.39,3.2,3.17c0.19,1.24-0.57,2.03-1.78,2.2C326.13,138.34,324.37,136.26,324.31,134.6z M324.27,164.41
	c1.49-0.85,3.01-1.68,4.73-1.88c1.5-0.17,2.99,0.26,3.03,2.01c0.04,1.63-1.23,2.35-3.03,2.36c-1.46-0.35-3.14-0.68-4.76-1.18
	C323.17,165.39,323.59,164.8,324.27,164.41z M329.89,111.52c-0.72,0.93-1.64,1.68-2.96,1.04c-1.45-0.7-1.37-1.97-0.97-3.18
	c0.66-1.98,1.87-3.64,3.39-5.06c0.77-0.73,1.62-1.36,2.74-2.28C332.43,105.48,332.05,108.7,329.89,111.52z M316.67,94.43
	c1.43-0.39,2.91-0.57,4.01-0.76c0.94,0.05,1.52,0.06,2.09,0.13c0.52,0.06,0.96,0.27,1.03,0.86c0.06,0.44-0.12,0.84-0.51,1.04
	c-1.82,0.94-3.34,2.41-5.33,3.05c-1.45,0.47-2.73,0.24-3.16-1.35C314.4,95.9,315.21,94.81,316.67,94.43z M310.88,74.28
	c0.55,0.46,0.59,1.13,0.41,1.81c-0.69,2.52-2.37,4.43-3.92,6.42c-0.34,0.43-0.85,0.51-1.31,0.19c-0.82-0.59-1.03-1.44-0.98-2.38
	c0.02-2.49,1.79-5.15,3.96-6.02C309.67,74.05,310.31,73.8,310.88,74.28z M309.04,87.26c-0.03,1.85-0.63,3.13-2.31,3.21
	c-1.44,0.06-2.66-0.84-2.55-2.38c0.13-1.68,1.24-2.91,3.05-2.93C308.7,85.15,309.1,86.25,309.04,87.26z M309.56,70.68
	c-1.21,1.71-3.52,2.41-4.31,4.55c-0.05,0.15-0.66,0.27-0.85,0.15c-0.46-0.29-0.57-0.81-0.57-0.81c-0.03-3.42,1.46-5.45,3.05-7.43
	c0.65-0.8,1.49-0.59,2.15,0.04C310.09,68.19,310.45,69.42,309.56,70.68z M304.1,60.83c0.54-0.6,1.26-1.24,2.12-0.92
	c0.97,0.37,1.04,1.38,1.12,2.05c-0.11,3.07-1.99,4.89-3.96,6.46c-1.19,0.96-1.76-0.36-1.77-1.36
	C301.59,64.68,302.5,62.59,304.1,60.83z M300.91,61.52c-0.94,0.02-0.82-0.56-0.81-1.02c0.04-2.68,2.06-5.4,4.64-6.38
	c1.69-0.64,2.08,0.06,1.86,1.59c-0.1,0.66-0.28,1.25-0.7,1.79C304.51,59.28,302.12,59.75,300.91,61.52z M300.86,45.86
	c0.79-1.72,1.85-3.27,3.44-4.36c0.86-0.59,1.8-0.8,2.68,0.02c0.79,0.73,1.6,1.5,1.42,2.69c-0.17,1.12-1.02,1.58-2.07,1.75
	c-1.61,0.26-3.21,0.55-4.47,1.64C300.63,47.45,300.44,46.75,300.86,45.86z M298.13,51.3c1.56-0.03,1.94,1.2,2.02,2.34
	c-0.03,1.57-0.48,2.62-2.08,2.63c-1.64,0.02-2.02-1.05-2-2.44C296.09,52.43,296.67,51.34,298.13,51.3z M288.67,43.95
	c0.39-1,1.28-1.15,2.22-1.14c2.04,0,4.74,2.78,4.74,4.88c0,0.52-0.18,1.21-0.76,0.81c-1.58-1.11-3.68-0.85-5.18-2.05
	C288.91,45.83,288.22,45.08,288.67,43.95z M291.18,57.47c0.45-0.74,1.1-1.19,2-1.2c1.55,0,5.36,3.67,5.42,5.39
	c-0.09,1.25-1.16,1.22-1.93,0.82c-1.73-0.89-3.38-1.97-4.99-3.07C291.07,58.99,290.7,58.26,291.18,57.47z M292.3,66.27
	c-0.66-0.5-1.17-1.26-0.76-2.14c0.54-1.14,1.77-0.99,2.73-1.23c1.58,0.05,4.85,2.9,5.21,4.47c0.16,0.71-0.02,1.25-0.77,1.11
	C296.47,68.06,294.18,67.72,292.3,66.27z M293.36,71.04c0.6-1.16,1.63-1.56,2.87-1.54c2.09,0.02,5.21,3.37,5.2,5.56
	c0,0.84-0.45,0.94-1.12,0.81c-2.29-0.46-4.3-1.57-6.29-2.71C293.24,72.71,292.9,71.94,293.36,71.04z M296.06,80.94
	c-0.63-0.64-1.53-1.28-1.17-2.25c0.32-0.86,1.36-0.73,2.18-0.8c2.49-0.19,4.25,0.93,5.5,2.99c0.5,0.83,0.95,1.68,1.68,2.97
	C300.99,83.58,298.21,83.14,296.06,80.94z M300.74,135.05c-1.16-0.03-1.14-0.96-1.18-1.77c-0.07-1.61,1.77-4.3,3.01-4.34
	c1.38-0.04,0.97,1.21,1.26,1.81C303.81,132.84,302.17,135.08,300.74,135.05z M303.36,126.16c-0.46-0.25-1.46-0.53-0.86-1.35
	c0.46-0.63,1.34-0.69,2.02-0.2c1.33,0.96,2.64,1.96,3.91,3.01c5.45,4.46,10.82,4.36,16.16-0.3c0.49-0.43,1.06-0.77,1.61-1.12
	c0.48-0.31,0.94-0.22,1.34,0.16c0.5,0.48,0.58,1.14,0.11,1.54c-2.96,2.49-5.48,5.79-10.27,5.84c-3.97-0.45-8.01-1.59-11.16-4.88
	C305.32,127.92,304.57,126.82,303.36,126.16z M306.47,140.36c-1.31-0.25-1.52-1.33-1.5-2.82c0.23-1.57,1.26-2.98,2.8-4.04
	c0.43-0.3,1.05-0.37,1.28,0.18c0.72,1.73-0.1,3.35-0.55,4.97C308.24,139.59,307.72,140.6,306.47,140.36z M311.27,155.73
	c-1.49-2.19-2.78-4.45-2.84-7.2c-0.02-1.11,0.37-2.03,1.51-2.2c1.08-0.16,1.64,0.74,1.87,1.62c0.58,2.3,1.05,4.62,1.49,6.56
	c-0.04,1.05-0.01,1.84-0.69,2.09C312.03,156.81,311.6,156.21,311.27,155.73z M318.61,169.33c-0.32,0.56-0.81,1.1-1.6,0.76
	c-0.65-0.29-0.76-0.91-0.54-1.46c1.34-3.48,0.11-5.85-3.05-7.49c-0.48-0.25-1.03-0.71-0.68-1.38c0.29-0.54,0.88-0.68,1.49-0.68
	c3.33-0.01,5.68,2.4,5.66,6.12C319.84,166.48,319.4,167.97,318.61,169.33z M324.32,181.46c-1.01,0.97-2.1,0.34-2.8-0.45
	c-1.63-1.82-2.34-4.01-2.17-6.73c2.35,0.96,3.95,2.42,5.36,4.11C325.63,179.49,325.2,180.62,324.32,181.46z M323.67,170.86
	c-0.29-0.31-0.52-0.77-0.26-1.11c0.55-0.73,1.47-0.57,2.27-0.78c1.26,0.24,2.63,0.27,3.72,1.05c0.89,0.63,1.68,1.54,1.08,2.71
	c-0.58,1.14-1.68,1.59-2.93,1.08C326.01,173.18,324.8,172.06,323.67,170.86z M337.59,199.23c-0.83,0.31-1.7,0.54-2.16,0.69
	c-4.6,0.08-8.17-4.73-6.94-8.77c0.1-0.31,0.21-0.63,0.37-0.91c0.53-0.95,0.32-2.9,1.59-2.71c1.5,0.22,0.15,1.78,0.34,2.72
	c0.59,2.95,2.41,4.92,4.97,6.31c0.57,0.31,1.17,0.59,1.77,0.85c0.45,0.19,1.03,0.25,1.04,0.87
	C338.59,198.89,338.03,199.07,337.59,199.23z M339.83,115.31c-0.97,0.43-1.9,0.33-2.7-0.46c-2.04-1.99-2.45-4.52-2.47-7.18
	c-0.06-1.49-0.01-2.97,0.85-4.26c0.68-1.03,1.64-1.13,1.98,0.07c0.74,2.56,2.51,4.58,3.31,7.07c0.27,0.84,0.34,1.75,0.4,2.64
	C341.27,114.2,340.71,114.92,339.83,115.31z M330.82,96.55c-0.77-0.62-1.44-1.35-2.18-2c-1.92-1.67-1.89-2.26,0.45-3.41
	c2.58-1.26,5.22-2.4,7.77-2.48c0.98,0.08,1.57,0.05,2.13,0.18c1.56,0.37,3.94,0.11,4.33,1.7c0.39,1.63-0.67,3.62-1.87,5.08
	C338.84,98.8,334.09,99.18,330.82,96.55z M341.97,103.23c-0.59-1.13,0.16-1.44,1.13-1.48c2.42,0.73,4.56,1.95,6.3,3.74
	c0.96,1,0.52,2.15-0.23,3.14c-0.87,1.14-1.97,0.79-2.86,0.19C344.27,107.45,343.07,105.35,341.97,103.23z M347.22,125.94
	c6.19,4.32,14.17,0.27,16.66-5.51c0.32-0.75,0.68-1.5,1.09-2.21c0.49-0.87,1.25-1.02,2.11-0.56c0.81,0.44,0.83,1.05,0.5,1.88
	c-2.12,5.27-5.56,8.96-11.3,10.38c-4.87,1.2-8.13-1.37-11.81-4.16C345.78,125.06,346.57,125.49,347.22,125.94z M354.4,147.49
	c-0.61-0.93-0.48-1.93,0.5-2.61c0.98-0.67,2.05-0.76,2.93,0.14c1.73,1.78,2.16,4.2,3.03,6.21c0.09,1.28-0.43,1.54-1.34,1.09
	C357.34,151.22,355.71,149.5,354.4,147.49z M359.43,166.24c-1.19,1.82-1.48,4.02-3.48,5.09c-1.17,0.63-2.23,0.5-3.06-0.53
	c-0.78-0.97-0.59-1.99,0.18-2.89c1.08-1.26,2.41-2.22,3.95-2.81C358.15,164.68,359.03,165.03,359.43,166.24z M355.88,133.3
	c-0.02-0.58,0.03-1.19,0.67-1.45c0.59-0.25,1.11-0.02,1.55,0.4c1.33,1.3,2.04,2.91,2.31,4.59c-0.09,1.2-0.47,2.11-1.59,2.35
	c-1.25,0.27-1.72-0.61-2.04-1.61C356.34,136.18,355.92,134.78,355.88,133.3z M348.22,137.14c-1.45-0.01-1.51-1.46-1.64-2.6
	c-0.01-0.08-0.01-0.17,0-0.24c0.25-1.38-0.05-3.51,1.76-3.51c1.74-0.01,1.58,2.16,2.01,3.5
	C350.15,135.67,349.86,137.15,348.22,137.14z M350.16,152.24c0.4-0.68,1.06-0.7,1.96-0.63c1.74,0.62,3.66,1.34,5.07,2.95
	c0.43,0.49,0.94,1.05,0.65,1.75c-0.38,0.93-1.14,0.3-1.72,0.25c-2.16-0.18-4.27-0.52-5.63-2.5
	C350.12,153.51,349.76,152.92,350.16,152.24z M352.06,159.93c0.63-0.33,1.4-0.36,2.1-0.5c0.7,0.19,1.35,0.31,1.96,0.54
	c0.87,0.33,1.74,0.87,1.71,1.88c-0.02,0.95-1.08,0.81-1.72,1.06c-0.92,0.35-1.85,0.71-2.8,0.93c-1.27,0.29-2.67,0.29-3.14-1.15
	C349.69,161.22,350.94,160.47,352.06,159.93z M359.31,193.55c-1.32,2.6-3.66,3.64-6.59,3.53c-0.67-0.19-1.79,0.71-2.1-0.41
	c-0.29-1.07,0.98-1.12,1.64-1.46c2.72-1.4,4.99-5.92,4.53-9.18c-0.1-0.69-0.71-1.52,0.36-1.86c0.95-0.3,1.54,0.44,1.96,1.15
	C360.67,188.01,360.68,190.84,359.31,193.55z M362.61,176.52c-1.03,1.22-2.46,1.02-3.13-0.42c-0.55-1.18,0.91-6.3,2.01-7.01
	c0.66-0.43,1.11-0.18,1.23,0.55c0.26,1.43,0.45,2.89,0.67,4.34C363.41,174.92,363.22,175.79,362.61,176.52z M364.87,156.2
	c-1.56,2.63-2.44,5.36-0.31,8.18c0.32,0.42,0.34,0.95-0.13,1.32c-0.36,0.28-0.74,0.12-1.13-0.09c-3.33-1.82-4.01-7.7-1.17-10.23
	c0.49-0.44,1.01-0.85,1.87-0.83C364.76,154.74,365.72,154.77,364.87,156.2z M367.32,144.31c0.04,1.74-0.3,3.41-0.95,5.01
	c-0.21,0.51-0.36,1.19-1.08,1.15c-0.67-0.04-0.84-0.69-1.07-1.2c-0.9-2.07-1.17-4.25-0.77-6.46c0.22-1.23,0.87-2.53,2.33-2.4
	c1.44,0.13,1.46,1.53,1.53,2.68C367.34,143.5,367.32,143.91,367.32,144.31z M367.41,134.74c-1.31,0-3.08-2.85-3.11-4.86
	c-0.01-0.8,0.01-1.51,1.13-1.42c1.73,0.14,3.9,2.47,3.91,4.25C369.34,133.99,368.69,134.74,367.41,134.74z M372.8,125.61
	c-1.67-0.16-3.46-1.11-3.79-2.63c-0.3-1.4,1.69-1.18,2.65-1.3c1.35-0.15,2.85,0.05,3.05,1.57
	C374.8,124.99,373.95,125.72,372.8,125.61z"/>
<path class="st3" d="M502.5,45.05c-2-4.4-4.41-8.61-6.64-12.9h-0.01c-1.93-0.1-2.77-1.11-2.52-3.03c-1.53-0.77-3.01-1.66-4.61-2.27
	c-1.58-0.61-3.36-0.9-4.24,1.07c-1.46,3.29-2.74,6.65-4.09,9.98c2.5-0.69,4.35-2.43,6.34-3.94c2.32-1.77,3.54-1.33,4.28,1.51
	c0.01,0,0.01-0.01,0.01-0.01c1.55,1.25,1.81,3.43,4.2,4.34c2.2,0.83,1.13,5.56-1.57,7.25c-1.4,0.88-2.86,1.55-3.45,3.28
	c-0.24,0.71-1.02,0.83-1.2,0.06c-0.81-3.55-4.09-5.53-5.38-8.75l-0.15-0.15c-2,0.63-4.01,1.25-6,1.87
	c-0.21,0.19-0.42,0.32-0.65,0.41c-1.86,3.27-2.78,6.86-3.47,10.53c-0.72,3.79-1.09,7.73-2.5,11.3c-2.38,6.03-3.69,12.28-4.86,18.58
	c-0.32,1.72-0.96,2.11-2.47,1.35c-5.49-2.78-11.1-4.12-17.04-1.36c-0.83,0.39-1.13,0.09-1.17-0.85c-0.26-6.31-0.64-12.58-1.56-18.87
	c-1.17-8.05-1.89-16.16-3.69-24.11c-0.93-4.08-1.71-8.21-3.25-12.13c-0.12-0.05-0.23-0.11-0.34-0.17c-0.02,0-0.04,0.01-0.07,0.01
	c-3.44-0.16-3.88-1.48-1.76-5.34h0.01c-1.4-1.89-3.17-1.7-5.06-0.9c-6.62,2.8-10.94,7.9-14.23,14.05c2.03,0.21,3.9-0.32,5.76-1.07
	l0.01-0.01c0.02-2.78,0.54-3.12,3.7-2.32h0.02c0.11-0.04,0.18-0.11,0.21-0.21c0-0.01,0.01-0.01,0.01-0.02v-0.01
	c0.22-1.75,0.7-3.3,2.76-3.67c3.27-0.17,3.84,0.6,2.82,3.83c0,0.01,0,0.02-0.01,0.03c0.01-0.01,0.01-0.02,0.02-0.03
	c4.61,1.17,4.64,4.65,1.4,7.29c-1.58,1.29-3.22,2.56-4.54,4.1c-1.11,1.29-1.63,0.99-2.25-0.23c-0.79-1.52-1.55-3.05-2.31-4.59h-0.01
	c-3.19,0.88-6.44,1.4-9.75,1.52h-0.01c-0.01,0-0.01,0.01-0.02,0.01c-5.6,15.58-5.59,31.21-0.5,46.9c0.76,2.34,1.33,4.75,2.09,7.09
	c0.95,2.94,0.43,5.73-0.96,8.34c-2.5,4.71-4.69,9.42-6.08,14.7c-3.85,14.62-2.17,28.26,5.28,41.34c2.61,4.58,4.85,9.37,6.14,14.49
	c1.75,6.9,1.31,13.88,0.18,20.82c-0.97,5.92-0.06,10.94,5.6,14.27c3.83,2.25,7.38,4.92,10.93,7.61c3.36,2.55,7.24,3.32,11.12,1.21
	c3.79-2.06,7.85-3.22,11.92-4.55c5.29-1.72,9.09-5.07,10.32-11.11c1.27-6.21,1.04-12.56,2.66-18.76c2.46-9.43,4.63-18.8,11.28-26.45
	c3.01-3.47,5.5-7.41,7.1-11.79c3.73-10.2,3.41-20.44,0.15-30.67c-1.64-5.13-2.24-10.37,0.85-14.97c5.04-7.5,7.79-15.89,10.27-24.38
	c1.81-6.17,1.97-12.67,2.25-19.07C503.92,51.99,503.98,48.32,502.5,45.05z M490.83,58.42c0.06,1.19-0.57,1.97-1.74,1.92
	c-1.28-0.05-2.62-0.55-2.59-2.08c0.03-1.34,1.41-1.36,2.31-1.59C490.17,56.6,490.77,57.26,490.83,58.42z M494.35,61.21
	c0.97-0.05,1.96,0.12,2.16,1.18c0.17,0.91-0.63,1.41-1.42,1.77c-1.26,0.58-2.48,1.27-3.77,1.78c-0.66,0.26-1.49,0.37-2.08-0.26
	c-0.69-0.74-0.06-1.4,0.29-1.99C490.62,61.88,492.39,61.35,494.35,61.21z M486.77,64.76c-0.03,0.67-0.03,1.39-0.65,1.53
	c-0.32,0.07-0.85-0.42-1.17-0.76c-1.21-1.28-1.86-2.9-2.5-4.5c-0.22-0.56-0.63-1.34,0.14-1.78c0.72-0.41,1.45-0.05,2.03,0.47
	C486.11,61.1,486.46,62.97,486.77,64.76z M481.2,46.27c1.38-0.71,2.57-0.29,3.62,0.64c1.65,1.46,2.76,3.25,3.15,5.44
	c0.15,0.87,0.15,1.72-1.18,2.87c0.42-3.55-1.71-4.25-4.03-4.82c-1.36-0.34-2.4-1.16-2.62-2.62C480.03,47.08,480.56,46.6,481.2,46.27
	z M478.55,63.73c0.78-0.63,1.58-0.21,2.27,0.24c2.24,1.49,3.83,3.39,3.67,6.79c-0.04,0.16,0.17,1.06-0.71,1.37
	c-0.75,0.27-1.29-0.29-1.65-0.81c-1.25-1.81-3.22-3.1-3.91-5.32C477.96,65.17,477.79,64.35,478.55,63.73z M478.19,70.51
	c1.8,1.03,3.41,2.48,4.27,4.61c0.4,0.98,1.68,2.23,0.51,3.04c-1.17,0.8-2.19-0.59-3.02-1.44c-1.32-1.36-2.29-2.97-2.9-4.77
	C476.79,71.19,476.83,70.44,478.19,70.51z M482.84,90.53c-0.31,1.26-0.65,2.7-2.3,2.67c-1.72-0.03-2.38-1.4-2.31-2.88
	c0.08-1.56,1.33-2.23,2.73-2.22C482.4,88.11,482.77,89.24,482.84,90.53z M477.2,77.59c2.19,0.35,5.32,4.84,4.92,6.99
	c-0.11,0.6-0.45,0.77-1.01,0.82c-2.52,0.21-6.4-3.35-6.4-6.16C474.82,77.93,475.71,77.36,477.2,77.59z M465.46,99.02
	c1.27-0.23,2.58-0.31,3.44-0.42c1.74,0.08,3.08-0.18,4.31,0.42c1.21,0.58,2.5,1.26,2.11,2.87c-0.42,1.72-1.79,2.72-3.49,2.42
	c-2.64-0.45-4.73-2.16-6.81-3.73C464.21,99.97,464.47,99.21,465.46,99.02z M462.67,105.81c0.21-0.66,0.82-0.75,1.41-0.72
	c2.43,0.11,4.44,1.19,5.91,3.04c1.2,1.53,0.17,3.38-1.76,3.45c-0.87,0.04-1.63-0.23-2.18-0.91c-0.96-1.2-1.63-2.64-2.98-3.53
	C462.64,106.86,462.51,106.31,462.67,105.81z M465.82,115.8c-0.14,1.02-0.52,1.89-1.47,2.41c-0.87,0.48-1.62,0.11-2.23-0.46
	c-1.87-1.73-2.77-4-3.44-6.37c-0.18-0.65-0.11-1.32,0.89-1.35C461.1,109.98,465.78,114.26,465.82,115.8z M437.31,97.9
	c1.09,0.14,2.66,0.08,4.13,0.65c0.46,0.18,0.93,0.4,0.92,1c-0.01,0.58-0.43,0.87-0.89,1.05c-1.52,0.58-3.07,1.11-4.59,1.69
	c-1.23,0.47-2.4,0.57-3.42-0.42c-0.67-0.65-0.68-1.49-0.36-2.28c0.54-1.35,1.8-1.53,3.03-1.68C436.38,97.87,436.63,97.9,437.31,97.9
	z M423.87,74.36c-0.05,0.98-0.41,1.24-1.42,0.88c-2.15-0.77-3.74-2.34-5.49-3.68c-0.71-0.54-0.96-1.36-0.3-2.17
	c0.93-1.14,2.11-1.51,3.52-1.04C421.94,68.94,423.96,72.24,423.87,74.36z M423.58,61.17c-0.36,0.95-1.16,0.88-1.83,0.46
	c-1.74-1.1-3.18-2.56-4.6-4.03c-0.48-0.5-0.64-1.18-0.26-1.82c0.4-0.68,1.04-1.04,1.84-1.05C420.48,54.73,424.18,59.6,423.58,61.17z
	 M416.81,77.22c0.49-0.8,1.39-0.76,2.23-0.62c2.25,0.4,3.95,1.55,4.82,3.72c0.43,1.06,0.78,2.13,1.33,3.68
	c-3.29-1.05-6.11-2-7.83-4.78C416.98,78.6,416.35,77.96,416.81,77.22z M427.22,85.64c1.29-0.01,2.08,0.7,2.04,1.92
	c-0.05,1.62-0.55,3.16-2.55,3.26c-1.4,0.07-2.32-0.77-2.49-2.17C424.05,87.3,425.73,85.7,427.22,85.64z M426.93,68.75
	c-1.19,0.26-1.34-0.6-1.38-1.47c-0.09-1.92,2.51-5.81,4.31-6.5c1.36-0.51,2.18,0.08,2.21,1.6C432.11,64.43,429.02,68.3,426.93,68.75
	z M432.86,68.4c0.72,1,1.04,2.16,0.17,3.17c-1.55,1.8-4.06,2.29-5.7,4.13c-0.65,0.73-0.61-0.7-0.84-0.97
	c-0.03-2.17,2.66-6.14,4.47-6.92C431.83,67.43,432.4,67.76,432.86,68.4z M428.2,83.15c-1.44,0.95-1.54-0.69-1.67-1.47
	c0.04-2.95,2.44-5.81,4.98-6.25c1.67-0.29,2.47,0.33,1.86,1.98C432.42,79.97,430.37,81.75,428.2,83.15z M428.84,45.68
	c0.77-1.2,1.81-2.13,2.98-2.9c1.07-0.7,2.21-1.26,3.39-0.27c1.02,0.85,1.57,2.02,1.09,3.29c-0.54,1.45-1.89,1.32-2.98,1.21
	c-1.19-0.27-2.11,0.09-3.03,0.47c-0.53,0.22-1.1,0.55-1.58,0C428.18,46.88,428.48,46.26,428.84,45.68z M431.05,54.72
	c0.92-0.09,1.66,0,1.71,1.06c-0.28,1.69-1.27,2.73-2.67,3.41c-1.31,0.64-2.83,0.86-3.91,1.97c-0.22,0.23-0.61,0.41-0.85,0.12
	c-0.17-0.21-0.21-0.61-0.17-0.91C425.5,57.88,428.56,54.98,431.05,54.72z M424.74,50.77c1.43-0.02,1.82,1.1,1.89,2.39
	c-0.1,1.4-0.61,2.53-2.25,2.6c-1.45,0.06-2.13-0.97-2.07-2.18C422.37,52.15,423,50.78,424.74,50.77z M417.13,41.7
	c1-1.24,2.39-0.87,3.55-0.06c1.56,1.1,2.23,2.75,2.48,4.56c-0.04,0.5,0.21,1.08-0.39,1.32c-0.43,0.17-0.79-0.15-1.05-0.46
	c-0.96-1.11-2.55-1.1-3.58-2.06C417.16,44.1,416.01,43.08,417.13,41.7z M416.09,62.38c0.4-1,1.38-0.68,1.99-0.93
	c2.23-0.04,5.72,3.74,5.39,5.69c-0.11,0.64-0.49,0.78-1.06,0.59c-2.02-0.69-4-1.47-5.6-2.93C416.13,64.17,415.7,63.38,416.09,62.38z
	 M413.19,133.68c-1.13-0.02-1.07-0.89-1.12-1.54c-0.11-1.49,2.2-4.07,3.61-4.15c1.12-0.08,1.06,0.73,1.08,1.19
	C416.8,131.67,415.03,133.71,413.19,133.68z M416.48,137.54c0.59-1.99,1.97-3.31,3.84-4.11c0.93-0.4,1.41,0.14,1.22,1.12
	c-0.3,1.53-0.89,2.96-1.67,4.3c-0.48,0.81-1.17,1.51-2.17,1.17C416.6,139.65,416.52,138.59,416.48,137.54z M419.03,156.03
	c-1.13-2.22-1.82-4.57-1.74-7.06c0.03-1.16,0.37-2.44,1.79-2.57c1.57-0.14,1.77,1.24,1.93,2.35c0.15,1.04,0.03,2.12,0.03,3.19
	c0.06,0.01,0.11,0.01,0.17,0.01c-0.08,1.22-0.11,2.45-0.28,3.66c-0.07,0.51-0.1,1.25-0.85,1.32
	C419.52,156.99,419.25,156.46,419.03,156.03z M422.1,171.08c-0.59-0.38-0.68-1.01-0.34-1.51c2.26-3.31,0.99-5.82-1.72-8.06
	c-0.4-0.33-0.61-0.8-0.35-1.32c0.33-0.65,0.87-0.54,1.48-0.43c2.91,0.51,4.78,2.67,4.82,5.91c-0.32,1.72-1.06,3.51-2.38,5.03
	C423.22,171.15,422.72,171.47,422.1,171.08z M426.7,150.85c0.78-0.91,1.94-1.39,3.07-0.62c1.2,0.82,1.3,2.06,0.58,3.25
	c-1.24,2.03-2.92,3.7-4.57,5.4c-0.27,0.28-0.65,0.64-1.03,0.24c-0.61-0.64-0.6-1.5-0.65-2.56
	C424.39,154.57,425.24,152.55,426.7,150.85z M425.98,141.27c0.26-1.64,0.21-4.16,2.04-4.17c2.03-0.02,1.63,2.62,1.83,4.16
	c0.17,1.37-0.32,2.97-2.13,2.97C425.81,144.22,426.18,142.52,425.98,141.27z M434.8,163.27c-2.27,0.88-4.52,0.35-6.72-0.34
	c-1.04-0.33-0.89-1.07-0.18-1.65c1.74-1.42,3.68-2.43,6.26-2.54c0.92,0.13,2.03,0.49,2.29,1.84
	C436.71,161.91,435.95,162.82,434.8,163.27z M437.79,168.22c-0.31,1.48-1.44,2.22-2.94,1.91c-2.02-0.4-3.68-1.66-5.85-2.64
	c2.29-1.41,4.44-1.95,6.76-1.54C436.92,166.16,438.11,166.74,437.79,168.22z M427.17,183.52c-1.39,0.81-2.34-0.25-2.99-1.34
	c-0.82-1.38-0.99-2.95-1.02-4.52c0.17-0.59-0.35-1.44,0.45-1.75c0.73-0.28,1.18,0.43,1.6,0.9c0.92,1.05,1.91,2.07,2.63,3.25
	C428.6,181.3,428.52,182.74,427.17,183.52z M429.53,171.41c1.46,0.28,2.93,0.51,4.15,1.4c1.17,0.84,1.93,2.04,1,3.34
	c-0.91,1.28-2.33,1.14-3.43,0.14c-1.01-0.93-1.91-2.01-2.72-3.13C427.69,172,428.08,171.34,429.53,171.41z M438.14,202.72
	c-0.14,0.75-1.01,0.67-1.64,0.79c-4.03,0.8-7.45-2.31-7.53-7.06c-0.29-2.07,1.15-3.66,2.16-5.42c0.21-0.37,0.62-0.59,1.05-0.37
	c0.45,0.23,0.4,0.7,0.28,1.08c-1.54,4.61,1.25,7.22,4.42,9.66C437.38,201.79,438.28,201.96,438.14,202.72z M438.8,141.6
	c-1.26-0.01-2.81-2.44-2.59-4.03c0.12-0.97,0.57-1.72,1.47-1.71c1.71,0.11,3.37,2.2,3.22,3.78
	C440.78,140.9,440.04,141.61,438.8,141.6z M440.47,131.83c-6.04,5.42-15.56,4.27-20.49-2.53c-1.23-1.71-2.12-3.67-3.87-5.01
	c1.23-1,2.1-0.83,2.93,0.18c0.88,1.08,1.83,2.1,2.74,3.16c4.68,5.44,9.88,6.32,16.12,2.73c0.43-0.24,0.88-0.43,1.32-0.65
	c0.76-0.39,1.43-0.38,1.87,0.46C441.5,130.94,440.96,131.39,440.47,131.83z M437.9,111.61c-1.91-0.04-2.77-1.3-2.16-3.13
	c1.22-3.68,4.72-3.54,7.45-4.53c0.67,0.01,1.29-0.01,1.61,0.55c0.22,0.38-0.01,0.78-0.27,1.12c-1.09,1.42-2.12,2.89-3.27,4.25
	C440.4,110.88,439.34,111.64,437.9,111.61z M444.91,117.46c-0.9,0.69-1.96,0.95-2.92,0.12c-0.97-0.83-0.82-1.91-0.34-2.92
	c0.86-1.83,2.32-3.14,3.95-4.27c0.99-0.7,1.97-1.42,3.54-2.53C448.68,111.84,447.92,115.13,444.91,117.46z M446.25,99.33
	c-0.93-1.2,0.17-1.63,0.94-1.96c2.52-1.04,5.25-1.18,8.03-1.63c2.26,0.4,4.47,1.2,6.53,2.41c0.48,0.28,0.97,0.64,0.79,1.36
	c-1.32,5.56-8.79,7.79-13.04,3.81C448.26,102.16,447.3,100.69,446.25,99.33z M460.07,159.38c2.1,1.19,4.1,2.48,4.77,4.83
	c0,0.8-0.3,1.19-0.91,0.97c-2.23-0.78-4.67-1.24-5.94-3.59c-0.4-0.74-0.69-1.56,0.04-2.26C458.69,158.7,459.41,159,460.07,159.38z
	 M458.2,142.29c0.17-1.7,0.18-3.87,2.11-4.25c1.47-0.29,1.35,1.68,1.68,2.82c-0.29,1.5-0.27,3.33-2.33,3.52
	C458.4,144.49,458.1,143.36,458.2,142.29z M468.57,160.09c-0.02,0.6,0.15,1.16-0.38,1.45c-0.52,0.29-0.93-0.13-1.32-0.4
	c-1.86-1.33-2.92-3.3-3.95-5.24c-0.52-0.99-0.35-2.2,0.79-2.77c1.26-0.63,2.44-0.28,3.19,0.95
	C468.04,155.96,467.98,158.18,468.57,160.09z M467.55,142.02c0.01-0.7,0.34-1.3,1.07-1.45c0.65-0.14,1.03,0.38,1.36,0.85
	c0.87,1.23,1.16,2.67,1.49,4.1c-0.14,1.39-0.55,2.76-2.11,2.85c-1.48,0.09-1.68-1.31-1.77-2.45
	C467.49,144.63,467.53,143.32,467.55,142.02z M458.97,167.32c0.73,0.03,1.48,0.11,2.18,0.33c1.23,0.38,2.51,1.07,2.45,2.44
	c-0.08,1.58-1.74,0.55-2.6,1.04c-0.52,0.3-1.28,0.19-1.87,0.26c-1.52,0.03-3.23,0-3.2-1.86
	C455.95,167.96,457.39,167.26,458.97,167.32z M454.13,122.83c-2.14,0.44-2.82-1.19-3.34-2.8c-0.34-1.1-0.62-2.22-0.51-3.39
	c0.21-2.03,0.45-4.06,1.54-5.86c0.34-0.56,0.78-1.15,1.51-1.09c0.85,0.07,0.9,0.84,0.95,1.49c0.2,2.72,1.82,5.07,1.97,7.81
	C456.34,120.75,456.2,122.4,454.13,122.83z M457.1,176.39c0.54-1.37,4.4-3.34,5.82-3.03c0.68,0.14,1.21,0.47,1.44,1.07
	c0.18,1.76-4.07,5.43-5.68,4.94C457.23,178.93,456.49,177.95,457.1,176.39z M451.15,203.96c-0.5-0.12-1.01-0.17-1.02-0.79
	c-0.01-0.47,0.4-0.67,0.82-0.77c4.9-1.13,6.74-4.66,7.26-9.23c0.06-0.5,0.07-1.02,0.72-1.09c0.55-0.06,0.93,0.24,1.22,0.67
	c0.69,1.06,0.99,2.23,1.01,3.49C461.25,202.05,456.9,205.39,451.15,203.96z M466.31,184.84c-0.55,0.88-1.35,1.55-2.44,1.23
	c-1.13-0.33-1.37-1.37-1.27-2.39c0.24-2.35,2.09-3.79,3.34-5.55c0.38-0.53,1.06-0.48,1.08,0.46c0.03,0.74,0.02,1.48,0.02,2.79
	C467.07,182.2,467.08,183.6,466.31,184.84z M471.04,166.49c-1.39,2.26-2.73,4.5-1.31,7.25c0.29,0.57,0.39,1.11-0.24,1.49
	c-0.54,0.32-0.94-0.04-1.25-0.44c-1-1.3-2.1-2.55-2.16-4.48c0.56-2.06,0.96-4.36,3.13-5.71c0.92-0.57,1.97-0.7,2.71,0.1
	C472.92,165.77,471.39,165.92,471.04,166.49z M474.15,159.8c-0.73,1.14-1.4,1.12-1.76-0.21c-0.29-1.02-0.37-2.09-0.54-3.13
	c0.06-1.69,0.39-3.28,1.3-4.7c0.51-0.8,1.22-1.4,2.25-1.08c0.94,0.29,1.1,1.13,1.08,1.99C476.41,155.27,475.54,157.62,474.15,159.8z
	 M479.1,145.58c-1.43,0.17-2.71-2.23-2.64-4.88c0.02-0.77-0.21-1.77,1.03-1.83c1.36-0.07,3.52,2.78,3.49,4.55
	C480.97,144.68,480.29,145.44,479.1,145.58z M481.44,130.73c-2.02,2.99-4.38,5.54-7.82,6.9c-6.31,2.5-11.65,0.78-15.67-5.17
	c1.24-0.48,1.88,0.27,2.58,0.8c5.49,4.17,11.53,3.66,16.22-1.41c0.83-0.9,1.54-1.92,2.31-2.88c0.62-0.77,1.25-1.27,2.27-0.48
	C482.31,129.25,482.04,129.83,481.44,130.73z M487.78,136.36c-0.26,0.76-0.89,1.25-1.69,1.16c-1.9-0.22-3.28-1.53-3.73-3.15
	c-0.41-1.43,1.29-0.82,1.9-1.09c1.2-0.01,2.11,0.32,2.94,0.89C488.01,134.72,488.06,135.54,487.78,136.36z M491.57,85.29
	c-1.47,1.74-3.42,2.45-5.4,2.61c-1.23-0.03-2.35-0.07-2.68-1.19c-0.32-1.06,0.7-1.57,1.43-2.04c1.59-1.04,3.34-1.74,5.22-2.03
	c0.71-0.11,1.57-0.03,1.99,0.66C492.58,84.05,492.05,84.72,491.57,85.29z M494.93,76.1c-0.85,1.98-4.18,4.1-6.39,3.97
	c-1.02-0.19-2.4,0.08-2.8-1.12c-0.44-1.29,0.74-2.03,1.63-2.74c1.93-1.52,4.26-1.59,6.55-1.69
	C494.95,74.48,495.42,74.96,494.93,76.1z M496.6,69.3c-1.54,1.75-3.15,3.4-5.75,3.28c-0.84-0.04-1.7-0.1-2.03-1.04
	c-0.3-0.86,0.06-1.61,0.67-2.23c1.67-1.7,3.83-2.09,6-2.26c0.67,0.13,1.5-0.27,1.81,0.53C497.58,68.28,497.02,68.82,496.6,69.3z
	 M497.69,52.45c-0.69,0.21-1.44,0.26-2.17,0.26c-2.33,0-2.33-0.03-3.8,1.29c-0.46-2.79,2.35-6.54,4.99-6.58
	c1.51-0.02,2.49,0.84,2.79,2.26C499.79,51.09,499.01,52.04,497.69,52.45z"/>
<path class="st4" d="M77.31,37.4L77.31,37.4c-0.31,0.27-0.64,0.49-1,0.69c-3.06,1.72-7.61,1.39-10.08-0.83
	c-0.13-0.11-0.26-0.23-0.38-0.36c-1.8-1.15-3.61-2.3-5.41-3.44c-0.01-0.01-0.02-0.03-0.03-0.04c-1.01-1.6-2.59-2.66-3.85-4.03
	c-0.48-0.53-1-0.48-1.57-0.32c-8.1,2.21-15.97,0.81-23.78-1.48c-2.38-0.7-4.78-1.18-7.28-1.06c-3.84,0.18-6.02,1.5-6.82,4.18
	c-0.86,2.88,0.36,6.26,2.98,8.32c0.92,0.72,1.95,1.18,3.03,1.6c1.27,0.48,1.74,1.54,1.28,2.8c-0.47,1.27-1.5,1.59-2.82,1.27
	c-5.32-1.3-9.43-7.15-9.07-12.93c0.35-5.46,4.2-9.02,10.39-9.56c3.33-0.29,6.53,0.34,9.71,1.28c5.87,1.74,11.82,2.85,17.99,2.11
	c0.55-0.07,1.1-0.22,1.96-0.39c-0.83-1.23-1.53-2.28-2.24-3.32c-0.98-1.44-1.81-2.95-2.2-4.65c-1.16-5.12,2.77-9.21,7.95-8.29
	c6.87,1.21,10.31,9.9,6.13,15.46c-2.13,2.83-2.13,2.85,1.14,5.04c0.01,0.01,0.02,0.01,0.03,0.02c0.8,1.4,2.15,2.18,3.45,3h0.01
	c0.42-0.13,0.83-0.1,1.21,0.01c0.23,0.07,0.44,0.17,0.64,0.28c2,1.1,3.99,1.2,6.05,0.34c0.06-0.02,0.13-0.05,0.19-0.08h0.01
	c1.19-0.55,2.32-0.7,3.18,0.57C79.16,35.14,78.28,36.27,77.31,37.4z"/>
<path class="st5" d="M528.25,22.98c0.13,4.47-3.65,9.09-7.75,9.47c-1.71,0.16-3.02-0.45-3.2-2.25c-0.16-1.66,1.08-2.22,2.52-2.4
	c2.42-0.3,4.2-2.46,4.02-4.88c-0.19-2.68-1.77-3.98-4.7-3.76c-2.33,0.18-4.46,1.05-6.48,2.2c-2.65,1.51-5.39,2.81-8.42,3.34
	c-1.15,0.2-1.83,0.81-2.4,1.82c-1.4,2.48-3.27,4.52-5.98,5.63h-0.01c-1.93-0.1-2.77-1.11-2.52-3.03h0.01
	c1.07-0.89,2.16-1.73,3.18-2.66c0.93-0.84,1.17-1.47-0.43-1.97c-2.62-0.81-4.53-2.57-5.8-5.02c-1.37-2.63-1.47-5.25,0.37-7.65
	c2.04-2.68,4.92-3.55,8.14-2.86c2.9,0.62,4.64,2.58,5.4,5.47c0.49,1.85,0.38,3.7,0.06,5.72c2.56-0.45,4.52-1.63,6.52-2.72
	c2.93-1.6,6-2.69,9.38-2.63C524.88,14.88,528.11,18.19,528.25,22.98z"/>
<path class="st4" d="M491.07,36.25c-0.02,0.15-0.07,0.28-0.19,0.39c-2.16,2.01-4.16,4.3-7.33,4.83c-0.03,0.01-0.05,0.02-0.08,0.02
	c-2,0.63-4.01,1.25-6,1.87c-0.21,0.19-0.42,0.32-0.65,0.41c-0.76,0.31-1.58,0.1-2.4-0.01c-5.73-0.77-10.18-4.01-14.5-7.49
	c-2.24-1.8-2.22-1.83-4.16,0.24c-2.19,2.33-4.87,3.07-7.09,1.97c-2.47-1.23-3.8-3.82-3.37-6.55c0.34-2.17,1.76-3.45,3.61-4.37
	c0.57-0.28,1.46-0.38,1.46-1.15c0-0.94-0.89-1.32-1.63-1.66c-2.96-1.35-8.34-0.33-10.62,2c-0.49,0.5-0.87,1.17-1.65,1.29
	c-0.02,0-0.04,0.01-0.07,0.01c-3.44-0.16-3.88-1.48-1.76-5.34h0.01c3.38-2.68,7.29-3.59,11.51-3.53c5.1,0.07,8.54,2.59,10.4,7.24
	c0.46,1.15,1.08,1.89,2.1,2.55c3.52,2.28,6.4,5.41,10.07,7.49c3.37,1.91,6.84,3.25,10.78,1.92c0.3-0.1,0.57-0.31,0.85-0.47
	c0.01,0,0.02-0.01,0.03-0.01c2.5-0.69,4.35-2.43,6.34-3.94c2.32-1.77,3.54-1.33,4.28,1.51C491.04,35.72,491.11,36.01,491.07,36.25z"
	/>
<path class="st4" d="M300.73,32.38c-0.04,0.05-0.08,0.11-0.13,0.16c-2.04,2.49-5.33,2.85-8.38,0.91c-0.03-0.02-0.04-0.04-0.07-0.05
	c-0.01-0.01-0.02-0.01-0.03-0.01c-1.14-0.49-2.27-0.98-3.41-1.47c-0.01,0-0.01-0.01-0.02-0.01c-4.39-2.42-8.82-4.75-13.76-5.87
	c-0.01,0-0.01-0.01-0.01-0.01h-0.01c-1.27-0.34-1.3-0.34-1.53,0.53v0.01c0,0.01-0.01,0.02-0.01,0.04c1.41,2.46,1.78,4.94-0.07,7.34
	c-1.64,2.13-4.65,2.9-7.36,2.04c-2.79-0.89-4.18-3.48-3.67-6.9c0.12-0.79,0.64-1.8-0.87-1.51c-3.97,0.77-7.98,1.48-9.86,5.81v0.02
	c-1.04,0.69-2.08,0.96-3.14,0.04c-1.22-1.07-0.42-2.27-0.22-3.43l0.01-0.01c3.67-5.05,8.98-6.57,14.84-6.86
	c1.56-0.08,2.99-0.22,4.48-0.95c3.57-1.77,7.24-0.87,10.81,0.21c4.48,1.34,8.54,3.73,12.84,5.55c2.06,1.24,4.1,1.93,6.62,1.1
	C300.59,28.13,301.58,29.38,300.73,32.38z"/>
<path class="st4" d="M246.73,37.44L246.73,37.44c-0.05,0.11-0.09,0.22-0.14,0.32c-1.3,2.98-3.74,4.82-6.46,6.38
	c-0.12,0.06-0.24,0.13-0.36,0.2h-0.01c-2.95,1.5-5.74,3.32-8.9,4.39c-0.03,0.06-0.06,0.12-0.11,0.17v0.01
	c-0.53,0.85-1.47,1.03-2.35,1.26c-10.35,2.78-20.62,2.52-30.81-0.8c-0.58-0.19-1.14-0.4-1.59-0.78c-0.23-0.18-0.44-0.41-0.6-0.7
	c-2.47-0.9-4.63-2.38-6.94-3.58h-0.01c-0.02,0-0.03,0.01-0.05,0.01c-0.92,0.12-1.67-0.39-2.44-0.75c-1.88-0.9-3.67-2.02-5.84-2.16
	c-0.53-0.04-1.11-0.19-1.12-0.92v-0.07c-1.26-2.27-0.18-3.37,1.96-3.94h0.01c1.1-0.51,2.04,0.03,3,0.45v0.01h0.01
	c2.92,1.51,5.85,3.02,8.77,4.53c0.01,0,0.01,0.01,0.02,0.01c4.48,3.17,9.69,4.35,14.96,5.02c8.06,1.03,16.02,0.48,23.64-2.69
	c0.89-0.37,1.7-0.93,2.55-1.39c0-0.01,0.01-0.01,0.01-0.01c2.9-1.23,5.17-3.31,7.37-5.48c0.01-0.02,0.01-0.04,0.02-0.06
	c0.08-0.28,0.17-0.56,0.29-0.82c0.17-0.41,0.4-0.78,0.74-1.06c0.02-0.02,0.03-0.03,0.05-0.03c0.25-0.2,0.55-0.34,0.94-0.42
	c1.04-0.62,2.1-0.93,3.09,0.02C247.3,35.4,247.24,36.41,246.73,37.44z"/>
<path class="st4" d="M430.65,32.38c0,0.01,0,0.02-0.01,0.03c-0.02,0.1-0.04,0.19-0.08,0.29c-0.79,2.95-4.04,5.7-7.37,6.21
	c-0.07,0.02-0.15,0.03-0.22,0.04h-0.02c-3.19,0.88-6.44,1.4-9.75,1.52h-0.06c-9.19-0.39-17.36-3.6-24.96-8.67
	c-4.83-3.22-9.73-6.42-15.64-7.42c-1.6-0.27-3.22-0.49-4.8,0.13c-0.01-0.01-0.01,0-0.02,0c-3.5,0.12-4.26-0.87-2.98-3.88
	c0.01,0,0.01,0,0.02,0c6.32-1.82,12.18-0.3,17.71,2.71c4.17,2.27,8.16,4.86,12.25,7.28c6.36,3.77,13.17,5.75,20.62,5.24h0.02
	c2.03,0.21,3.9-0.32,5.76-1.07l0.01-0.01c0.14-0.16,0.27-0.29,0.42-0.43l0.01-0.01c0.77-0.73,1.65-1.26,2.63-1.64
	c0.21-0.09,0.42-0.17,0.64-0.24h0.02c0.11-0.04,0.18-0.11,0.21-0.21c0-0.01,0.01-0.01,0.01-0.02v-0.01c0.96-1.2,1.11-2.99,2.76-3.67
	C431.1,28.38,431.67,29.15,430.65,32.38z"/>
<path class="st4" d="M361.88,26.79c-0.03,0.08-0.08,0.15-0.15,0.2c-2.31,1.84-4.66,3.63-7.82,3.63h-0.1
	c-1.45,0.15-2.9,0.3-4.34,0.45c-0.22,0.14-0.43,0.24-0.65,0.31c-0.97,0.3-1.97-0.01-2.94-0.18c-7.76-1.37-15.47-2.95-23.27-4.12
	c-4.76-0.72-9.33-0.48-13.51,2.23c-0.69,0.46-1.45,0.8-2.3,0.7c-0.08-0.01-0.17-0.02-0.25-0.04c-2.85-0.79-3.25-1.81-1.63-4.23
	v-0.01c0.01,0,0.01-0.01,0.01-0.01c8.16-5.59,16.97-4.27,25.85-2.48c5.62,1.13,11.26,2.14,16.9,3.16c0.94,0.16,1.94,0.09,2.92,0.13
	c2.08,0.23,3.74-0.74,5.37-1.83c0.7-0.88,1.7-1.2,2.74-1.45c2.36-0.54,3.35,0.51,3.23,2.82C361.97,26.31,361.98,26.58,361.88,26.79z
	"/>
<path class="st4" d="M124.2,37.52c0.06,1.66-0.56,2.97-1.96,3.9c-0.19,0.06-0.36,0.1-0.52,0.1c-0.95,0.07-1.65-0.62-2.38-1.09
	c-5.12-3.3-10.25-6.56-16.25-8.13c-2.39-0.62-4.79-1.21-7.24-1.52c-3.16-0.41-6.2-0.02-9.07,1.58c-1.33,0.74-2.69,1.78-4.4,1.27
	c-0.06-0.01-0.12-0.03-0.18-0.05c-1.63-0.9-1.44-2.47-1.49-3.96v-0.07c0.31-0.11,0.65-0.17,0.91-0.34
	c8.43-5.44,17.04-3.77,25.76-0.81C113.52,30.48,118.73,34.22,124.2,37.52z"/>
<path class="st6" d="M174.49,36.51L174.49,36.51c-0.81,1.37-1.21,3.18-3.38,2.94c-0.01,0-0.01,0-0.02,0
	c-6.11-0.97-11.92,0.4-17.68,2.19c-2.98,0.93-5.96,1.85-8.94,2.77c-0.58-1.37-0.97-2.83-1.98-3.99c6.4-1.71,12.56-4.31,19.17-5.22
	c3.42-0.47,6.86-0.5,10.29,0.02C172.98,35.37,173.82,35.73,174.49,36.51L174.49,36.51z"/>
<path class="st7" d="M273.36,26.6c-0.31-0.21-0.88-0.6-0.58-0.82c0.68-0.5,1.47-0.22,2.15,0.25C274.4,26.21,273.7,25.92,273.36,26.6
	z"/>
<path class="st6" d="M138.55,45.73c-0.01,0-0.01,0.01-0.02,0.01h-0.01c-3.91,1.72-7.45,0.62-10.87-1.38c-0.2-0.53-0.37-1.08-0.6-1.6
	c-0.42-0.91-0.4-1.78,0.29-2.51c0.74-0.78,1.51-0.1,2.27,0.07h0.01c2.99-0.12,5.88,0.61,8.81,0.99c0.01,0.01,0.03,0.01,0.04,0.01
	C140.34,43.28,140.35,44.26,138.55,45.73z"/>
<path class="st8" d="M59.85,19.12c-0.2,0.52-0.41,1.41-0.85,2.17c-1.35,2.28-1.99,2.28-3.61,0.16c-1.1-1.43-2.12-2.91-2.8-4.58
	c-0.37-0.9-0.84-1.88,0.06-2.74c0.89-0.85,1.98-1.13,3.18-0.79C57.76,13.9,59.84,16.73,59.85,19.12z"/>
</svg>
