<?xml version="1.0" encoding="utf-8"?>
<!-- Generator: Adobe Illustrator 25.4.1, SVG Export Plug-In . SVG Version: 6.00 Build 0)  -->
<svg version="1.1" id="Layer_1" xmlns="http://www.w3.org/2000/svg" xmlns:xlink="http://www.w3.org/1999/xlink" x="0px" y="0px"
	 viewBox="0 0 612 497.94" style="enable-background:new 0 0 612 497.94;" xml:space="preserve">
<style type="text/css">
	.st0{fill:#F58470;}
	.st1{fill:#FCC497;}
	.st2{fill:#69C6B7;}
	.st3{fill:#06B0AB;}
	.st4{fill:#F4772B;}
	.st5{fill:#DD6A27;}
	.st6{fill:#DD6B27;}
	.st7{fill:#DD6B28;}
	.st8{fill:#F4772C;}
	.st9{fill:#DD6C28;}
	.st10{fill:#DE6D29;}
	.st11{fill:#E07836;}
	.st12{fill:#E17C3B;}
	.st13{fill:#E27F3F;}
	.st14{fill:#DF7431;}
	.st15{fill:#ECAB80;}
	.st16{fill:#E17E3F;}
	.st17{fill:#FDD0B1;}
	.st18{fill:#F6D9C4;}
	.st19{fill:#FFFFFF;}
	.st20{fill:#FFFEFE;}
	.st21{fill:#FFFDFC;}
	.st22{fill:#FFFEFD;}
	.st23{fill:#FFFCFB;}
	.st24{fill:#FFFDFB;}
	.st25{fill:#FFFDFD;}
	.st26{fill:#FFFCFA;}
	.st27{fill:#FFFAF7;}
	.st28{fill:#FFFBFA;}
	.st29{fill:#FFFBF9;}
	.st30{fill:#FFFAF8;}
	.st31{fill:#FFF8F5;}
	.st32{fill:#FFF9F7;}
	.st33{fill:#FFF7F4;}
	.st34{fill:#FFF7F3;}
	.st35{fill:#FFF8F6;}
	.st36{fill:#FFF6F2;}
	.st37{fill:#FFFFFE;}
	.st38{fill:#FFFEFC;}
	.st39{fill:#FFFDFA;}
	.st40{fill:#FFFCF9;}
	.st41{fill:#FFFCF8;}
	.st42{fill:#FFFBF7;}
	.st43{fill:#FFEEE0;}
	.st44{fill:#FEE6D4;}
	.st45{fill:#FEFFFF;}
	.st46{fill:#FEFFFE;}
	.st47{fill:#FDFEFE;}
	.st48{fill:#FCFEFD;}
	.st49{fill:#FCFDFD;}
	.st50{fill:#FBFDFD;}
	.st51{fill:#F9FCFB;}
	.st52{fill:#FAFDFC;}
	.st53{fill:#FBFDFC;}
	.st54{fill:#F8FCFA;}
	.st55{fill:#F7FCFA;}
	.st56{fill:#E3E1D3;}
	.st57{fill:#FEFEFE;}
	.st58{fill:#FEFEFD;}
	.st59{fill:#FAFCFC;}
	.st60{fill:#F8FBFB;}
	.st61{fill:#F9FCFC;}
	.st62{fill:#F8FCFB;}
	.st63{fill:#F7FBFA;}
	.st64{fill:#F7FBFB;}
	.st65{fill:#F6FAFA;}
	.st66{fill:#F6FAF9;}
	.st67{fill:#F5FAF9;}
	.st68{fill:#F7F4F0;}
	.st69{fill:#ECEFEB;}
	.st70{fill:#FEE7D7;}
	.st71{fill:#FFF7F1;}
	.st72{fill:#FCF2EA;}
	.st73{fill:#FEF9F5;}
	.st74{fill:#FAECE1;}
	.st75{fill:#FDF6F1;}
	.st76{fill:#FDF7F2;}
	.st77{fill:#F7E0CE;}
	.st78{fill:#FEFBF8;}
	.st79{fill:#FDF6F0;}
	.st80{fill:#F7DDC9;}
	.st81{fill:#FEF9F6;}
</style>
<path class="st0" d="M161,131.11c1.73-2.19,2.72-4.77,3.79-7.29c0.93-2.17,2.34-2.7,4.65-1.83c4.48,1.67,7.07,5.05,8.77,9.3
	c0.36,0.91,0.72,1.82,1.08,2.72c1.54,0.89,2.34,2.16,1.98,3.99c3.15,4.55,2.72,9.77,2.31,14.79c-0.45,5.46-0.91,10.98-2.38,16.32
	c-2.16,7.87-5.23,15.41-9.35,22.42c-1.62,2.77-3.56,5.22-4,8.55c-0.42,3.19,0.18,6.18,0.98,9.21c3.74,14.11,2.85,27.49-6.4,39.51
	c-0.7,0.91-1.35,1.88-2.13,2.72c-6.81,7.25-9.17,16.46-11.83,25.66c-1.82,6.31-1.74,12.83-3.25,19.15
	c-1.37,5.76-5.1,8.98-10.26,10.55c-4.41,1.34-8.78,2.57-12.95,4.61c-3.79,1.86-7.52,0.69-10.61-1.79
	c-3.41-2.73-6.82-5.44-10.52-7.75c-5.31-3.31-6.49-8.04-5.44-13.86c1.45-7.97,2.34-16-0.19-23.91c-1.37-4.3-3-8.52-5.22-12.49
	c-5.83-10.42-7.75-21.6-5.86-33.32c1.22-7.54,3.22-14.9,7.67-21.36c2.23-3.24,2.54-6.75,1.57-10.59c-1.21-4.78-3.25-9.33-3.86-14.26
	c-1.81-14.6-1.25-28.89,5.75-42.3c0.53-1,0.98-2.08,1.9-2.84c0.79-0.58,1.41-0.05,1.91,0.43c1.12,1.06,2.62,1.57,3.66,2.71
	c0.72,2.27,2.37,4.08,3.13,6.33c0.23,0.67,0.8,0.85,1.34,0.29c2.02-2.11,4.91-3.27,6.42-5.93c1.66-3,1.35-3.56-2.27-4.18
	c-0.68-0.64-0.91-1.53-1.33-2.32c-0.99-1.84-2.13-1.97-3.25-0.22c-0.81,1.26-1.67,2.19-3.25,2.19c-1.6-0.61-3.3-1.13-3.42-3.28
	c2.89-3.69,6.51-6.31,10.95-7.85c2.33-0.81,3.71,0.04,4.72,2.11c0.91,1.86,0.85,3.96,1.65,5.83c0.89,1.25,0.93,2.86,1.75,4.15
	c0.44,3.6,1.14,7.16,1.89,10.69c1.52,7.11,1.41,14.39,2.51,21.52c0.96,6.22,1.05,12.43,0.86,18.57c0.35,0.4,0.67,0.33,0.97,0.19
	c5.2-2.57,10.24-1.5,15.23,0.68c0.6,0.26,1.2,0.55,1.77,0.87c1.56,0.87,2.27,0.5,2.67-1.33c1.42-6.42,3.06-12.78,5.54-18.92
	c1.5-3.72,2.05-7.79,2.86-11.73c0.93-4.5,3.05-8.49,4.92-12.6C159.5,133.97,160.09,132.44,161,131.11z"/>
<path class="st1" d="M288.34,126.98c0.86,3.19,3.07,5.66,4.98,8.14c2.96,3.85,3.71,8.29,3.92,12.72c0.3,6.21,1.14,12.47,0.06,18.69
	c-0.74,4.27-1.45,8.58-2.7,12.72c-1.37,4.53-2.73,9.04-4.9,13.37c-2.2,4.4-1.51,9.44,0.93,13.74c3.45,6.07,4.38,12.83,4.92,19.42
	c0.6,7.28-1.25,14.51-5.06,21.02c-1.75,2.98-3.39,6.01-5.1,9.02c-2.58,4.55-3.15,9.62-3.85,14.66c-0.93,6.66-2.01,13.27-1.16,20.07
	c0.34,2.71-0.06,5.6-0.61,8.32c-1.07,5.32-4.87,8.47-9.62,10.39c-3.38,1.36-6.62,2.84-9.56,5.01c-3.86,2.85-8.03,2.9-12.04,0.52
	c-3.9-2.31-7.87-4.46-11.96-6.39c-4.85-2.3-7.16-6.07-6.93-11.43c0.27-6.1,0-12.19-1.28-18.15c-1.63-7.57-6.08-13.76-10.51-19.91
	c-4.79-6.66-7.49-14.16-8.95-22.17c-1.38-7.58-0.16-15.07,1.06-22.51c0.47-2.86,1.86-5.6,3.06-8.29c1.58-3.55,1.38-6.93-0.03-10.48
	c-1.97-4.96-4.92-9.49-6.22-14.74c-1.94-7.82-3.63-15.67-3.28-23.8c0.32-7.44,1.5-14.69,4.72-21.49c0.43-0.9,1.04-1.77-0.34-2.4
	c1.4-0.67,2.11-2.14,3.4-2.93c2.64-3.04,5.28-6.04,9.04-7.83c2.13-1.01,3.62-0.54,4.77,1.4c2.1,3.56,2.99,7.59,4.45,11.39
	c-0.77,0.43-1.47,0.07-2.08-0.31c-2.23-1.38-4.64-2.43-6.92-3.71c-0.74-0.84-1.59-1.11-2.62-0.53c-1.9,0.48-1.93,2.05-2.06,3.56
	c-3.01,0.57-3.39,1.37-1.84,4c1.16,1.97,2.67,3.71,3.9,5.64c0.67,1.05,1.25,0.98,2.07,0.07c1.8-1.99,3.5-4.06,5.33-6.02
	c2.71,0.7,5.08,2.06,7.24,3.81c1.36,3.62,2.75,7.25,3.55,11.03c2.04,9.65,5.38,19.01,6.4,28.88c0.12,1.12,0.42,1.54,1.5,0.86
	c4.99-3.11,10.2-2.52,15.46-0.85c0.39,0.12,0.79,0.23,1.18,0.38c1.69,0.63,2.35,0.09,2.44-1.75c0.33-6.49,1.1-12.91,2.59-19.27
	c0.99-4.21,0.93-8.65,1.29-12.98c0.15-1.8,0.78-3.55,0.57-5.38c0-0.34,0.08-0.72,0.39-0.83c2.98-1.07,5.51-3.06,8.5-4.11
	c2.32,0.73,3.83,2.41,5.01,4.43c0.57,0.97,1.12,1.52,1.83,0.13c0.47-0.91,1.22-1.51,2.05-2.06c1.88-1.25,2.19-3.15,1.97-5.2
	c-0.12-1.09-0.73-1.84-1.84-2.01c-1.07-0.16-1.84-0.64-2.15-1.72c-0.25-2.85-0.29-2.89-3.05-2.75c-1.71-0.05-1.97,1.07-1.95,2.42
	c-1.63,2.28-3.88,3.83-6.25,5.22c-0.42,0.25-0.9,0.38-1.35-0.01c1.33-4.52,2.65-9.05,3.98-13.57c0.62-2.1,2.33-2.17,3.94-1.77
	c2.28,0.56,4.6,1.17,6.36,2.94c0.14,0.1,0.29,0.24,0.27,0.38C284.87,126.42,286.2,127.11,288.34,126.98z"/>
<path class="st2" d="M387.4,120.12c0.62-2.78,1.22-5.56,1.86-8.34c0.54-2.33,2.38-2.18,4.09-1.96c3.27,0.42,6.05,1.86,8.21,4.4
	c0,2.05,0.91,3.41,2.98,3.88c1.74,2.17,3.52,4.31,5.2,6.53c2.42,3.2,3.1,7.11,3.6,10.88c0.82,6.09,1.66,12.26,1.13,18.42
	c-0.77,8.98-2.04,17.84-5.66,26.29c-2.13,4.99-0.71,9.99,1.78,14.68c7.25,13.65,8.7,27.5,1.53,41.71c-2.36,4.68-5.03,9.3-5.83,14.59
	c-0.52,3.49-1,7.01-1.06,10.53c-0.09,5.15-0.93,10.29,0.14,15.47c0.75,3.63,0.59,7.43,0.09,11.07c-0.61,4.47-3.78,7.56-7.52,9.53
	c-4.01,2.11-7.97,4.17-11.52,7.04c-3.13,2.53-6.97,2.42-10.29,0.79c-4.66-2.28-9.43-4.27-14.13-6.43c-4.16-1.91-6.22-5.2-6.38-9.73
	c-0.2-5.76-0.84-11.46-2.13-17.08c-1.75-7.62-6.35-13.65-11.15-19.51c-9.41-11.49-13.49-24.42-12.21-39.36
	c0.49-5.68,1.83-10.94,3.46-16.27c0.71-2.33,0.57-4.74-0.53-6.98c-1.23-2.51-2.51-4.99-3.81-7.47c-8.34-15.96-11.18-32.65-6.69-50.3
	c0.63-2.47,1.59-4.83,2.94-7.01c1.53-0.49,2.63,0.23,3.61,1.28c-0.82,2.16-0.12,3.93,1.31,5.61c1.22,1.43,2.47,2.84,3.58,4.35
	c0.78,1.06,1.31,0.95,1.97-0.12c0.77-1.25,1.78-2.33,2.7-3.48c3.03-3.79,2.79-5.01-1.43-7.08c-0.28-3.06-0.42-3.16-3.44-2.64
	c-2.26,0.39-4.39,0.32-5.84-1.86c1.52-2.37,3.54-4.24,5.87-5.75c3.12-2.03,4.9-1.58,6.8,1.62c0.37,0.63,0.72,1.26,1.09,1.9
	c-0.58,2.12,0.31,3.52,2.19,4.44c1.24,1.67,2.07,3.56,2.86,5.45c3.39,8.13,6.41,16.38,8.81,24.88c1.56,5.53,3.92,10.83,4.82,16.56
	c0.19,1.2,0.27,2.42,0.5,3.51c0.4,0.22,0.63,0.13,0.82-0.03c4.65-3.83,9.93-3.9,15.44-2.63c0.4,0.09,0.8,0.2,1.2,0.3
	c2.8,0.65,2.84,0.58,2.83-2.37c-0.02-6.26,0.35-12.48,1.62-18.64c0.79-3.81,0.36-7.72,0.29-11.58c-0.08-4.35,0.87-8.49,1.89-12.65
	c0.2-0.8,0.43-1.6,1.13-2.14c1.35-0.63,2.8-0.62,4.24-0.63c2.32,2.92,5.53,5,7.79,8.45c0.98-1.87,2.42-3.06,3.58-4.48
	c2.17-2.65,1.42-5.38-1.71-6.39c-0.88-0.28-1.35-0.86-1.7-1.63c-0.33-1.38-0.86-2.55-2.6-2.41c-1.26-0.16-2.09,0.52-2.8,1.44
	C391.22,119.78,389.69,121.49,387.4,120.12z"/>
<path class="st3" d="M452.15,129.46c3.3-6.15,7.62-11.26,14.24-14.06c1.89-0.8,3.66-0.99,5.06,0.9c0.11,0.22,0.23,0.5,0.12,0.71
	c-1.22,2.41-0.07,3.8,2.04,4.79c1.54,3.92,2.32,8.05,3.25,12.13c1.8,7.95,2.52,16.06,3.69,24.11c0.92,6.29,1.3,12.56,1.56,18.87
	c0.04,0.94,0.34,1.24,1.17,0.85c5.94-2.76,11.55-1.42,17.04,1.36c1.51,0.76,2.15,0.37,2.47-1.35c1.17-6.3,2.48-12.55,4.86-18.58
	c1.41-3.57,1.78-7.51,2.5-11.3c0.72-3.82,1.68-7.54,3.69-10.92c1.75-1.52,4.04-1.56,6.1-2.21c2.6,2.46,4.91,5.15,6.29,8.86
	c1.22-1.62,2.63-2.63,4.04-3.68c2.89-2.15,2.72-5-0.25-7.04c-1.35-0.92-1.58-2.64-2.69-3.74c-1.28-2.12-1.88-2.29-3.74-0.85
	c-1.28,1-2.59,1.96-3.98,2.79c-0.73,0.44-1.48,1.11-2.42,0.39c1.35-3.33,2.63-6.69,4.09-9.98c0.88-1.97,2.66-1.68,4.24-1.07
	c1.6,0.61,3.09,1.5,4.62,2.27c0.58,1.23,1.62,2.07,2.52,3.03c2.23,4.29,4.64,8.5,6.64,12.9c1.48,3.27,1.42,6.94,1.27,10.45
	c-0.28,6.4-0.44,12.9-2.25,19.07c-2.48,8.49-5.23,16.88-10.27,24.38c-3.09,4.6-2.49,9.84-0.85,14.97
	c3.26,10.23,3.58,20.47-0.15,30.67c-1.6,4.38-4.09,8.32-7.1,11.79c-6.65,7.65-8.82,17.02-11.28,26.45
	c-1.62,6.2-1.39,12.55-2.66,18.76c-1.23,6.04-5.03,9.39-10.32,11.11c-4.07,1.33-8.13,2.49-11.92,4.55
	c-3.88,2.11-7.76,1.34-11.12-1.21c-3.55-2.69-7.1-5.36-10.93-7.61c-5.66-3.33-6.57-8.35-5.6-14.27c1.13-6.94,1.57-13.92-0.18-20.82
	c-1.29-5.12-3.53-9.91-6.14-14.49c-7.45-13.08-9.13-26.72-5.28-41.34c1.39-5.28,3.58-9.99,6.08-14.7c1.39-2.61,1.91-5.4,0.96-8.34
	c-0.76-2.34-1.33-4.75-2.09-7.09c-5.09-15.69-5.1-31.32,0.5-46.9c3-1.36,6.29-1.26,9.42-1.92c1.74,0.78,2.11,2.59,2.95,4.03
	c0.51,0.86,0.98,1.36,1.82,0.42c1.42-1.6,3.28-2.69,4.74-4.25c2.31-2.49,2.14-3.88-0.77-5.52c-0.36-0.2-0.71-0.41-0.94-0.76
	c-0.1-1.65,0.36-3.73-2.5-3.27c-1.8,0.22-1.7,1.99-2.46,3.04c-0.21,0.29-0.48,0.47-0.83,0.55c-2.26-0.65-2.79,1.11-3.56,2.55
	C455.99,129.73,454.18,130.85,452.15,129.46z"/>
<path class="st4" d="M100.17,123.06c0.8,1.4,2.15,2.18,3.45,3c0.67-0.21,1.32-0.01,1.86,0.29c2.06,1.14,4.12,1.2,6.25,0.26
	c1.19-0.55,2.32-0.7,3.18,0.57c1.05,1.55,0.16,2.69-0.8,3.82c-3.11,2.57-8.84,2.31-11.46-0.51c-1.8-1.15-3.61-2.3-5.41-3.44
	c-1.01-1.62-2.61-2.69-3.88-4.07c-0.48-0.53-1-0.48-1.57-0.32c-8.1,2.21-15.97,0.81-23.78-1.48c-2.38-0.7-4.78-1.18-7.28-1.06
	c-3.84,0.18-6.02,1.5-6.82,4.18c-0.86,2.88,0.36,6.26,2.98,8.32c0.92,0.72,1.95,1.18,3.03,1.6c1.27,0.48,1.74,1.54,1.28,2.8
	c-0.47,1.27-1.5,1.59-2.82,1.27c-5.32-1.3-9.43-7.15-9.07-12.93c0.35-5.46,4.2-9.02,10.39-9.56c3.33-0.29,6.53,0.34,9.71,1.28
	c5.87,1.74,11.82,2.85,17.99,2.11c0.55-0.07,1.1-0.22,1.96-0.39c-0.83-1.23-1.53-2.28-2.24-3.32c-0.98-1.44-1.81-2.95-2.2-4.65
	c-1.16-5.12,2.77-9.21,7.95-8.29c6.87,1.21,10.31,9.9,6.13,15.46C96.86,120.84,96.87,120.85,100.17,123.06z"/>
<path class="st5" d="M532.65,125.74c-1.93-0.1-2.77-1.11-2.52-3.03c1.07-0.88,2.17-1.73,3.19-2.66c0.93-0.84,1.17-1.47-0.43-1.97
	c-2.62-0.81-4.53-2.57-5.8-5.02c-1.37-2.63-1.47-5.25,0.37-7.65c2.04-2.68,4.92-3.55,8.14-2.86c2.9,0.62,4.64,2.58,5.4,5.47
	c0.49,1.85,0.38,3.7,0.06,5.72c2.56-0.45,4.52-1.63,6.52-2.72c2.93-1.6,6-2.69,9.38-2.63c4.72,0.08,7.95,3.39,8.09,8.18
	c0.13,4.47-3.65,9.09-7.75,9.47c-1.71,0.16-3.02-0.45-3.2-2.25c-0.16-1.66,1.08-2.22,2.52-2.4c2.42-0.3,4.2-2.46,4.02-4.88
	c-0.19-2.68-1.77-3.98-4.7-3.76c-2.33,0.18-4.46,1.05-6.48,2.2c-2.65,1.51-5.39,2.81-8.42,3.34c-1.15,0.2-1.83,0.81-2.4,1.82
	C537.24,122.59,535.37,124.64,532.65,125.74z"/>
<path class="st4" d="M520.35,135.06c-2.03,0.63-4.06,1.26-6.08,1.89c-0.92,0.85-1.99,0.54-3.05,0.4c-5.73-0.77-10.18-4.01-14.5-7.49
	c-2.24-1.8-2.22-1.83-4.16,0.24c-2.19,2.33-4.87,3.07-7.09,1.97c-2.47-1.23-3.8-3.82-3.37-6.55c0.34-2.17,1.76-3.45,3.61-4.37
	c0.57-0.28,1.46-0.38,1.46-1.15c0-0.94-0.89-1.32-1.63-1.66c-2.96-1.35-8.34-0.33-10.62,2c-0.51,0.52-0.89,1.21-1.72,1.3
	c-3.44-0.16-3.88-1.48-1.76-5.34c3.38-2.68,7.3-3.59,11.52-3.53c5.1,0.07,8.54,2.59,10.4,7.24c0.46,1.15,1.08,1.89,2.1,2.55
	c3.52,2.28,6.4,5.41,10.07,7.49c3.37,1.91,6.84,3.25,10.78,1.92c0.3-0.1,0.57-0.31,0.85-0.47c2.51-0.69,4.37-2.43,6.37-3.95
	c2.32-1.77,3.54-1.33,4.28,1.51c0.05,0.4,0.19,0.88-0.13,1.17C525.52,132.24,523.52,134.53,520.35,135.06z"/>
<path class="st4" d="M327.96,121.55c2.06,1.24,4.1,1.93,6.62,1.1c2.81-0.93,3.8,0.32,2.95,3.32c-2.05,2.66-5.46,3.06-8.6,1.01
	c-1.14-0.49-2.28-0.98-3.42-1.47c-4.4-2.42-8.83-4.76-13.78-5.88c-1.32-0.36-1.32-0.36-1.56,0.57c1.41,2.46,1.78,4.94-0.07,7.34
	c-1.64,2.13-4.65,2.9-7.36,2.04c-2.79-0.89-4.18-3.48-3.67-6.9c0.12-0.79,0.64-1.8-0.87-1.51c-3.97,0.77-8,1.48-9.86,5.83
	c-1.04,0.69-2.08,0.96-3.14,0.04c-1.22-1.07-0.42-2.27-0.22-3.43c3.67-5.06,8.99-6.58,14.85-6.87c1.56-0.08,2.99-0.22,4.48-0.95
	c3.57-1.77,7.24-0.87,10.81,0.21C319.6,117.34,323.66,119.73,327.96,121.55z"/>
<path class="st4" d="M280.14,128.13c1.04-0.62,2.1-0.93,3.09,0.02c0.87,0.84,0.81,1.85,0.3,2.88c-1.32,3.31-4,5.25-6.96,6.9
	c-2.95,1.5-5.75,3.32-8.91,4.39c-0.51,1.01-1.52,1.19-2.46,1.44c-10.35,2.78-20.62,2.52-30.81-0.8c-0.87-0.28-1.7-0.62-2.19-1.48
	c-2.47-0.9-4.63-2.38-6.94-3.58c-0.95,0.15-1.71-0.37-2.5-0.74c-1.88-0.9-3.67-2.02-5.84-2.16c-0.54-0.04-1.15-0.2-1.12-0.99
	c-1.26-2.27-0.18-3.37,1.97-3.94c1.1-0.51,2.05,0.03,3.01,0.46c2.93,1.51,5.86,3.03,8.79,4.54c4.48,3.17,9.69,4.35,14.96,5.02
	c8.06,1.03,16.02,0.48,23.64-2.69c0.89-0.37,1.71-0.93,2.56-1.4c2.9-1.23,5.17-3.31,7.37-5.48
	C278.42,129.43,278.83,128.39,280.14,128.13z"/>
<path class="st4" d="M464.63,122.14c3.27-0.17,3.84,0.6,2.82,3.83c-0.66,3.14-4.17,6.14-7.7,6.57c-3.21,0.89-6.48,1.41-9.81,1.52
	c-9.19-0.39-17.36-3.6-24.96-8.67c-4.83-3.22-9.73-6.42-15.64-7.42c-1.61-0.27-3.23-0.49-4.82,0.13c-3.5,0.12-4.26-0.87-2.98-3.88
	c6.33-1.82,12.19-0.3,17.73,2.71c4.17,2.27,8.16,4.86,12.25,7.28c6.36,3.77,13.17,5.75,20.62,5.24c2.03,0.21,3.92-0.32,5.78-1.07
	c1.02-1.14,2.29-1.87,3.73-2.33c0.11-0.04,0.18-0.11,0.21-0.21C462.83,124.64,462.97,122.82,464.63,122.14z"/>
<path class="st6" d="M396.77,374.36c-0.19-1.77-0.13-3.35-2.08-3.14c-1.76,0.19-3.28,0.51-3,3.11c0.29,2.72-1.27,4.86-3.48,6.41
	c-1.74,1.23-3.2,0.54-3.43-1.62c-0.23-2.19,0.39-4.18,2.15-5.49c1.86-1.39,2.48-3.04,2.27-5.29c-0.18-2-0.04-4.03-0.04-6.35
	c-1.37,1.34-2.2,2.98-3.7,3.52c-1.94,0.71-3.83,1.18-5.29,2.9c-0.79,0.93-2.16,0.67-2.9-0.59c-0.57-0.97-1.09-1.97-1.63-2.95
	c-3.09,3.17-3.36,3.19-5.56,0.5c-0.73,0.52-0.73,1.44-1.17,2.11c-0.74,1.11-1.44,2.32-3.02,2.14c-1.51-0.18-2.2-1.35-2.65-2.63
	c-0.3-0.85-0.47-1.74-0.67-2.62c-0.19-0.85-0.33-1.72-0.56-2.96c-1.52,1.76-2.8,3.22-4.07,4.7c-0.56,0.65-1.17,1.23-2.11,0.84
	c-0.94-0.39-0.94-1.27-0.92-2.1c0.04-1.89,0.17-3.78,0.15-5.67c-0.01-1.22,0.45-1.89,1.68-1.92c1.55-0.04,1.05,1.06,1.03,1.91
	c-0.02,1.47-0.01,2.93-0.01,4.39c2.58-0.95,4.19-3.44,4.07-6.03c-0.16-3.44-0.72-6.9,0.29-10.3c0.4-1.34,0.85-2.84,2.65-2.76
	c1.98,0.09,2.21,1.76,2.4,3.21c0.45,3.57,0.13,7.08-1.55,10.32c-1.62,3.14-0.42,6.1,0.48,9.05c0.42,1.35,1.29,0.71,1.69-0.12
	c0.93-1.92,1.89-3.84,2.57-5.85c0.6-1.78,1.67-3.19,2.81-4.58c0.79-0.96,1.78-1.52,3.04-1.06c1.23,0.44,1.35,1.5,1.25,2.72
	c-1.08,0.3-1.07-2.06-2.47-0.99c-1.09,0.83-1.5,1.89-1.62,3.16c-0.05,0.49-0.14,0.98-0.15,1.47c-0.02,1.06-0.01,2.12-0.01,3.35
	c1.55-0.73,1.56-2.23,2.02-3.44c0.32-0.83,0.51-1.94,1.64-1.86c1.26,0.09,1.45,1.24,1.43,2.24c-0.02,1.78,0.43,3.4,1.26,5.09
	c1.54-1.13,2.17-2.62,2.26-4.41c0.15-2.87,1.53-5.2,3.47-7.15c1.76-1.77,3.63-1.2,4.81,1.61c-1.49-1.03-2.77-2.1-4.13-0.39
	c-1.06,1.33-1.75,5.42-1.03,6.62c0.6,1,1.08,0.3,1.51-0.14c1.28-1.29,2.44-2.66,3.36-4.24c0.37-0.64,1.03-1.35,1.75-1.16
	c0.96,0.26,0.47,1.23,0.43,1.92c-0.15,3.04-0.31,6.07-0.51,9.11c-0.09,1.36,0.14,2.08,1.75,1.46c0.74-0.28,1.62-0.32,2.42-0.27
	c1.08,0.07,1.73,0.83,2.16,1.78C398.3,372.93,397.68,373.43,396.77,374.36z"/>
<path class="st4" d="M387.4,120.12c2.08,0.23,3.74-0.74,5.37-1.83c0.7-0.88,1.7-1.2,2.74-1.45c2.36-0.54,3.35,0.51,3.23,2.82
	c0.04,0.33,0.04,0.72-0.21,0.92c-2.34,1.86-4.71,3.67-7.92,3.63c-1.45,0.15-2.9,0.3-4.34,0.45c-1.17,0.76-2.4,0.34-3.59,0.13
	c-7.76-1.37-15.47-2.95-23.27-4.12c-4.76-0.72-9.33-0.48-13.51,2.23c-0.76,0.5-1.59,0.87-2.55,0.66c-2.86-0.79-3.25-1.82-1.62-4.25
	c8.16-5.59,16.97-4.27,25.85-2.48c5.62,1.13,11.26,2.14,16.9,3.16C385.42,120.15,386.42,120.08,387.4,120.12z"/>
<path class="st4" d="M161,131.11c0.06,1.66-0.56,2.97-1.96,3.9c-1.22,0.42-2.04-0.44-2.9-0.99c-5.12-3.3-10.25-6.56-16.25-8.13
	c-2.39-0.62-4.79-1.21-7.24-1.52c-3.16-0.41-6.2-0.02-9.07,1.58c-1.38,0.77-2.78,1.85-4.58,1.22c-1.66-0.91-1.43-2.52-1.49-4.03
	c0.31-0.11,0.65-0.17,0.91-0.34c8.43-5.44,17.04-3.77,25.76-0.81C150.32,124.07,155.53,127.81,161,131.11z"/>
<path class="st6" d="M219.35,370.7c-1.62,1.79-2.88,1.15-4.06,0.17c-1.67-1.39-2.72-3.29-3.87-5.08c-1.09-1.69-2.38-3.16-4.27-3.96
	c-1.29-0.54-2.16-0.48-2.18,1.34c-0.02,1.88-0.24,3.77-0.54,5.63c-0.26,1.62-1.22,2.91-2.73,3.59c-1.15,0.52-2.35,0.61-3.45-1.07
	c3.02,0.44,3.05-1.57,3.39-3.36c0.92-4.88,0.03-9.86,0.78-14.76c0.25-1.64,0.54-3.25,1.15-4.78c0.4-1.01,1.01-1.91,2.28-1.97
	c0.5-0.02,1.01,0.03,1.36,0.44c0.44,0.53-0.03,0.91-0.3,1.28c-2.35,3.23-2.25,6.92-2.03,10.65c0.07,1.26,0.5,1.53,1.7,1.1
	c2.24-0.8,3.52-2.35,3.91-4.64c0.52-3.1-0.33-6.06-1.25-8.95c-0.54-1.69-4.19-2.47-6.67-1.56c-1.9,0.69-3.2,1.79-2.22,4.09
	c0.35,0.81,0.21,1.51-0.76,1.69c-0.99,0.18-1.84-0.13-2.09-1.22c-0.51-2.18,0.51-3.64,2.35-4.64c3.45-1.89,8.11-1.7,10.48,0.41
	c2.68,2.38,3.6,7.52,1.93,11.22c-0.43,0.96-1.02,1.91-1.74,2.67c-1.09,1.16-1.67,1.86,0.4,2.67c2.61,1.02,3.46,3.59,4.41,5.96
	C216,369.33,216.75,370.92,219.35,370.7z"/>
<path class="st7" d="M241.61,362.78c-0.07,0.24-0.07,0.52-0.21,0.7c-1.04,1.37-2.1,3.27-4.04,2.53c-1.93-0.73-1.23-2.81-1-4.39
	c0.25-1.75,0.67-3.47,0.75-5.31c-1.68,2.14-3.9,3.9-3.93,6.97c-0.01,1.14,0.5,2.87-1.31,2.92c-2.09,0.06-0.63-1.99-1.43-3.01
	c-0.46,1.12-0.86,2.19-1.33,3.23c-0.61,1.35-1.58,2.41-3.13,2.44c-1.51,0.03-1.84-1.43-2.5-2.42c-0.31-0.46-0.19-1.17-0.86-1.49
	c-1.16,0.94-1.97,3.11-3.87,2.06c-1.77-0.98-1.75-2.93-1.49-4.84c0.33-2.34,1.64-4.07,3.12-5.75c0.76-0.86,1.69-1.4,2.84-0.99
	c1.31,0.46,1.56,1.54,1.38,2.82c-2.26-1.68-3.57-1.2-4.08,1.67c-0.29,1.66-0.21,3.38-0.32,5.45c1.65-1.16,1.76-2.67,2.25-3.99
	c0.27-0.73,0.56-1.69,1.64-1.53c1,0.16,1.2,1.03,1.24,1.88c0.09,1.88,0.36,3.71,1.52,5.66c1.95-2.74,3.1-5.51,3.61-8.58
	c0.14-0.84-0.14-2.01,1.01-2.29c0.92-0.23,1.46,0.44,1.74,1.34c0.25,0.8,0.73,0.43,1.06,0.04c0.43-0.5,0.75-1.09,1.19-1.57
	c0.68-0.74,1.14-2.01,2.52-1.42c1.33,0.56,2.12,1.57,2.01,3.07c-0.1,1.39-0.33,2.77-0.41,4.17c-0.03,0.49-0.47,1.27,0.35,1.44
	c0.31,0.06,0.76-0.53,1.15-0.82C241.25,362.56,241.43,362.56,241.61,362.78z"/>
<path class="st8" d="M211.29,130.11c-0.81,1.36-1.21,3.18-3.4,2.93c-6.11-0.97-11.92,0.4-17.68,2.19c-2.98,0.93-5.96,1.85-8.94,2.77
	c-0.58-1.37-0.97-2.83-1.98-3.99c6.4-1.71,12.56-4.31,19.17-5.22c3.42-0.47,6.86-0.5,10.29,0.02
	C209.78,128.96,210.63,129.32,211.29,130.11z"/>
<path class="st7" d="M294.37,349.38c-1.06,1.38-0.73,3-0.66,4.53c0.21,4.21,0.35,8.39-1.55,12.32c-0.34,0.7-0.31,1.21,0.41,1.66
	c1.94,1.23,3.86,2.48,5.94,3.47c1.42,0.67,2.45-0.34,3.75-0.7c-0.87,2.06-2.65,2.6-5.06,1.73c-1.72-0.63-3.16-1.74-4.63-2.78
	c-1.19-0.84-2.18-1.32-3.29,0.24c-0.81,1.13-2.08,1.52-3.52,0.99c-1.25-0.46-1.9-1.31-1.77-2.62c0.17-1.67,1.36-2.65,2.84-2.47
	c2.36,0.28,2.85-1.07,3.02-2.81c0.28-2.78,0.45-5.57,0.66-8.35c0.1-1.26-0.01-2.18-1.7-1.39c-0.84,0.39-1.82,0.45-2.71-0.02
	c0.14-0.74,0.6-0.7,0.98-0.71c2.45-0.02,3.78-1.01,3.69-3.7c-0.06-1.86,0.6-3.57,2.22-4.71c2-1.41,3.45-0.69,3.76,1.85
	c-0.54,0.2-0.83-0.35-1.29-0.4c-0.75,0.03-0.96,0.62-1.22,1.16C293.69,347.6,294.57,348.47,294.37,349.38z"/>
<path class="st7" d="M253.77,360.11c1.11-1.8,1.25-3.87,1.43-5.87c0.29-3.23,1.41-6.21,2.44-9.23c0.29-0.85,0.51-1.84,1.66-1.85
	c1.07-0.01,1.86,0.63,2.36,1.54c1.48,2.65,1.52,5.33-0.04,7.94c-0.92,1.55-1.97,3.02-2.99,4.51c-0.65,0.95-1.31,1.89-1.37,3.1
	c0.06,1.02-0.97,2.23,0.54,2.98c0.33-0.64,0.61-1.33,1.02-1.91c0.74-1.05,1.72-1.8,3.09-1.39c1.27,0.38,1.61,1.5,1.74,2.68
	c0.06,0.56-0.01,1.14,0.04,1.7c0.04,0.44-0.24,1.06,0.34,1.27c0.67,0.24,0.91-0.52,1.36-0.81c0.32,0.02,0.61,0.05,0.35,0.49
	c-0.28,0.4-0.51,0.84-0.84,1.18c-0.67,0.69-1.35,1.64-2.47,1.2c-1.22-0.47-1.17-1.63-1.14-2.72c0.02-0.98,0-1.96,0-3.05
	c-1.33,0.03-1.89,0.99-2.28,1.9c-0.81,1.87-1.49,3.8-2.14,5.73c-0.2,0.58,0.08,1.48-0.85,1.47c-0.86-0.01-0.92-0.95-0.97-1.51
	c-0.17-1.7-0.16-3.43-0.22-5.14C254.59,362.88,254.68,361.37,253.77,360.11z"/>
<path class="st7" d="M403.08,363.7c0.53-1.28,1.03-2.58,1.59-3.84c1.13-2.55,3.69-3.07,5.46-0.87c1.05,1.31,1.94,1.06,3.16,0.7
	c1.74-0.51,0.78-1.6,0.64-2.53c-0.17-1.08,0.16-2,1.06-2.58c1.05-0.67,2.18-0.53,1.95,0.92c-0.4,2.53,1.14,3.74,2.74,5.05
	c0.7,0.57,1.4,1.16,1.98,1.84c2.31,2.78,1.1,6.64-2.36,7.71c-1.67,0.52-3.6-0.58-3.81-2.15c-0.08-0.63,0.13-1.12,0.62-1.51
	c0.35-0.28,0.77-0.39,1.14-0.18c0.66,0.38,0.57,0.85,0.14,1.41c-0.55,0.72,0.16,1.05,0.59,1.32c0.57,0.37,1.12,0.12,1.49-0.41
	c0.79-1.14,1.09-2.37,0.54-3.72c-0.84-2.07-2.52-3.43-4.17-4.75c-1.08-0.86-4.42,1.37-4.23,2.78c0.26,1.91-0.03,3.61-1.42,4.99
	c-2.55,2.55-4.81,1.25-6.15-3.5c-0.02-0.07-0.07-0.18-0.12-0.19c-0.14-0.02-0.28,0-0.42,0.01
	C403.09,364.26,402.79,364.22,403.08,363.7z"/>
<path class="st9" d="M305.31,363.29c-0.08,0.94-0.03,1.54-0.18,2.08c-0.6,2.03-1.78,3.79-4.03,3.71c-2.22-0.08-3-2-3.4-3.95
	c-0.32-1.57,0.07-3.12,0.35-4.64c0.23-1.24,0.87-2.4,2.21-2.71c1.36-0.31,2.7,0.04,3.48,1.27c0.74,1.17,1.57,1.17,2.7,0.76
	c1.06-0.38,1.78-0.81,1.15-2.1c-0.6-1.23-0.12-2.24,0.82-3.07c0.37-0.32,0.83-0.58,1.34-0.4c0.63,0.21,0.99,0.8,0.82,1.35
	c-0.79,2.47,1.06,3.53,2.47,4.83c0.6,0.55,1.27,1.06,1.82,1.66c2.56,2.78,1.82,6.26-1.64,7.83c-1.79,0.82-3.77-0.03-4.12-1.76
	c-0.14-0.71-0.01-1.31,0.59-1.75c0.35-0.26,0.78-0.36,1.14-0.1c0.66,0.46,0.3,0.94,0.01,1.48c-0.4,0.73,0.27,1.04,0.75,1.27
	c0.6,0.29,1.12-0.03,1.47-0.56c0.83-1.27,0.97-2.67,0.31-3.99c-0.9-1.78-2.35-3.18-3.95-4.32c-1.37-0.98-2.27,0.77-3.48,1.01
	C304.39,361.51,305.47,362.82,305.31,363.29z"/>
<path class="st7" d="M348.02,347.87c0.36-0.33,0.68-0.71,1.08-0.98c1.08-0.76,2.29-1.04,3.46-0.37c1.1,0.63,0.97,1.85,0.86,2.89
	c-0.46,4.24-0.95,8.47-1.5,12.69c-0.3,2.29-0.24,4.59-0.18,6.88c0.03,1.15,0.29,2.32,1.12,3.18c0.66,0.67,1.49,1.1,2.2,0.02
	c0.18-0.27-0.72-1.3,0.51-0.81c0.54,0.22,0.72,0.89,0.27,1.47c-1.02,1.3-2.25,1.28-3.45,0.37c-1.67-1.29-2.85-2.99-3.14-5.1
	c-0.74-5.33-0.34-10.6,0.73-15.87c0.28-1.35,1.57-3.19-0.67-4.27C348.87,348.21,348.43,348.24,348.02,347.87z"/>
<path class="st10" d="M336.36,356.76c-1.9,3.54-2.62,7.62-4.91,10.98c-0.47,0.69-0.8,2.2-1.71,1.72c-1.12-0.59-0.92-2.09-0.19-3.08
	c2.38-3.27,3.3-7.12,4.51-10.87c0.51-1.59,0.63-3.22,0.54-4.88c-0.03-0.57-0.11-1.15-0.27-1.7c-0.35-1.2-1.17-1.72-2.44-1.52
	c-2.08,0.34-4.98,3.48-4.75,5.4c0.12,1.02,0.25,2.52,2.08,1.75c0.35-0.15,0.64,0.03,0.71,0.42c0.09,0.49-0.23,0.73-0.61,0.94
	c-1.36,0.74-3.07-0.48-3.45-2.47c-0.41-2.15,1.64-5.34,4.26-6.65c3.72-1.86,6.82,0.08,6.82,4.27c0,0.74-0.08,1.48-0.12,2.22
	c-0.45,0.59,0.04,1.19-0.01,1.79C336.65,355.64,336.53,356.21,336.36,356.76z"/>
<path class="st10" d="M265.74,365.24c-0.12-0.16-0.23-0.32-0.35-0.49c0.94-1.62,1.93-3.19,2.62-4.97c0.88-2.29,3.47-3.06,4.91-1.26
	c2,2.49,3.56,1.26,5.37,0.1c0.45-0.29,0.74-0.92,1.42-0.73c0.37,0.25,0.06,0.45-0.05,0.59c-1.13,1.52-3.1,1.86-4.38,2.97
	c-1.3,1.13,0.26,3.36-0.78,5.03c-0.89,1.41-1.92,2.61-3.6,2.63c-1.81,0.02-2.63-1.46-3.22-2.96c-0.27-0.68-0.37-1.42-0.69-2.68
	C266.47,364.21,266.1,364.73,265.74,365.24z"/>
<path class="st10" d="M403.08,363.7c0.14,0.17,0.28,0.34,0.42,0.52c-0.92,1.45-1.79,2.93-2.79,4.33c-0.72,1-1.58,2.1-3.03,1.6
	c-1.4-0.49-1.89-1.8-1.97-3.16c-0.11-1.83,0.57-3.55,0.91-5.32c0.21-1.12,0.67-2.04-1.39-2.14c-2.34-0.12-3.42-3.36-2.16-5.46
	c0.38-0.64,0.95-0.93,1.64-0.86c0.85,0.08,1.03,0.73,0.97,1.44c-0.15,1.75,0.34,2.88,2.3,3.33c1.17,0.27,1.26,1.61,1.18,2.72
	c-0.15,1.88-0.36,3.76-0.5,5.65c-0.03,0.46-0.15,1.05,0.41,1.31c0.68,0.31,1.09-0.23,1.44-0.65
	C401.4,365.91,402.23,364.8,403.08,363.7z"/>
<path class="st9" d="M241.61,362.78c-0.18,0-0.36-0.01-0.54-0.01c0.87-1.66,1.67-3.37,2.63-4.98c0.7-1.17,1.46-2.7,3.2-2
	c1.7,0.69,2,2.26,1.64,3.94c-0.15,0.69-0.31,1.41-1.01,1.83c-1.17-0.7-0.19-1.43-0.09-2.14c0.12-0.82,0.27-1.91-0.77-2.04
	c-1.11-0.13-1.12,1.08-1.13,1.82c-0.03,1.72-0.02,3.47,0.24,5.16c0.39,2.48,1.78,2.97,3.81,1.48c0.46-0.34,0.87-0.75,1.31-1.12
	c0.47-0.09,0.7,0.05,0.54,0.57c-0.55,0.95-1.36,1.67-2.26,2.22c-3.01,1.81-6,0.17-6.7-3.49
	C242.43,363.74,243.58,361.9,241.61,362.78z"/>
<path class="st10" d="M342.84,356.37c-0.56,2.03-1.11,4.07-1.7,6.09c-0.18,0.6-0.28,1.46-1.1,1.41c-0.92-0.06-1.09-0.96-1.06-1.67
	c0.1-2.11,0.31-4.21,0.47-6.32c0.06-0.77,0.42-1.78-1.04-1.51c-0.28,0.2-0.53,0.16-0.75-0.1c0.47-0.43,0.87-1.02,1.42-1.28
	c1.49-0.69,2.72-0.66,2.81,1.47c0.02,0.47-0.06,0.99,0.38,1.34C342.76,355.69,343.01,355.82,342.84,356.37z"/>
<path class="st11" d="M342.84,356.37c-0.19-0.19-0.38-0.38-0.57-0.57c1.55-2.91,3.03-5.87,5.75-7.94c0.43,0.03,0.87,0.07,1.3,0.1
	C346.07,349.92,344.86,353.47,342.84,356.37z"/>
<path class="st12" d="M251.44,365.29c-0.18-0.19-0.36-0.38-0.54-0.57c0.96-1.54,1.91-3.07,2.87-4.61c1.96,0.99,0.89,2.74,1.05,4.19
	c-0.65-0.85,0.02-1.94-0.57-2.91C253.13,362.59,252.76,364.3,251.44,365.29z"/>
<path class="st13" d="M295.97,344.93c0.26,0.33,0.52,0.65,0.78,0.98c-0.31,1.49-1.14,2.62-2.39,3.47c-1.03-0.82-1.41-1.77-0.58-2.95
	c0.54,0.32,0.48,0.75,0.35,1.14C294.84,346.87,294.94,345.56,295.97,344.93z"/>
<path class="st14" d="M357.43,354.24c-0.22,0.58-0.62,0.97-1.23,1.04c-0.54,0.06-0.65-0.38-0.6-0.81c0.07-0.63,0.37-1.11,1.07-1.03
	C357.07,353.48,357.36,353.79,357.43,354.24z"/>
<path class="st15" d="M257.8,363.22c0.01,0.34-0.02,0.71-0.41,0.78c-0.42,0.07-0.57-0.28-0.52-0.62c0.15-1.04-0.18-2.15,0.39-3.13
	C257.69,361.19,256.95,362.35,257.8,363.22z"/>
<path class="st16" d="M337.65,354.27c0.25,0.03,0.5,0.07,0.75,0.1c-0.68,0.8-1.37,1.6-2.05,2.39c-0.29-0.47-0.31-0.94,0.02-1.4
	c0.28-0.38,0.52-0.81,0.96-1.04C337.43,354.26,337.54,354.24,337.65,354.27z"/>
<path class="st17" d="M310.16,120.19c-0.31-0.21-0.88-0.6-0.58-0.82c0.68-0.5,1.47-0.22,2.15,0.25
	C311.2,119.8,310.5,119.51,310.16,120.19z"/>
<path class="st18" d="M337.33,354.32c-0.19,0.46-0.44,0.88-0.96,1.04c-0.05-0.73-0.01-1.45,0.46-2.07
	C337,353.64,337.17,353.98,337.33,354.32z"/>
<path class="st19" d="M118.99,127.17c1.06-0.42,2.22-0.67,3.17-1.28c4.49-2.88,9.26-2.72,14.21-1.61c6.38,1.44,12.29,3.9,17.68,7.62
	c1.61,1.11,3.33,2.07,5,3.1c-0.09,0.48-0.06,1.03-0.29,1.42c-3.68,6.11-4.85,13.04-6.38,19.83c-1.21,5.38-4.03,10.23-4.95,15.69
	c-0.45,2.66-1.63,5.19-1.68,7.93c-0.03,1.79-0.85,1.86-2.2,1.26c-2.54-1.14-4.99-2.45-7.73-3.18c-4.35-1.17-8.27-0.16-12.2,1.99
	c0.46-5.65,0.54-11.02-0.14-16.38c-1.47-11.63-1.99-23.38-4.87-34.81C118.43,128.11,118.59,127.62,118.99,127.17z"/>
<path class="st20" d="M131.87,197.65c-1.93,0-7.16-4.12-7.67-6.85c-0.16-0.86,0.48-1.22,1.07-1.41c4.9-1.56,9.76-2.17,14.4,0.87
	c1.15,0.75,1.11,1.28,0.39,2.53C138.4,195.63,136.27,197.47,131.87,197.65z"/>
<path class="st21" d="M94.4,216.75c1.14-0.97,2-0.66,2.8,0.32c0.98,1.21,2,2.39,3.01,3.58c4.38,5.22,9.54,6.19,15.5,2.92
	c0.22-0.12,0.43-0.25,0.66-0.33c0.93-0.34,2.01-1.39,2.73,0.1c0.62,1.28-0.65,1.67-1.45,2.13c-8.66,4.91-15.86,2.94-20.8-5.74
	C96.21,218.63,95.2,217.92,94.4,216.75z"/>
<path class="st21" d="M136.04,226.05c1.17-0.49,1.85,0.37,2.57,0.96c4.97,4.1,10.7,3.98,15.49-0.41c0.96-0.88,1.77-1.93,2.61-2.93
	c0.7-0.83,1.33-1.85,2.6-0.98c1.39,0.95,0.41,1.74-0.2,2.63c-3.72,5.42-8.7,8.09-15.35,6.96C140.78,231.78,137.45,229,136.04,226.05
	z"/>
<path class="st22" d="M133.83,211.29c0.22,1.85-0.2,3.27-2.13,3.65c-2.08,0.41-2.69-1.19-3.2-2.67c-1.09-3.22-0.4-6.29,1.09-9.22
	c0.33-0.64,0.81-1.38,1.65-1.26c0.91,0.13,1.01,1.04,1,1.74C132.22,206.28,134.17,208.61,133.83,211.29z"/>
<path class="st8" d="M164.45,137.95c-0.2-0.53-0.37-1.08-0.6-1.6c-0.42-0.91-0.4-1.78,0.29-2.51c0.74-0.78,1.52-0.09,2.28,0.07
	c3-0.12,5.91,0.62,8.85,1c1.87,1.96,1.88,2.94,0.08,4.41C171.43,141.06,167.88,139.96,164.45,137.95z"/>
<path class="st23" d="M137.27,290.36c-0.03,6.13-4.3,9.34-10.04,7.75c-0.5-0.14-1.05-0.24-1.08-0.78c-0.03-0.59,0.54-0.72,1.04-0.84
	c4.64-1.07,6.63-4.32,7.19-8.74c0.07-0.59,0.13-1.21,0.79-1.36c0.66-0.16,1.05,0.38,1.36,0.85
	C137.16,288.22,137.37,289.34,137.27,290.36z"/>
<path class="st24" d="M105.14,290.23c-0.29-2.21,1.27-3.83,2.37-5.64c0.23-0.37,0.62-0.57,1.06-0.35c0.48,0.24,0.38,0.65,0.24,1.05
	c-1.65,4.53,0.91,7.29,4.09,9.8c0.49,0.38,1.38,0.52,1.23,1.35c-0.15,0.84-1.05,0.67-1.64,0.8
	C108.6,298.13,105.18,294.92,105.14,290.23z"/>
<path class="st21" d="M115.84,203.38c-1.68-0.04-2.71-1.36-2.22-3c0.52-1.75,1.66-3.19,3.45-3.49c1.87-0.32,4.28-2.25,5.46-0.65
	c1.15,1.56-1.75,2.81-2.55,4.43C119.22,202.21,117.7,203.21,115.84,203.38z"/>
<path class="st25" d="M147,191.19c1.64,0.12,2.98-0.19,4.22,0.39c1.29,0.61,2.69,1.32,2.21,3.04c-0.47,1.68-1.81,2.58-3.59,2.23
	c-2.65-0.51-4.65-2.3-6.69-3.91c-0.87-0.69-0.37-1.39,0.52-1.53C144.87,191.23,146.11,191.25,147,191.19z"/>
<path class="st26" d="M126.64,200.19c0.46,3.13-1.66,7.8-4.1,9.27c-1.02,0.62-2,0.74-2.92-0.16c-0.84-0.82-0.77-1.74-0.26-2.71
	c0.9-1.72,2.23-3.04,3.82-4.1C124.32,201.74,125.45,200.98,126.64,200.19z"/>
<path class="st26" d="M164.45,137.95c3.57,0.94,7.12,1.96,10.88,1.38c0.5,1.1,0.26,2.11-1.23,2.82c-1.92,0.91-3.43,2.13-4.58,4.68
	C168.4,143.09,166.44,140.51,164.45,137.95z"/>
<path class="st27" d="M102.65,130.48c3.74,1.86,7.54,2.54,11.46,0.51c-0.6,2.2-2.59,3.12-4.2,4.29c-1.24,0.9-2.06,3.02-3.42,2.77
	c-1.48-0.27-1.43-2.57-2.22-3.9C103.59,133.02,102.43,132.03,102.65,130.48z"/>
<path class="st23" d="M154.02,174.33c0.07-1.9,1.34-2.04,2.76-1.78c2,0.37,4.98,5.03,4.53,7.01c-0.12,0.54-0.46,0.8-1.04,0.83
	C157.77,180.57,153.94,176.87,154.02,174.33z"/>
<path class="st28" d="M168.01,175.35c-0.93-0.52-2.66,0.11-2.99-1.44c-0.31-1.4,1.02-2.08,2.02-2.78c1.93-1.35,4.2-1.17,6.37-1.32
	c0.99-0.07,1.43,0.55,0.92,1.64C173.49,173.19,170.05,175.41,168.01,175.35z"/>
<path class="st23" d="M101.29,250.37c0.42-2.27,1.21-4.49,3.02-6.18c0.83-0.77,1.88-1.17,2.89-0.39c1.03,0.8,1.23,1.95,0.55,3.07
	c-1.25,2.03-2.96,3.68-4.64,5.35c-0.3,0.3-0.76,0.56-1.1,0.28C101.41,252.01,101.42,251.2,101.29,250.37z"/>
<path class="st23" d="M102.98,258.85c-0.16,1.92-1.14,3.68-2.47,5.28c-0.39,0.48-0.94,0.64-1.54,0.3c-0.65-0.37-0.65-0.92-0.3-1.46
	c1.95-3.07,1.45-5.7-1.34-7.98c-0.44-0.36-0.83-0.9-0.48-1.51c0.42-0.72,1.16-0.46,1.77-0.33
	C101.35,253.77,102.92,255.75,102.98,258.85z"/>
<path class="st28" d="M141.45,210.78c-0.94-0.11-1.69-0.56-2.26-1.3c-1.31-1.71-2.1-3.68-2.7-5.71c-0.39-1.33,0.33-1.91,1.62-1.29
	c2.18,1.05,3.84,2.76,5.12,4.76C144.08,208.56,142.9,210.68,141.45,210.78z"/>
<path class="st28" d="M105.72,174.96c0.09-2.67,2.88-5.72,5.44-5.92c1.53-0.12,2.27,0.45,1.61,2.02c-1.06,2.54-3.15,4.18-5.3,5.7
	C106.55,177.41,105.67,176.45,105.72,174.96z"/>
<path class="st26" d="M110.44,252.49c1.68,0,2.89,0.3,3.12,1.83c0.24,1.58-0.72,2.45-2.14,2.81c-0.7,0.18-1.5,0.39-2.16,0.22
	c-1.63-0.43-4.39,0.19-4.56-1.73c-0.14-1.64,2.55-2.15,4.16-2.86C109.45,252.51,110.15,252.54,110.44,252.49z"/>
<path class="st26" d="M103,168.95c-2.73-0.58-4.61-2.48-6.55-4.19c-1.15-1.02-0.39-2.76,1.26-3.09c2.03-0.41,3.56,0.35,4.42,2.26
	C102.83,165.49,103.63,167.06,103,168.95z"/>
<path class="st29" d="M163.99,165.23c-0.1,0.54,0.34,1.57-0.76,1.87c-0.84,0.23-1.39-0.4-1.78-1.04c-1-1.59-2.65-2.71-3.33-4.52
	c-0.36-0.97-0.92-2.08,0.19-2.92c1.04-0.8,1.83,0.11,2.61,0.63C162.96,160.62,164.14,162.47,163.99,165.23z"/>
<path class="st28" d="M171.62,149.19c-0.19-2.74,2.17-5.91,4.68-6.28c1.76-0.26,2.96,0.54,3.26,2.24c0.29,1.68-0.71,2.59-2.35,2.81
	c-0.49,0.06-0.98,0.17-1.46,0.14C173.23,147.97,173.24,147.96,171.62,149.19z"/>
<path class="st23" d="M105.17,160.31c0.73-2.31,1.93-4.39,4.17-5.73c0.6-0.36,1.25-0.55,1.85-0.15c0.68,0.45,0.78,1.18,0.67,1.96
	c-0.28,2-3.16,5.34-5.2,5.81C105.17,162.55,105.13,161.46,105.17,160.31z"/>
<path class="st23" d="M149.1,251.71c0.08-2.04,0.39-3.8,1.51-5.3c0.49-0.66,1.15-1.25,2.07-0.97c1.06,0.32,1.27,1.26,1.17,2.18
	c-0.27,2.29-0.96,4.47-2.17,6.45c-0.34,0.55-0.73,1.32-1.4,1.23c-0.75-0.1-0.71-1.01-0.86-1.62
	C149.24,252.97,149.18,252.23,149.1,251.71z"/>
<path class="st28" d="M142.97,264.96c0.52-2.09,1.06-4.36,3.22-5.69c0.88-0.54,1.98-0.7,2.7,0.21c0.74,0.92-0.48,1.18-0.86,1.69
	c-1.58,2.13-2.56,4.39-1.6,7.08c0.23,0.66,0.46,1.34-0.34,1.69c-0.67,0.29-1.03-0.35-1.34-0.81
	C143.94,267.89,143.02,266.7,142.97,264.96z"/>
<path class="st21" d="M98.62,244.66c0.07,1.49-0.13,2.95-0.44,4.39c-0.1,0.45-0.37,1.13-0.68,1.2c-0.62,0.16-0.98-0.48-1.21-1
	c-1.06-2.34-1.78-4.76-1.46-7.36c0.13-1.06,0.5-2.16,1.89-2.18c1.32-0.02,1.54,1.05,1.7,2.02
	C98.56,242.69,98.55,243.68,98.62,244.66z"/>
<path class="st23" d="M98.12,169.99c2.98,0.16,6.36,3.95,6.06,6.74c-0.05,0.5-0.3,0.75-0.8,0.51c-2.48-1.19-5.2-2.05-6.65-4.71
	c-0.35-0.63-0.93-1.25-0.53-2.02C96.63,169.69,97.49,170.08,98.12,169.99z"/>
<path class="st26" d="M115.55,189.74c1.23,0.05,2.47-0.07,3.65,0.41c0.61,0.25,1.32,0.43,1.29,1.27c-0.03,0.7-0.64,0.89-1.18,1.08
	c-1.47,0.51-2.94,1.02-4.42,1.52c-1.27,0.43-2.44,0.31-3.39-0.72c-0.57-0.61-0.55-1.38-0.25-2.09c0.57-1.37,1.77-1.57,3.08-1.49
	C114.73,189.77,115.14,189.74,115.55,189.74z"/>
<path class="st21" d="M175.35,162.38c0.51,0.08,1.32-0.05,1.62,0.63c0.26,0.58-0.31,1.06-0.69,1.48c-1.57,1.71-3.18,3.43-5.75,3.38
	c-0.88-0.02-1.88-0.1-2.24-1.17c-0.31-0.92,0.25-1.56,0.82-2.18C170.76,162.69,173.03,162.65,175.35,162.38z"/>
<path class="st29" d="M175.26,134.92c-3.06,0.61-5.97,0-8.85-1c0.17-0.78,0.4-1.56,0.48-2.35c0.11-1.02,0.26-2.01,1.39-2.35
	c1.13-0.33,2.09,0.19,2.88,0.96c0.46,0.45,0.94,0.98,1.14,1.57C172.8,133.3,173.87,134.24,175.26,134.92z"/>
<path class="st23" d="M145.7,254.6c-0.03,0.76,0.16,1.32-0.4,1.6c-0.43,0.21-0.78-0.11-1.1-0.34c-1.93-1.39-3.09-3.39-3.92-5.5
	c-0.39-0.98-0.44-2.36,1.09-2.83c1.42-0.44,2.38,0.15,3,1.42C145.28,250.81,145.19,252.91,145.7,254.6z"/>
<path class="st29" d="M106.65,169.42c-0.75-0.16-0.85-0.71-0.84-1.31c0.02-2.02,3.09-6.16,4.96-6.73c1.05-0.32,1.52,0.31,1.92,1.08
	c0.71,1.38,0.46,2.56-0.81,3.45c-1.53,1.07-3.54,1.41-4.62,3.14C107.14,169.24,106.85,169.31,106.65,169.42z"/>
<path class="st29" d="M112.99,140.75c-0.71-0.02-1.61-0.04-2.47,0.33c-0.61,0.26-1.3,0.56-1.76-0.13c-0.5-0.76-0.02-1.43,0.5-1.96
	c0.8-0.82,1.6-1.66,2.52-2.33c1.15-0.84,2.47-1.44,3.81-0.34c0.98,0.81,1.25,1.98,0.88,3.13
	C115.94,141.11,114.5,140.86,112.99,140.75z"/>
<path class="st21" d="M142.02,197.4c2.32,0.35,3.97,1.26,5.35,2.56c1.04,0.97,1.51,2.26,0.33,3.45c-1.24,1.25-2.62,0.88-3.66-0.26
	c-1.14-1.25-1.84-2.88-3.19-3.99c-0.3-0.25-0.44-0.71-0.17-1.11C141.1,197.41,141.75,197.38,142.02,197.4z"/>
<path class="st23" d="M165.63,182.96c-1.42,0.01-2.66,0.01-3.04-1.17c-0.37-1.16,0.82-1.68,1.62-2.14c1.7-0.98,3.49-1.8,5.52-1.75
	c0.56,0.01,1.19-0.02,1.5,0.6c0.35,0.68,0.04,1.25-0.4,1.78C169.4,182.03,167.52,182.86,165.63,182.96z"/>
<path class="st26" d="M167.08,149.93c0.05-3.32-2.24-3.97-4.6-4.65c-1.15-0.33-1.96-1.23-2.16-2.47c-0.12-0.72,0.3-1.22,0.97-1.54
	c1.16-0.55,2.2-0.41,3.24,0.32C167.1,143.4,168.42,147,167.08,149.93z"/>
<path class="st26" d="M136.35,273.81c-1.37,0.01-2.16-0.45-2.58-1.49c-0.4-0.98-0.07-1.77,0.67-2.43c0.37-0.33,0.75-0.68,1.2-0.86
	c1.63-0.65,3.2-1.91,5.09-0.74c0.54,0.33,0.53,0.87,0.17,1.27C139.48,271.18,138.66,273.5,136.35,273.81z"/>
<path class="st27" d="M111.73,126.6c-1.27,1.95-3.05,1.51-4.78,0.92c-1.14-0.39-2.22-0.97-3.33-1.47c1.13-0.37,2.16-0.72,2.58-2.11
	c0.34-1.13,1.23-2,2.6-1.85c1.29,0.14,1.63,1.2,1.98,2.24C111.05,125.11,111.41,125.85,111.73,126.6z"/>
<path class="st23" d="M97.96,154.74c2.12,0.04,5.47,3.79,5.16,5.78c-0.11,0.69-0.58,0.79-1.06,0.62c-2.08-0.74-4.11-1.59-5.67-3.25
	c-0.59-0.63-0.9-1.44-0.55-2.26C96.23,154.73,97.14,154.77,97.96,154.74z"/>
<path class="st21" d="M103.47,154.43c-0.27,1.1-1.26,1.13-2,0.54c-1.58-1.27-3.03-2.72-4.44-4.18c-0.54-0.56-0.52-1.39,0.06-2.01
	c0.59-0.64,1.34-0.86,2.23-0.59C100.68,148.6,103.58,152.76,103.47,154.43z"/>
<path class="st28" d="M105.24,155.12c-0.21-3.36,3.1-6.87,6.09-6.81c1.17,0.02,1.42,0.64,1.23,1.59c-0.28,1.4-1.28,2.32-2.5,2.83
	C108.44,153.42,106.77,154,105.24,155.12z"/>
<path class="st21" d="M99.85,271.4c0.1-0.75-0.33-1.72,0.45-2.07c0.81-0.37,1.24,0.6,1.7,1.1c0.78,0.83,1.49,1.74,2.16,2.67
	c1,1.39,1.11,2.93-0.43,3.85c-1.71,1.02-2.47-0.59-3.13-1.76C99.95,274.02,99.95,272.66,99.85,271.4z"/>
<path class="st29" d="M135.68,265.87c-1.33-0.19-2.88-0.31-2.83-2.06c0.04-1.57,1.43-2.15,2.8-2.24c1.13-0.07,2.29,0.24,3.29,0.85
	c0.85,0.52,1.79,1.25,1.65,2.28c-0.18,1.33-1.47,0.51-2.24,0.71C137.48,265.65,136.58,265.73,135.68,265.87z"/>
<path class="st29" d="M105.75,261c2.59-1.21,4.61-1.83,6.77-1.41c1.35,0.26,2.62,0.92,2.09,2.66c-0.47,1.52-1.74,2.02-3.13,1.48
	C109.68,263.05,107.99,262.1,105.75,261z"/>
<path class="st29" d="M143.66,275.22c-0.05,1.56-0.01,3.15-1.11,4.44c-0.54,0.64-1.21,1.23-2.12,0.95c-1.03-0.31-1.26-1.2-1.25-2.17
	c0.02-2.58,2.12-3.96,3.44-5.76c0.43-0.59,1.04-0.29,1.04,0.56C143.66,273.91,143.66,274.57,143.66,275.22z"/>
<path class="st23" d="M141.8,258.5c0.2,0.96-0.12,1.33-0.89,1.1c-2.22-0.66-4.43-1.37-5.74-3.52c-0.46-0.74-0.74-1.62-0.16-2.31
	c0.63-0.74,1.55-0.48,2.26-0.01C139.19,255.03,141.27,256.17,141.8,258.5z"/>
<path class="st30" d="M106.35,264.97c1.89,0.43,3.7,0.73,4.89,2.27c0.61,0.8,1.08,1.72,0.17,2.63c-0.75,0.74-1.62,1.09-2.65,0.53
	c-1.72-0.94-2.8-2.5-3.61-4.18C104.52,264.9,105.69,265.04,106.35,264.97z"/>
<path class="st27" d="M162.71,172.6c-0.05,0.59-0.41,0.94-1.27,0.7c-1.67-0.45-5.04-5.16-4.96-6.98c0.04-0.81,0.28-1.22,1.22-0.91
	C159.43,166,162.77,170.55,162.71,172.6z"/>
<path class="st23" d="M103.37,140.02c-0.03,0.6-0.34,1.36-1.11,0.64c-1.17-1.11-2.81-1.35-3.96-2.41c-0.92-0.85-1.95-1.89-0.94-3.14
	c0.96-1.19,2.37-0.95,3.55-0.14C102.6,136.12,103.14,137.92,103.37,140.02z"/>
<path class="st28" d="M149.13,239.45c-0.24,1.23-0.39,2.62-1.97,2.73c-1.71,0.12-1.91-1.27-1.97-2.54c-0.06-1.23-0.03-2.47,0.04-3.7
	c0.04-0.69,0.43-1.34,1.11-1.5c0.75-0.18,1.19,0.45,1.51,1.03C148.53,236.71,148.86,238.07,149.13,239.45z"/>
<path class="st26" d="M173.96,156.64c0.88,0.03,1.95-0.16,2.23,0.98s-0.7,1.55-1.52,1.91c-1.41,0.61-2.81,1.32-4.29,1.64
	c-1.56,0.33-2.14-0.46-1.35-1.97C170.08,157.2,171.88,156.66,173.96,156.64z"/>
<path class="st30" d="M107.73,233.93c-0.06,0.86-0.16,1.68-0.75,2.33c-0.5,0.56-1.06,1.09-1.91,0.87c-0.73-0.19-1.01-0.82-1.18-1.47
	c-0.45-1.69-0.01-3.25,0.75-4.76c0.3-0.6,0.69-1.19,1.47-1.08c0.79,0.11,0.97,0.81,1.11,1.46
	C107.42,232.16,107.56,233.05,107.73,233.93z"/>
<path class="st31" d="M96.09,232.71c-0.98-0.1-1.36-0.73-1.63-1.43c-0.51-1.36,0.2-2.39,1.04-3.3c0.93-1.01,1.97-2.17,3.46-1.93
	c1.02,0.16,0.56,1.2,0.31,1.84C98.55,229.74,98.25,231.91,96.09,232.71z"/>
<path class="st32" d="M154.13,234.83c0.18-0.64-0.18-1.81,1.19-1.83c1.33-0.02,3.25,2.64,3.31,4.42c0.05,1.37-0.56,2.22-1.94,2.28
	C155.31,239.77,154.1,237.47,154.13,234.83z"/>
<path class="st30" d="M105.68,184.44c-1.32-0.26-2.42-0.98-2.36-2.37c0.09-1.8,1.4-2.76,3.12-2.87c1.43-0.09,2.13,0.92,1.93,2.23
	C108.14,182.91,107.56,184.31,105.68,184.44z"/>
<path class="st33" d="M139.75,234.44c-0.15,1.66-0.43,3.34-2.35,3.62c-1.24,0.18-1.67-0.99-1.54-2.04c0.21-1.69,0.29-3.88,2.2-4.28
	C139.61,231.42,139.53,233.31,139.75,234.44z"/>
<path class="st29" d="M114.03,231.12c0.08-1.16,0.42-2.06,1.63-2.16c1.3-0.11,3.14,2.12,3.03,3.64c-0.08,1.21-0.81,2.22-1.97,2.06
	C114.8,234.4,114.39,232.66,114.03,231.12z"/>
<path class="st34" d="M161.87,185.25c-0.32,1.4-0.63,2.96-2.43,2.91c-1.54-0.05-2.3-1.32-2.28-2.72c0.02-1.54,1.19-2.35,2.61-2.42
	C161.18,182.95,161.71,184.01,161.87,185.25z"/>
<path class="st30" d="M166.41,159.48c-0.05,0.89,0.08,1.72-0.67,1.93c-0.59,0.16-0.96-0.52-1.3-0.98c-1.04-1.4-1.7-2.99-2.31-4.6
	c-0.2-0.53-0.37-1.18,0.26-1.54c0.54-0.3,1.13-0.12,1.62,0.23C165.79,155.8,166.12,157.75,166.41,159.48z"/>
<path class="st30" d="M165.92,229.87c-0.22,1.15-0.7,1.93-1.91,1.98s-4.05-2.3-3.89-3.33c0.17-1.13,1.29-0.97,1.97-0.91
	C163.69,227.74,165.42,227.9,165.92,229.87z"/>
<path class="st23" d="M94.85,222.01c-0.14,2.22-2.01,4.22-3.67,4.06c-1.03-0.1-1.09-0.89-1.11-1.61c-0.04-1.48,2.51-4.04,3.86-3.96
	C95.08,220.57,94.81,221.44,94.85,222.01z"/>
<path class="st35" d="M106.65,146.51c-0.09,1.44-0.62,2.6-2.21,2.74c-1.41,0.12-2.15-0.87-2.13-2.13c0.03-1.48,0.76-2.79,2.4-2.91
	C106.16,144.1,106.55,145.27,106.65,146.51z"/>
<path class="st36" d="M170.77,153.79c-0.25,1.12-0.86,1.92-2.02,1.76c-1.16-0.17-2.39-0.71-2.33-2.1c0.06-1.52,1.5-1.58,2.6-1.62
	C170.27,151.78,170.57,152.82,170.77,153.79z"/>
<path class="st19" d="M232.19,141.48c11.73,4.28,23.55,4.55,35.46,0.84c0.57,0.11,0.77,0.34,0.66,1.01
	c-1.27,8-1.26,16.15-3.19,24.08c-1.08,4.45-1.44,9.08-1.31,13.68c0.07,2.23-0.8,2.26-2.42,1.75c-2.89-0.91-5.72-1.93-8.84-2
	c-3.17-0.08-5.99,0.59-8.63,2.33c-0.64,0.42-1.19,1.18-2.06,1.06c-0.33-6.25-1.6-12.26-3.2-18.29
	C236.49,157.79,234.68,149.55,232.19,141.48z"/>
<path class="st37" d="M253.04,200.65c-2.83,0.05-7.61-3.14-8.46-5.63c-0.32-0.94,0.25-1.42,0.95-1.72
	c4.36-1.84,8.74-3.22,13.48-1.19c1.63,0.7,2.08,1.34,1.12,3.08C258.11,198.86,256.09,200.59,253.04,200.65z"/>
<path class="st20" d="M215.79,134.01c3.4,0.71,6.62,1.83,9.46,3.89c-0.92,3.25-4.2,4.68-5.74,7.46c-0.37,0.68-1,0.35-1.34-0.24
	c-1.61-2.74-3.94-5-5.29-7.91c-0.44-0.94-0.86-1.94,0.01-2.98C213.81,133.14,214.8,133.77,215.79,134.01z"/>
<path class="st20" d="M276.56,137.93c2.27-2.35,5.02-4.23,6.96-6.9c0.4,0.38,0.84,1.12,1.2,1.09c1.96-0.19,2.99,0.73,3.24,2.53
	c0.32,2.32-0.06,4.49-2.23,5.84c-1.02,0.64-1.84,1.33-2.29,2.46c-0.2,0.49-0.25,1.25-0.98,1.27c-0.69,0.02-0.9-0.66-1.12-1.16
	C280.35,140.78,278.61,139.21,276.56,137.93z"/>
<path class="st22" d="M232.89,236.23c-4.41-0.65-8.66-2.36-11.74-6.31c-0.6-0.78-1.1-1.61-2-2.14c-0.48-0.28-1.45-0.64-0.93-1.39
	c0.52-0.76,1.46-0.69,2.18-0.07c1.43,1.23,2.84,2.49,4.24,3.76c4.5,4.08,10.06,4.23,15,0.57c0.97-0.72,2.29-2.65,3.47-1.12
	c1.19,1.55-0.95,2.22-1.96,3.01C238.82,234.38,236.5,236.27,232.89,236.23z"/>
<path class="st22" d="M260.21,230.14c1.18-0.52,1.84-0.34,2.34,0.07c3.1,2.54,6.68,2.73,10.25,1.69c3.67-1.07,5.85-4.06,7.78-7.18
	c0.3-0.49,0.54-1.03,0.93-1.44c0.58-0.6,1.21-0.3,1.76,0.14c0.47,0.38,0.83,0.78,0.49,1.46c-2.69,5.42-6.75,10.05-14.46,10.01
	C265.43,234.87,263.11,232.41,260.21,230.14z"/>
<path class="st22" d="M250.84,210.61c-0.05-1.73-0.06-3.47,1.04-4.94c0.64-0.85,1.6-1.31,1.93,0.11c0.59,2.58,2.08,4.79,2.79,7.3
	c0.2,0.7,0.2,1.45,0.28,2.17c0.15,1.35-0.5,2.19-1.74,2.59c-1.28,0.42-2.19-0.13-2.94-1.16
	C250.83,214.86,250.75,212.76,250.84,210.61z"/>
<path class="st38" d="M263.8,300.99c-0.49,0-0.98,0.01-1.48,0c-0.43-0.01-0.86-0.12-0.94-0.6c-0.08-0.47,0.24-0.75,0.66-0.89
	c4.77-1.57,5.94-5.4,6.14-9.83c0.03-0.56-0.14-1.3,0.61-1.41c0.97-0.15,1.47,0.64,1.83,1.37c1.41,2.79,1.11,5.55-0.36,8.22
	C268.87,300.4,266.45,300.96,263.8,300.99z"/>
<path class="st22" d="M246.23,302.51c-4.84,0.01-8.02-4.75-6.44-9.28c0.11-0.31,0.23-0.63,0.42-0.89c0.58-0.8,0.5-2.59,1.73-2.27
	c1.32,0.34,0.03,1.67,0.14,2.57c0.39,3.18,2.23,5.32,4.83,7.02c0.82,0.54,2.63,0.46,2.3,1.7
	C248.87,302.57,247.21,302.46,246.23,302.51z"/>
<path class="st38" d="M270.4,197.7c-2.36-0.66-4.65-1.72-6.83-2.98c-0.75-0.43-1.07-1.24,0.05-1.59c2.55-0.79,5.11-1.68,7.85-0.97
	c1.48,0.39,2.69,1.23,2.41,2.85C273.58,196.7,272.24,197.55,270.4,197.7z"/>
<path class="st22" d="M237.93,208.59c-2.1,0.07-3.19-1.22-2.71-2.9c0.52-1.81,1.62-3.22,3.42-3.95c0.83-0.34,1.69-0.62,2.53-0.94
	c0.82-0.31,1.76-1.03,2.48-0.14c0.74,0.92-0.28,1.64-0.75,2.34c-0.91,1.35-1.31,3.02-2.6,4.15
	C239.48,207.86,238.66,208.51,237.93,208.59z"/>
<path class="st22" d="M248.42,203.4c0.17,4.22-0.33,7.49-3.06,10.09c-0.83,0.79-1.68,1.41-2.81,0.55c-1.07-0.81-1.21-1.83-0.72-3.06
	c0.96-2.4,2.92-3.93,4.7-5.63C247.01,204.9,247.45,204.41,248.42,203.4z"/>
<path class="st21" d="M232.93,266.31c-0.25,1.82-0.8,3.35-1.66,4.77c-0.34,0.55-0.78,0.87-1.42,0.69c-0.88-0.25-0.88-1.09-0.61-1.61
	c1.82-3.51,0.17-5.72-2.64-7.59c-0.45-0.3-0.96-0.75-0.6-1.43c0.31-0.59,0.9-0.63,1.5-0.58
	C230.58,260.77,233.01,263.43,232.93,266.31z"/>
<path class="st22" d="M273.33,172.5c2.27-0.03,5.94,4.01,5.71,6.28c-0.07,0.7-0.45,0.97-1.14,1.01c-2.29,0.1-5.88-2.35-6.57-4.52
	C270.8,173.58,271.56,172.53,273.33,172.5z"/>
<path class="st22" d="M230.11,257.13c-0.03-2.47,0.71-4.28,1.77-5.95c0.7-1.09,1.81-1.49,2.99-0.92c1.21,0.59,1.51,1.75,1.03,2.93
	c-0.9,2.22-2.52,4-3.93,5.89c-0.64,0.86-1.34,0.36-1.63-0.46C230.13,258.03,230.14,257.35,230.11,257.13z"/>
<path class="st22" d="M284.54,173.55c-0.83-0.12-2.01,0.3-2.45-0.97c-0.39-1.13,0.46-1.82,1.14-2.54c1.7-1.81,3.96-2.21,6.25-2.49
	c1.21-0.15,1.69,0.33,1.21,1.6C289.82,171.44,287.01,173.52,284.54,173.55z"/>
<path class="st39" d="M237.12,263.4c-1.13-0.06-2.68,0.14-3.06-1.01c-0.4-1.2,1.12-1.86,1.98-2.48c1.04-0.76,2.26-1.34,3.49-1.75
	c1.44-0.47,2.7,0.16,3.22,1.53s-0.37,2.35-1.57,2.93C239.91,263.23,238.54,263.5,237.12,263.4z"/>
<path class="st22" d="M265.79,210.1c-0.06,2.07-1.62,2.99-3.3,1.82c-2.01-1.4-3.12-3.51-4.06-5.69c-0.25-0.59-0.32-1.31,0.59-1.57
	C260.72,204.17,265.85,208.29,265.79,210.1z"/>
<path class="st24" d="M223.43,181.99c-0.09-2.59,1.95-5.53,4.33-6.31c0.64-0.21,1.29-0.38,1.86,0.1c0.59,0.5,0.45,1.13,0.26,1.8
	c-0.74,2.54-2.65,4.25-4.27,6.16c-0.37,0.43-0.83,0.46-1.31,0.15C223.58,183.42,223.64,182.61,223.43,181.99z"/>
<path class="st24" d="M280.01,165.04c-0.11,0.75-0.36,1.97-1.55,1.15c-2.25-1.57-4.57-3.22-5.56-5.98c-0.56-1.56,0.24-2.2,1.73-1.96
	C277.26,158.69,280.08,162.21,280.01,165.04z"/>
<path class="st24" d="M215.06,170.01c2.19,0.06,5.56,4.09,5.12,5.97c-0.18,0.76-0.65,0.73-1.31,0.59c-2.22-0.5-4.02-1.83-5.92-2.93
	c-0.73-0.42-1.08-1.21-0.59-2.13C212.97,170.34,213.94,169.92,215.06,170.01z"/>
<path class="st24" d="M285.2,147.86c-1.09-3.25,1.45-7.41,4.24-7.63c1.4-0.11,2.35,0.55,2.79,1.88c0.5,1.48-0.34,2.41-1.49,2.97
	c-0.86,0.41-1.9,0.67-2.84,0.62C286.51,145.64,285.8,146.32,285.2,147.86z"/>
<path class="st39" d="M273.22,265.7c0.48-2.09,0.53-4.32,2.34-5.84c0.91-0.76,1.99-1.08,2.89-0.17c0.98,0.99-0.47,1.3-0.79,1.91
	c-1.19,2.29-1.65,4.62-0.49,7.04c0.31,0.64,0.69,1.28,0,1.74c-0.76,0.51-1.13-0.34-1.58-0.76
	C274.42,268.53,273.53,267.28,273.22,265.7z"/>
<path class="st24" d="M237.93,194.75c0.43,0.08,1.07,0.17,1.69,0.35c0.54,0.15,1.17,0.32,1.25,1.01c0.08,0.69-0.49,0.96-1.02,1.21
	c-1.69,0.8-3.34,1.72-5.09,2.37c-1.32,0.49-2.72,0.3-3.08-1.38c-0.32-1.49,0.45-2.59,1.92-2.94
	C234.94,195.05,236.33,194.97,237.93,194.75z"/>
<path class="st24" d="M291.04,159.71c1.31-0.02,1.62,0.59,1.04,1.54c-1.29,2.1-2.72,4.07-5.35,4.68c-0.98,0.23-1.81,0.07-2.39-0.75
	c-0.62-0.88-0.28-1.69,0.33-2.45C286.34,160.67,288.72,160.13,291.04,159.71z"/>
<path class="st21" d="M281.55,248.84c0.14,1.65-0.61,3.39-1.26,5.15c-0.21,0.57-0.4,1.38-1.23,1.3c-0.65-0.06-0.77-0.77-0.95-1.29
	c-0.64-1.86-0.97-3.76-0.54-5.73c0.3-1.39,0.67-3.05,2.33-2.97C281.79,245.38,281.51,247.18,281.55,248.84z"/>
<path class="st22" d="M222.3,184.77c-3.48-0.38-6.41-1.3-8.44-4.1c-0.91-1.26-0.49-1.95,0.95-2.22c2.26-0.42,4.65,0.67,5.86,2.8
	C221.25,182.3,221.68,183.43,222.3,184.77z"/>
<path class="st24" d="M226.68,255.26c0,0.57,0.01,1.14,0,1.71c-0.01,0.43-0.15,0.84-0.61,0.95c-0.44,0.1-0.81-0.13-1.03-0.5
	c-1.48-2.37-2.73-4.84-2.73-7.73c0-1.09,0.57-1.9,1.71-2.05c1.14-0.15,1.61,0.65,1.79,1.6c0.39,1.99,0.71,3.99,1.06,5.99
	C226.81,255.24,226.74,255.25,226.68,255.26z"/>
<path class="st22" d="M274.6,255.65c0.07,1.34-0.5,1.58-1.5,1.05c-2.2-1.16-3.56-3.16-4.76-5.19c-0.55-0.93-0.17-2.16,1.04-2.68
	c1.23-0.53,2.29-0.19,3,0.94C273.53,251.6,273.84,253.77,274.6,255.65z"/>
<path class="st21" d="M226.73,163.93c-0.23,2.52-2.35,4-4.27,5.45c-0.98,0.74-1.7-0.36-1.62-1.37c0.2-2.55,1.25-4.73,3.23-6.42
	c0.54-0.46,1.2-0.63,1.84-0.33C226.94,161.76,226.7,162.77,226.73,163.93z"/>
<path class="st21" d="M229.17,145.19c-0.14,1.49-1.13,1.95-2.22,2.04c-1.4,0.11-2.76,0.18-3.99,0.95c-0.42,0.26-0.97,0.31-1.37-0.08
	c-0.49-0.48-0.4-1.12-0.05-1.57c1.02-1.36,1.81-2.93,3.41-3.79c0.91-0.49,1.79-0.82,2.73-0.11
	C228.56,143.31,228.99,144.25,229.17,145.19z"/>
<path class="st21" d="M287.35,175.96c1.79-0.11,1.93,0.89,1.4,2.2c-0.65,1.61-4.38,3.83-6.13,3.63c-0.81-0.09-1.68-0.34-1.97-1.24
	c-0.23-0.73,0.33-1.22,0.81-1.67C282.73,177.67,286.15,175.97,287.35,175.96z"/>
<path class="st21" d="M280.53,148.72c-0.41-3.25-2.6-3.73-5.14-3.96c-1.27-0.12-2.17-1.14-2.61-2.36c-0.23-0.62,0.22-1.09,0.74-1.41
	c1.04-0.64,2.11-0.79,3.27-0.25C279.65,142.07,281.78,146.06,280.53,148.72z"/>
<path class="st22" d="M264.28,199.17c1.64,0.13,3.17,0.94,4.56,1.97c1.15,0.85,1.37,2.19,0.48,3.26c-0.86,1.03-2.2,1.14-3.33,0.26
	c-1.35-1.06-2.29-2.57-3.82-3.46c-0.45-0.26-0.54-0.85-0.25-1.32C262.43,199.01,263.33,199.22,264.28,199.17z"/>
<path class="st22" d="M222.66,174.77c0.24-2.63,1.68-4.6,3.48-6.32c0.78-0.74,1.7-0.55,2.34,0.32c0.81,1.09,1.06,2.33,0.04,3.37
	c-1.42,1.45-3.48,2.19-4.52,4.09c-0.09,0.15-0.65,0.21-0.87,0.09C222.51,175.97,222.82,175.29,222.66,174.77z"/>
<path class="st38" d="M270.26,269.31c1.33,0.11,2.31,0.42,1.44,1.95c-0.69,1.2-1.32,2.49-2.27,3.47c-1.08,1.12-2.52,1.68-3.84,0.2
	c-1.26-1.41-0.52-2.59,0.65-3.54C267.44,270.41,268.74,269.55,270.26,269.31z"/>
<path class="st22" d="M213.17,163.28c1.79-0.01,5.12,2.94,5.49,4.62c0.25,1.16-0.42,1.29-1.24,1.11c-1.83-0.4-3.62-0.97-5.21-1.99
	c-0.86-0.55-1.55-1.28-1.25-2.42C211.29,163.35,212.58,163.75,213.17,163.28z"/>
<path class="st39" d="M242.22,269.38c-1.87-0.09-3.35-1.12-5-1.58c-0.93-0.26-0.55-0.91,0.02-1.22c1.59-0.86,3.21-1.74,5.1-1.6
	c1.37,0.1,2.73,0.47,2.61,2.26C244.83,268.95,243.5,269.23,242.22,269.38z"/>
<path class="st22" d="M217.12,163.16c-1.13,0.06-5.71-3.11-6.11-4.22c-0.27-0.73,0.01-1.27,0.56-1.72c0.86-0.72,1.85-0.78,2.72-0.19
	c1.72,1.18,2.91,2.85,3.81,4.71C218.52,162.64,218.1,163.15,217.12,163.16z"/>
<path class="st24" d="M220.08,162.74c-0.59-3.63,1.99-6.7,4.37-7.37c0.71-0.2,1.53-0.5,2.03,0.23c0.44,0.63,0.33,1.47-0.15,2.08
	c-0.6,0.76-1.22,1.63-2.03,2.09C222.88,160.57,221.57,161.5,220.08,162.74z"/>
<path class="st24" d="M266.67,263.46c0.8,0.18,1.71,0.3,2.55,0.61c0.98,0.37,1.79,1.18,1.72,2.2c-0.06,0.99-1.21,0.5-1.86,0.72
	c-0.7,0.24-1.44,0.35-2.13,0.6c-1.25,0.44-2.45,0.5-3.46-0.46c-0.53-0.49-0.56-1.17-0.18-1.81
	C264.04,264.06,265.18,263.54,266.67,263.46z"/>
<path class="st21" d="M231.56,277.97c0.11-0.66-0.39-1.21,0.16-1.55c0.49-0.31,0.96,0.08,1.33,0.36c1.42,1.09,2.85,2.2,3.72,3.82
	c0.62,1.17,0.36,2.28-0.7,3.03c-1.03,0.73-1.85-0.03-2.56-0.72C232.07,281.5,231.8,279.64,231.56,277.97z"/>
<path class="st24" d="M275.59,277.36c0,0.9,0.06,1.32-0.01,1.72c-0.27,1.51-1.03,2.88-2.69,2.55c-1.7-0.34-1.93-1.88-1.3-3.35
	c0.64-1.5,1.4-2.96,2.25-4.35c0.42-0.68,1.09-0.84,1.28,0.27C275.33,275.41,275.49,276.63,275.59,277.36z"/>
<path class="st21" d="M270.06,260.94c-1.95-0.51-4.02-0.77-5.52-2.39c-0.65-0.71-1.15-1.55-0.65-2.44c0.57-1.02,1.58-0.66,2.4-0.29
	c1.89,0.83,3.77,1.7,4.82,3.63c0.18,0.34,0.37,0.82,0.26,1.14C271.17,261.17,270.55,260.92,270.06,260.94z"/>
<path class="st26" d="M211.31,142.91c2.08,0,4.95,3.2,4.87,5.27c-0.02,0.48-0.39,1-0.63,0.81c-1.8-1.38-4.54-1.03-5.9-3.18
	c-0.35-0.56-0.67-1.14-0.28-1.82C209.84,143.21,210.6,143,211.31,142.91z"/>
<path class="st21" d="M238.21,271.32c1.39,0.06,2.74,0.32,3.85,1.27c0.88,0.75,1.39,1.76,0.72,2.81c-0.64,1-1.8,1.17-2.85,0.74
	c-1.13-0.47-2.07-1.29-2.9-2.21c-0.54-0.59-1.4-1.18-1.04-2.04C236.36,270.96,237.41,271.43,238.21,271.32z"/>
<path class="st24" d="M273.07,165.27c1.9-0.11,6.46,4.53,6.42,6.36c-0.02,1-0.71,0.95-1.37,0.85c-1.55-0.24-5.47-4.44-5.74-6.06
	C272.25,165.69,272.55,165.36,273.07,165.27z"/>
<path class="st24" d="M275.18,241.75c0.08,1.26-0.24,2.37-1.6,2.64c-1.41,0.27-1.78-0.88-2-1.92c-0.29-1.34-0.54-2.69-0.63-4.05
	c-0.03-0.56,0.09-1.36,0.87-1.6c0.73-0.22,1.26,0.14,1.67,0.71C274.39,238.79,275.11,240.15,275.18,241.75z"/>
<path class="st40" d="M288.33,154.26c1.3-0.08,2.11-0.08,2.43,0.75c0.33,0.83-0.22,1.44-0.86,1.84c-1.31,0.83-2.65,1.62-4.01,2.37
	c-0.65,0.36-1.39,0.65-2.02-0.05c-0.64-0.72-0.15-1.42,0.18-2.04C285.09,155.25,286.78,154.38,288.33,154.26z"/>
<path class="st40" d="M233.61,242.24c-0.11,1.56-0.49,2.97-2.07,3.03c-1.4,0.05-1.56-1.4-1.85-2.49c-0.02-0.08-0.02-0.16-0.02-0.24
	c0.04-1.75-0.33-4.4,1.67-4.49C233.2,237.96,233,240.79,233.61,242.24z"/>
<path class="st40" d="M280.14,233.98c2.19-0.14,4.94,3.56,4.27,5.2c-0.4,0.97-1.18,1.6-2.32,1.21c-1.38-0.47-3.02-4.47-2.42-5.77
	C279.86,234.22,280.14,233.98,280.14,233.98z"/>
<path class="st21" d="M224.29,236.97c-0.08,1.36-0.48,2.7-1.13,3.93c-0.39,0.73-0.95,1.47-1.92,1.19c-0.97-0.27-1.49-1.06-1.43-2.06
	c0.13-2.18,1.42-3.71,3.24-4.59C224.37,234.8,224.51,235.87,224.29,236.97z"/>
<path class="st41" d="M222.21,188.92c0.15-1.34,1.05-2.47,2.88-2.56c1.49-0.07,2.04,1.09,1.97,2.27c-0.09,1.51-0.72,3.03-2.55,3.02
	C223.23,191.65,222.17,190.93,222.21,188.92z"/>
<path class="st21" d="M239.5,237.97c-0.03-1.54,0.43-2.35,1.73-2.16c1.92,0.28,2.82,1.7,3.01,3.41c0.13,1.13-0.66,2.17-1.98,1.95
	C240.37,240.84,239.69,239.36,239.5,237.97z"/>
<path class="st42" d="M281.45,159.52c-0.04,0.57-0.54,1-1.39,0.34c-1.73-1.34-2.81-3.2-3.7-5.16c-0.19-0.41-0.15-0.81,0.22-1.11
	c0.53-0.43,1.06-0.25,1.62-0.02C279.63,154.17,281.53,157.35,281.45,159.52z"/>
<path class="st24" d="M261.72,238.74c0.14-1.45,0.11-3.48,1.83-3.51c1.51-0.02,1.72,1.93,1.7,3.34c-0.02,1.43-0.22,3.05-2.06,3.02
	C261.38,241.56,261.87,239.89,261.72,238.74z"/>
<path class="st40" d="M280.53,184.79c-0.19,1.41-0.61,2.78-2.26,2.73c-1.5-0.04-2.41-1.27-2.41-2.67c0.01-1.5,1.17-2.34,2.64-2.4
	C280.01,182.4,280.26,183.65,280.53,184.79z"/>
<path class="st40" d="M219.24,231.88c0.05,2.24-1.71,4.46-3.31,4.4c-1.06-0.04-1.1-0.77-1.12-1.54c-0.05-1.58,1.83-4.21,3.12-4.31
	C219.09,230.35,219.18,231.21,219.24,231.88z"/>
<path class="st40" d="M220.3,154.59c-0.04,1.31-0.69,2.48-2.25,2.48c-1.34,0-2.02-1.15-2-2.37c0.03-1.5,0.77-2.83,2.46-2.79
	C219.9,151.94,220.29,153.14,220.3,154.59z"/>
<path class="st26" d="M287.4,227.5c1.45,0.41,3.07,0.5,3.02,2.44c-0.03,1.13-0.81,1.97-1.94,1.72c-1.62-0.35-3.48-1.16-3.7-2.83
	C284.59,227.33,286.64,228.15,287.4,227.5z"/>
<path class="st40" d="M284.81,152.17c-0.09,1.25-0.9,1.79-1.97,1.77c-1.22-0.02-2.44-0.48-2.45-1.9c-0.01-1.33,1.22-1.61,2.3-1.75
	C284.08,150.12,284.55,151.06,284.81,152.17z"/>
<path class="st43" d="M280.14,128.13c-0.69,0.8-1.38,1.59-2.07,2.39C277.53,128.41,278.11,127.74,280.14,128.13z"/>
<path class="st44" d="M220.77,130.53c-1-0.15-2-0.31-3.01-0.46C218.94,129.09,219.94,129.23,220.77,130.53z"/>
<path class="st19" d="M343.34,123.56c6.68-5.07,14.09-4.3,21.65-2.81c7.07,1.39,14.18,2.61,21.27,3.91
	c-1.5,5.14-2.85,10.32-2.42,15.74c0.57,7.37-1.44,14.52-1.73,21.81c-0.12,2.95-0.57,5.95-0.02,8.85c0.43,2.27-0.68,2.19-2.12,1.89
	c-2.64-0.55-5.21-1.36-7.97-1.46c-3.92-0.15-7.28,0.95-10.23,3.48c-0.36,0.31-0.8,0.51-1.03,0.66
	C356.79,157.61,351.23,140.2,343.34,123.56z"/>
<path class="st45" d="M373.66,182.25c0.98,0.08,1.57,0.05,2.13,0.18c1.56,0.37,3.94,0.11,4.33,1.7c0.39,1.63-0.67,3.62-1.87,5.08
	c-2.61,3.18-7.36,3.56-10.63,0.93c-0.77-0.62-1.44-1.35-2.18-2c-1.92-1.67-1.89-2.26,0.45-3.41
	C368.47,183.47,371.11,182.33,373.66,182.25z"/>
<path class="st37" d="M328.92,126.98c2.99,0.69,5.95,1.14,8.6-1.01c3.8,0.36,4.92,2.63,2.9,5.88c-1.39,2.23-3.51,3.9-4.67,6.3
	c-0.48,0.98-1.08,0.45-1.5-0.08c-1.89-2.37-3.81-4.71-5.57-7.17C327.79,129.66,327.36,128.19,328.92,126.98z"/>
<path class="st46" d="M390.61,124.21c2.86-1.25,5.84-2.3,8.13-4.55c0.49,0.29,0.47,1.01,1.17,1.18c3.66,0.93,4.81,3.71,2.78,6.81
	c-1.18,1.81-3.55,2.74-3.84,5.25c-0.06,0.5-0.76,0.47-0.94,0.08c-1.5-3.37-5.16-4.78-6.98-7.84
	C390.77,124.86,390.71,124.52,390.61,124.21z"/>
<path class="st47" d="M354.18,227.33c-3.97-0.45-8.01-1.59-11.16-4.88c-0.9-0.94-1.65-2.04-2.86-2.7c-0.46-0.25-1.46-0.53-0.86-1.35
	c0.46-0.63,1.34-0.69,2.02-0.2c1.33,0.96,2.64,1.96,3.91,3.01c5.45,4.46,10.82,4.36,16.16-0.3c0.49-0.43,1.06-0.77,1.61-1.12
	c0.48-0.31,0.94-0.22,1.34,0.16c0.5,0.48,0.58,1.14,0.11,1.54C361.49,223.98,358.97,227.28,354.18,227.33z"/>
<path class="st47" d="M381.27,219.35c1.31-0.7,2.1-0.27,2.75,0.18c6.19,4.32,14.17,0.27,16.66-5.51c0.32-0.75,0.68-1.5,1.09-2.21
	c0.49-0.87,1.25-1.02,2.11-0.56c0.81,0.44,0.83,1.05,0.5,1.88c-2.12,5.27-5.56,8.96-11.3,10.38
	C388.21,224.71,384.95,222.14,381.27,219.35z"/>
<path class="st46" d="M371.46,201.26c-0.06-1.49-0.01-2.97,0.85-4.26c0.68-1.03,1.64-1.13,1.98,0.07c0.74,2.56,2.51,4.58,3.31,7.07
	c0.27,0.84,0.34,1.75,0.4,2.64c0.07,1.01-0.49,1.73-1.37,2.12c-0.97,0.43-1.9,0.33-2.7-0.46
	C371.89,206.45,371.48,203.92,371.46,201.26z"/>
<path class="st48" d="M389.52,290.67c-0.67-0.19-1.79,0.71-2.1-0.41c-0.29-1.07,0.98-1.12,1.64-1.46c2.72-1.4,4.99-5.92,4.53-9.18
	c-0.1-0.69-0.71-1.52,0.36-1.86c0.95-0.3,1.54,0.44,1.96,1.15c1.56,2.69,1.57,5.52,0.2,8.23
	C394.79,289.74,392.45,290.78,389.52,290.67z"/>
<path class="st48" d="M372.23,293.51c-4.6,0.08-8.17-4.73-6.94-8.77c0.1-0.31,0.21-0.63,0.37-0.91c0.53-0.95,0.32-2.9,1.59-2.71
	c1.5,0.22,0.15,1.78,0.34,2.72c0.59,2.95,2.41,4.92,4.97,6.31c0.57,0.31,1.17,0.59,1.77,0.85c0.45,0.19,1.03,0.25,1.04,0.87
	c0.02,0.61-0.54,0.79-0.98,0.95C373.56,293.13,372.69,293.36,372.23,293.51z"/>
<path class="st49" d="M389.29,181.9c1.87,0.15,3.21,0.42,4.03,1.78c0.63,1.05,0.11,1.93-0.5,2.69c-0.96,1.19-2.29,1.59-3.73,1.12
	c-1.86-0.61-3.68-1.34-5.5-2.05c-0.52-0.2-1.16-0.43-1.08-1.15c0.06-0.54,0.58-0.76,1.06-0.88
	C385.6,182.85,387.65,182.32,389.29,181.9z"/>
<path class="st48" d="M355.66,198.79c0.31-2.86,4.97-6.66,7.41-6.49c0.71,0.05,1.28,0.46,0.94,1.05c-1.45,2.51-1.94,5.67-4.73,7.31
	c-0.83,0.49-1.69,0.6-2.56,0.03C355.88,200.12,355.64,199.29,355.66,198.79z"/>
<path class="st48" d="M368.89,195.63c0.34,3.44-0.04,6.66-2.2,9.48c-0.72,0.93-1.64,1.68-2.96,1.04c-1.45-0.7-1.37-1.97-0.97-3.18
	c0.66-1.98,1.87-3.64,3.39-5.06C366.92,197.18,367.77,196.55,368.89,195.63z"/>
<path class="st50" d="M391.41,161.73c1.99,0.07,5.58,3.73,5.75,5.81c0.08,1-0.44,1.32-1.3,1.36c-2.34,0.12-5.67-1.96-6.57-4.11
	C388.55,163,389.48,161.66,391.41,161.73z"/>
<path class="st51" d="M356.69,258.79c-0.05,1.28-0.49,2.77-1.28,4.13c-0.32,0.56-0.81,1.1-1.6,0.76c-0.65-0.29-0.76-0.91-0.54-1.46
	c1.34-3.48,0.11-5.85-3.05-7.49c-0.48-0.25-1.03-0.71-0.68-1.38c0.29-0.54,0.88-0.68,1.49-0.68
	C354.36,252.66,356.71,255.07,356.69,258.79z"/>
<path class="st50" d="M353.16,248.24c0.27-1.86,0.6-3.65,1.58-5.2c0.72-1.14,1.82-1.87,3.12-1.12c1.18,0.68,1.56,1.94,0.91,3.22
	c-0.85,1.68-1.81,3.31-2.79,4.92c-0.36,0.59-0.6,1.56-1.51,1.38c-0.84-0.17-0.8-1.15-1.04-1.81
	C353.27,249.16,353.24,248.66,353.16,248.24z"/>
<path class="st48" d="M401.92,162.2c-0.8-0.04-1.73,0.17-2.16-0.76c-0.4-0.86,0.09-1.57,0.59-2.24c1.71-2.28,4.25-2.94,6.83-3.45
	c1.08-0.21,1.45,0.37,1.11,1.48C407.52,159.79,404.48,162.21,401.92,162.2z"/>
<path class="st50" d="M379.9,195.34c2.42,0.73,4.56,1.95,6.3,3.74c0.96,1,0.52,2.15-0.23,3.14c-0.87,1.14-1.97,0.79-2.86,0.19
	c-2.04-1.37-3.24-3.47-4.34-5.59C378.18,195.69,378.93,195.38,379.9,195.34z"/>
<path class="st52" d="M341.88,173.91c0.02-2.49,1.79-5.15,3.96-6.02c0.63-0.25,1.27-0.5,1.84-0.02c0.55,0.46,0.59,1.13,0.41,1.81
	c-0.69,2.52-2.37,4.43-3.92,6.42c-0.34,0.43-0.85,0.51-1.31,0.19C342.04,175.7,341.83,174.85,341.88,173.91z"/>
<path class="st47" d="M360.17,254.95c-1.12-0.14-2.24,0.01-2.61-0.94c-0.35-0.89,0.67-1.37,1.21-1.93c1.22-1.25,2.62-2.22,4.37-2.56
	c1.34-0.27,2.48-0.03,3.01,1.38c0.49,1.32-0.31,2.22-1.25,2.91C363.43,254.89,361.57,254.39,360.17,254.95z"/>
<path class="st50" d="M397.15,153.92c0.03,1.25-0.73,1.85-1.67,1.14c-1.93-1.45-4.19-2.6-5.42-4.86c-0.41-0.76-0.62-1.59-0.06-2.31
	c0.63-0.82,1.47-0.42,2.25-0.14C395.02,148.76,397.19,151.49,397.15,153.92z"/>
<path class="st48" d="M333.03,163.09c2.09,0.02,5.21,3.37,5.2,5.56c0,0.84-0.45,0.94-1.12,0.81c-2.29-0.46-4.3-1.57-6.29-2.71
	c-0.78-0.45-1.12-1.22-0.66-2.12C330.76,163.47,331.79,163.07,333.03,163.09z"/>
<path class="st48" d="M344.14,155.55c-0.11,3.07-1.99,4.89-3.96,6.46c-1.19,0.96-1.76-0.36-1.77-1.36
	c-0.02-2.38,0.89-4.47,2.49-6.23c0.54-0.6,1.26-1.24,2.12-0.92C343.99,153.87,344.06,154.88,344.14,155.55z"/>
<path class="st50" d="M404.12,237.9c0.04,1.74-0.3,3.41-0.95,5.01c-0.21,0.51-0.36,1.19-1.08,1.15c-0.67-0.04-0.84-0.69-1.07-1.2
	c-0.9-2.07-1.17-4.25-0.77-6.46c0.22-1.23,0.87-2.53,2.33-2.4c1.44,0.13,1.46,1.53,1.53,2.68
	C404.14,237.09,404.12,237.5,404.12,237.9z"/>
<path class="st48" d="M341.05,177.44c-3.26-0.27-6.04-0.71-8.19-2.91c-0.63-0.64-1.53-1.28-1.17-2.25c0.32-0.86,1.36-0.73,2.18-0.8
	c2.49-0.19,4.25,0.93,5.5,2.99C339.87,175.3,340.32,176.15,341.05,177.44z"/>
<path class="st48" d="M357.48,187.26c0.94,0.05,1.52,0.06,2.09,0.13c0.52,0.06,0.96,0.27,1.03,0.86c0.06,0.44-0.12,0.84-0.51,1.04
	c-1.82,0.94-3.34,2.41-5.33,3.05c-1.45,0.47-2.73,0.24-3.16-1.35c-0.4-1.5,0.41-2.59,1.87-2.97
	C354.9,187.63,356.38,187.45,357.48,187.26z"/>
<path class="st47" d="M400.8,248.14c0.76,0.19,1.72,0.22,0.87,1.65c-1.56,2.63-2.44,5.36-0.31,8.18c0.32,0.42,0.34,0.95-0.13,1.32
	c-0.36,0.28-0.74,0.12-1.13-0.09c-3.33-1.82-4.01-7.7-1.17-10.23C399.42,248.53,399.94,248.12,400.8,248.14z"/>
<path class="st48" d="M402.95,154.52c-1.19-0.24-2.21-0.71-1.55-2.41c0.77-2,5-4.53,7.03-4.19c0.54,0.09,0.83,0.33,0.8,0.96
	C409.14,151.01,405.33,154.56,402.95,154.52z"/>
<path class="st49" d="M401.35,136.74c-1.15-3.45,0.73-7.39,3.3-8.08c1.44-0.38,2.66,0.09,3.21,1.52c0.59,1.52,0.12,2.74-1.51,3.31
	c-0.61,0.21-1.26,0.47-1.88,0.46C402.89,133.94,401.76,134.46,401.35,136.74z"/>
<path class="st50" d="M350.1,248.1c-0.04,1.05-0.01,1.84-0.69,2.09c-0.58,0.21-1.01-0.39-1.34-0.87c-1.49-2.19-2.78-4.45-2.84-7.2
	c-0.02-1.11,0.37-2.03,1.51-2.2c1.08-0.16,1.64,0.74,1.87,1.62C349.19,243.84,349.66,246.16,350.1,248.1z"/>
<path class="st48" d="M397.66,244.82c0.09,1.28-0.43,1.54-1.34,1.09c-2.18-1.1-3.81-2.82-5.12-4.83c-0.61-0.93-0.48-1.93,0.5-2.61
	c0.98-0.67,2.05-0.76,2.93,0.14C396.36,240.39,396.79,242.81,397.66,244.82z"/>
<path class="st53" d="M338.66,141.19c-1.23-0.15-1.42-0.85-1-1.74c0.79-1.72,1.85-3.27,3.44-4.36c0.86-0.59,1.8-0.8,2.68,0.02
	c0.79,0.73,1.6,1.5,1.42,2.69c-0.17,1.12-1.02,1.58-2.07,1.75C341.52,139.81,339.92,140.1,338.66,141.19z"/>
<path class="st52" d="M400.75,170.52c-0.78-0.02-1.48-0.27-1.84-1c-0.38-0.76,0.25-1.22,0.68-1.68c1.49-1.57,3.21-2.77,5.31-3.41
	c0.66-0.2,1.29-0.37,1.83,0.19c0.54,0.56,0.34,1.2,0.09,1.83C406.1,168.33,402.73,170.59,400.75,170.52z"/>
<path class="st48" d="M384.02,189.6c1.85,0.23,3.6,0.63,5.05,1.78c0.96,0.76,1.6,1.77,0.74,2.96c-0.88,1.23-2.2,1.55-3.43,0.7
	c-1.39-0.96-2.47-2.35-4.02-3.14c-0.54-0.28-0.76-0.89-0.46-1.48C382.36,189.52,383.34,189.85,384.02,189.6z"/>
<path class="st48" d="M340.63,168.18c-0.04-3.43,1.46-5.47,3.05-7.45c0.65-0.8,1.49-0.59,2.15,0.04c1.06,1.01,1.42,2.24,0.53,3.5
	c-1.21,1.71-3.52,2.41-4.31,4.55c-0.05,0.15-0.66,0.27-0.85,0.15C340.68,168.64,340.61,168.03,340.63,168.18z"/>
<path class="st52" d="M396.23,259.83c-1.19,1.82-1.48,4.02-3.48,5.09c-1.17,0.63-2.23,0.5-3.06-0.53c-0.78-0.97-0.59-1.99,0.18-2.89
	c1.08-1.26,2.41-2.22,3.95-2.81C394.95,258.27,395.83,258.62,396.23,259.83z"/>
<path class="st50" d="M397.45,136.16c-0.01,0.5-0.03,0.96-0.48,1.12c-0.55,0.2-0.71-0.26-0.78-0.66c-0.38-2.29-2.25-2.39-3.93-2.53
	c-1.61-0.13-2.92-0.55-3.51-2.16c-0.29-0.8,0.18-1.42,0.88-1.83c1.51-0.9,2.79-0.39,4.08,0.55
	C395.66,132.07,396.95,133.88,397.45,136.16z"/>
<path class="st48" d="M331.07,156.49c1.58,0.05,4.85,2.9,5.21,4.47c0.16,0.71-0.02,1.25-0.77,1.11c-2.24-0.42-4.53-0.76-6.41-2.21
	c-0.66-0.5-1.17-1.26-0.76-2.14C328.88,156.58,330.11,156.73,331.07,156.49z"/>
<path class="st50" d="M335.4,155.25c-0.09,1.25-1.16,1.22-1.93,0.82c-1.73-0.89-3.38-1.97-4.99-3.07c-0.61-0.42-0.98-1.15-0.5-1.94
	c0.45-0.74,1.1-1.19,2-1.2C331.53,149.86,335.34,153.53,335.4,155.25z"/>
<path class="st53" d="M337.71,155.11c-0.94,0.02-0.82-0.56-0.81-1.02c0.04-2.68,2.06-5.4,4.64-6.38c1.69-0.64,2.08,0.06,1.86,1.59
	c-0.1,0.66-0.28,1.25-0.7,1.79C341.31,152.87,338.92,153.34,337.71,155.11z"/>
<path class="st51" d="M365.8,260.49c-1.46-0.35-3.14-0.68-4.76-1.18c-1.07-0.33-0.65-0.92,0.03-1.31c1.49-0.85,3.01-1.68,4.73-1.88
	c1.5-0.17,2.99,0.26,3.03,2.01C368.87,259.76,367.6,260.48,365.8,260.49z"/>
<path class="st52" d="M356.15,267.87c2.35,0.96,3.95,2.42,5.36,4.11c0.92,1.1,0.49,2.23-0.39,3.07c-1.01,0.97-2.1,0.34-2.8-0.45
	C356.69,272.78,355.98,270.59,356.15,267.87z"/>
<path class="st52" d="M390.96,253.02c0.7,0.19,1.35,0.31,1.96,0.54c0.87,0.33,1.74,0.87,1.71,1.88c-0.02,0.95-1.08,0.81-1.72,1.06
	c-0.92,0.35-1.85,0.71-2.8,0.93c-1.27,0.29-2.67,0.29-3.14-1.15c-0.48-1.47,0.77-2.22,1.89-2.76
	C389.49,253.19,390.26,253.16,390.96,253.02z"/>
<path class="st52" d="M388.92,245.2c1.74,0.62,3.66,1.34,5.07,2.95c0.43,0.49,0.94,1.05,0.65,1.75c-0.38,0.93-1.14,0.3-1.72,0.25
	c-2.16-0.18-4.27-0.52-5.63-2.5c-0.37-0.55-0.73-1.14-0.33-1.82C387.36,245.15,388.02,245.13,388.92,245.2z"/>
<path class="st50" d="M400.19,267.57c0.02,0.94-0.17,1.81-0.78,2.54c-1.03,1.22-2.46,1.02-3.13-0.42c-0.55-1.18,0.91-6.3,2.01-7.01
	c0.66-0.43,1.11-0.18,1.23,0.55C399.78,264.66,399.97,266.12,400.19,267.57z"/>
<path class="st52" d="M327.69,136.4c2.04,0,4.74,2.78,4.74,4.88c0,0.52-0.18,1.21-0.76,0.81c-1.58-1.11-3.68-0.85-5.18-2.05
	c-0.78-0.62-1.47-1.37-1.02-2.5C325.86,136.54,326.75,136.39,327.69,136.4z"/>
<path class="st48" d="M362.48,262.56c1.26,0.24,2.63,0.27,3.72,1.05c0.89,0.63,1.68,1.54,1.08,2.71c-0.58,1.14-1.68,1.59-2.93,1.08
	c-1.54-0.63-2.75-1.75-3.88-2.95c-0.29-0.31-0.52-0.77-0.26-1.11C360.76,262.61,361.68,262.77,362.48,262.56z"/>
<path class="st50" d="M397.16,160.67c-0.03,0.93-0.62,1.02-1.35,0.91c-1.43-0.2-5.58-4.14-5.95-5.61c-0.21-0.82,0-1.26,0.91-1.26
	C392.57,154.7,397.19,158.98,397.16,160.67z"/>
<path class="st53" d="M397.21,230.43c-0.09,1.2-0.47,2.11-1.59,2.35c-1.25,0.27-1.72-0.61-2.04-1.61c-0.44-1.4-0.86-2.8-0.9-4.28
	c-0.02-0.58,0.03-1.19,0.67-1.45c0.59-0.25,1.11-0.02,1.55,0.4C396.23,227.14,396.94,228.75,397.21,230.43z"/>
<path class="st51" d="M407.5,143.74c-0.18,0.31-0.33,0.86-0.68,1.12c-1.44,1.07-2.93,2.09-4.44,3.07c-0.47,0.3-1.08,0.51-1.6,0.01
	c-0.49-0.47-0.36-1.02-0.21-1.61c0.53-2.09,3.74-4.25,5.75-3.85C406.96,142.6,407.35,142.94,407.5,143.74z"/>
<path class="st51" d="M351.63,232.44c0.04-0.49,0.01-1,0.13-1.47c0.21-0.78,0.39-1.77,1.34-1.88c0.99-0.11,1.3,0.85,1.6,1.61
	c0.32,0.84,0.65,1.7,0.84,2.57c0.32,1.46-0.07,2.77-1.65,3.09c-1.55,0.31-1.77-1.15-2.11-2.2
	C351.6,233.63,351.67,233.02,351.63,232.44z"/>
<path class="st54" d="M341.77,231.13c0.23-1.57,1.26-2.98,2.8-4.04c0.43-0.3,1.05-0.37,1.28,0.18c0.72,1.73-0.1,3.35-0.55,4.97
	c-0.26,0.94-0.78,1.95-2.03,1.71C341.96,233.7,341.75,232.62,341.77,231.13z"/>
<path class="st52" d="M406.14,226.3c0,1.28-0.65,2.03-1.93,2.03c-1.31,0-3.08-2.85-3.11-4.86c-0.01-0.8,0.01-1.51,1.13-1.42
	C403.96,222.19,406.13,224.52,406.14,226.3z"/>
<path class="st52" d="M345.84,180.85c-0.03,1.85-0.63,3.13-2.31,3.21c-1.44,0.06-2.66-0.84-2.55-2.38c0.13-1.68,1.24-2.91,3.05-2.93
	C345.5,178.74,345.9,179.84,345.84,180.85z"/>
<path class="st52" d="M361.11,228.19c-0.06-1.2,0.46-1.96,1.7-1.81c1.83,0.22,2.93,1.39,3.2,3.17c0.19,1.24-0.57,2.03-1.78,2.2
	C362.93,231.93,361.17,229.85,361.11,228.19z"/>
<path class="st51" d="M387.15,227.88c-0.2,1.38-0.49,2.86-2.13,2.85c-1.45-0.01-1.51-1.46-1.64-2.6c-0.01-0.08-0.01-0.17,0-0.24
	c0.25-1.38-0.05-3.51,1.76-3.51C386.88,224.37,386.72,226.54,387.15,227.88z"/>
<path class="st51" d="M398.18,148.02c-0.03,0.39,0.1,0.86-0.33,1.08c-0.44,0.21-0.78-0.12-1.08-0.38c-1.47-1.3-2.79-2.73-3.67-4.51
	c-0.22-0.44-0.51-0.9-0.11-1.34c0.43-0.48,0.99-0.43,1.58-0.25C396.28,143.12,398.18,145.94,398.18,148.02z"/>
<path class="st52" d="M340.63,224.34c-0.02,2.09-1.66,4.33-3.09,4.3c-1.16-0.03-1.14-0.96-1.18-1.77c-0.07-1.61,1.77-4.3,3.01-4.34
	C340.75,222.49,340.34,223.74,340.63,224.34z"/>
<path class="st54" d="M399.13,173.78c-0.27,1.39-0.49,2.66-2.13,2.72c-1.64,0.05-2.48-1.08-2.56-2.45
	c-0.09-1.47,0.89-2.43,2.43-2.55C398.6,171.36,398.71,172.77,399.13,173.78z"/>
<path class="st50" d="M411.51,216.84c0.09,1.74-0.76,2.47-1.91,2.36c-1.67-0.16-3.46-1.11-3.79-2.63c-0.3-1.4,1.69-1.18,2.65-1.3
	C409.81,215.12,411.31,215.32,411.51,216.84z"/>
<path class="st52" d="M336.95,147.23c-0.03,1.57-0.48,2.62-2.08,2.63c-1.64,0.02-2.02-1.05-2-2.44c0.02-1.4,0.6-2.49,2.06-2.53
	C336.49,144.86,336.87,146.09,336.95,147.23z"/>
<path class="st55" d="M401.14,140.98c-0.11,1.19-0.83,1.83-1.94,1.8c-1.21-0.03-2.47-0.54-2.39-1.92c0.08-1.33,1.46-1.77,2.57-1.84
	C400.54,138.94,401.04,139.89,401.14,140.98z"/>
<path class="st56" d="M395.51,116.84c-0.82,0.66-1.71,1.18-2.74,1.45C393.17,116.84,394.18,116.54,395.51,116.84z"/>
<path class="st19" d="M473.21,121.63c2.38-4.28,6.38-4.67,10.63-4.42c1.24,0.07,2.42,0.44,3.39,1.3c1.76,1.57,1.68,2.1-0.47,2.88
	c-3.54,1.29-5.04,4-3.86,7.08c0.69,1.79,1.89,3.15,3.87,3.41c2.55,0.33,4.75-0.82,5.85-2.91c1.33-2.51,2.23-1.58,3.71-0.33
	c4.41,3.74,8.97,7.28,14.99,8.04c0.98,0.12,1.96,0.18,2.94,0.27c-2.91,6.16-3.49,12.94-5.18,19.42c-1.6,6.17-4.02,12.13-5.09,18.45
	c-0.22,1.29-0.6,2.59-0.57,3.88c0.05,2.13-0.87,2.11-2.42,1.44c-2.18-0.94-4.27-2.08-6.6-2.68c-4.6-1.19-8.94-0.63-13.31,2.27
	c0.62-4.26,0.48-8.1,0-11.85c-1.73-13.74-2.83-27.58-6.63-40.99C473.99,125.16,473.63,123.39,473.21,121.63z"/>
<path class="st57" d="M492.02,189.33c2.26,0.4,4.47,1.2,6.53,2.41c0.48,0.28,0.97,0.64,0.79,1.36c-1.32,5.56-8.79,7.79-13.04,3.81
	c-1.24-1.16-2.2-2.63-3.25-3.99c-0.93-1.2,0.17-1.63,0.94-1.96C486.51,189.92,489.24,189.78,492.02,189.33z"/>
<path class="st57" d="M520.35,135.06c2.63-1.83,5.67-3.15,7.47-6.01c1.55,1.25,1.81,3.43,4.2,4.34c2.2,0.83,1.13,5.56-1.57,7.25
	c-1.4,0.88-2.86,1.55-3.45,3.28c-0.24,0.71-1.02,0.83-1.2,0.06C524.98,140.37,521.59,138.38,520.35,135.06z"/>
<path class="st50" d="M452.91,217.88c1.23-1,2.1-0.83,2.93,0.18c0.88,1.08,1.83,2.1,2.74,3.16c4.68,5.44,9.88,6.32,16.12,2.73
	c0.43-0.24,0.88-0.43,1.32-0.65c0.76-0.39,1.43-0.38,1.87,0.46c0.41,0.77-0.13,1.22-0.62,1.66c-6.04,5.42-15.56,4.27-20.49-2.53
	C455.55,221.18,454.66,219.22,452.91,217.88z"/>
<path class="st50" d="M494.75,226.05c1.24-0.48,1.88,0.27,2.58,0.8c5.49,4.17,11.53,3.66,16.22-1.41c0.83-0.9,1.54-1.92,2.31-2.88
	c0.62-0.77,1.25-1.27,2.27-0.48c0.98,0.76,0.71,1.34,0.11,2.24c-2.02,2.99-4.38,5.54-7.82,6.9
	C504.11,233.72,498.77,232,494.75,226.05z"/>
<path class="st58" d="M459.76,132.54c3.18-1.47,5.91-3.47,7.7-6.57c4.61,1.17,4.64,4.65,1.4,7.29c-1.58,1.29-3.22,2.56-4.54,4.1
	c-1.11,1.29-1.63,0.99-2.25-0.23C461.28,135.61,460.52,134.08,459.76,132.54z"/>
<path class="st47" d="M487.08,210.23c0.21-2.03,0.45-4.06,1.54-5.86c0.34-0.56,0.78-1.15,1.51-1.09c0.85,0.07,0.9,0.84,0.95,1.49
	c0.2,2.72,1.82,5.07,1.97,7.81c0.09,1.76-0.05,3.41-2.12,3.84c-2.14,0.44-2.82-1.19-3.34-2.8
	C487.25,212.52,486.97,211.4,487.08,210.23z"/>
<path class="st50" d="M497.96,289.83c0.09,5.81-4.26,9.15-10.01,7.72c-0.5-0.12-1.01-0.17-1.02-0.79c-0.01-0.47,0.4-0.67,0.82-0.77
	c4.9-1.13,6.74-4.66,7.26-9.23c0.06-0.5,0.07-1.02,0.72-1.09c0.55-0.06,0.93,0.24,1.22,0.67
	C497.64,287.4,497.94,288.57,497.96,289.83z"/>
<path class="st48" d="M465.77,290.04c-0.29-2.07,1.15-3.66,2.16-5.42c0.21-0.37,0.62-0.59,1.05-0.37c0.45,0.23,0.4,0.7,0.28,1.08
	c-1.54,4.61,1.25,7.22,4.42,9.66c0.5,0.39,1.4,0.56,1.26,1.32c-0.14,0.75-1.01,0.67-1.64,0.79
	C469.27,297.9,465.85,294.79,465.77,290.04z"/>
<path class="st49" d="M505.7,192.19c1.74,0.08,3.08-0.18,4.31,0.42c1.21,0.58,2.5,1.26,2.11,2.87c-0.42,1.72-1.79,2.72-3.49,2.42
	c-2.64-0.45-4.73-2.16-6.81-3.73c-0.81-0.61-0.55-1.37,0.44-1.56C503.53,192.38,504.84,192.3,505.7,192.19z"/>
<path class="st48" d="M479.99,197.54c0.67,0.01,1.29-0.01,1.61,0.55c0.22,0.38-0.01,0.78-0.27,1.12c-1.09,1.42-2.12,2.89-3.27,4.25
	c-0.86,1.01-1.92,1.77-3.36,1.74c-1.91-0.04-2.77-1.3-2.16-3.13C473.76,198.39,477.26,198.53,479.99,197.54z"/>
<path class="st48" d="M485.94,201.45c-0.46,3.98-1.22,7.27-4.23,9.6c-0.9,0.69-1.96,0.95-2.92,0.12c-0.97-0.83-0.82-1.91-0.34-2.92
	c0.86-1.83,2.32-3.14,3.95-4.27C483.39,203.28,484.37,202.56,485.94,201.45z"/>
<path class="st50" d="M511.51,172.83c0.11-1.31,1-1.88,2.49-1.65c2.19,0.35,5.32,4.84,4.92,6.99c-0.11,0.6-0.45,0.77-1.01,0.82
	C515.39,179.2,511.51,175.64,511.51,172.83z"/>
<path class="st52" d="M460.9,250.15c0.29-1.99,1.14-4.01,2.6-5.71c0.78-0.91,1.94-1.39,3.07-0.62c1.2,0.82,1.3,2.06,0.58,3.25
	c-1.24,2.03-2.92,3.7-4.57,5.4c-0.27,0.28-0.65,0.64-1.03,0.24C460.94,252.07,460.95,251.21,460.9,250.15z"/>
<path class="st50" d="M525.34,173.66c-1.02-0.19-2.4,0.08-2.8-1.12c-0.44-1.29,0.74-2.03,1.63-2.74c1.93-1.52,4.26-1.59,6.55-1.69
	c1.03-0.04,1.5,0.44,1.01,1.58C530.88,171.67,527.55,173.79,525.34,173.66z"/>
<path class="st50" d="M462.79,259.26c-0.32,1.72-1.06,3.51-2.38,5.03c-0.39,0.45-0.89,0.77-1.51,0.38
	c-0.59-0.38-0.68-1.01-0.34-1.51c2.26-3.31,0.99-5.82-1.72-8.06c-0.4-0.33-0.61-0.8-0.35-1.32c0.33-0.65,0.87-0.54,1.48-0.43
	C460.88,253.86,462.75,256.02,462.79,259.26z"/>
<path class="st48" d="M502.62,209.39c-0.14,1.02-0.52,1.89-1.47,2.41c-0.87,0.48-1.62,0.11-2.23-0.46c-1.87-1.73-2.77-4-3.44-6.37
	c-0.18-0.65-0.11-1.32,0.89-1.35C497.9,203.57,502.58,207.85,502.62,209.39z"/>
<path class="st59" d="M460.67,167.95c-0.05,0.98-0.41,1.24-1.42,0.88c-2.15-0.77-3.74-2.34-5.49-3.68c-0.71-0.54-0.96-1.36-0.3-2.17
	c0.93-1.14,2.11-1.51,3.52-1.04C458.74,162.53,460.76,165.83,460.67,167.95z"/>
<path class="st48" d="M470.96,252.33c0.92,0.13,2.03,0.49,2.29,1.84c0.26,1.33-0.5,2.24-1.65,2.69c-2.27,0.88-4.52,0.35-6.72-0.34
	c-1.04-0.33-0.89-1.07-0.18-1.65C466.44,253.45,468.38,252.44,470.96,252.33z"/>
<path class="st50" d="M521.29,164.35c-0.04,0.16,0.17,1.06-0.71,1.37c-0.75,0.27-1.29-0.29-1.65-0.81c-1.25-1.81-3.22-3.1-3.91-5.32
	c-0.26-0.83-0.43-1.65,0.33-2.27c0.78-0.63,1.58-0.21,2.27,0.24C519.86,159.05,521.45,160.95,521.29,164.35z"/>
<path class="st60" d="M528.52,147.59c-0.46-2.79,2.35-6.54,4.99-6.58c1.51-0.02,2.49,0.84,2.79,2.26c0.29,1.41-0.49,2.36-1.81,2.77
	c-0.69,0.21-1.44,0.26-2.17,0.26C529.99,146.3,529.99,146.27,528.52,147.59z"/>
<path class="st50" d="M474.11,191.49c1.09,0.14,2.66,0.08,4.13,0.65c0.46,0.18,0.93,0.4,0.92,1c-0.01,0.58-0.43,0.87-0.89,1.05
	c-1.52,0.58-3.07,1.11-4.59,1.69c-1.23,0.47-2.4,0.57-3.42-0.42c-0.67-0.65-0.68-1.49-0.36-2.28c0.54-1.35,1.8-1.53,3.03-1.68
	C473.18,191.46,473.43,191.49,474.11,191.49z"/>
<path class="st52" d="M508.65,250.05c0.06-1.69,0.39-3.28,1.3-4.7c0.51-0.8,1.22-1.4,2.25-1.08c0.94,0.29,1.1,1.13,1.08,1.99
	c-0.07,2.6-0.94,4.95-2.33,7.13c-0.73,1.14-1.4,1.12-1.76-0.21C508.9,252.16,508.82,251.09,508.65,250.05z"/>
<path class="st49" d="M463.33,175.27c0.04-2.95,2.44-5.81,4.98-6.25c1.67-0.29,2.47,0.33,1.86,1.98c-0.95,2.56-3,4.34-5.17,5.74
	C463.56,177.69,463.46,176.05,463.33,175.27z"/>
<path class="st50" d="M461.99,177.59c-3.29-1.05-6.11-2-7.83-4.78c-0.38-0.62-1.01-1.26-0.55-2c0.49-0.8,1.39-0.76,2.23-0.62
	c2.25,0.4,3.95,1.55,4.82,3.72C461.09,174.97,461.44,176.04,461.99,177.59z"/>
<path class="st61" d="M502.88,263.9c0.56-2.06,0.96-4.36,3.13-5.71c0.92-0.57,1.97-0.7,2.71,0.1c1,1.07-0.53,1.22-0.88,1.79
	c-1.39,2.26-2.73,4.5-1.31,7.25c0.29,0.57,0.39,1.11-0.24,1.49c-0.54,0.32-0.94-0.04-1.25-0.44
	C504.04,267.08,502.94,265.83,502.88,263.9z"/>
<path class="st50" d="M532.29,160.64c0.67,0.13,1.5-0.27,1.81,0.53c0.28,0.7-0.28,1.24-0.7,1.72c-1.54,1.75-3.15,3.4-5.75,3.28
	c-0.84-0.04-1.7-0.1-2.03-1.04c-0.3-0.86,0.06-1.61,0.67-2.23C527.96,161.2,530.12,160.81,532.29,160.64z"/>
<path class="st52" d="M458.01,245.54c-0.08,1.22-0.11,2.45-0.28,3.66c-0.07,0.51-0.1,1.25-0.85,1.32c-0.56,0.06-0.83-0.47-1.05-0.9
	c-1.13-2.22-1.82-4.57-1.74-7.06c0.03-1.16,0.37-2.44,1.79-2.57c1.57-0.14,1.77,1.24,1.93,2.35c0.15,1.04,0.03,2.12,0.03,3.19
	C457.9,245.54,457.95,245.54,458.01,245.54z"/>
<path class="st61" d="M505.37,253.68c-0.02,0.6,0.15,1.16-0.38,1.45c-0.52,0.29-0.93-0.13-1.32-0.4c-1.86-1.33-2.92-3.3-3.95-5.24
	c-0.52-0.99-0.35-2.2,0.79-2.77c1.26-0.63,2.44-0.28,3.19,0.95C504.84,249.55,504.78,251.77,505.37,253.68z"/>
<path class="st52" d="M505.03,205.17c-0.87,0.04-1.63-0.23-2.18-0.91c-0.96-1.2-1.63-2.64-2.98-3.53c-0.43-0.28-0.56-0.83-0.4-1.33
	c0.21-0.66,0.82-0.75,1.41-0.72c2.43,0.11,4.44,1.19,5.91,3.04C507.99,203.25,506.96,205.1,505.03,205.17z"/>
<path class="st49" d="M468.87,155.97c0.04,2.05-3.05,5.92-5.14,6.37c-1.19,0.26-1.34-0.6-1.38-1.47c-0.09-1.92,2.51-5.81,4.31-6.5
	C468.02,153.86,468.84,154.45,468.87,155.97z"/>
<path class="st52" d="M470.12,140.6c-1.19-0.27-2.11,0.09-3.03,0.47c-0.53,0.22-1.1,0.55-1.58,0c-0.53-0.6-0.23-1.22,0.13-1.8
	c0.77-1.2,1.81-2.13,2.98-2.9c1.07-0.7,2.21-1.26,3.39-0.27c1.02,0.85,1.57,2.02,1.09,3.29
	C472.56,140.84,471.21,140.71,470.12,140.6z"/>
<path class="st59" d="M463.29,168.32c-0.03-2.17,2.66-6.14,4.47-6.92c0.87-0.38,1.44-0.05,1.9,0.59c0.72,1,1.04,2.16,0.17,3.17
	c-1.55,1.8-4.06,2.29-5.7,4.13C463.48,170.02,463.52,168.59,463.29,168.32z"/>
<path class="st50" d="M522.97,181.49c-1.23-0.03-2.35-0.07-2.68-1.19c-0.32-1.06,0.7-1.57,1.43-2.04c1.59-1.04,3.34-1.74,5.22-2.03
	c0.71-0.11,1.57-0.03,1.99,0.66c0.45,0.75-0.08,1.42-0.56,1.99C526.9,180.62,524.95,181.33,522.97,181.49z"/>
<path class="st61" d="M501.16,268.02c0.18,1.76-4.07,5.43-5.68,4.94c-1.45-0.44-2.19-1.42-1.58-2.98c0.54-1.37,4.4-3.34,5.82-3.03
	C500.4,267.09,500.93,267.42,501.16,268.02z"/>
<path class="st62" d="M523.59,148.81c0.42-3.55-1.71-4.25-4.03-4.82c-1.36-0.34-2.4-1.16-2.62-2.62c-0.11-0.7,0.42-1.18,1.06-1.51
	c1.38-0.71,2.57-0.29,3.62,0.64c1.65,1.46,2.76,3.25,3.15,5.44C524.92,146.81,524.92,147.66,523.59,148.81z"/>
<path class="st51" d="M454.88,155.04c2.23-0.04,5.72,3.74,5.39,5.69c-0.11,0.64-0.49,0.78-1.06,0.59c-2.02-0.69-4-1.47-5.6-2.93
	c-0.68-0.63-1.11-1.42-0.72-2.42C453.29,154.97,454.27,155.29,454.88,155.04z"/>
<path class="st59" d="M455.53,148.32c1.75,0,5.45,4.87,4.85,6.44c-0.36,0.95-1.16,0.88-1.83,0.46c-1.74-1.1-3.18-2.56-4.6-4.03
	c-0.48-0.5-0.64-1.18-0.26-1.82C454.09,148.69,454.73,148.33,455.53,148.32z"/>
<path class="st62" d="M459.96,271.25c0.17-0.59-0.35-1.44,0.45-1.75c0.73-0.28,1.18,0.43,1.6,0.9c0.92,1.05,1.91,2.07,2.63,3.25
	c0.76,1.24,0.68,2.68-0.67,3.46c-1.39,0.81-2.34-0.25-2.99-1.34C460.16,274.39,459.99,272.82,459.96,271.25z"/>
<path class="st59" d="M469.56,149.37c-0.28,1.69-1.27,2.73-2.67,3.41c-1.31,0.64-2.83,0.86-3.91,1.97
	c-0.22,0.23-0.61,0.41-0.85,0.12c-0.17-0.21-0.21-0.61-0.17-0.91c0.34-2.49,3.4-5.39,5.89-5.65
	C468.77,148.22,469.51,148.31,469.56,149.37z"/>
<path class="st60" d="M465.8,261.08c2.29-1.41,4.44-1.95,6.76-1.54c1.16,0.21,2.35,0.79,2.03,2.27c-0.31,1.48-1.44,2.22-2.94,1.91
	C469.63,263.32,467.97,262.06,465.8,261.08z"/>
<path class="st51" d="M459.96,139.79c-0.04,0.5,0.21,1.08-0.39,1.32c-0.43,0.17-0.79-0.15-1.05-0.46c-0.96-1.11-2.55-1.1-3.58-2.06
	c-0.98-0.9-2.13-1.92-1.01-3.3c1-1.24,2.39-0.87,3.55-0.06C459.04,136.33,459.71,137.98,459.96,139.79z"/>
<path class="st51" d="M466.33,265c1.46,0.28,2.93,0.51,4.15,1.4c1.17,0.84,1.93,2.04,1,3.34c-0.91,1.28-2.33,1.14-3.43,0.14
	c-1.01-0.93-1.91-2.01-2.72-3.13C464.49,265.59,464.88,264.93,466.33,265z"/>
<path class="st51" d="M503.84,274.97c0.03,0.82,0.04,2.22-0.73,3.46c-0.55,0.88-1.35,1.55-2.44,1.23c-1.13-0.33-1.37-1.37-1.27-2.39
	c0.24-2.35,2.09-3.79,3.34-5.55c0.38-0.53,1.06-0.48,1.08,0.46C503.85,272.92,503.84,273.66,503.84,274.97z"/>
<path class="st61" d="M495.93,264.98c-1.52,0.03-3.23,0-3.2-1.86c0.02-1.57,1.46-2.27,3.04-2.21c0.73,0.03,1.48,0.11,2.18,0.33
	c1.23,0.38,2.51,1.07,2.45,2.44c-0.08,1.58-1.74,0.55-2.6,1.04C497.28,265.02,496.52,264.91,495.93,264.98z"/>
<path class="st61" d="M514.99,164.1c1.8,1.03,3.41,2.48,4.27,4.61c0.4,0.98,1.68,2.23,0.51,3.04c-1.17,0.8-2.19-0.59-3.02-1.44
	c-1.32-1.36-2.29-2.97-2.9-4.77C513.59,164.78,513.63,164.03,514.99,164.1z"/>
<path class="st51" d="M501.64,257.8c0,0.8-0.3,1.19-0.91,0.97c-2.23-0.78-4.67-1.24-5.94-3.59c-0.4-0.74-0.69-1.56,0.04-2.26
	c0.66-0.63,1.38-0.33,2.04,0.05C498.97,254.16,500.97,255.45,501.64,257.8z"/>
<path class="st61" d="M508.27,239.11c-0.14,1.39-0.55,2.76-2.11,2.85c-1.48,0.09-1.68-1.31-1.77-2.45c-0.1-1.29-0.06-2.6-0.04-3.9
	c0.01-0.7,0.34-1.3,1.07-1.45c0.65-0.14,1.03,0.38,1.36,0.85C507.65,236.24,507.94,237.68,508.27,239.11z"/>
<path class="st60" d="M531.15,154.8c0.97-0.05,1.96,0.12,2.16,1.18c0.17,0.91-0.63,1.41-1.42,1.77c-1.26,0.58-2.48,1.27-3.77,1.78
	c-0.66,0.26-1.49,0.37-2.08-0.26c-0.69-0.74-0.06-1.4,0.29-1.99C527.42,155.47,529.19,154.94,531.15,154.8z"/>
<path class="st63" d="M462.78,234.86c0.26-1.64,0.21-4.16,2.04-4.17c2.03-0.02,1.63,2.62,1.83,4.16c0.17,1.37-0.32,2.97-2.13,2.97
	C462.61,237.81,462.98,236.11,462.78,234.86z"/>
<path class="st62" d="M517.78,237.01c-0.01,1.26-0.69,2.02-1.88,2.16c-1.43,0.17-2.71-2.23-2.64-4.88c0.02-0.77-0.21-1.77,1.03-1.83
	C515.65,232.39,517.81,235.24,517.78,237.01z"/>
<path class="st51" d="M453.28,231.13c0.59-1.99,1.97-3.31,3.84-4.11c0.93-0.4,1.41,0.14,1.22,1.12c-0.3,1.53-0.89,2.96-1.67,4.3
	c-0.48,0.81-1.17,1.51-2.17,1.17C453.4,233.24,453.32,232.18,453.28,231.13z"/>
<path class="st63" d="M474.48,229.45c1.71,0.11,3.37,2.2,3.22,3.78c-0.12,1.26-0.86,1.97-2.1,1.96c-1.26-0.01-2.81-2.44-2.59-4.03
	C473.13,230.19,473.58,229.44,474.48,229.45z"/>
<path class="st59" d="M464.02,179.23c1.29-0.01,2.08,0.7,2.04,1.92c-0.05,1.62-0.55,3.16-2.55,3.26c-1.4,0.07-2.32-0.77-2.49-2.17
	C460.85,180.89,462.53,179.29,464.02,179.23z"/>
<path class="st62" d="M498.79,234.45c-0.29,1.5-0.27,3.33-2.33,3.52c-1.26,0.11-1.56-1.02-1.46-2.09c0.17-1.7,0.18-3.87,2.11-4.25
	C498.58,231.34,498.46,233.31,498.79,234.45z"/>
<path class="st64" d="M519.64,184.12c-0.31,1.26-0.65,2.7-2.3,2.67c-1.72-0.03-2.38-1.4-2.31-2.88c0.08-1.56,1.33-2.23,2.73-2.22
	C519.2,181.7,519.57,182.83,519.64,184.12z"/>
<path class="st63" d="M523.57,158.35c-0.03,0.67-0.03,1.39-0.65,1.53c-0.32,0.07-0.85-0.42-1.17-0.76c-1.21-1.28-1.86-2.9-2.5-4.5
	c-0.22-0.56-0.63-1.34,0.14-1.78c0.72-0.41,1.45-0.05,2.03,0.47C522.91,154.69,523.26,156.56,523.57,158.35z"/>
<path class="st65" d="M453.56,222.77c0.04,2.49-1.73,4.53-3.57,4.5c-1.13-0.02-1.07-0.89-1.12-1.54c-0.11-1.49,2.2-4.07,3.61-4.15
	C453.6,221.5,453.54,222.31,453.56,222.77z"/>
<path class="st66" d="M521.06,226.87c1.2-0.01,2.11,0.32,2.94,0.89c0.81,0.55,0.86,1.37,0.58,2.19c-0.26,0.76-0.89,1.25-1.69,1.16
	c-1.9-0.22-3.28-1.53-3.73-3.15C518.75,226.53,520.45,227.14,521.06,226.87z"/>
<path class="st60" d="M463.43,146.75c-0.1,1.4-0.61,2.53-2.25,2.6c-1.45,0.06-2.13-0.97-2.07-2.18c0.06-1.43,0.69-2.8,2.43-2.81
	C462.97,144.34,463.36,145.46,463.43,146.75z"/>
<path class="st67" d="M525.61,150.26c1.36-0.07,1.96,0.59,2.02,1.75c0.06,1.19-0.57,1.97-1.74,1.92c-1.28-0.05-2.62-0.55-2.59-2.08
	C523.33,150.51,524.71,150.49,525.61,150.26z"/>
<path class="st68" d="M461.66,126.06c-0.94,1.26-2.29,1.87-3.73,2.33C457.95,125.58,458.47,125.25,461.66,126.06z"/>
<path class="st69" d="M464.63,122.14c-1,1.18-1.3,2.87-2.76,3.71C462.08,124.08,462.55,122.51,464.63,122.14z"/>
<path class="st24" d="M96.65,112.71c-0.2,0.52-0.41,1.41-0.85,2.17c-1.35,2.28-1.99,2.28-3.61,0.16c-1.1-1.43-2.12-2.91-2.8-4.58
	c-0.37-0.9-0.84-1.88,0.06-2.74c0.89-0.85,1.98-1.13,3.18-0.79C94.56,107.49,96.64,110.32,96.65,112.71z"/>
<path class="st24" d="M536.99,111.17c-0.4,0.94,0.58,2.84-1.49,3.05c-2.2,0.22-5.14-2.72-4.99-4.85c0.14-1.93,1.54-2.56,3.23-2.63
	C535.87,106.66,536.99,108.16,536.99,111.17z"/>
<path class="st70" d="M489.65,125.06c-0.28,1.56-0.94,2.28-2.13,2.4c-0.16,0.02-0.54-0.46-0.52-0.67
	C487.17,125.39,488.36,125.47,489.65,125.06z"/>
<path class="st71" d="M303.3,123.49c0.36-0.68,0.06-2.11,1.57-1.84c1.2,0.22,2.12,1,2.07,2.34c-0.05,1.25-1.06,1.56-2.09,1.57
	C303.55,125.58,303.21,124.73,303.3,123.49z"/>
<path class="st72" d="M364.62,357.45c-0.75-3.8-0.25-7.47,0.68-11.12C367.02,350.16,366.66,353.87,364.62,357.45z"/>
<path class="st73" d="M389.29,372.87c1.11,2.17,0.55,3.85-0.53,5.46c-0.3,0.46-0.64,1.13-1.29,0.84c-0.5-0.22-0.68-0.86-0.74-1.46
	C386.55,375.59,387.85,374.34,389.29,372.87z"/>
<path class="st74" d="M288.44,367.53c-0.41,0.99-0.94,1.89-2.1,2.12c-0.71,0.14-1.41-0.07-1.35-0.91c0.08-1.23,1-1.79,2.12-1.92
	C287.62,366.75,288.26,366.77,288.44,367.53z"/>
<path class="st75" d="M295.97,344.93c0.08,1.47-1.03,2.27-1.74,3.4c-0.63-0.65-0.25-1.33-0.45-1.9
	C294.13,345.37,294.53,344.39,295.97,344.93z"/>
<path class="st76" d="M258.26,353.74c0.53-2.76,1.07-5.53,1.63-8.44c2.68,2.63,2.35,5.05-1.08,9.54
	C257.83,354.87,258.1,354.28,258.26,353.74z"/>
<path class="st77" d="M258.26,353.74c0.18,0.36,0.37,0.73,0.55,1.09c-0.12,0.39-0.53,0.98-0.69,0.81
	C257.57,355.06,257.9,354.36,258.26,353.74z"/>
<path class="st78" d="M406.96,364.29c0.58-0.69-0.8-2.56,1.39-2.58c1.8-0.02,2.33,0.99,2.26,2.68c-0.06,1.56-0.58,3.05-2.12,3.07
	C406.72,367.5,406.98,365.74,406.96,364.29z"/>
<path class="st79" d="M300.42,364.6c0.68-0.71-0.84-2.85,1.58-2.87c1.69-0.01,2.25,1.01,2.2,2.56c-0.05,1.62-0.57,3.16-2.32,3.19
	C300.52,367.51,300.31,366.06,300.42,364.6z"/>
<path class="st80" d="M309.77,355.63c-0.23,0.2-0.41,0.45-0.56,0.44c-0.16-0.01-0.42-0.29-0.41-0.44c0.01-0.17,0.26-0.4,0.44-0.44
	C309.37,355.17,309.55,355.44,309.77,355.63z"/>
<path class="st81" d="M270.23,364.43c0.47-0.71-0.77-2.6,1.42-2.7c1.87-0.09,2.27,1.11,2.23,2.7c-0.05,1.53-0.57,3.01-2.14,3.05
	C270.18,367.52,270.09,365.99,270.23,364.43z"/>
</svg>
