<?xml version="1.0" encoding="utf-8"?>
<!-- Generator: Adobe Illustrator 25.4.1, SVG Export Plug-In . SVG Version: 6.00 Build 0)  -->
<svg version="1.1" id="Layer_1" xmlns="http://www.w3.org/2000/svg" xmlns:xlink="http://www.w3.org/1999/xlink" x="0px" y="0px"
	 viewBox="0 0 22.89 21.81" style="enable-background:new 0 0 22.89 21.81;" xml:space="preserve">
<g>
	<path d="M5.63,19.56c-1.12,0-2.08-0.57-2.88-1.72c-0.79-1.15-1.19-2.52-1.19-4.11c0-1.64,0.58-3.4,1.75-5.3
		c1.17-1.9,2.81-3.73,4.91-5.5L9.7,3.7l0.14,0.7c-1.08,1.03-1.94,2.16-2.6,3.4s-0.98,2.39-0.98,3.47c0,1.03,0.34,1.96,1.02,2.8
		c0.68,0.84,1.58,1.45,2.7,1.83l0.07,0.98C8.55,18.67,7.08,19.56,5.63,19.56z M16.5,19.56c-1.12,0-2.08-0.57-2.87-1.72
		c-0.8-1.15-1.19-2.52-1.19-4.11c0-1.64,0.59-3.4,1.75-5.3c1.17-1.9,2.81-3.73,4.91-5.5l1.47,0.77l0.14,0.7
		c-1.08,1.03-1.94,2.16-2.59,3.4c-0.66,1.24-0.98,2.39-0.98,3.47c0,1.03,0.34,1.96,1.02,2.8c0.68,0.84,1.58,1.45,2.7,1.83l0.07,0.98
		C19.43,18.67,17.95,19.56,16.5,19.56z"/>
</g>
</svg>
