<?xml version="1.0" encoding="utf-8"?>
<!-- Generator: Adobe Illustrator 25.4.1, SVG Export Plug-In . SVG Version: 6.00 Build 0)  -->
<svg version="1.1" id="Layer_1" xmlns="http://www.w3.org/2000/svg" xmlns:xlink="http://www.w3.org/1999/xlink" x="0px" y="0px"
	 viewBox="0 0 595.28 841.89" style="enable-background:new 0 0 595.28 841.89;" xml:space="preserve">
<style type="text/css">
	.st0{fill:#DD6B28;}
	.st1{fill:#FFFFFE;}
</style>
<path class="st0" d="M488.73,161.49c-0.44,12.84,0.31,24.27-1.18,35.57c-1.72,13.08-2.22,26.42-7.75,38.76
	c-1.65,3.69-2.29,7.66-2.72,11.71c-0.36,3.4-1.11,6.85-2.25,10.08c-5.27,14.89-10.67,29.74-16.16,44.55
	c-1.61,4.33-4.16,8.17-7.04,11.82c-3.54,4.48-5.41,9.7-6.48,15.31c-3.72,19.46-0.25,37.64,8.62,55.22
	c5.22,10.36,7.65,21.65,8.11,33.32c0.38,9.54,3.32,18.73,4.07,28.19c1.55,19.49-1.95,38.43-7.3,57.06
	c-5.06,17.64-14.65,33.04-24.33,48.38c-5.6,8.88-11.06,17.85-16.56,26.79c-8.12,13.21-12.57,27.71-14.81,42.94
	c-1.8,12.26-6.01,24.05-7.22,36.39c-1.6,16.42-6.59,32.51-4.71,49.29c1.66,14.8-1.42,29.28-3.78,43.74
	c-1.37,8.39-6.05,15.23-12.09,21.38c-11.36,11.56-24.94,18.59-40.54,22.34c-8.32,2-15.6,6.45-22.74,11.11
	c-6.84,4.46-13.57,9.27-21.96,10.53c-10.94,1.64-21.67,0.15-30.61-6.09c-17.02-11.9-35.31-21.56-53.05-32.19
	c-9.62-5.77-17.4-13.23-20.38-24.61c-1.88-7.19-2.34-14.52-1.58-21.86c2.49-24.05,1.68-48.04-1.47-71.92
	c-2.29-17.35-9.48-32.97-17.63-48.35c-7.29-13.76-14.69-27.34-24.13-39.77c-8.43-11.09-11.64-24.57-16.67-37.24
	c-12.3-30.97-15.16-63.03-12.29-95.88c0.54-6.17,1.33-12.32,3.49-18.18c1.26-3.41,2.2-6.97,2.25-10.52
	c0.21-13.78,4.96-26.14,11.1-38.16c2.68-5.25,5.05-10.65,7.53-16c6.64-14.32,4.67-28.29-0.59-42.67
	c-6.46-17.67-16.06-34.26-19.93-52.76c-6.07-29-11.73-58.11-10.5-88.05c1.4-33.97,6.79-67,22.33-97.67
	c8.75-17.28,20.13-32.55,35.61-44.45c5.84-4.49,12.18-8.15,19.06-10.83c7.4-2.88,12.26-1.48,16.77,5.09
	c4.73,6.88,6.44,14.97,9.03,22.74c8.85,26.61,16.78,53.48,24.03,80.56c5.04,18.81,8.1,37.98,10.85,57.2
	c1.4,9.76,4.82,18.94,6.88,28.48c2.85,13.25,4.13,26.73,5.34,40.22c0.64,7.18,1.7,14.27-0.17,21.44c-0.78,2.98,1.35,2.71,3.02,1.85
	c2.54-1.32,4.94-2.92,7.36-4.45c16.39-10.31,33.83-9.73,51.52-4.65c8.26,2.37,16.29,5.57,24.42,8.39c3.26,1.13,4.86,0.13,4.92-3.49
	c0.42-24.74,4.18-49.17,11.2-72.69c6.29-21.08,8.1-42.6,10.83-64.07c2.35-18.54,8.96-35.65,15.82-52.71
	c3.39-8.42,6.68-16.83,9.27-25.52c2.82-9.49,7.75-18.21,9.78-28.04c0.94-4.56,9.55-6.91,15.18-5.35
	c20.89,5.77,34.13,19.72,42.4,39.15c1.14,2.67,2.86,4.99,4.69,7.22c2.48,3.02,4.55,6.29,6.13,9.87c1.81,4.1,4.04,7.87,6.98,11.33
	c4.13,4.86,5.53,10.91,6.68,17.07C488.73,126.45,490.67,144.58,488.73,161.49z M455.08,87.24c0.02-2.79-0.53-5.46-1.46-8.05
	c-1.65-4.58-4.92-7.38-9.67-7.02c-3.49,0.26-4.23-1.39-5.31-4.04c-2.43-6-6.25-11.05-12.32-13.79c-7.57-3.42-12.9,0.05-12.97,8.25
	c-0.01,1.58,0.04,3.18-0.15,4.74c-0.36,2.91-1.75,4.59-5.02,4.76c-5.47,0.29-7.29,2.79-6.48,8.2c0.92,6.18,3.36,11.67,8.1,15.77
	c7.06,6.12,12.97,12.98,16.13,21.94c0.23,0.67,0.67,1.27,1.06,1.87c0.79,1.18,1.42,2.85,2.97,2.87c1.96,0.02,2.39-2.02,2.76-3.4
	c1.66-6.19,5.88-9.78,11.24-12.84C451.25,102.35,454.52,95.45,455.08,87.24z M146.4,74.69c0.09,2.83,2.6,7.38,5.26,11.81
	c5.03,8.35,11.4,15.86,15.55,24.77c0.53,1.13,1.47,2.14,2.42,2.98c1.36,1.2,2.76,1.48,3.88-0.49c4.28-7.53,11.08-12.74,17.16-18.61
	c3.71-3.59,7.36-7.31,9.58-12.08c3.36-7.22-0.57-16.67-8.32-18.11c-5.22-0.97-7-3.91-8.53-8.14c-1.63-4.51-3.57-9.13-9.5-9.11
	c-5.94,0.02-8.16,4.53-10.19,9.09c-0.35,0.78-0.78,1.61-0.82,2.43c-0.22,4.86-2.64,5.77-7.11,4.86
	C149.97,62.9,146.32,66.31,146.4,74.69z M297.42,336.99c13.95,0,24.14-6.67,28.65-17.31c1.07-2.54,2.2-5.05,4.32-6.88
	c2.99-2.58,2.15-5.02-0.66-6.61c-9.61-5.44-19.86-9.42-31.07-8.31c-8.54,0.85-16.97,2.99-25.13,5.87c-3.11,1.1-6.23,2.21-8.76,4.49
	c-1.92,1.73-2.35,3.48-0.43,5.55c4.3,4.65,8.39,9.49,12.82,14.01C283.32,334.07,291.01,336.86,297.42,336.99z M214.51,480.97
	c16.29-0.98,27.2-11.61,39.25-19.87c2-1.37,1.64-3.83,0.4-5.89c-1.35-2.24-3.4-2.47-5.65-1.83c-4.11,1.16-7.5,3.67-10.64,6.38
	c-5.93,5.13-12.78,7.55-20.5,7.81c-11.6,0.39-22.85,0.04-32.61-8c-7.58-6.25-14.16-13.44-21.09-20.29
	c-4.34-4.29-5.82-4.84-10.85-2.74c-2.33,0.97-3.15,1.95-0.66,3.77c5.52,4.03,9.36,9.5,13.43,14.93
	C177.85,471.58,195.22,478.52,214.51,480.97z M364.44,483.28c12.65-0.35,25.23-4.98,36.37-14.06c8.47-6.91,13.37-16.41,19.43-25.09
	c1.03-1.48,0.76-2.89-0.42-4.3c-4.42-5.29-8.88-5.09-12.25,0.93c-2.47,4.42-5.21,8.67-8.57,12.38c-8.93,9.82-18.6,18.44-32.97,18.99
	c-10.95,0.42-21.55,0.16-30.22-8.08c-2.25-2.14-5.03-3.81-8.11-4.79c-1.7-0.54-3.6-1.19-4.65,0.68c-0.93,1.66,0.58,3.01,1.73,4
	c3.48,3,7.28,5.66,10.6,8.82C343.11,480.11,352.36,483.18,364.44,483.28z M312.18,396.02c-0.37-3.26-1.01-7.21-2.18-11.09
	c-2.75-9.18-7.97-17.47-9.26-27.24c-0.59-4.45-4.32-5.04-7.6-1.66c-3.35,3.45-4.46,7.96-5.36,12.5
	c-2.36,11.89-2.31,23.52,4.24,34.27c2.97,4.88,7.11,6.66,11.57,5.45C309.08,406.76,312.11,402.71,312.18,396.02z M325.02,755.95
	c12.92,0.09,22.66-4.78,27.24-17.21c2.49-6.75,3.48-13.6,2.36-20.73c-0.73-4.66-2.42-8.87-5.84-12.21c-1.42-1.39-3.14-2.1-5.1-1.13
	c-1.62,0.8-2.32,2.38-1.89,3.99c2.52,9.47-2.71,16.95-6.34,24.77c-2.33,5.02-6.15,8.97-10.64,12.24c-3.15,2.3-7.14,2.02-10.51,3.62
	c-1.56,0.74-3.44,1.38-2.83,3.65c0.52,1.97,1.84,3.11,4.1,3.04C318.72,755.87,321.87,755.95,325.02,755.95z M250.66,758.9
	c2.78,0.18,5.67-0.66,8.57-1.53c2.06-0.61,4.45-0.9,4.67-3.67c0.21-2.54-2.25-2.63-3.72-3.59c-0.72-0.47-1.55-0.76-2.3-1.17
	c-8.95-4.9-15.91-11.72-20.2-21.1c-2.74-5.99-2.38-11.94-0.05-17.95c0.63-1.62,0.27-3.13-1.4-4.05c-2.06-1.14-3.52,0.13-4.29,1.64
	c-4.19,8.23-9.46,15.94-7.8,26.22C226.62,749.08,236.39,758.96,250.66,758.9z M365.24,304.19c-7.5,0.79-14.5,1.51-21.38,3.03
	c-1.93,0.42-4.34,0.89-4.84,3.08c-0.58,2.53,1.76,3.78,3.52,4.9c6.78,4.32,14,7.85,21.31,11.14c3.73,1.68,7.71,2.16,11.76,0.77
	c4.78-1.64,9.25-7.07,9.04-11.56c-0.24-5.15-3.77-7.84-8.09-9.65C372.78,304.3,368.78,304.02,365.24,304.19z M256.72,333.56
	c-2.58,0.2-4.92,0.76-7.18,1.73c-2.62,1.12-5.22,2.49-7.97,3.07c-8.07,1.72-13.05,6.79-16.05,14.13c-2.22,5.41-1.6,9.62,1.59,12.3
	c3.49,2.94,8.64,3.22,13.29,0.63c4.63-2.58,8.23-6.31,10.7-10.93c2.64-4.95,5.52-9.67,9.11-14c1.11-1.34,2.56-2.99,1.4-5.02
	C260.5,333.56,258.36,333.96,256.72,333.56z M279.61,355.14c0-1.58,0.04-2.16-0.01-2.73c-0.12-1.4,0.07-3.13-1.73-3.51
	c-1.51-0.32-2.23,0.98-2.79,2.2c-1.09,2.37-3.35,3.44-5.29,4.89c-8.59,6.41-16.47,13.4-19.93,24.1c-1.24,3.84-0.52,7.04,2.58,9.68
	c3.9,3.33,8.21,2.85,13.06-1.46C275.75,379.21,277.56,366.63,279.61,355.14z M404.47,271.01c4.74,0.4,5.79-0.65,4.58-5.34
	c-1.85-7.16-5.23-13.66-9.85-19.39c-3.19-3.97-7.7-5.9-12.76-6.3c-6.66-0.53-10.28,3.78-8.74,10.24
	C380.27,261,391.8,269.95,404.47,271.01z M203.58,608.34c-1.42-16.19-6.77-22.15-22.69-24.65c-2.04-0.32-4.08-0.01-5.13,2.22
	c-1.08,2.31,0.28,3.9,1.79,5.26c1.92,1.73,4.01,3.27,6.04,4.88c7.23,5.71,9.4,14.42,5.7,22.69c-0.82,1.83-1.57,3.7-2.25,5.59
	c-0.77,2.12-1.25,4.21,1.35,5.58c2.49,1.31,4.85,1.18,6.59-1.06C199.84,622.57,202.46,615.34,203.58,608.34z M193.02,570
	c0.57,2.55,1.06,5.83,2.07,8.94c0.93,2.84,2.89,3.56,5.12,1.08c6.53-7.27,12.66-14.9,17.57-23.34c3.09-5.31,1.46-11.6-2.87-14.16
	c-3.91-2.32-9.77-0.77-13.2,4.02C196.88,553.31,194.26,561.02,193.02,570z M432.04,247.45c10.27,0.29,23.05-8.68,27.02-18.09
	c2.02-4.78,0.66-6.98-4.54-6.46c-5.25,0.53-10.56,1.27-15.63,2.66c-6.97,1.92-12.63,6.16-16.49,12.33
	c-2.78,4.43-1.09,7.77,4.04,8.74C428.68,247.06,430.96,247.3,432.04,247.45z M340.6,387.44c3.82-0.23,6.04-2.75,7.7-5.95
	c1.98-3.82,1.97-7.74-1.04-10.85c-6.31-6.52-13.1-12.51-21.63-16.05c-2.16-0.9-4.67-1.74-6.5,0.02c-1.87,1.79-0.95,4.31-0.12,6.48
	c2.66,7.04,6.6,13.4,10.89,19.51C332.43,384.22,335.95,386.73,340.6,387.44z M227.56,597.06c2.97-0.03,8.16,0.07,12.68-3.08
	c4.18-2.91,6.02-7.44,4.71-11.51c-1.26-3.94-5.06-6.4-10.22-6.21c-10.54,0.38-18.6,6.04-25.85,12.97c-2.45,2.34-1.67,4.71,1.65,5.88
	C215.3,596.8,220.34,596.97,227.56,597.06z M181.93,264.16c0.23,2.8,0.48,6.33,4.15,7.73c3.23,1.24,4.95-1.67,6.7-3.52
	c4.23-4.48,8.29-9.14,12.23-13.88c2.21-2.66,3.58-5.9,4.41-9.25c1.7-6.87-1.15-9.56-8.01-7.69
	C190.3,240.57,181.89,251.82,181.93,264.16z M415.46,210.59c0.1-12.28-8.92-24.78-20.55-28.48c-5.28-1.68-8.95,1.5-7.97,6.92
	c0.62,3.44,1.82,6.8,4.11,9.36c5.05,5.64,10.38,11.03,15.74,16.38c1.58,1.58,3.55,3.21,6.11,1.86
	C415.3,215.35,415.16,212.85,415.46,210.59z M149.88,211.83c-1.14,0.1-2.31,0.1-3.43,0.32c-4.6,0.88-8.26,4.05-8.85,7.78
	c-0.73,4.59,2.43,6.8,5.73,8.69c6.81,3.89,12.7,9.5,20.7,11.18c1.58,0.33,2.98,2.43,4.69,0.96c1.73-1.49,1.39-3.79,0.9-5.7
	c-1.61-6.15-3.97-12.03-7.95-17.06C158.69,214.24,154.96,211.68,149.88,211.83z M367.37,614.74c1.45,8.34,6.74,14.18,12.49,19.59
	c1.99,1.87,3.71,0.15,4.6-1.94c0.96-2.25,0.29-4.32-1.3-5.95c-2.32-2.38-3.02-5.21-2.58-8.31c0.62-4.39,1.07-8.84,2.52-13.07
	c1.42-4.12,3.32-7.99,7.05-10.53c3.06-2.08,1.91-3.65-0.44-5.13c-3.86-2.42-8.86-1.59-12.95,2.24
	C370.09,597.89,369.32,606.53,367.37,614.74z M177.5,272.16c-0.36-0.69-0.58-1.64-1.18-2.16c-2.19-1.9-2.96-4.53-3.84-7.09
	c-3.44-10.07-11.64-16.41-22.19-16.6c-3.26-0.06-7.56-0.82-9.23,2.98c-1.52,3.46,1.65,6.03,3.55,8.64c0.59,0.81,1.4,1.46,1.98,2.27
	c6.76,9.57,18.25,10.11,27.69,14.53C176.23,275.65,177.02,273.95,177.5,272.16z M235.6,310.77c-4.92,0.32-9.36,0.54-13.8,0.91
	c-7.05,0.6-11.65,5.81-10.66,11.92c0.91,5.58,6.74,8.64,13.59,6.75c8.06-2.22,14.93-7.25,22.8-10c1.66-0.58,2.68-2.21,2.7-4.11
	c0.02-2.14-1.68-2.94-3.27-3.55C243.16,311.21,239.15,310.93,235.6,310.77z M405.41,542.48c0.28-1.92-0.21-3.75-0.65-5.56
	c-1.32-5.55-5.85-7.23-10.44-3.88c-2.54,1.86-3.95,4.55-4.89,7.45c-3.15,9.82-2.51,19.57,0.87,29.19c0.55,1.58,1.08,3.6,3,3.93
	c2.27,0.39,3.2-1.73,4.09-3.26C402.46,561.77,404.67,552.32,405.41,542.48z M453.7,127.99c3.04-0.54,6.23-0.41,9.27-1.47
	c5.74-1.99,8.4-6.29,7.29-11.93c-1.07-5.44-6.11-9.25-11.62-8.8c-9.9,0.81-22.15,16.07-20.79,25.91c0.06,0.43,0.21,0.84,0.31,1.26
	c0.28,1.11,0.52,2.58,1.71,2.72c1.35,0.15,1.68-1.41,1.99-2.43c1.59-5.14,5.16-6.48,10.05-5.46
	C452.48,127.89,453.06,127.91,453.7,127.99z M439.36,216.38c6.13,0.02,10.67-1.47,14.64-4.61c3.74-2.96,6.79-6.58,9.61-10.38
	c1.75-2.36,4.61-4.99,2.99-7.97c-1.6-2.93-5.28-1.45-7.94-1.13c-9.38,1.12-18.43,3.28-24.56,11.42c-2,2.65-3.76,5.67-1.85,9.13
	C434.01,216.03,437.18,216.42,439.36,216.38z M180.88,560.78c-1.05-8.19-0.79-16.74-3.07-24.98c-0.94-3.41-2.72-6.14-6.75-6.09
	c-3.68,0.05-6.56,3-7.25,7.32c-0.72,4.46-0.19,8.88,0.89,13.23c1.87,7.56,4.42,14.86,9.07,21.23c0.9,1.24,1.95,2.73,3.82,2.29
	c1.87-0.44,2.14-2.3,2.38-3.78C180.43,567.05,180.57,564.02,180.88,560.78z M199.78,184.14c-0.29-1.65-0.23-4.54-3.09-6.08
	c-2.66-1.43-5.04-0.3-7.28,1.04c-1.34,0.8-2.6,1.81-3.71,2.91c-5.78,5.7-9.4,12.65-11.22,20.51c-0.44,1.91-0.5,4.05-0.17,5.99
	c0.75,4.36,4.6,5.64,7.96,2.8c2.63-2.22,5.24-4.47,7.81-6.75C195.88,199.39,199.78,193.24,199.78,184.14z M358.44,543.42
	c-2.96,0.41-6.44,0.74-7.76,4.12c-1.66,4.22-1.17,8.6,1.55,12.31c3.05,4.16,6.42,8.09,9.71,12.08c2.42,2.93,5.58,4.98,8.9,6.68
	c3.16,1.61,5.43,0.28,4.67-3.12c-2.1-9.34-3.54-18.95-8.62-27.35C365.05,545.12,362.22,543.56,358.44,543.42z M340.98,332.34
	c-3.13,0.3-6.72-0.13-7.82,3.42c-1.08,3.48,1.74,5.64,4.29,7.2c3.3,2.02,5.61,4.83,7.79,7.89c1.5,2.11,3.09,4.16,5.23,5.67
	c4.38,3.08,11.38,2.25,14.47-1.67c3.01-3.83,2.43-9.39-1.94-13.08C356.63,336.38,349.27,333.02,340.98,332.34z M423.9,280.37
	c9.96-1.47,19.03-4.82,24.79-14.06c1.37-2.2,2.82-4.64,1.16-7.21c-1.51-2.36-4.16-2.36-6.63-2.11c-9.8,1-17.88,5.83-25.4,11.76
	c-2.02,1.59-4.16,3.69-3.42,6.52c0.76,2.91,3.51,3.98,6.3,4.55C421.68,280.03,422.68,280.17,423.9,280.37z M202,101.18
	c-6.98,0.05-21.68,13.74-22.21,20.69c-0.28,3.72,2.86,5.93,6.35,3.81c5.33-3.23,10.92-3.78,16.89-3.69c6.35,0.09,9.93-3.21,9.8-8.36
	C212.67,107.22,207.39,101.14,202,101.18z M179.68,235.87c0.38,1.87-0.32,4.67,2.56,5.5c2.61,0.75,3.97-1.49,4.94-3.31
	c2.15-4.02,5.55-6.38,9.44-8.41c2.65-1.38,5.25-3.02,7.48-4.99c5.28-4.69,4.65-13.01-1-17.26c-2.24-1.68-4.65-2.12-6.7-0.33
	C187.69,214.68,180.53,223.27,179.68,235.87z M401.31,103.67c-0.86,0.07-1.74,0.04-2.57,0.23c-3.44,0.79-6.86,1.85-7.97,5.68
	c-1.06,3.66,1.14,6.28,3.55,8.69c3.03,3.03,6.99,3.63,10.93,4.56c12.86,3.04,12.35,2.38,14.13,13.65c0.21,1.31,0.71,2.31,1.98,2.43
	c1.21,0.11,2.15-0.65,2.57-1.87c1.03-2.95,1.08-5.97,0.2-8.91c-2.62-8.8-7.56-16.07-14.87-21.65
	C406.94,104.69,404.34,103.52,401.31,103.67z M341.55,653.95c3.6-0.48,7.05-1.27,9.45-3.96c4.3-4.83,7.42-10.51,10.84-15.96
	c1.34-2.14,0.48-3.89-1.62-4.99c-2.18-1.15-4.61-2.27-7-1.44c-7.07,2.46-13.87,5.54-19.04,11.23c-2.76,3.04-2.65,6.55-0.93,10.04
	C334.96,652.33,338.03,653.66,341.55,653.95z M162.56,209.81c3.41,0.14,4.37-1.18,3.57-3.48c-2.79-8.05-7.2-15.02-14.44-19.75
	c-3.2-2.09-6.89-2.71-10.73-1.6c-2.54,0.73-5.57,0.54-6.68,3.75c-1.23,3.56,0.04,6.6,2.51,9.01
	C144.2,204.94,154,206.99,162.56,209.81z M143.38,157.24c-3.48,0.14-6.45,1.63-7.82,4.96c-1.35,3.29,0,6.29,2.65,8.44
	c5.45,4.42,11.01,8.7,16.58,12.96c1,0.76,2.26,1.24,3.48,1.63c2.14,0.68,4.31,0.67,6.05-0.98c1.86-1.76,0.91-3.88,0.12-5.61
	c-3.12-6.84-7.3-13-12.74-18.22C149.48,158.26,146.63,157.22,143.38,157.24z M217.51,671.41c-0.11-3.66-1.53-6.44-3.71-8.81
	c-2.91-3.16-5.93-6.22-8.98-9.24c-1.52-1.51-3.18-2.89-4.88-4.2c-1.12-0.87-2.44-1.77-3.93-0.96c-1.39,0.76-1.08,2.21-0.99,3.49
	c0.39,5.58,0.92,11.16,2.58,16.53c1.11,3.6,2.71,7.04,5.73,9.42c2.56,2.02,5.28,4.33,8.92,2.65
	C216.11,678.52,217.08,674.93,217.51,671.41z M196.25,153.21c-11.19-0.03-26.17,15.66-25.67,26.89c0.05,1.16,0.05,2.42,1.2,3.06
	c1.25,0.7,2.32-0.22,3.03-1c3.9-4.28,9.07-6.25,14.15-8.65c5.98-2.83,10.62-7.39,11.72-14.48
	C201.23,155.4,199.55,153.22,196.25,153.21z M239.4,604.45c-7.17,0.7-13.75,2.98-20.09,6.08c-1.04,0.51-2.21,1.17-2.17,2.44
	c0.05,1.57,1.5,1.94,2.74,2.3c4.55,1.34,8.88,3.17,13.09,5.37c2.82,1.47,6.04,1.83,9.16,2.1c4.88,0.42,9.65-3.58,10.41-8.38
	c0.69-4.36-1.84-7.63-7.26-9.05C243.37,604.81,241.34,604.72,239.4,604.45z M338.61,603.67c-3.17-0.44-7.01,1.24-10.17,4.54
	c-1.97,2.06-3.3,4.49-2.33,7.43c1.03,3.15,3.5,4.92,6.63,5.5c2.83,0.52,5.71,0.25,8.56-0.36c4.48-0.97,8.85-2.43,13.5-2.6
	c4.42-0.16,5.22-1.83,2.99-5.78C353.88,605.42,347.16,604.23,338.61,603.67z M374.08,657c0-3.02,0.04-6.03-0.02-9.05
	c-0.02-1.22,0.43-2.77-1.19-3.35c-1.36-0.49-2.57,0.29-3.55,1.12c-0.96,0.82-2.07,1.78-2.48,2.91c-1.38,3.86-3.83,7.06-6.04,10.41
	c-1.51,2.29-2.91,4.65-3.49,7.36c-1.31,6.14,1.44,12.41,5.81,13.38c4.55,1.01,10.23-4.21,11.36-10.3
	C375.27,665.3,374.68,661.16,374.08,657z M140.3,101.2c-3.26,0.21-6.62,0.84-8.33,4.15c-1.75,3.4-0.05,6.44,1.95,9.18
	c2.29,3.15,5.64,4.87,9.19,6.14c4.03,1.44,8.28,2.34,11.3,5.82c0.95,1.1,2.52,1.57,3.94,0.73c1.52-0.9,1.29-2.55,1.01-3.91
	c-1.33-6.57-3.47-12.79-8.53-17.55C147.92,103.03,144.59,101.17,140.3,101.2z M357.99,594.51c3.27,0.02,4.05-0.81,3.49-3.45
	c-0.32-1.51-0.99-2.99-1.71-4.38c-3.9-7.47-11.17-10.88-18.03-14.69c-3.44-1.91-7.55-3.6-10.57,0.23
	c-2.98,3.77-0.27,7.42,2.02,10.51C339.5,591.25,349.58,591.86,357.99,594.51z M408.77,242.28c3.18,0.02,4.64-1.93,3.43-5.24
	c-4.02-11.03-10.87-19.76-21.38-25.32c-1.89-1-3.96-2.2-5.94-0.3c-1.95,1.87-0.92,4.06-0.07,5.99c3.89,8.83,9.61,16.26,17.28,22.12
	C404.04,241.01,406.27,242.04,408.77,242.28z M217.54,629.12c-3.6-0.05-5.29,1.57-2.99,5.39c3.65,6.09,8.54,11.2,14.47,15.09
	c4.14,2.72,10.02,1.63,12.94-1.72c2.56-2.95,1.95-7.41-1.56-11.74c-0.92-1.14-2.01-2.01-3.31-2.67
	C231.62,630.66,225.82,629.31,217.54,629.12z M382.13,511.64c-1.24-6.93-3.42-13.28-7.68-18.73c-1.41-1.8-3.12-3.71-5.76-3.03
	c-2.73,0.71-3.82,3.07-3.99,5.61c-0.49,7.22,0.22,14.38,2.34,21.3c0.9,2.94,2.6,5.79,6.2,5.71c3.61-0.07,6.19-2.14,7.4-5.61
	C381.26,515.14,381.67,513.31,382.13,511.64z M438.23,189.95c6.78-2.79,14.59-7.28,22.1-12.33c0.43-0.29,0.65-0.93,0.88-1.45
	c1.52-3.29,0.01-6.47-3.46-7.35c-9.98-2.52-23.42,5.1-26.17,14.83C430.38,187.94,431.94,190.01,438.23,189.95z M195.63,502.58
	c-0.05,4.38,0.28,7.95,1.94,11.23c1.94,3.85,5.16,4.79,8.96,2.7c2.81-1.55,4.55-3.91,4.89-7.15c0.75-7.19-0.75-14.01-4.06-20.33
	c-1.87-3.57-4.47-3.68-7.16-0.59C196.49,492.69,195.94,498,195.63,502.58z M400.39,488.72c0.37,4.42,1.57,10.29,5.13,15.4
	c2.76,3.96,5.91,5,9.56,3.38c3.97-1.77,5.99-5.5,4.95-9.9c-1.6-6.77-5.54-12-11.54-15.43C402.81,478.93,400.25,480.58,400.39,488.72
	z M175.91,479.83c0.25-6.02-1.67-7.3-6.23-4.88c-6.02,3.2-10.25,8.12-12.99,14.37c-0.84,1.93-0.99,3.93-0.56,5.9
	c0.71,3.3,1.84,6.58,5.58,7.44c3.99,0.92,6.55-1.51,8.3-4.7C173.28,492,174.97,485.5,175.91,479.83z M195.58,289.79
	c0.27-5.22-2.8-9.13-7.38-9.41c-6.13-0.37-13.22,5.93-13.61,12.1c-0.32,5.04,4.68,10.06,10.19,10.23
	C190.28,302.88,195.21,296.97,195.58,289.79z M236.21,488c0.5,4.76,2.44,9.56,6.76,13.18c2.69,2.26,5.67,2.67,8.77,0.95
	c3.02-1.67,4.54-4.3,4.43-7.79c-0.18-5.46-5.09-12.12-10.19-13.87C240.11,478.47,236.11,481.24,236.21,488z M422.44,187.78
	c-0.49-7.2-2.42-13.7-6.74-19.36c-2.08-2.72-4.72-4.57-8.09-5.29c-4.56-0.97-6.67,1.03-5.06,5.32c3.09,8.24,7.35,15.86,13.73,22.08
	c1.18,1.15,2.55,2.83,4.39,2.03C422.7,191.67,422.17,189.38,422.44,187.78z M341.8,495.23c0.14-3.38-0.56-6.6-1.99-9.63
	c-0.94-1.99-2.18-3.86-4.67-3.98c-2.48-0.12-3.93,1.49-4.98,3.5c-2.88,5.49-4.14,11.29-3.26,17.49c0.4,2.83,1.25,5.51,4.46,6.15
	c3.44,0.68,6.27-0.69,8.15-3.61C341.42,502.16,341.95,498.75,341.8,495.23z M155.44,459.55c0.13-5.73-2.5-7.34-7.51-4.72
	c-5.67,2.96-9.23,7.73-11.28,13.56c-1.07,3.05-0.53,6.52,1.7,8.92c2.04,2.2,4.56,0.19,6.78-0.55
	C153.46,473.97,154.82,466.98,155.44,459.55z M413.49,291.38c-0.03-6.08-3.02-9.87-7.86-9.92c-5.36-0.06-11.17,5.12-11.23,10.01
	c-0.07,6.1,4.96,11.74,10.38,11.62C410.13,302.97,413.52,298.42,413.49,291.38z M432.51,456.38c-2.77,0.4-5.99,0.13-8.96,1.39
	c-1.53,0.65-3.04,1.69-1.68,3.55c3.74,5.13,7.76,10.08,14.24,11.8c4.89,1.3,8.1-0.48,9.62-4.78c1.57-4.43-0.04-8.06-4.55-10.19
	C438.55,456.9,435.74,456.42,432.51,456.38z M175.02,149.71c0.05-6.08-3.13-10.6-7.59-10.76c-5.41-0.2-10.46,5.69-10.36,12.11
	c0.08,5.53,3.54,9.22,8.63,9.2C171.32,160.23,174.96,156.12,175.02,149.71z M429.99,167.04c4.9,0.03,7.77-2.89,7.63-7.77
	c-0.2-6.84-5.02-9.37-12.66-6.55c-2.69,0.99-5.74,1.98-5.81,5.5c-0.06,3.47,2.09,5.84,5.08,7.39
	C426.01,166.54,427.92,167.16,429.99,167.04z"/>
<path class="st1" d="M455.08,87.24c-0.56,8.22-3.83,15.12-11.11,19.27c-5.36,3.06-9.58,6.65-11.24,12.84
	c-0.37,1.38-0.8,3.42-2.76,3.4c-1.56-0.01-2.19-1.68-2.97-2.87c-0.4-0.6-0.83-1.2-1.06-1.87c-3.15-8.96-9.07-15.82-16.13-21.94
	c-4.74-4.11-7.18-9.59-8.1-15.77c-0.81-5.41,1.01-7.92,6.48-8.2c3.26-0.17,4.66-1.85,5.02-4.76c0.19-1.56,0.14-3.16,0.15-4.74
	c0.07-8.2,5.4-11.67,12.97-8.25c6.07,2.75,9.89,7.8,12.32,13.79c1.08,2.66,1.82,4.3,5.31,4.04c4.76-0.36,8.02,2.44,9.67,7.02
	C454.55,81.78,455.09,84.44,455.08,87.24z"/>
<path class="st1" d="M146.4,74.69c-0.07-8.38,3.57-11.79,9.38-10.61c4.48,0.91,6.89,0,7.11-4.86c0.04-0.82,0.47-1.65,0.82-2.43
	c2.03-4.56,4.25-9.08,10.19-9.09c5.93-0.02,7.87,4.6,9.5,9.11c1.53,4.23,3.31,7.17,8.53,8.14c7.75,1.44,11.68,10.89,8.32,18.11
	c-2.22,4.77-5.87,8.49-9.58,12.08c-6.08,5.88-12.88,11.08-17.16,18.61c-1.12,1.96-2.52,1.68-3.88,0.49
	c-0.95-0.84-1.9-1.85-2.42-2.98c-4.15-8.91-10.52-16.42-15.55-24.77C148.99,82.08,146.48,77.52,146.4,74.69z"/>
<path class="st1" d="M297.42,336.99c-6.42-0.13-14.1-2.92-20.25-9.19c-4.43-4.52-8.52-9.36-12.82-14.01
	c-1.92-2.08-1.48-3.83,0.43-5.55c2.53-2.27,5.65-3.39,8.76-4.49c8.16-2.89,16.58-5.02,25.13-5.87c11.2-1.11,21.45,2.87,31.07,8.31
	c2.8,1.59,3.65,4.03,0.66,6.61c-2.12,1.83-3.25,4.35-4.32,6.88C321.56,330.31,311.37,336.99,297.42,336.99z"/>
<path class="st1" d="M214.51,480.97c-19.28-2.45-36.65-9.38-48.91-25.74c-4.07-5.43-7.92-10.89-13.43-14.93
	c-2.49-1.82-1.67-2.79,0.66-3.77c5.03-2.1,6.51-1.55,10.85,2.74c6.93,6.86,13.51,14.05,21.09,20.29c9.75,8.04,21,8.39,32.61,8
	c7.71-0.26,14.57-2.68,20.5-7.81c3.14-2.72,6.53-5.22,10.64-6.38c2.25-0.63,4.3-0.41,5.65,1.83c1.24,2.06,1.6,4.52-0.4,5.89
	C241.7,469.36,230.79,479.99,214.51,480.97z"/>
<path class="st1" d="M364.44,483.28c-12.07-0.1-21.32-3.18-29.06-10.53c-3.32-3.16-7.12-5.82-10.6-8.82c-1.15-0.99-2.66-2.34-1.73-4
	c1.05-1.87,2.95-1.22,4.65-0.68c3.07,0.98,5.86,2.65,8.11,4.79c8.67,8.24,19.27,8.5,30.22,8.08c14.37-0.56,24.04-9.18,32.97-18.99
	c3.37-3.7,6.1-7.95,8.57-12.38c3.36-6.02,7.82-6.22,12.25-0.93c1.18,1.41,1.45,2.82,0.42,4.3c-6.05,8.68-10.95,18.18-19.43,25.09
	C389.67,478.31,377.08,482.93,364.44,483.28z"/>
<path class="st1" d="M312.18,396.02c-0.07,6.69-3.1,10.74-8.58,12.23c-4.46,1.21-8.6-0.57-11.57-5.45
	c-6.55-10.75-6.6-22.38-4.24-34.27c0.9-4.54,2.01-9.05,5.36-12.5c3.28-3.38,7.01-2.79,7.6,1.66c1.29,9.77,6.51,18.06,9.26,27.24
	C311.16,388.81,311.8,392.77,312.18,396.02z"/>
<path class="st1" d="M325.02,755.95c-3.15,0-6.3-0.08-9.44,0.03c-2.26,0.08-3.58-1.07-4.1-3.04c-0.6-2.27,1.28-2.91,2.83-3.65
	c3.37-1.6,7.36-1.32,10.51-3.62c4.49-3.27,8.31-7.22,10.64-12.24c3.63-7.82,8.86-15.3,6.34-24.77c-0.43-1.61,0.27-3.18,1.89-3.99
	c1.95-0.97,3.67-0.26,5.1,1.13c3.42,3.34,5.12,7.55,5.84,12.21c1.11,7.13,0.12,13.98-2.36,20.73
	C347.67,751.17,337.93,756.04,325.02,755.95z"/>
<path class="st1" d="M250.66,758.9c-14.27,0.07-24.04-9.82-26.52-25.21c-1.66-10.28,3.61-17.99,7.8-26.22
	c0.77-1.51,2.23-2.78,4.29-1.64c1.67,0.93,2.03,2.44,1.4,4.05c-2.33,6.01-2.69,11.96,0.05,17.95c4.3,9.39,11.25,16.2,20.2,21.1
	c0.76,0.41,1.59,0.7,2.3,1.17c1.46,0.96,3.92,1.05,3.72,3.59c-0.22,2.78-2.61,3.06-4.67,3.67
	C256.33,758.23,253.44,759.08,250.66,758.9z"/>
<path class="st1" d="M365.24,304.19c3.54-0.17,7.54,0.11,11.32,1.7c4.32,1.82,7.85,4.51,8.09,9.65c0.21,4.5-4.27,9.92-9.04,11.56
	c-4.04,1.39-8.03,0.91-11.76-0.77c-7.31-3.29-14.53-6.82-21.31-11.14c-1.76-1.12-4.1-2.37-3.52-4.9c0.5-2.19,2.91-2.65,4.84-3.08
	C350.74,305.7,357.73,304.97,365.24,304.19z"/>
<path class="st1" d="M256.72,333.56c1.64,0.4,3.78,0,4.87,1.92c1.16,2.03-0.29,3.69-1.4,5.02c-3.59,4.33-6.47,9.05-9.11,14
	c-2.47,4.62-6.06,8.35-10.7,10.93c-4.66,2.59-9.8,2.31-13.29-0.63c-3.19-2.68-3.8-6.9-1.59-12.3c3.01-7.34,7.98-12.41,16.05-14.13
	c2.75-0.59,5.35-1.95,7.97-3.07C251.81,334.31,254.15,333.75,256.72,333.56z"/>
<path class="st1" d="M279.61,355.14c-2.05,11.49-3.86,24.07-14.1,33.17c-4.86,4.31-9.16,4.79-13.06,1.46
	c-3.09-2.64-3.82-5.84-2.58-9.68c3.46-10.7,11.34-17.68,19.93-24.1c1.94-1.45,4.21-2.52,5.29-4.89c0.56-1.22,1.28-2.52,2.79-2.2
	c1.79,0.38,1.61,2.11,1.73,3.51C279.65,352.98,279.61,353.56,279.61,355.14z"/>
<path class="st1" d="M404.47,271.01c-12.67-1.06-24.2-10.02-26.77-20.8c-1.54-6.46,2.08-10.77,8.74-10.24
	c5.05,0.4,9.56,2.34,12.76,6.3c4.62,5.73,8,12.23,9.85,19.39C410.26,270.36,409.21,271.41,404.47,271.01z"/>
<path class="st1" d="M203.58,608.34c-1.12,7.01-3.74,14.23-8.6,20.51c-1.74,2.24-4.09,2.38-6.59,1.06c-2.6-1.37-2.12-3.46-1.35-5.58
	c0.68-1.89,1.43-3.75,2.25-5.59c3.71-8.27,1.53-16.98-5.7-22.69c-2.03-1.6-4.12-3.15-6.04-4.88c-1.51-1.36-2.88-2.95-1.79-5.26
	c1.05-2.23,3.08-2.55,5.13-2.22C196.81,586.19,202.17,592.15,203.58,608.34z"/>
<path class="st1" d="M193.02,570c1.24-8.98,3.86-16.69,8.71-23.46c3.43-4.79,9.29-6.33,13.2-4.02c4.33,2.57,5.96,8.85,2.87,14.16
	c-4.92,8.44-11.05,16.07-17.57,23.34c-2.23,2.48-4.2,1.76-5.12-1.08C194.08,575.83,193.59,572.55,193.02,570z"/>
<path class="st1" d="M432.04,247.45c-1.08-0.15-3.36-0.39-5.61-0.82c-5.13-0.97-6.81-4.31-4.04-8.74
	c3.87-6.18,9.52-10.42,16.49-12.33c5.08-1.39,10.38-2.13,15.63-2.66c5.2-0.52,6.56,1.67,4.54,6.46
	C455.08,238.77,442.3,247.74,432.04,247.45z"/>
<path class="st1" d="M340.6,387.44c-4.65-0.71-8.17-3.22-10.7-6.83c-4.28-6.12-8.22-12.47-10.89-19.51
	c-0.82-2.17-1.75-4.69,0.12-6.48c1.83-1.76,4.34-0.92,6.5-0.02c8.53,3.55,15.33,9.54,21.63,16.05c3,3.1,3.01,7.03,1.04,10.85
	C346.64,384.69,344.42,387.21,340.6,387.44z"/>
<path class="st1" d="M227.56,597.06c-7.22-0.09-12.26-0.26-17.04-1.95c-3.32-1.17-4.1-3.54-1.65-5.88
	c7.26-6.93,15.31-12.59,25.85-12.97c5.17-0.19,8.96,2.28,10.22,6.21c1.3,4.06-0.53,8.59-4.71,11.51
	C235.72,597.13,230.53,597.04,227.56,597.06z"/>
<path class="st1" d="M181.93,264.16c-0.04-12.34,8.37-23.59,19.47-26.61c6.86-1.86,9.71,0.82,8.01,7.69
	c-0.83,3.36-2.19,6.59-4.41,9.25c-3.94,4.74-7.99,9.4-12.23,13.88c-1.75,1.85-3.48,4.76-6.7,3.52
	C182.41,270.49,182.16,266.96,181.93,264.16z"/>
<path class="st1" d="M415.46,210.59c-0.29,2.26-0.16,4.76-2.57,6.04c-2.56,1.36-4.52-0.28-6.11-1.86
	c-5.36-5.35-10.69-10.74-15.74-16.38c-2.29-2.56-3.49-5.92-4.11-9.36c-0.98-5.43,2.7-8.6,7.97-6.92
	C406.54,185.81,415.56,198.32,415.46,210.59z"/>
<path class="st1" d="M149.88,211.83c5.09-0.15,8.82,2.42,11.78,6.16c3.98,5.03,6.34,10.91,7.95,17.06c0.5,1.9,0.83,4.21-0.9,5.7
	c-1.7,1.47-3.11-0.63-4.69-0.96c-8-1.68-13.89-7.29-20.7-11.18c-3.31-1.89-6.46-4.1-5.73-8.69c0.59-3.73,4.25-6.9,8.85-7.78
	C147.57,211.93,148.73,211.93,149.88,211.83z"/>
<path class="st1" d="M367.37,614.74c1.95-8.21,2.72-16.85,9.39-23.1c4.09-3.84,9.09-4.66,12.95-2.24c2.35,1.48,3.5,3.05,0.44,5.13
	c-3.73,2.54-5.63,6.4-7.05,10.53c-1.45,4.23-1.9,8.68-2.52,13.07c-0.44,3.1,0.26,5.93,2.58,8.31c1.59,1.63,2.26,3.7,1.3,5.95
	c-0.89,2.09-2.61,3.81-4.6,1.94C374.11,628.92,368.82,623.08,367.37,614.74z"/>
<path class="st1" d="M177.5,272.16c-0.48,1.79-1.27,3.49-3.22,2.57c-9.44-4.42-20.93-4.96-27.69-14.53
	c-0.58-0.82-1.39-1.46-1.98-2.27c-1.9-2.61-5.07-5.18-3.55-8.64c1.67-3.8,5.97-3.03,9.23-2.98c10.55,0.19,18.74,6.53,22.19,16.6
	c0.88,2.57,1.65,5.19,3.84,7.09C176.91,270.52,177.13,271.47,177.5,272.16z"/>
<path class="st1" d="M235.6,310.77c3.55,0.16,7.57,0.44,11.36,1.92c1.59,0.62,3.29,1.42,3.27,3.55c-0.02,1.9-1.04,3.53-2.7,4.11
	c-7.86,2.75-14.74,7.78-22.8,10c-6.85,1.89-12.68-1.17-13.59-6.75c-1-6.11,3.61-11.32,10.66-11.92
	C226.23,311.3,230.68,311.09,235.6,310.77z"/>
<path class="st1" d="M405.41,542.48c-0.74,9.83-2.95,19.28-8,27.87c-0.9,1.52-1.83,3.65-4.09,3.26c-1.92-0.33-2.45-2.35-3-3.93
	c-3.38-9.62-4.03-19.37-0.87-29.19c0.93-2.9,2.34-5.59,4.89-7.45c4.59-3.35,9.11-1.67,10.44,3.88
	C405.2,538.73,405.69,540.56,405.41,542.48z"/>
<path class="st1" d="M453.7,127.99c-0.65-0.08-1.22-0.1-1.78-0.22c-4.89-1.01-8.45,0.33-10.05,5.46c-0.32,1.02-0.65,2.58-1.99,2.43
	c-1.19-0.14-1.44-1.6-1.71-2.72c-0.1-0.42-0.25-0.83-0.31-1.26c-1.36-9.84,10.89-25.1,20.79-25.91c5.51-0.45,10.55,3.36,11.62,8.8
	c1.11,5.65-1.56,9.94-7.29,11.93C459.93,127.58,456.74,127.45,453.7,127.99z"/>
<path class="st1" d="M439.36,216.38c-2.18,0.04-5.35-0.35-7.11-3.55c-1.91-3.45-0.14-6.47,1.85-9.13
	c6.12-8.14,15.18-10.3,24.56-11.42c2.66-0.32,6.34-1.8,7.94,1.13c1.62,2.98-1.24,5.6-2.99,7.97c-2.82,3.8-5.87,7.43-9.61,10.38
	C450.03,214.91,445.49,216.4,439.36,216.38z"/>
<path class="st1" d="M180.88,560.78c-0.3,3.24-0.44,6.26-0.92,9.23c-0.24,1.47-0.51,3.33-2.38,3.78c-1.87,0.44-2.91-1.05-3.82-2.29
	c-4.65-6.37-7.19-13.67-9.07-21.23c-1.08-4.35-1.61-8.76-0.89-13.23c0.7-4.33,3.57-7.27,7.25-7.32c4.03-0.06,5.81,2.68,6.75,6.09
	C180.08,544.05,179.83,552.59,180.88,560.78z"/>
<path class="st1" d="M199.78,184.14c0,9.1-3.91,15.25-9.72,20.41c-2.57,2.29-5.18,4.53-7.81,6.75c-3.35,2.84-7.21,1.56-7.96-2.8
	c-0.33-1.94-0.27-4.07,0.17-5.99c1.82-7.86,5.44-14.8,11.22-20.51c1.11-1.1,2.37-2.1,3.71-2.91c2.24-1.34,4.62-2.46,7.28-1.04
	C199.56,179.6,199.5,182.49,199.78,184.14z"/>
<path class="st1" d="M358.44,543.42c3.79,0.14,6.62,1.7,8.45,4.72c5.08,8.4,6.52,18.01,8.62,27.35c0.76,3.4-1.51,4.73-4.67,3.12
	c-3.32-1.69-6.48-3.74-8.9-6.68c-3.29-3.98-6.66-7.91-9.71-12.08c-2.72-3.71-3.21-8.09-1.55-12.31
	C352,544.16,355.48,543.83,358.44,543.42z"/>
<path class="st1" d="M340.98,332.34c8.28,0.68,15.65,4.04,22.02,9.42c4.37,3.69,4.95,9.26,1.94,13.08
	c-3.09,3.93-10.08,4.75-14.47,1.67c-2.15-1.51-3.73-3.56-5.23-5.67c-2.17-3.05-4.49-5.87-7.79-7.89c-2.56-1.57-5.37-3.73-4.29-7.2
	C334.26,332.21,337.85,332.64,340.98,332.34z"/>
<path class="st1" d="M423.9,280.37c-1.23-0.21-2.22-0.34-3.2-0.54c-2.79-0.57-5.53-1.64-6.3-4.55c-0.74-2.83,1.4-4.93,3.42-6.52
	c7.52-5.93,15.6-10.77,25.4-11.76c2.46-0.25,5.11-0.25,6.63,2.11c1.65,2.57,0.21,5.01-1.16,7.21
	C442.93,275.55,433.86,278.91,423.9,280.37z"/>
<path class="st1" d="M202,101.18c5.39-0.04,10.67,6.04,10.84,12.45c0.13,5.15-3.46,8.45-9.8,8.36c-5.97-0.09-11.56,0.46-16.89,3.69
	c-3.49,2.12-6.63-0.1-6.35-3.81C180.32,114.92,195.02,101.23,202,101.18z"/>
<path class="st1" d="M179.68,235.87c0.85-12.6,8.01-21.19,16.71-28.8c2.05-1.8,4.47-1.35,6.7,0.33c5.65,4.24,6.28,12.57,1,17.26
	c-2.23,1.97-4.83,3.61-7.48,4.99c-3.89,2.03-7.29,4.39-9.44,8.41c-0.97,1.82-2.33,4.06-4.94,3.31
	C179.36,240.53,180.06,237.73,179.68,235.87z"/>
<path class="st1" d="M401.31,103.67c3.04-0.14,5.63,1.03,7.96,2.81c7.31,5.59,12.25,12.85,14.87,21.65c0.87,2.93,0.82,5.96-0.2,8.91
	c-0.42,1.22-1.36,1.98-2.57,1.87c-1.27-0.12-1.78-1.12-1.98-2.43c-1.78-11.27-1.27-10.61-14.13-13.65
	c-3.94-0.93-7.9-1.54-10.93-4.56c-2.41-2.41-4.61-5.03-3.55-8.69c1.11-3.83,4.53-4.9,7.97-5.68
	C399.57,103.71,400.45,103.74,401.31,103.67z"/>
<path class="st1" d="M341.55,653.95c-3.52-0.3-6.59-1.62-8.29-5.07c-1.72-3.49-1.84-7,0.93-10.04c5.17-5.69,11.97-8.77,19.04-11.23
	c2.39-0.83,4.81,0.29,7,1.44c2.1,1.11,2.96,2.86,1.62,4.99c-3.42,5.45-6.54,11.14-10.84,15.96
	C348.59,652.68,345.15,653.47,341.55,653.95z"/>
<path class="st1" d="M162.56,209.81c-8.56-2.81-18.36-4.86-25.76-12.07c-2.47-2.41-3.74-5.44-2.51-9.01
	c1.11-3.21,4.14-3.03,6.68-3.75c3.84-1.1,7.52-0.49,10.73,1.6c7.24,4.73,11.65,11.7,14.44,19.75
	C166.93,208.62,165.97,209.95,162.56,209.81z"/>
<path class="st1" d="M143.38,157.24c3.25-0.01,6.1,1.02,8.33,3.17c5.43,5.22,9.62,11.38,12.74,18.22c0.79,1.73,1.74,3.86-0.12,5.61
	c-1.75,1.65-3.91,1.66-6.05,0.98c-1.21-0.38-2.48-0.86-3.48-1.63c-5.58-4.25-11.13-8.54-16.58-12.96c-2.66-2.15-4-5.15-2.65-8.44
	C136.93,158.87,139.9,157.38,143.38,157.24z"/>
<path class="st1" d="M217.51,671.41c-0.43,3.52-1.4,7.1-5.26,8.89c-3.64,1.68-6.36-0.63-8.92-2.65c-3.02-2.39-4.62-5.83-5.73-9.42
	c-1.65-5.37-2.19-10.95-2.58-16.53c-0.09-1.28-0.39-2.73,0.99-3.49c1.49-0.81,2.81,0.09,3.93,0.96c1.7,1.31,3.36,2.69,4.88,4.2
	c3.06,3.02,6.07,6.09,8.98,9.24C215.99,664.97,217.41,667.76,217.51,671.41z"/>
<path class="st1" d="M196.25,153.21c3.3,0.01,4.98,2.18,4.42,5.83c-1.1,7.09-5.73,11.65-11.72,14.48
	c-5.08,2.4-10.25,4.37-14.15,8.65c-0.7,0.77-1.77,1.7-3.03,1c-1.15-0.64-1.15-1.9-1.2-3.06
	C170.08,168.88,185.06,153.19,196.25,153.21z"/>
<path class="st1" d="M239.4,604.45c1.94,0.27,3.97,0.36,5.88,0.86c5.41,1.42,7.95,4.69,7.26,9.05c-0.76,4.8-5.54,8.8-10.41,8.38
	c-3.12-0.27-6.34-0.63-9.16-2.1c-4.21-2.19-8.54-4.03-13.09-5.37c-1.23-0.36-2.69-0.73-2.74-2.3c-0.04-1.28,1.14-1.94,2.17-2.44
	C225.65,607.43,232.24,605.15,239.4,604.45z"/>
<path class="st1" d="M338.61,603.67c8.55,0.57,15.27,1.75,19.18,8.72c2.22,3.95,1.43,5.62-2.99,5.78c-4.65,0.17-9.03,1.63-13.5,2.6
	c-2.85,0.62-5.72,0.88-8.56,0.36c-3.13-0.57-5.6-2.35-6.63-5.5c-0.96-2.93,0.36-5.37,2.33-7.43
	C331.6,604.9,335.44,603.23,338.61,603.67z"/>
<path class="st1" d="M374.08,657c0.6,4.16,1.19,8.3,0.41,12.48c-1.13,6.09-6.8,11.31-11.36,10.3c-4.37-0.97-7.12-7.24-5.81-13.38
	c0.58-2.71,1.98-5.08,3.49-7.36c2.21-3.35,4.66-6.54,6.04-10.41c0.4-1.13,1.51-2.08,2.48-2.91c0.97-0.83,2.18-1.61,3.55-1.12
	c1.62,0.58,1.16,2.13,1.19,3.35C374.12,650.97,374.08,653.99,374.08,657z"/>
<path class="st1" d="M140.3,101.2c4.29-0.03,7.62,1.82,10.53,4.56c5.06,4.76,7.2,10.98,8.53,17.55c0.27,1.36,0.51,3.01-1.01,3.91
	c-1.42,0.84-2.99,0.36-3.94-0.73c-3.02-3.49-7.27-4.38-11.3-5.82c-3.55-1.27-6.9-2.99-9.19-6.14c-2-2.74-3.7-5.78-1.95-9.18
	C133.68,102.04,137.04,101.41,140.3,101.2z"/>
<path class="st1" d="M357.99,594.51c-8.41-2.65-18.49-3.26-24.81-11.79c-2.29-3.08-5-6.73-2.02-10.51
	c3.02-3.82,7.14-2.13,10.57-0.23c6.86,3.81,14.13,7.22,18.03,14.69c0.72,1.38,1.4,2.86,1.71,4.38
	C362.03,593.71,361.25,594.53,357.99,594.51z"/>
<path class="st1" d="M408.77,242.28c-2.5-0.24-4.72-1.27-6.67-2.76c-7.67-5.86-13.39-13.29-17.28-22.12
	c-0.85-1.94-1.88-4.12,0.07-5.99c1.98-1.9,4.05-0.7,5.94,0.3c10.51,5.56,17.36,14.29,21.38,25.32
	C413.41,240.35,411.95,242.3,408.77,242.28z"/>
<path class="st1" d="M217.54,629.12c8.28,0.19,14.09,1.54,19.54,4.34c1.3,0.67,2.39,1.53,3.31,2.67c3.51,4.34,4.13,8.79,1.56,11.74
	c-2.91,3.36-8.79,4.44-12.94,1.72c-5.92-3.88-10.81-9-14.47-15.09C212.25,630.68,213.93,629.07,217.54,629.12z"/>
<path class="st1" d="M382.13,511.64c-0.46,1.67-0.87,3.5-1.49,5.25c-1.22,3.47-3.79,5.54-7.4,5.61c-3.61,0.07-5.3-2.77-6.2-5.71
	c-2.12-6.92-2.83-14.08-2.34-21.3c0.17-2.54,1.27-4.9,3.99-5.61c2.65-0.69,4.35,1.23,5.76,3.03
	C378.72,498.36,380.89,504.72,382.13,511.64z"/>
<path class="st1" d="M438.23,189.95c-6.3,0.05-7.85-2.01-6.64-6.29c2.75-9.73,16.19-17.34,26.17-14.83
	c3.47,0.87,4.97,4.05,3.46,7.35c-0.24,0.52-0.46,1.16-0.88,1.45C452.82,182.68,445.01,187.16,438.23,189.95z"/>
<path class="st1" d="M195.63,502.58c0.31-4.58,0.85-9.89,4.56-14.14c2.69-3.09,5.29-2.98,7.16,0.59c3.31,6.33,4.81,13.14,4.06,20.33
	c-0.34,3.24-2.07,5.6-4.89,7.15c-3.8,2.09-7.02,1.15-8.96-2.7C195.91,510.53,195.58,506.96,195.63,502.58z"/>
<path class="st1" d="M400.39,488.72c-0.14-8.15,2.42-9.8,8.09-6.55c6,3.43,9.93,8.66,11.54,15.43c1.04,4.4-0.98,8.13-4.95,9.9
	c-3.65,1.63-6.8,0.59-9.56-3.38C401.96,499.01,400.76,493.14,400.39,488.72z"/>
<path class="st1" d="M175.91,479.83c-0.94,5.67-2.62,12.17-5.9,18.13c-1.75,3.19-4.32,5.62-8.3,4.7c-3.74-0.86-4.87-4.15-5.58-7.44
	c-0.43-1.97-0.28-3.97,0.56-5.9c2.74-6.25,6.97-11.17,12.99-14.37C174.23,472.53,176.15,473.81,175.91,479.83z"/>
<path class="st1" d="M195.58,289.79c-0.37,7.18-5.31,13.09-10.8,12.92c-5.5-0.17-10.51-5.2-10.19-10.23
	c0.39-6.16,7.48-12.47,13.61-12.1C192.78,280.66,195.85,284.57,195.58,289.79z"/>
<path class="st1" d="M236.21,488c-0.1-6.76,3.89-9.54,9.76-7.52c5.1,1.75,10.02,8.42,10.19,13.87c0.11,3.49-1.41,6.12-4.43,7.79
	c-3.1,1.71-6.07,1.31-8.77-0.95C238.66,497.56,236.71,492.76,236.21,488z"/>
<path class="st1" d="M422.44,187.78c-0.28,1.6,0.26,3.89-1.78,4.78c-1.84,0.8-3.21-0.88-4.39-2.03
	c-6.37-6.22-10.64-13.84-13.73-22.08c-1.61-4.29,0.5-6.3,5.06-5.32c3.37,0.72,6.01,2.58,8.09,5.29
	C420.03,174.08,421.95,180.58,422.44,187.78z"/>
<path class="st1" d="M341.8,495.23c0.16,3.53-0.38,6.94-2.31,9.93c-1.88,2.92-4.71,4.29-8.15,3.61c-3.21-0.64-4.06-3.32-4.46-6.15
	c-0.88-6.19,0.38-12,3.26-17.49c1.05-2.01,2.51-3.62,4.98-3.5c2.49,0.12,3.74,1.99,4.67,3.98
	C341.23,488.63,341.93,491.85,341.8,495.23z"/>
<path class="st1" d="M155.44,459.55c-0.63,7.42-1.98,14.42-10.31,17.2c-2.23,0.74-4.74,2.75-6.78,0.55c-2.23-2.4-2.77-5.87-1.7-8.92
	c2.04-5.83,5.61-10.6,11.28-13.56C152.94,452.21,155.57,453.82,155.44,459.55z"/>
<path class="st1" d="M413.49,291.38c0.03,7.04-3.35,11.59-8.71,11.71c-5.42,0.12-10.45-5.52-10.38-11.62
	c0.06-4.88,5.87-10.06,11.23-10.01C410.46,281.51,413.46,285.29,413.49,291.38z"/>
<path class="st1" d="M432.51,456.38c3.23,0.05,6.04,0.52,8.67,1.77c4.51,2.14,6.12,5.76,4.55,10.19c-1.52,4.29-4.72,6.07-9.62,4.78
	c-6.48-1.72-10.5-6.67-14.24-11.8c-1.36-1.87,0.15-2.91,1.68-3.55C426.52,456.51,429.74,456.78,432.51,456.38z"/>
<path class="st1" d="M175.02,149.71c-0.06,6.41-3.7,10.52-9.33,10.55c-5.09,0.02-8.54-3.67-8.63-9.2
	c-0.1-6.42,4.95-12.31,10.36-12.11C171.88,139.12,175.07,143.64,175.02,149.71z"/>
<path class="st1" d="M429.99,167.04c-2.07,0.12-3.97-0.5-5.76-1.43c-2.99-1.55-5.14-3.92-5.08-7.39c0.06-3.52,3.12-4.51,5.81-5.5
	c7.64-2.81,12.46-0.28,12.66,6.55C437.76,164.15,434.89,167.07,429.99,167.04z"/>
</svg>
