<?xml version="1.0" encoding="utf-8"?>
<!-- Generator: Adobe Illustrator 25.4.1, SVG Export Plug-In . SVG Version: 6.00 Build 0)  -->
<svg version="1.1" id="Layer_1" xmlns="http://www.w3.org/2000/svg" xmlns:xlink="http://www.w3.org/1999/xlink" x="0px" y="0px"
	 viewBox="0 0 532.49 258.96" style="enable-background:new 0 0 532.49 258.96;" xml:space="preserve">
<style type="text/css">
	.st0{fill:#FFFFFF;}
</style>
<path class="st0" d="M121.78,55.95c-0.13,3.7,0.09,6.98-0.34,10.24c-0.5,3.76-0.64,7.6-2.23,11.15c-0.47,1.06-0.66,2.2-0.78,3.37
	c-0.1,0.98-0.32,1.97-0.65,2.9c-1.52,4.29-3.07,8.56-4.65,12.82c-0.46,1.25-1.2,2.35-2.03,3.4c-1.02,1.29-1.56,2.79-1.86,4.41
	c-1.07,5.6-0.07,10.83,2.48,15.89c1.5,2.98,2.2,6.23,2.33,9.59c0.11,2.75,0.96,5.39,1.17,8.11c0.45,5.61-0.56,11.06-2.1,16.42
	c-1.46,5.08-4.22,9.51-7,13.92c-1.61,2.56-3.18,5.14-4.77,7.71c-2.34,3.8-3.62,7.97-4.26,12.36c-0.52,3.53-1.73,6.92-2.08,10.47
	c-0.46,4.73-1.9,9.36-1.36,14.19c0.48,4.26-0.41,8.43-1.09,12.59c-0.39,2.41-1.74,4.38-3.48,6.15c-3.27,3.33-7.18,5.35-11.67,6.43
	c-2.39,0.58-4.49,1.86-6.54,3.2c-1.97,1.28-3.91,2.67-6.32,3.03c-3.15,0.47-6.24,0.04-8.81-1.75c-4.9-3.42-10.16-6.2-15.27-9.26
	c-2.77-1.66-5.01-3.81-5.87-7.08c-0.54-2.07-0.67-4.18-0.45-6.29c0.72-6.92,0.48-13.83-0.42-20.7c-0.66-4.99-2.73-9.49-5.07-13.91
	c-2.1-3.96-4.23-7.87-6.94-11.45c-2.43-3.19-3.35-7.07-4.8-10.72c-3.54-8.91-4.36-18.14-3.54-27.59c0.16-1.78,0.38-3.55,1-5.23
	c0.36-0.98,0.63-2.01,0.65-3.03c0.06-3.97,1.43-7.52,3.19-10.98c0.77-1.51,1.45-3.06,2.17-4.6c1.91-4.12,1.34-8.14-0.17-12.28
	c-1.86-5.09-4.62-9.86-5.74-15.18c-1.75-8.35-3.38-16.72-3.02-25.34c0.4-9.78,1.95-19.28,6.43-28.11
	c2.52-4.97,5.79-9.37,10.25-12.79c1.68-1.29,3.51-2.35,5.49-3.12c2.13-0.83,3.53-0.43,4.83,1.46c1.36,1.98,1.85,4.31,2.6,6.54
	c2.55,7.66,4.83,15.39,6.92,23.18C49.42,51.49,50.3,57,51.1,62.54c0.4,2.81,1.39,5.45,1.98,8.2c0.82,3.81,1.19,7.69,1.54,11.57
	c0.18,2.07,0.49,4.11-0.05,6.17c-0.22,0.86,0.39,0.78,0.87,0.53c0.73-0.38,1.42-0.84,2.12-1.28c4.72-2.97,9.74-2.8,14.83-1.34
	c2.38,0.68,4.69,1.6,7.03,2.41c0.94,0.33,1.4,0.04,1.42-1c0.12-7.12,1.2-14.15,3.22-20.92c1.81-6.07,2.33-12.26,3.12-18.44
	c0.68-5.34,2.58-10.26,4.55-15.17c0.98-2.42,1.92-4.84,2.67-7.34c0.81-2.73,2.23-5.24,2.81-8.07c0.27-1.31,2.75-1.99,4.37-1.54
	c6.01,1.66,9.82,5.68,12.2,11.27c0.33,0.77,0.82,1.44,1.35,2.08c0.71,0.87,1.31,1.81,1.76,2.84c0.52,1.18,1.16,2.26,2.01,3.26
	c1.19,1.4,1.59,3.14,1.92,4.91C121.78,45.87,122.34,51.09,121.78,55.95z M112.09,34.59c0.01-0.8-0.15-1.57-0.42-2.32
	c-0.47-1.32-1.42-2.12-2.78-2.02c-1,0.07-1.22-0.4-1.53-1.16c-0.7-1.73-1.8-3.18-3.55-3.97c-2.18-0.98-3.71,0.01-3.73,2.37
	c0,0.45,0.01,0.92-0.04,1.36c-0.1,0.84-0.5,1.32-1.44,1.37c-1.57,0.08-2.1,0.8-1.86,2.36c0.26,1.78,0.97,3.36,2.33,4.54
	c2.03,1.76,3.73,3.74,4.64,6.31c0.07,0.19,0.19,0.37,0.31,0.54c0.23,0.34,0.41,0.82,0.85,0.83c0.56,0.01,0.69-0.58,0.79-0.98
	c0.48-1.78,1.69-2.81,3.23-3.7C110.99,38.93,111.93,36.95,112.09,34.59z M23.26,30.97c0.03,0.81,0.75,2.12,1.51,3.4
	c1.45,2.4,3.28,4.56,4.48,7.13c0.15,0.33,0.42,0.62,0.7,0.86c0.39,0.35,0.79,0.43,1.12-0.14c1.23-2.17,3.19-3.67,4.94-5.36
	c1.07-1.03,2.12-2.1,2.76-3.48c0.97-2.08-0.16-4.8-2.39-5.21c-1.5-0.28-2.01-1.13-2.45-2.34c-0.47-1.3-1.03-2.63-2.73-2.62
	c-1.71,0.01-2.35,1.3-2.93,2.62c-0.1,0.22-0.22,0.46-0.24,0.7c-0.06,1.4-0.76,1.66-2.05,1.4C24.28,27.58,23.23,28.56,23.26,30.97z
	 M66.72,106.46c4.01,0,6.95-1.92,8.25-4.98c0.31-0.73,0.63-1.45,1.24-1.98c0.86-0.74,0.62-1.44-0.19-1.9
	c-2.77-1.57-5.72-2.71-8.94-2.39c-2.46,0.24-4.88,0.86-7.23,1.69c-0.9,0.32-1.79,0.64-2.52,1.29c-0.55,0.5-0.68,1-0.12,1.6
	c1.24,1.34,2.41,2.73,3.69,4.03C62.66,105.62,64.87,106.42,66.72,106.46z M42.86,147.9c4.69-0.28,7.83-3.34,11.3-5.72
	c0.58-0.39,0.47-1.1,0.12-1.7c-0.39-0.64-0.98-0.71-1.63-0.53c-1.18,0.33-2.16,1.06-3.06,1.84c-1.71,1.48-3.68,2.17-5.9,2.25
	c-3.34,0.11-6.58,0.01-9.38-2.3c-2.18-1.8-4.08-3.87-6.07-5.84c-1.25-1.23-1.67-1.39-3.12-0.79c-0.67,0.28-0.91,0.56-0.19,1.08
	c1.59,1.16,2.69,2.73,3.87,4.3C32.31,145.19,37.31,147.19,42.86,147.9z M86.01,148.56c3.64-0.1,7.26-1.43,10.47-4.05
	c2.44-1.99,3.85-4.72,5.59-7.22c0.3-0.43,0.22-0.83-0.12-1.24c-1.27-1.52-2.56-1.46-3.53,0.27c-0.71,1.27-1.5,2.5-2.47,3.56
	c-2.57,2.83-5.35,5.31-9.49,5.47c-3.15,0.12-6.2,0.05-8.7-2.33c-0.65-0.62-1.45-1.1-2.33-1.38c-0.49-0.16-1.04-0.34-1.34,0.2
	c-0.27,0.48,0.17,0.87,0.5,1.15c1,0.86,2.1,1.63,3.05,2.54C79.87,147.65,82.53,148.53,86.01,148.56z M70.97,123.45
	c-0.11-0.94-0.29-2.07-0.63-3.19c-0.79-2.64-2.29-5.03-2.66-7.84c-0.17-1.28-1.24-1.45-2.19-0.48c-0.96,0.99-1.28,2.29-1.54,3.6
	c-0.68,3.42-0.66,6.77,1.22,9.86c0.85,1.4,2.05,1.92,3.33,1.57C70.08,126.54,70.95,125.37,70.97,123.45z M74.66,227.03
	c3.72,0.03,6.52-1.38,7.84-4.95c0.72-1.94,1-3.91,0.68-5.97c-0.21-1.34-0.7-2.55-1.68-3.51c-0.41-0.4-0.9-0.6-1.47-0.33
	c-0.47,0.23-0.67,0.68-0.54,1.15c0.73,2.73-0.78,4.88-1.82,7.13c-0.67,1.44-1.77,2.58-3.06,3.52c-0.91,0.66-2.05,0.58-3.02,1.04
	c-0.45,0.21-0.99,0.4-0.81,1.05c0.15,0.57,0.53,0.9,1.18,0.87C72.85,227.01,73.76,227.03,74.66,227.03z M53.26,227.88
	c0.8,0.05,1.63-0.19,2.47-0.44c0.59-0.18,1.28-0.26,1.34-1.06c0.06-0.73-0.65-0.76-1.07-1.03c-0.21-0.14-0.45-0.22-0.66-0.34
	c-2.58-1.41-4.58-3.37-5.81-6.07c-0.79-1.72-0.68-3.44-0.01-5.17c0.18-0.47,0.08-0.9-0.4-1.17c-0.59-0.33-1.01,0.04-1.23,0.47
	c-1.21,2.37-2.72,4.59-2.24,7.55C46.34,225.06,49.16,227.9,53.26,227.88z M86.24,97.02c-2.16,0.23-4.17,0.43-6.15,0.87
	c-0.56,0.12-1.25,0.26-1.39,0.89c-0.17,0.73,0.51,1.09,1.01,1.41c1.95,1.24,4.03,2.26,6.13,3.21c1.07,0.48,2.22,0.62,3.38,0.22
	c1.38-0.47,2.66-2.03,2.6-3.33c-0.07-1.48-1.08-2.26-2.33-2.78C88.41,97.05,87.26,96.97,86.24,97.02z M55.01,105.47
	c-0.74,0.06-1.42,0.22-2.07,0.5c-0.75,0.32-1.5,0.72-2.29,0.88c-2.32,0.5-3.76,1.95-4.62,4.07c-0.64,1.56-0.46,2.77,0.46,3.54
	c1,0.85,2.49,0.93,3.82,0.18c1.33-0.74,2.37-1.82,3.08-3.15c0.76-1.42,1.59-2.78,2.62-4.03c0.32-0.39,0.74-0.86,0.4-1.44
	C56.09,105.47,55.48,105.59,55.01,105.47z M61.59,111.68c0-0.45,0.01-0.62,0-0.79c-0.03-0.4,0.02-0.9-0.5-1.01
	c-0.43-0.09-0.64,0.28-0.8,0.63c-0.31,0.68-0.96,0.99-1.52,1.41c-2.47,1.84-4.74,3.86-5.74,6.94c-0.36,1.11-0.15,2.03,0.74,2.79
	c1.12,0.96,2.36,0.82,3.76-0.42C60.48,118.61,61,114.99,61.59,111.68z M97.53,87.47c1.36,0.12,1.67-0.19,1.32-1.54
	c-0.53-2.06-1.51-3.93-2.83-5.58c-0.92-1.14-2.22-1.7-3.67-1.81c-1.92-0.15-2.96,1.09-2.52,2.95
	C90.56,84.59,93.88,87.17,97.53,87.47z M39.71,184.55c-0.41-4.66-1.95-6.37-6.53-7.09c-0.59-0.09-1.17,0-1.48,0.64
	c-0.31,0.66,0.08,1.12,0.52,1.51c0.55,0.5,1.15,0.94,1.74,1.4c2.08,1.64,2.71,4.15,1.64,6.53c-0.24,0.53-0.45,1.06-0.65,1.61
	c-0.22,0.61-0.36,1.21,0.39,1.61c0.72,0.38,1.4,0.34,1.9-0.31C38.64,188.65,39.39,186.57,39.71,184.55z M36.67,173.52
	c0.16,0.73,0.31,1.68,0.6,2.57c0.27,0.82,0.83,1.02,1.47,0.31c1.88-2.09,3.64-4.29,5.06-6.72c0.89-1.53,0.42-3.34-0.83-4.08
	c-1.13-0.67-2.81-0.22-3.8,1.16C37.79,168.72,37.03,170.93,36.67,173.52z M105.46,80.69c2.96,0.08,6.63-2.5,7.78-5.21
	c0.58-1.38,0.19-2.01-1.31-1.86c-1.51,0.15-3.04,0.37-4.5,0.77c-2.01,0.55-3.63,1.77-4.75,3.55c-0.8,1.27-0.31,2.24,1.16,2.52
	C104.5,80.58,105.15,80.65,105.46,80.69z M79.15,120.98c1.1-0.07,1.74-0.79,2.22-1.71c0.57-1.1,0.57-2.23-0.3-3.12
	c-1.82-1.88-3.77-3.6-6.22-4.62c-0.62-0.26-1.34-0.5-1.87,0.01c-0.54,0.52-0.27,1.24-0.03,1.86c0.77,2.03,1.9,3.86,3.13,5.61
	C76.8,120.05,77.81,120.78,79.15,120.98z M46.61,181.31c0.85-0.01,2.35,0.02,3.65-0.89c1.2-0.84,1.73-2.14,1.36-3.31
	c-0.36-1.13-1.46-1.84-2.94-1.79c-3.03,0.11-5.35,1.74-7.44,3.73c-0.71,0.67-0.48,1.36,0.47,1.69
	C43.09,181.23,44.54,181.28,46.61,181.31z M33.48,85.5c0.07,0.81,0.14,1.82,1.19,2.22c0.93,0.36,1.42-0.48,1.93-1.01
	c1.22-1.29,2.39-2.63,3.52-3.99c0.64-0.77,1.03-1.7,1.27-2.66c0.49-1.98-0.33-2.75-2.31-2.21C35.89,78.71,33.47,81.95,33.48,85.5z
	 M100.69,70.08c0.03-3.53-2.57-7.13-5.91-8.2c-1.52-0.48-2.58,0.43-2.29,1.99c0.18,0.99,0.52,1.96,1.18,2.69
	c1.45,1.62,2.99,3.17,4.53,4.71c0.45,0.45,1.02,0.92,1.76,0.54C100.64,71.45,100.6,70.73,100.69,70.08z M24.26,70.44
	c-0.33,0.03-0.66,0.03-0.99,0.09c-1.32,0.25-2.38,1.17-2.55,2.24c-0.21,1.32,0.7,1.96,1.65,2.5c1.96,1.12,3.65,2.73,5.96,3.22
	c0.45,0.09,0.86,0.7,1.35,0.28c0.5-0.43,0.4-1.09,0.26-1.64c-0.46-1.77-1.14-3.46-2.29-4.91C26.79,71.13,25.72,70.4,24.26,70.44z
	 M86.85,186.39c0.42,2.4,1.94,4.08,3.59,5.64c0.57,0.54,1.07,0.04,1.32-0.56c0.28-0.65,0.08-1.24-0.37-1.71
	c-0.67-0.68-0.87-1.5-0.74-2.39c0.18-1.26,0.31-2.54,0.73-3.76c0.41-1.19,0.96-2.3,2.03-3.03c0.88-0.6,0.55-1.05-0.13-1.48
	c-1.11-0.7-2.55-0.46-3.73,0.64C87.63,181.55,87.41,184.03,86.85,186.39z M32.21,87.8c-0.1-0.2-0.17-0.47-0.34-0.62
	c-0.63-0.55-0.85-1.3-1.11-2.04c-0.99-2.9-3.35-4.72-6.39-4.78c-0.94-0.02-2.18-0.24-2.66,0.86c-0.44,1,0.47,1.74,1.02,2.49
	c0.17,0.23,0.4,0.42,0.57,0.65c1.95,2.75,5.25,2.91,7.97,4.18C31.84,88.81,32.07,88.32,32.21,87.8z M48.93,98.92
	c-1.42,0.09-2.69,0.16-3.97,0.26c-2.03,0.17-3.35,1.67-3.07,3.43c0.26,1.61,1.94,2.49,3.91,1.94c2.32-0.64,4.3-2.09,6.56-2.88
	c0.48-0.17,0.77-0.64,0.78-1.18c0.01-0.62-0.48-0.85-0.94-1.02C51.1,99.04,49.95,98.96,48.93,98.92z M97.8,165.6
	c0.08-0.55-0.06-1.08-0.19-1.6c-0.38-1.6-1.68-2.08-3-1.12c-0.73,0.54-1.14,1.31-1.41,2.14c-0.91,2.83-0.72,5.63,0.25,8.4
	c0.16,0.45,0.31,1.04,0.86,1.13c0.65,0.11,0.92-0.5,1.18-0.94C96.95,171.15,97.59,168.43,97.8,165.6z M111.7,46.31
	c0.87-0.16,1.79-0.12,2.67-0.42c1.65-0.57,2.42-1.81,2.1-3.43c-0.31-1.57-1.76-2.66-3.34-2.53c-2.85,0.23-6.37,4.62-5.98,7.46
	c0.02,0.12,0.06,0.24,0.09,0.36c0.08,0.32,0.15,0.74,0.49,0.78c0.39,0.04,0.48-0.41,0.57-0.7c0.46-1.48,1.49-1.86,2.89-1.57
	C111.34,46.28,111.51,46.29,111.7,46.31z M107.57,71.75c1.76,0.01,3.07-0.42,4.21-1.33c1.08-0.85,1.95-1.89,2.77-2.99
	c0.5-0.68,1.33-1.44,0.86-2.29c-0.46-0.84-1.52-0.42-2.29-0.33c-2.7,0.32-5.3,0.94-7.07,3.29c-0.58,0.76-1.08,1.63-0.53,2.63
	C106.03,71.65,106.94,71.76,107.57,71.75z M33.18,170.87c-0.3-2.36-0.23-4.82-0.88-7.19c-0.27-0.98-0.78-1.77-1.94-1.75
	c-1.06,0.01-1.89,0.86-2.09,2.11c-0.21,1.28-0.05,2.56,0.26,3.81c0.54,2.18,1.27,4.28,2.61,6.11c0.26,0.36,0.56,0.79,1.1,0.66
	c0.54-0.13,0.62-0.66,0.68-1.09C33.05,172.67,33.09,171.8,33.18,170.87z M38.62,62.47c-0.08-0.47-0.07-1.31-0.89-1.75
	c-0.77-0.41-1.45-0.09-2.1,0.3c-0.39,0.23-0.75,0.52-1.07,0.84c-1.66,1.64-2.71,3.64-3.23,5.9c-0.13,0.55-0.14,1.17-0.05,1.72
	c0.22,1.25,1.32,1.62,2.29,0.81c0.76-0.64,1.51-1.29,2.25-1.94C37.5,66.86,38.62,65.09,38.62,62.47z M84.28,165.87
	c-0.85,0.12-1.85,0.21-2.23,1.19c-0.48,1.21-0.34,2.47,0.45,3.54c0.88,1.2,1.85,2.33,2.79,3.48c0.7,0.84,1.61,1.43,2.56,1.92
	c0.91,0.46,1.56,0.08,1.34-0.9c-0.6-2.69-1.02-5.45-2.48-7.87C86.18,166.36,85.37,165.91,84.28,165.87z M79.26,105.12
	c-0.9,0.09-1.93-0.04-2.25,0.98c-0.31,1,0.5,1.62,1.23,2.07c0.95,0.58,1.61,1.39,2.24,2.27c0.43,0.61,0.89,1.2,1.51,1.63
	c1.26,0.89,3.28,0.65,4.16-0.48c0.87-1.1,0.7-2.7-0.56-3.76C83.76,106.29,81.64,105.32,79.26,105.12z M103.12,90.17
	c2.87-0.42,5.48-1.39,7.13-4.05c0.39-0.63,0.81-1.34,0.33-2.07c-0.43-0.68-1.2-0.68-1.91-0.61c-2.82,0.29-5.15,1.68-7.31,3.38
	c-0.58,0.46-1.2,1.06-0.98,1.88c0.22,0.84,1.01,1.15,1.81,1.31C102.48,90.07,102.77,90.11,103.12,90.17z M39.26,38.6
	c-2.01,0.01-6.24,3.95-6.39,5.95c-0.08,1.07,0.82,1.71,1.83,1.1c1.53-0.93,3.14-1.09,4.86-1.06c1.83,0.03,2.86-0.92,2.82-2.41
	C42.33,40.34,40.81,38.59,39.26,38.6z M32.84,77.36c0.11,0.54-0.09,1.34,0.74,1.58c0.75,0.22,1.14-0.43,1.42-0.95
	c0.62-1.16,1.6-1.84,2.72-2.42c0.76-0.4,1.51-0.87,2.15-1.44c1.52-1.35,1.34-3.74-0.29-4.97c-0.64-0.48-1.34-0.61-1.93-0.09
	C35.14,71.26,33.08,73.73,32.84,77.36z M96.62,39.31c-0.25,0.02-0.5,0.01-0.74,0.07c-0.99,0.23-1.97,0.53-2.29,1.63
	c-0.31,1.05,0.33,1.81,1.02,2.5c0.87,0.87,2.01,1.04,3.15,1.31c3.7,0.87,3.55,0.68,4.07,3.93c0.06,0.38,0.2,0.66,0.57,0.7
	c0.35,0.03,0.62-0.19,0.74-0.54c0.3-0.85,0.31-1.72,0.06-2.56c-0.75-2.53-2.18-4.62-4.28-6.23C98.24,39.61,97.49,39.27,96.62,39.31z
	 M79.42,197.68c1.04-0.14,2.03-0.37,2.72-1.14c1.24-1.39,2.14-3.02,3.12-4.59c0.39-0.62,0.14-1.12-0.47-1.44
	c-0.63-0.33-1.33-0.65-2.01-0.41c-2.03,0.71-3.99,1.59-5.48,3.23c-0.79,0.87-0.76,1.89-0.27,2.89
	C77.52,197.21,78.41,197.6,79.42,197.68z M27.91,69.86c0.98,0.04,1.26-0.34,1.03-1c-0.8-2.32-2.07-4.32-4.16-5.68
	c-0.92-0.6-1.98-0.78-3.09-0.46c-0.73,0.21-1.6,0.16-1.92,1.08c-0.35,1.02,0.01,1.9,0.72,2.59C22.62,68.46,25.44,69.05,27.91,69.86z
	 M22.39,54.73c-1,0.04-1.86,0.47-2.25,1.43c-0.39,0.95,0,1.81,0.76,2.43c1.57,1.27,3.17,2.5,4.77,3.73c0.29,0.22,0.65,0.36,1,0.47
	c0.62,0.2,1.24,0.19,1.74-0.28c0.54-0.51,0.26-1.12,0.03-1.61c-0.9-1.97-2.1-3.74-3.67-5.24C24.14,55.02,23.32,54.72,22.39,54.73z
	 M43.72,202.7c-0.03-1.05-0.44-1.85-1.07-2.54c-0.84-0.91-1.71-1.79-2.58-2.66c-0.44-0.43-0.92-0.83-1.4-1.21
	c-0.32-0.25-0.7-0.51-1.13-0.28c-0.4,0.22-0.31,0.64-0.28,1c0.11,1.61,0.26,3.21,0.74,4.76c0.32,1.04,0.78,2.03,1.65,2.71
	c0.74,0.58,1.52,1.25,2.57,0.76C43.32,204.75,43.6,203.72,43.72,202.7z M37.6,53.57c-3.22-0.01-7.53,4.51-7.39,7.74
	c0.01,0.33,0.01,0.7,0.35,0.88c0.36,0.2,0.67-0.06,0.87-0.29c1.12-1.23,2.61-1.8,4.07-2.49c1.72-0.81,3.06-2.13,3.37-4.17
	C39.04,54.2,38.55,53.57,37.6,53.57z M50.02,183.43c-2.06,0.2-3.96,0.86-5.78,1.75c-0.3,0.15-0.64,0.34-0.62,0.7
	c0.01,0.45,0.43,0.56,0.79,0.66c1.31,0.39,2.56,0.91,3.77,1.55c0.81,0.42,1.74,0.53,2.64,0.6c1.4,0.12,2.78-1.03,3-2.41
	c0.2-1.25-0.53-2.2-2.09-2.6C51.16,183.54,50.58,183.51,50.02,183.43z M78.57,183.21c-0.91-0.13-2.02,0.36-2.93,1.31
	c-0.57,0.59-0.95,1.29-0.67,2.14c0.3,0.91,1.01,1.42,1.91,1.58c0.81,0.15,1.64,0.07,2.46-0.1c1.29-0.28,2.55-0.7,3.89-0.75
	c1.27-0.05,1.5-0.53,0.86-1.66C82.97,183.71,81.03,183.37,78.57,183.21z M88.78,198.56c0-0.87,0.01-1.74-0.01-2.6
	c-0.01-0.35,0.12-0.8-0.34-0.96c-0.39-0.14-0.74,0.08-1.02,0.32c-0.28,0.24-0.6,0.51-0.71,0.84c-0.4,1.11-1.1,2.03-1.74,3
	c-0.43,0.66-0.84,1.34-1,2.12c-0.38,1.77,0.41,3.57,1.67,3.85c1.31,0.29,2.94-1.21,3.27-2.96
	C89.12,200.95,88.95,199.75,88.78,198.56z M21.5,38.6c-0.94,0.06-1.91,0.24-2.4,1.19c-0.5,0.98-0.01,1.85,0.56,2.64
	c0.66,0.91,1.62,1.4,2.64,1.77c1.16,0.41,2.38,0.67,3.25,1.67c0.27,0.32,0.73,0.45,1.13,0.21c0.44-0.26,0.37-0.73,0.29-1.13
	c-0.38-1.89-1-3.68-2.45-5.05C23.69,39.13,22.74,38.59,21.5,38.6z M84.15,180.57c0.94,0.01,1.17-0.23,1-0.99
	c-0.09-0.43-0.28-0.86-0.49-1.26c-1.12-2.15-3.21-3.13-5.19-4.23c-0.99-0.55-2.17-1.04-3.04,0.07c-0.86,1.08-0.08,2.14,0.58,3.02
	C78.83,179.63,81.73,179.81,84.15,180.57z M98.77,79.2c0.92,0.01,1.34-0.56,0.99-1.51c-1.16-3.17-3.13-5.69-6.15-7.29
	c-0.54-0.29-1.14-0.63-1.71-0.09c-0.56,0.54-0.26,1.17-0.02,1.72c1.12,2.54,2.77,4.68,4.97,6.37C97.4,78.84,98.05,79.14,98.77,79.2z
	 M43.73,190.53c-1.04-0.01-1.52,0.45-0.86,1.55c1.05,1.75,2.46,3.22,4.16,4.34c1.19,0.78,2.88,0.47,3.72-0.49
	c0.74-0.85,0.56-2.13-0.45-3.38c-0.26-0.33-0.58-0.58-0.95-0.77C47.78,190.98,46.11,190.59,43.73,190.53z M91.1,156.72
	c-0.36-1.99-0.98-3.82-2.21-5.39c-0.41-0.52-0.9-1.07-1.66-0.87c-0.79,0.2-1.1,0.88-1.15,1.61c-0.14,2.08,0.06,4.14,0.67,6.13
	c0.26,0.85,0.75,1.67,1.78,1.64c1.04-0.02,1.78-0.62,2.13-1.61C90.85,157.73,90.97,157.2,91.1,156.72z M107.24,64.14
	c1.95-0.8,4.2-2.1,6.36-3.55c0.12-0.08,0.19-0.27,0.25-0.42c0.44-0.95,0-1.86-1-2.12c-2.87-0.73-6.74,1.47-7.53,4.27
	C104.98,63.57,105.43,64.16,107.24,64.14z M37.43,154.12c-0.01,1.26,0.08,2.29,0.56,3.23c0.56,1.11,1.49,1.38,2.58,0.78
	c0.81-0.45,1.31-1.13,1.41-2.06c0.22-2.07-0.22-4.03-1.17-5.85c-0.54-1.03-1.29-1.06-2.06-0.17
	C37.67,151.27,37.51,152.8,37.43,154.12z M96.35,150.13c0.11,1.27,0.45,2.96,1.48,4.43c0.79,1.14,1.7,1.44,2.75,0.97
	c1.14-0.51,1.72-1.58,1.42-2.85c-0.46-1.95-1.59-3.45-3.32-4.44C97.05,147.31,96.31,147.78,96.35,150.13z M31.75,147.57
	c0.07-1.73-0.48-2.1-1.79-1.4c-1.73,0.92-2.95,2.34-3.74,4.14c-0.24,0.56-0.28,1.13-0.16,1.7c0.2,0.95,0.53,1.89,1.61,2.14
	c1.15,0.26,1.89-0.43,2.39-1.35C30.99,151.07,31.48,149.2,31.75,147.57z M37.41,92.88c0.08-1.5-0.81-2.63-2.12-2.71
	c-1.76-0.11-3.8,1.71-3.92,3.48c-0.09,1.45,1.35,2.9,2.93,2.94C35.89,96.64,37.3,94.94,37.41,92.88z M49.1,149.92
	c0.14,1.37,0.7,2.75,1.95,3.79c0.77,0.65,1.63,0.77,2.52,0.27c0.87-0.48,1.31-1.24,1.27-2.24c-0.05-1.57-1.46-3.49-2.93-3.99
	C50.23,147.18,49.08,147.97,49.1,149.92z M102.7,63.52c-0.14-2.07-0.7-3.94-1.94-5.57c-0.6-0.78-1.36-1.32-2.33-1.52
	c-1.31-0.28-1.92,0.3-1.46,1.53c0.89,2.37,2.12,4.56,3.95,6.35c0.34,0.33,0.73,0.81,1.26,0.58
	C102.77,64.64,102.62,63.98,102.7,63.52z M79.49,152c0.04-0.97-0.16-1.9-0.57-2.77c-0.27-0.57-0.63-1.11-1.34-1.15
	c-0.71-0.03-1.13,0.43-1.43,1.01c-0.83,1.58-1.19,3.25-0.94,5.03c0.12,0.81,0.36,1.59,1.28,1.77c0.99,0.2,1.8-0.2,2.35-1.04
	C79.38,154,79.54,153.01,79.49,152z M25.86,141.73c0.04-1.65-0.72-2.11-2.16-1.36c-1.63,0.85-2.66,2.22-3.25,3.9
	c-0.31,0.88-0.15,1.88,0.49,2.57c0.59,0.63,1.31,0.05,1.95-0.16C25.29,145.88,25.68,143.87,25.86,141.73z M100.12,93.33
	c-0.01-1.75-0.87-2.84-2.26-2.85c-1.54-0.02-3.21,1.47-3.23,2.88c-0.02,1.76,1.43,3.38,2.99,3.34
	C99.16,96.67,100.13,95.36,100.12,93.33z M105.6,140.82c-0.8,0.12-1.72,0.04-2.58,0.4c-0.44,0.19-0.87,0.49-0.48,1.02
	c1.08,1.48,2.23,2.9,4.1,3.4c1.41,0.37,2.33-0.14,2.77-1.38c0.45-1.27-0.01-2.32-1.31-2.93
	C107.34,140.97,106.53,140.83,105.6,140.82z M31.49,52.56c0.01-1.75-0.9-3.05-2.18-3.1c-1.56-0.06-3.01,1.64-2.98,3.49
	c0.02,1.59,1.02,2.65,2.48,2.65C30.43,55.59,31.48,54.41,31.49,52.56z M104.87,57.55c1.41,0.01,2.24-0.83,2.2-2.24
	c-0.06-1.97-1.44-2.7-3.64-1.89c-0.77,0.28-1.65,0.57-1.67,1.58c-0.02,1,0.6,1.68,1.46,2.13C103.73,57.41,104.28,57.59,104.87,57.55
	z"/>
<path class="st0" d="M182.89,200.43c-2.22-6.23-4.43-12.47-6.65-18.7c-2.22-6.23-4.43-12.45-6.65-18.65
	c-2.22-6.2-4.43-12.41-6.65-18.65h-0.52c-0.35,4.22-0.66,8.02-0.94,11.37c-0.28,3.36-0.59,6.94-0.94,10.75
	c-0.35,3.81-0.66,7.46-0.93,10.96c-0.28,3.5-0.5,6.44-0.68,8.83c-0.17,2.39-0.26,3.83-0.26,4.31c0,2.15,1.07,3.22,3.22,3.22
	c0.55,0,1.97-0.03,4.26-0.1l0.21,0.42l-0.93,4.68c-2.43-0.14-4.42-0.25-5.97-0.31c-1.56-0.07-2.93-0.1-4.1-0.1
	c-1.04,0-2.08,0.03-3.12,0.1c-1.04,0.07-2.01,0.17-2.91,0.31c-0.9,0.14-1.87,0.27-2.91,0.41l0.52-4.78
	c2.21-0.27,3.81-0.99,4.78-2.13c0.97-1.14,1.59-3.1,1.87-5.87c0.14-1.25,0.35-3.13,0.62-5.66c0.28-2.53,0.59-5.4,0.94-8.62
	c0.35-3.22,0.67-6.49,0.99-9.82c0.31-3.32,0.62-6.47,0.94-9.45c0.31-2.98,0.55-5.49,0.73-7.53c0.17-2.04,0.26-3.31,0.26-3.79
	c0-1.25-0.31-2.25-0.94-3.01c-0.62-0.76-1.59-1.37-2.91-1.82c-1.32-0.45-3.01-0.74-5.09-0.88l-0.31-0.52l0.83-3.64
	c2.84,0.14,5.16,0.26,6.96,0.36c1.8,0.11,3.25,0.16,4.36,0.16c1.04,0,2.09-0.03,3.17-0.1c1.07-0.07,2.37-0.17,3.9-0.31
	c2.35,7.55,4.59,14.48,6.7,20.78c2.11,6.3,3.98,11.74,5.61,16.31c1.63,4.57,3.38,9.38,5.25,14.44h0.52
	c1.87-5.06,3.64-9.88,5.3-14.49c1.66-4.61,3.57-10.02,5.71-16.26c2.15-6.23,4.47-13.09,6.96-20.57c0-0.07,0.43-0.07,1.3,0
	c0.86,0.07,1.83,0.12,2.91,0.16c1.07,0.03,1.96,0.05,2.65,0.05c1.04,0,2.46-0.05,4.26-0.16c1.8-0.1,4.12-0.26,6.96-0.47l0.21,0.42
	l-0.52,3.84c-2.98,0.35-5.09,0.95-6.34,1.82c-1.25,0.87-1.87,2.16-1.87,3.9c0,0.62,0.05,2.01,0.16,4.16
	c0.1,2.15,0.26,4.78,0.47,7.89c0.21,3.12,0.43,6.46,0.68,10.03c0.24,3.57,0.48,7.12,0.73,10.65c0.24,3.53,0.47,6.75,0.68,9.66
	c0.48,4.02,1.04,6.67,1.66,7.95c0.62,1.28,1.77,1.92,3.43,1.92c0.62,0,1.59-0.07,2.91-0.21l0.21,0.42l-0.94,4.67
	c-2.22-0.14-4.1-0.22-5.66-0.26c-1.56-0.04-2.96-0.05-4.21-0.05c-1.11,0-2.29,0.03-3.53,0.1c-1.25,0.07-2.43,0.17-3.53,0.31
	c-1.11,0.14-2.35,0.27-3.74,0.41l0.42-4.78c2.15-0.27,3.7-0.83,4.67-1.66c0.97-0.83,1.46-2.01,1.46-3.53c0-0.62-0.09-2.13-0.26-4.52
	c-0.17-2.39-0.4-5.28-0.68-8.68c-0.28-3.39-0.56-6.92-0.83-10.59c-0.28-3.67-0.55-7.1-0.83-10.28c-0.28-3.19-0.59-6.79-0.94-10.8
	h-0.52c-1.66,4.57-3.32,9.16-4.99,13.77s-3.34,9.23-5.04,13.87c-1.7,4.64-3.38,9.26-5.04,13.87c-1.66,4.61-3.32,9.19-4.99,13.77
	L182.89,200.43z"/>
<path class="st0" d="M233.58,195.45c2.08-0.55,3.57-1.37,4.47-2.44c0.9-1.07,1.35-2.51,1.35-4.31v-26.39c0-1.94-0.31-3.36-0.94-4.26
	c-0.62-0.9-1.59-1.35-2.91-1.35c-0.55,0-1.42,0.14-2.6,0.42l0.42-3.84c1.73-0.28,3.48-0.59,5.25-0.93c1.77-0.35,3.38-0.68,4.83-0.99
	c1.46-0.31,3.08-0.68,4.88-1.09l0.52,1.25c-0.28,0.69-0.57,2.23-0.88,4.62c-0.31,2.39-0.57,5.3-0.78,8.72
	c-0.21,3.43-0.38,7.17-0.52,11.22c-0.14,4.05-0.21,8.12-0.21,12.21c0,2.01,0.28,3.48,0.83,4.42c0.55,0.93,1.49,1.4,2.8,1.4
	c0.62,0,1.83-0.07,3.64-0.21l0.21,0.42l-0.83,4.47c-1.18-0.07-2.23-0.12-3.17-0.15c-0.93-0.04-1.94-0.07-3.01-0.1
	c-1.07-0.04-2.1-0.05-3.06-0.05c-1.46,0-3.01,0.1-4.68,0.31c-1.66,0.21-3.67,0.52-6.03,0.94L233.58,195.45z M242.3,138
	c-1.73,0-3.01-0.55-3.84-1.66c-0.83-1.11-1.25-2.32-1.25-3.64c0-1.66,0.59-3.1,1.77-4.31c1.18-1.21,2.63-1.82,4.36-1.82
	c1.66,0,2.93,0.54,3.79,1.61c0.87,1.07,1.3,2.3,1.3,3.69c0,1.66-0.57,3.1-1.71,4.31C245.58,137.39,244.11,138,242.3,138z"/>
<path class="st0" d="M260.69,199.71l0.42-4.26c2.01-0.55,3.41-1.26,4.21-2.13c0.79-0.86,1.26-2.02,1.4-3.48
	c0.14-1.45,0.21-3.25,0.21-5.4v-51c0-1.73-0.16-2.99-0.47-3.79c-0.31-0.8-0.9-1.3-1.77-1.51c-0.87-0.21-2.17-0.21-3.9,0l-0.31-0.21
	l0.42-3.53c2.56-0.35,5.12-0.76,7.69-1.25c2.56-0.48,5.12-1.07,7.69-1.77l0.62,1.35c-0.28,0.49-0.56,2.06-0.83,4.73
	c-0.28,2.67-0.54,6.16-0.78,10.49c-0.24,4.33-0.47,9.23-0.68,14.7c-0.21,5.47-0.36,11.25-0.47,17.35c-0.1,6.1-0.16,12.19-0.16,18.28
	c0,2.08,0.28,3.57,0.83,4.47c0.55,0.9,1.49,1.35,2.8,1.35l3.64-0.21l0.21,0.42l-0.83,4.47c-1.11-0.07-2.58-0.14-4.42-0.21
	c-1.84-0.07-3.45-0.1-4.83-0.1c-1.25,0-2.82,0.12-4.73,0.36C264.76,199.06,262.77,199.36,260.69,199.71z"/>
<path class="st0" d="M321.88,199.71c-2.77,0-4.93-0.71-6.49-2.13c-1.56-1.42-2.48-3.51-2.75-6.28l-0.42-0.11
	c-1.66,1.66-3.24,3.1-4.73,4.31c-1.49,1.21-2.8,2.15-3.95,2.8c-1.14,0.66-2.06,0.99-2.75,0.99c-2.56,0-4.85-0.55-6.86-1.66
	c-2.01-1.11-3.58-2.63-4.73-4.57c-1.14-1.94-1.71-4.16-1.71-6.65c0-2.01,0.5-3.77,1.51-5.3c1-1.52,2.34-2.53,4-3.01l19.74-5.4
	l0.1-4.57c0-3.46-0.8-6.16-2.39-8.1c-1.59-1.94-3.84-2.91-6.75-2.91c-1.94,0-3.98,0.45-6.13,1.35c-2.15,0.9-4.26,2.18-6.34,3.84
	l-0.52-0.31l-1.25-4.47c1.8-1.04,3.81-2.13,6.03-3.27c2.22-1.14,4.33-2.09,6.34-2.86c2.01-0.76,3.53-1.14,4.57-1.14
	c3.05,0,5.64,0.54,7.79,1.61c2.15,1.08,3.79,2.6,4.93,4.57c1.14,1.97,1.71,4.38,1.71,7.22c0,0.9-0.09,2.35-0.26,4.36
	c-0.17,2.01-0.4,4.24-0.68,6.7c-0.28,2.46-0.5,4.83-0.68,7.12c-0.17,2.28-0.26,4.19-0.26,5.71c0,1.52,0.38,2.7,1.14,3.53
	c0.76,0.83,1.8,1.25,3.12,1.25c1.18,0,2.35-0.29,3.53-0.88c1.18-0.59,2.08-1.16,2.7-1.71l1.46,1.66c-0.56,0.9-1.3,1.92-2.23,3.06
	c-0.94,1.14-1.97,2.2-3.12,3.17C324.42,198.6,323.19,199.29,321.88,199.71z M302.55,192.23c1.31,0,2.86-0.47,4.62-1.4
	c1.77-0.93,3.38-2.13,4.83-3.58l0.52-10.6l-14.13,4.26c-2.01,0.62-3.01,2.08-3.01,4.36c0,1.94,0.68,3.58,2.02,4.93
	C298.76,191.55,300.48,192.23,302.55,192.23z"/>
<path class="st0" d="M353.77,223.6c-3.26,0-6.06-0.56-8.41-1.66c-2.36-1.11-4.17-2.7-5.45-4.78c-1.28-2.08-1.92-4.54-1.92-7.37
	c0.97-1.18,2.37-2.62,4.21-4.31c1.83-1.7,3.86-3.38,6.08-5.04v-0.62c-3.6-0.62-6.36-1.8-8.26-3.53c-1.91-1.73-2.93-3.95-3.06-6.65
	c1.25-1.18,2.6-2.34,4.05-3.48c1.46-1.14,3.01-2.2,4.68-3.17v-1.45l5.4,1.77c-2.15,1.11-3.69,2.09-4.62,2.96
	c-0.93,0.87-1.4,1.75-1.4,2.65c0,1.39,0.83,2.41,2.49,3.06c1.66,0.66,3.79,1.14,6.39,1.45c2.6,0.31,5.37,0.64,8.31,0.99
	c2.94,0.35,5.71,0.88,8.31,1.61c2.6,0.73,4.73,1.8,6.39,3.22c1.66,1.42,2.49,3.41,2.49,5.97c0,2.28-0.71,4.54-2.13,6.75
	c-1.42,2.21-3.36,4.19-5.82,5.92c-2.46,1.73-5.21,3.12-8.26,4.16C360.17,223.08,357.02,223.6,353.77,223.6z M355.32,184.95
	c-3.39,0-6.39-0.67-8.99-2.02c-2.6-1.35-4.64-3.22-6.13-5.61c-1.49-2.39-2.23-5.11-2.23-8.16c0-3.46,0.88-6.61,2.65-9.45
	c1.77-2.84,4.12-5.12,7.06-6.86c2.94-1.73,6.14-2.6,9.61-2.6c1.94,0,3.79,0.19,5.56,0.57c1.77,0.38,3.31,0.57,4.62,0.57
	c1.38-0.14,3.34-0.48,5.87-1.04c2.53-0.55,5.35-1.25,8.47-2.08l0.31,0.41l-1.14,5.82c-1.52,0.21-3.12,0.38-4.78,0.52
	c-1.66,0.14-3.05,0.28-4.16,0.42l-0.42,0.52c2.77,3.05,4.16,6.58,4.16,10.59c0,3.39-0.92,6.48-2.75,9.25
	c-1.84,2.77-4.29,4.99-7.37,6.65C362.58,184.12,359.13,184.95,355.32,184.95z M357.71,180.38c3.18,0,5.7-1,7.53-3.01
	c1.83-2.01,2.75-4.78,2.75-8.31c0-4.02-1.11-7.27-3.32-9.76c-2.22-2.49-5.09-3.74-8.62-3.74c-3.19,0-5.7,1.04-7.53,3.12
	c-1.84,2.08-2.75,4.88-2.75,8.41c0,3.95,1.11,7.15,3.32,9.61C351.31,179.15,354.18,180.38,357.71,180.38z M357.3,218.51
	c2.7,0,5.23-0.47,7.58-1.4c2.35-0.94,4.26-2.2,5.71-3.79c1.45-1.59,2.18-3.29,2.18-5.09c0-1.39-0.52-2.49-1.56-3.32
	c-1.04-0.83-3-1.57-5.87-2.23c-2.88-0.66-7.08-1.34-12.62-2.03c-2.08,1.45-3.67,3.06-4.78,4.83c-1.11,1.76-1.66,3.51-1.66,5.25
	c0,2.35,1,4.24,3.01,5.66C351.31,217.8,353.97,218.51,357.3,218.51z"/>
<path class="st0" d="M389.81,194.72c2.08-0.21,3.46-0.88,4.16-2.03c0.69-1.14,1.04-3.34,1.04-6.6v-22.86c0-2.28-0.31-3.91-0.94-4.88
	c-0.62-0.97-1.63-1.45-3.01-1.45c-0.56,0-1.28,0.1-2.18,0.31l-0.52-0.73l0.31-3.22c2.15-0.42,4.29-0.86,6.44-1.35
	c2.15-0.48,4.68-1.07,7.58-1.77l0.73,0.62c-0.35,2.22-0.59,4.14-0.73,5.77c-0.14,1.63-0.21,3.27-0.21,4.93l0.41,0.31
	c2.15-3.25,4.61-5.92,7.38-8c2.77-2.08,5.19-3.12,7.27-3.12c1.18,0,2.25,0.14,3.22,0.42l0.31,0.41c-0.28,1.87-0.52,3.55-0.73,5.04
	c-0.21,1.49-0.4,3.1-0.57,4.83c-0.17,1.73-0.29,3.39-0.36,4.99l-4.05,0.31c0-2.84-0.17-4.73-0.52-5.66c-0.35-0.94-1.11-1.4-2.29-1.4
	c-1.52,0-3.15,0.62-4.88,1.87c-1.73,1.25-3.32,2.98-4.78,5.19c-0.14,2.56-0.24,4.81-0.31,6.75c-0.07,1.94-0.14,3.93-0.21,5.97
	c-0.07,2.04-0.14,3.84-0.21,5.4c-0.07,1.56-0.1,2.58-0.1,3.06c0,2.36,0.34,3.95,1.04,4.78c0.69,0.83,2.01,1.25,3.95,1.25
	c0.76,0,2.29-0.07,4.57-0.21l0.1,0.42l-0.93,4.57c-1.39-0.07-2.63-0.1-3.74-0.1c-1.11,0-2.27-0.02-3.48-0.05
	c-1.21-0.04-2.34-0.05-3.38-0.05c-2.01,0-3.84,0.03-5.51,0.1c-1.66,0.07-3.46,0.17-5.4,0.31L389.81,194.72z"/>
<path class="st0" d="M446.33,199.71c-3.95,0-7.45-0.97-10.49-2.91c-3.05-1.94-5.42-4.66-7.12-8.16c-1.7-3.5-2.55-7.49-2.55-12
	c0-4.99,1.06-9.47,3.17-13.45c2.11-3.98,5-7.13,8.67-9.45c3.67-2.32,7.75-3.48,12.26-3.48c3.95,0,7.44,0.97,10.49,2.91
	s5.42,4.64,7.12,8.1c1.7,3.46,2.54,7.48,2.54,12.05c0,4.92-1.06,9.39-3.17,13.4c-2.11,4.02-4.99,7.19-8.62,9.5
	C455,198.55,450.9,199.71,446.33,199.71z M449.23,194.61c3.88,0,6.96-1.57,9.25-4.73c2.28-3.15,3.43-7.43,3.43-12.83
	c0-4.16-0.62-7.83-1.87-11.01s-2.98-5.68-5.19-7.48c-2.22-1.8-4.78-2.7-7.69-2.7c-3.88,0-6.96,1.59-9.24,4.78
	c-2.29,3.18-3.43,7.52-3.43,12.99c0,4.16,0.62,7.81,1.87,10.96c1.25,3.15,2.98,5.61,5.19,7.38
	C443.76,193.73,446.33,194.61,449.23,194.61z"/>
<path class="st0" d="M491.93,199.71c-2.49,0-4.67-0.19-6.55-0.57c-1.87-0.38-3.81-0.92-5.82-1.61l-0.31-0.73
	c0.14-0.76,0.29-2.03,0.47-3.79c0.17-1.77,0.34-3.62,0.52-5.56c0.17-1.94,0.26-3.46,0.26-4.57l3.64-0.52c0,4.57,0.76,7.79,2.28,9.66
	c1.52,1.87,4.12,2.8,7.79,2.8c2.63,0,4.85-0.59,6.65-1.77c1.8-1.18,2.7-2.63,2.7-4.36c0-1.18-0.35-2.25-1.04-3.22
	c-0.69-0.97-1.9-2.04-3.64-3.22c-1.73-1.18-4.19-2.6-7.38-4.26c-3.95-2.01-6.82-4.05-8.62-6.13c-1.8-2.08-2.7-4.36-2.7-6.86
	c0-2.84,0.83-5.37,2.49-7.58c1.66-2.21,3.95-3.96,6.86-5.25c2.91-1.28,6.17-1.92,9.77-1.92c2.84,0,6.3,0.56,10.39,1.66l0.21,0.52
	c-0.48,2.35-0.88,4.48-1.19,6.39c-0.31,1.9-0.57,4-0.78,6.28l-3.84,0.31c0.14-1.52,0.21-2.53,0.21-3.01c0-2.49-0.67-4.31-2.02-5.45
	c-1.35-1.14-3.52-1.71-6.49-1.71c-2.36,0-4.35,0.55-5.97,1.66c-1.63,1.11-2.44,2.46-2.44,4.05c0,1.66,0.71,3.22,2.13,4.68
	c1.42,1.45,3.72,3.01,6.91,4.68c3.74,1.94,6.66,3.69,8.78,5.25c2.11,1.56,3.6,3.06,4.47,4.52c0.87,1.45,1.3,3.05,1.3,4.78
	c0,2.63-0.88,5.09-2.65,7.38c-1.76,2.28-4.09,4.1-6.96,5.45S495.32,199.71,491.93,199.71z"/>
<g>
	<path class="st0" d="M184.94,111.14c-1.3,0-2.69-0.68-4.17-2.03c-1.48-1.35-2.84-3.14-4.09-5.37l-8.34-15.12h-6.47l-0.23,11.61
		c0,1.87,0.12,3.26,0.35,4.17c0.23,0.91,0.75,1.51,1.56,1.79c0.81,0.29,2.04,0.43,3.7,0.43l0.16,0.31l-0.7,3.27
		c-1.04-0.05-1.96-0.09-2.77-0.12c-0.81-0.03-1.69-0.05-2.65-0.08c-0.96-0.03-1.91-0.04-2.84-0.04c-1.3-0.05-2.64-0.05-4.01,0
		c-1.38,0.05-3.03,0.13-4.95,0.23l0.7-3.5c2.44-0.26,4.04-0.79,4.79-1.6c0.75-0.81,1.13-2.32,1.13-4.56l0.08-32.72
		c0-1.66-0.19-2.78-0.58-3.35c-0.39-0.57-1.16-0.86-2.3-0.86c-0.47,0-1.35,0.05-2.65,0.16l-0.16-0.31l0.55-3.43
		c1.19,0.05,2.26,0.09,3.19,0.12c0.94,0.03,1.9,0.05,2.88,0.08c0.99,0.03,1.84,0.04,2.57,0.04c0.67,0,1.54-0.01,2.61-0.04
		c1.06-0.03,2.13-0.06,3.19-0.12c1.06-0.05,2.32-0.1,3.78-0.16c4.83,0,8.65,1.09,11.45,3.27c2.81,2.18,4.21,5.17,4.21,8.96
		c0,3.12-1,5.97-3,8.57c-2,2.6-4.82,4.73-8.45,6.39l8.57,13.56c1.51,2.44,2.97,4.16,4.4,5.14c1.43,0.99,3.18,1.48,5.26,1.48
		l0.31,0.31l-0.47,2.65L184.94,111.14z M170.06,85.03c1.71-0.67,3.12-1.43,4.21-2.26c1.09-0.83,2.06-2,2.92-3.51
		c0.86-1.5,1.29-3.4,1.29-5.69c0-3.43-1.18-6-3.54-7.71c-2.36-1.71-5.93-2.57-10.71-2.57c-0.52,0-0.87,0.12-1.05,0.35
		c-0.18,0.23-0.3,0.71-0.35,1.44c-0.21,4.1-0.38,7.64-0.51,10.6c-0.13,2.96-0.22,5.82-0.27,8.57L170.06,85.03z"/>
	<path class="st0" d="M220.08,110.82c-2.08,0-3.7-0.53-4.87-1.6c-1.17-1.07-1.86-2.64-2.06-4.72l-0.31-0.08
		c-1.25,1.24-2.43,2.32-3.55,3.23c-1.12,0.91-2.1,1.61-2.96,2.11c-0.86,0.49-1.55,0.74-2.06,0.74c-1.92,0-3.64-0.42-5.14-1.25
		c-1.51-0.83-2.69-1.97-3.55-3.43c-0.86-1.45-1.28-3.12-1.28-4.99c0-1.51,0.38-2.83,1.13-3.97c0.75-1.14,1.75-1.9,3-2.26l14.8-4.05
		l0.08-3.43c0-2.6-0.6-4.62-1.79-6.08c-1.2-1.45-2.88-2.18-5.06-2.18c-1.45,0-2.99,0.34-4.6,1.01c-1.61,0.68-3.19,1.64-4.75,2.88
		l-0.39-0.23l-0.93-3.35c1.35-0.78,2.86-1.6,4.52-2.46c1.66-0.86,3.25-1.57,4.75-2.14c1.51-0.57,2.65-0.86,3.43-0.86
		c2.29,0,4.23,0.4,5.84,1.21c1.61,0.81,2.84,1.95,3.7,3.43c0.86,1.48,1.29,3.28,1.29,5.41c0,0.67-0.07,1.76-0.2,3.27
		c-0.13,1.51-0.3,3.18-0.51,5.03c-0.21,1.84-0.38,3.62-0.51,5.34c-0.13,1.71-0.2,3.14-0.2,4.28c0,1.14,0.29,2.03,0.86,2.65
		s1.35,0.93,2.34,0.93c0.88,0,1.77-0.22,2.65-0.66c0.88-0.44,1.56-0.87,2.03-1.29l1.09,1.25c-0.42,0.68-0.97,1.44-1.67,2.3
		c-0.7,0.86-1.48,1.65-2.34,2.38S221.06,110.51,220.08,110.82z M205.59,105.21c0.99,0,2.14-0.35,3.47-1.05
		c1.33-0.7,2.53-1.6,3.62-2.69l0.39-7.95l-10.6,3.19c-1.51,0.47-2.26,1.56-2.26,3.27c0,1.46,0.51,2.69,1.52,3.7
		C202.74,104.71,204.03,105.21,205.59,105.21z"/>
	<path class="st0" d="M252.88,107.63c1.56-0.41,2.67-1.03,3.35-1.83c0.68-0.81,1.01-1.88,1.01-3.23l0.31-15.43
		c0-2.6-0.56-4.6-1.67-6c-1.12-1.4-2.71-2.1-4.79-2.1c-1.25,0-2.52,0.26-3.82,0.78c-1.3,0.52-2.45,1.09-3.47,1.72
		c-1.01,0.62-1.78,1.14-2.3,1.56c-0.05,1.35-0.12,2.95-0.2,4.79c-0.08,1.85-0.16,3.73-0.23,5.65c-0.08,1.92-0.14,3.66-0.19,5.22
		c-0.05,1.56-0.08,2.73-0.08,3.51c0,1.61,0.22,2.74,0.66,3.39c0.44,0.65,1.16,0.97,2.14,0.97c0.47,0,1.38-0.05,2.73-0.16l0.16,0.31
		l-0.7,3.35c-1.56-0.11-2.88-0.17-3.97-0.2c-1.09-0.03-2.13-0.04-3.12-0.04c-1.09,0-2.23,0.04-3.43,0.12
		c-1.2,0.08-2.62,0.19-4.29,0.35l0.39-3.19c1.51-0.26,2.57-0.73,3.19-1.4c0.62-0.67,0.94-1.74,0.94-3.19V83.56
		c0-1.76-0.29-3-0.86-3.7c-0.57-0.7-1.56-1.05-2.96-1.05h-0.86l-0.23-0.31l0.23-2.57c1.82-0.31,3.56-0.63,5.22-0.97
		c1.66-0.34,3.56-0.77,5.69-1.28l0.47,0.62c-0.47,2.08-0.75,3.79-0.86,5.14l0.16,0.23c0.47-0.31,1.21-0.79,2.22-1.44
		c1.01-0.65,2.1-1.31,3.27-1.99c1.17-0.67,2.3-1.26,3.39-1.75c1.09-0.49,1.95-0.74,2.57-0.74c3.27,0,5.87,0.91,7.79,2.73
		c1.92,1.82,2.88,4.26,2.88,7.33c0,0.67-0.05,1.79-0.16,3.35c-0.1,1.56-0.23,3.3-0.39,5.22c-0.16,1.92-0.29,3.77-0.39,5.53
		c-0.1,1.77-0.16,3.22-0.16,4.36c0,1.51,0.21,2.61,0.62,3.31c0.42,0.7,1.12,1.05,2.1,1.05c0.47,0,1.38-0.05,2.73-0.16l0.16,0.31
		l-0.62,3.35c-0.88-0.05-1.67-0.09-2.38-0.12c-0.7-0.03-1.45-0.05-2.26-0.08c-0.81-0.03-1.57-0.04-2.3-0.04
		c-0.83,0-1.7,0.05-2.61,0.16c-0.91,0.1-1.78,0.21-2.61,0.31c-0.83,0.1-1.77,0.26-2.8,0.47L252.88,107.63z"/>
	<path class="st0" d="M289.18,110.82c-3.27,0-6.13-0.71-8.57-2.14c-2.44-1.43-4.34-3.43-5.69-6c-1.35-2.57-2.03-5.6-2.03-9.08
		c0-3.74,0.79-7.1,2.38-10.09c1.58-2.99,3.74-5.36,6.47-7.13c2.73-1.76,5.78-2.65,9.15-2.65c1.66,0,3.18,0.12,4.56,0.35
		c1.38,0.23,2.9,0.61,4.56,1.13l0.23,0.55c-0.47,1.87-0.83,3.62-1.09,5.26c-0.26,1.64-0.44,3.47-0.55,5.49l-3.19,0.23v-2.41
		c0-1.92-0.58-3.47-1.75-4.64c-1.17-1.17-2.71-1.75-4.64-1.75c-3.17,0-5.61,1.13-7.32,3.39s-2.57,5.47-2.57,9.62
		c0,4.52,0.95,8.09,2.84,10.71c1.89,2.62,4.48,3.93,7.75,3.93c1.45,0,2.86-0.22,4.21-0.66c1.35-0.44,2.88-1.08,4.6-1.91l0.47,0.16
		l0.86,2.41c-1.46,1.04-2.75,1.91-3.9,2.61c-1.14,0.7-2.33,1.31-3.55,1.83C291.2,110.56,290.12,110.82,289.18,110.82z"/>
	<path class="st0" d="M305.85,106.85c1.51-0.15,2.56-0.55,3.16-1.17c0.6-0.62,0.9-1.66,0.9-3.12V61.12c0-1.4-0.22-2.43-0.66-3.08
		c-0.44-0.65-1.18-0.97-2.22-0.97h-1.64l-0.31-0.23l0.31-2.49c1.19-0.16,2.51-0.36,3.93-0.62s2.82-0.53,4.17-0.82
		c1.35-0.29,2.49-0.56,3.43-0.82l0.47,1.01c-0.21,0.36-0.44,1.74-0.7,4.13c-0.26,2.39-0.48,5.53-0.66,9.43
		c-0.18,3.9-0.35,8.29-0.51,13.17c0.36-0.26,1.03-0.71,1.99-1.36c0.96-0.65,2.05-1.34,3.27-2.06c1.22-0.72,2.42-1.35,3.58-1.87
		c1.17-0.52,2.12-0.78,2.84-0.78c3.38,0,6,0.87,7.87,2.61c1.87,1.74,2.81,4.22,2.81,7.44c0,0.67-0.07,1.79-0.2,3.35
		c-0.13,1.56-0.27,3.3-0.43,5.22c-0.16,1.92-0.3,3.77-0.43,5.53c-0.13,1.77-0.19,3.22-0.19,4.36c0,1.51,0.21,2.61,0.62,3.31
		c0.42,0.7,1.12,1.05,2.1,1.05c0.31,0,0.74-0.01,1.28-0.04c0.55-0.03,1.03-0.06,1.44-0.12l0.16,0.31l-0.62,3.35
		c-0.83-0.05-1.94-0.11-3.31-0.16c-1.38-0.05-2.58-0.08-3.62-0.08c-0.62,0-1.38,0.04-2.26,0.12c-0.88,0.08-1.82,0.18-2.8,0.31
		c-0.99,0.13-1.98,0.3-2.96,0.51l0.31-3.19c1.56-0.41,2.67-1.03,3.35-1.83c0.67-0.81,1.01-1.88,1.01-3.23l0.47-15.43
		c0-2.6-0.56-4.6-1.67-6c-1.12-1.4-2.71-2.1-4.79-2.1c-1.3,0-2.9,0.42-4.79,1.25c-1.9,0.83-3.6,1.84-5.1,3.04
		c-0.05,1.92-0.09,3.92-0.12,6c-0.03,2.08-0.05,4.2-0.08,6.35c-0.03,2.16-0.04,4.35-0.04,6.58c0,1.61,0.22,2.74,0.66,3.39
		c0.44,0.65,1.16,0.97,2.14,0.97c0.31,0,0.74-0.01,1.29-0.04c0.55-0.03,1.03-0.06,1.44-0.12l0.16,0.31l-0.7,3.35
		c-0.88-0.05-2.02-0.11-3.43-0.16c-1.4-0.05-2.62-0.08-3.66-0.08c-1.09,0-2.38,0.01-3.86,0.04c-1.48,0.03-2.77,0.07-3.86,0.12
		L305.85,106.85z"/>
	<path class="st0" d="M362.65,110.82c-2.96,0-5.58-0.73-7.87-2.18c-2.29-1.45-4.07-3.49-5.34-6.12c-1.27-2.62-1.91-5.62-1.91-9
		c0-3.74,0.79-7.1,2.38-10.09c1.58-2.99,3.75-5.35,6.51-7.09c2.75-1.74,5.82-2.61,9.19-2.61c2.96,0,5.58,0.73,7.87,2.18
		c2.28,1.46,4.06,3.48,5.34,6.08c1.27,2.6,1.91,5.61,1.91,9.04c0,3.69-0.79,7.04-2.38,10.05c-1.59,3.01-3.74,5.39-6.47,7.13
		C369.16,109.95,366.08,110.82,362.65,110.82z M364.83,107.01c2.91,0,5.22-1.18,6.93-3.54c1.71-2.36,2.57-5.57,2.57-9.62
		c0-3.12-0.47-5.87-1.4-8.26c-0.94-2.39-2.23-4.26-3.9-5.61c-1.66-1.35-3.58-2.02-5.77-2.02c-2.91,0-5.22,1.19-6.93,3.58
		c-1.71,2.39-2.57,5.63-2.57,9.74c0,3.12,0.47,5.86,1.4,8.22c0.93,2.36,2.23,4.21,3.9,5.53
		C360.73,106.34,362.65,107.01,364.83,107.01z"/>
	<path class="st0" d="M404.72,107.08c2.02-0.31,3.42-0.92,4.17-1.83c0.75-0.91,1.13-2.48,1.13-4.72l0.08-32.72
		c0-1.66-0.18-2.78-0.55-3.35c-0.37-0.57-1.14-0.86-2.34-0.86c-0.47,0-1.35,0.05-2.65,0.16l-0.16-0.31l0.55-3.43
		c2.08,0.11,3.8,0.17,5.18,0.19c1.38,0.03,2.56,0.04,3.54,0.04c0.83,0,1.73-0.04,2.69-0.12s1.87-0.15,2.73-0.23
		c0.86-0.08,1.83-0.19,2.92-0.35l-0.31,3.51c-1.71,0.21-2.91,0.55-3.58,1.01c-0.68,0.47-1.07,1.18-1.17,2.14
		c-0.11,0.96-0.23,2.32-0.39,4.09c-0.21,3.22-0.39,6.71-0.55,10.48c-0.16,3.77-0.26,7.38-0.31,10.83c-0.05,3.46-0.08,6.38-0.08,8.77
		c0,1.76,0.14,3.08,0.43,3.93c0.28,0.86,0.91,1.42,1.87,1.68c0.96,0.26,2.4,0.39,4.32,0.39c2.28,0,4.13-0.13,5.53-0.39
		c1.4-0.26,2.53-0.78,3.39-1.56c0.86-0.78,1.54-1.9,2.06-3.35c0.52-1.45,0.99-3.38,1.4-5.77l3.43-0.39l0.23,0.39
		c-0.52,2.81-0.95,5.33-1.29,7.56c-0.34,2.23-0.66,4.65-0.97,7.25l-0.39,0.47c-2.91-0.16-5.48-0.27-7.71-0.35
		c-2.23-0.08-4.53-0.16-6.89-0.23c-2.36-0.08-4.48-0.12-6.35-0.12c-1.92,0-3.68,0.07-5.26,0.19s-3.31,0.32-5.18,0.59L404.72,107.08z
		"/>
	<path class="st0" d="M456.38,110.82c-2.96,0-5.58-0.73-7.87-2.18c-2.28-1.45-4.06-3.49-5.34-6.12c-1.27-2.62-1.91-5.62-1.91-9
		c0-3.74,0.79-7.1,2.38-10.09c1.59-2.99,3.75-5.35,6.51-7.09c2.75-1.74,5.82-2.61,9.19-2.61c2.96,0,5.58,0.73,7.87,2.18
		c2.28,1.46,4.06,3.48,5.34,6.08c1.27,2.6,1.91,5.61,1.91,9.04c0,3.69-0.79,7.04-2.38,10.05c-1.59,3.01-3.74,5.39-6.47,7.13
		C462.88,109.95,459.81,110.82,456.38,110.82z M458.56,107.01c2.91,0,5.22-1.18,6.93-3.54c1.71-2.36,2.57-5.57,2.57-9.62
		c0-3.12-0.47-5.87-1.4-8.26c-0.94-2.39-2.23-4.26-3.9-5.61c-1.66-1.35-3.58-2.02-5.77-2.02c-2.91,0-5.22,1.19-6.93,3.58
		c-1.71,2.39-2.57,5.63-2.57,9.74c0,3.12,0.47,5.86,1.4,8.22c0.93,2.36,2.23,4.21,3.9,5.53
		C454.46,106.34,456.38,107.01,458.56,107.01z"/>
	<path class="st0" d="M490.58,110.82c-1.87,0-3.51-0.14-4.91-0.43c-1.4-0.29-2.86-0.69-4.36-1.21l-0.23-0.55
		c0.1-0.57,0.22-1.52,0.35-2.84c0.13-1.33,0.26-2.71,0.39-4.17c0.13-1.45,0.19-2.6,0.19-3.43l2.73-0.39c0,3.43,0.57,5.84,1.71,7.24
		c1.14,1.4,3.09,2.11,5.84,2.11c1.97,0,3.64-0.44,4.99-1.33c1.35-0.88,2.03-1.97,2.03-3.27c0-0.88-0.26-1.69-0.78-2.42
		c-0.52-0.73-1.43-1.53-2.73-2.42c-1.3-0.88-3.14-1.95-5.53-3.19c-2.96-1.51-5.12-3.04-6.47-4.6c-1.35-1.56-2.03-3.27-2.03-5.14
		c0-2.13,0.62-4.02,1.87-5.69s2.96-2.97,5.14-3.94c2.18-0.96,4.62-1.44,7.32-1.44c2.13,0,4.73,0.42,7.79,1.25l0.16,0.39
		c-0.36,1.77-0.66,3.36-0.9,4.79c-0.23,1.43-0.43,3-0.58,4.72l-2.88,0.23c0.1-1.14,0.16-1.9,0.16-2.26c0-1.87-0.51-3.23-1.52-4.09
		c-1.01-0.86-2.64-1.28-4.87-1.28c-1.77,0-3.26,0.42-4.48,1.24c-1.22,0.83-1.83,1.85-1.83,3.04c0,1.25,0.53,2.42,1.6,3.51
		s2.79,2.26,5.18,3.51c2.8,1.45,5,2.77,6.58,3.93c1.58,1.17,2.7,2.3,3.35,3.39c0.65,1.09,0.97,2.29,0.97,3.58
		c0,1.97-0.66,3.82-1.99,5.53c-1.33,1.71-3.07,3.08-5.22,4.09C495.48,110.32,493.13,110.82,490.58,110.82z"/>
</g>
</svg>
