<?xml version="1.0" encoding="utf-8"?>
<!-- Generator: Adobe Illustrator 25.4.1, SVG Export Plug-In . SVG Version: 6.00 Build 0)  -->
<svg version="1.1" id="katman_1" xmlns="http://www.w3.org/2000/svg" xmlns:xlink="http://www.w3.org/1999/xlink" x="0px" y="0px"
	 viewBox="0 0 463 160" style="enable-background:new 0 0 463 160;" xml:space="preserve">
<style type="text/css">
	.st0{fill:#245ABC;}
</style>
<g>
	<path class="st0" d="M404.4,53.6v0.2c27.8,2.3,35.9,22.1,35.6,33.5c-0.6,33.2-26.4,60-67.9,63.2v0.2c45.6-2.7,72.3-26.3,72.9-60.1
		C444.9,78.2,435.9,55.4,404.4,53.6L404.4,53.6z"/>
	<path class="st0" d="M372.1,150.2c34.9-2.3,62.6-31.3,63.5-66.3c0-10.5-7.2-27.8-31.3-29.7v0.2c20,2.1,27,16.7,26.9,26.2
		c-0.6,32-25.4,66-58.8,69.4L372.1,150.2z"/>
	<path class="st0" d="M372.4,149.6c29.5-3.1,53.3-41,53.9-72.5c0-8.5-5.4-20.4-22.3-22.3V55c13.3,2,18,11.3,18,18.8
		c-0.5,30.8-23.7,72.1-49.1,75.5L372.4,149.6z"/>
	<path class="st0" d="M372.8,148.7v0.3c21.6-3.1,43.8-48.5,44.4-78.7c0.3-7.7-5.7-14.4-13.4-14.9v0.2c5.4,0.9,9.3,5.9,8.7,11.4
		C411.6,96.6,390.1,145.5,372.8,148.7z M359.2,137c0.5-28.4,22.9-78.3,39.5-81.7V55c-20.9,3.1-43.9,49.2-44.4,78.5
		c0,0.4,0,0.7,0,1.1c0,7.5,6,13.8,13.5,14.1v-0.2c-5-0.7-8.7-5-8.7-10C359.1,138,359.1,137.5,359.2,137L359.2,137z"/>
	<path class="st0" d="M350.1,130.3c0.5-30,24.7-72.1,49.2-75.5v-0.2c-28.8,3.1-53.3,41.6-53.9,72.3c0,8.6,5.6,21.2,22.3,22.6v-0.2
		C354.6,147.5,349.9,137.8,350.1,130.3L350.1,130.3z"/>
	<path class="st0" d="M340.9,123.5c0.5-31.5,26.2-66,58.6-69.4v-0.2c-34.6,2.9-61.9,31.4-63.4,66.1c0,10.5,7.2,28.3,31.4,29.9v-0.2
		C346.7,147.8,340.7,132.9,340.9,123.5L340.9,123.5z"/>
	<path class="st0" d="M331.7,116.7c0.6-33,29-60.1,68.1-63.2v-0.2c-43.7,2.7-72.3,26.3-72.9,59.9c-0.3,12.4,8.8,35.4,40.2,37.2
		C339.7,148.3,331.5,128.2,331.7,116.7L331.7,116.7z M309.5,54c-15.1-2-33.3,6.8-43.5,22.3l0.2,0.3c9.7-13.9,26.1-22.3,39.5-20.4
		c9.1,1.2,15.3,8.1,14,21.6c-3.2,34.3-32.1,72.9-78.4,72.8v0.3c42.6,1.6,79.7-30.5,84-72.9C326.6,63,319.7,55.4,309.5,54L309.5,54z"
		/>
	<path class="st0" d="M314.3,77.7c1.1-11.8-4.2-18-12.5-19.1c-12-1.6-26.5,5.7-35.3,18.5l0.2,0.2c8.1-11.1,21-18,31.4-16.5
		c7.2,1,11.9,6.4,10.8,16.8c-2.8,29.6-31,70.2-67.4,72.4C282.2,150,311.3,109.9,314.3,77.7z"/>
	<path class="st0" d="M242,149.3v0.2c34-4.1,59.1-45.3,61.8-72.1c0.8-8.8-3.2-13.4-9.2-14.4c-9.1-1.3-20.3,4.9-27.3,14.6v0.2
		c6.7-8.6,15.9-13.7,23.3-12.7c5.2,0.7,8.3,4.6,7.7,11.8C295.9,101.3,272.8,142.8,242,149.3L242,149.3z"/>
	<path class="st0" d="M242.3,148.4v0.3c25.2-6.8,48.5-50.3,50.3-71.9c0.5-5.5-1.9-8.7-6-9.3c-6-0.8-13.6,3.6-19.2,10.8v0.2
		c4.6-5.5,10.8-9.5,15.3-8.8c2.9,0.4,4.8,2.9,4.4,7C285.8,95.6,264.2,139.1,242.3,148.4L242.3,148.4z M238.4,124
		c-2.7,5.9-4.6,12.1-5.7,18.4c0.1,2.4,1.4,4.7,3.6,5.8c0.3,0.2,0.7,0.3,1.1,0.4v-0.3c-1-1-1.5-2.5-1.2-3.9
		c1.5-6.4,3.7-12.7,6.5-18.7L289.4,7.1l-6.6,1.3c0.4,1.5-12.3,32.5-12.8,34.1L238.4,124z"/>
	<path class="st0" d="M229.8,120.3c-2.4,5.7-4.1,11.6-5.1,17.7c-0.6,6.5,5.1,10,12.7,11.2V149c-5.2-0.9-9.2-3.6-8.8-8.6
		c1.2-6.2,3-12.2,5.5-18l31.1-80.1c0.8-2.1,12.6-30.7,10.8-32.6l-6.4,1.3v0.4c0.3,7-7.8,26.1-9.5,30.6L229.8,120.3z"/>
	<path class="st0" d="M250.4,41.5l-29.3,75.1c-2.3,5.3-4,10.9-5,16.6c-0.8,9.2,6.7,15.5,20.8,16.5c-2.9-0.3-5.7-1-8.5-2
		c-5.3-1.3-8.8-6.4-8.2-11.8c1-6,2.8-11.8,5.2-17.3l29.9-76.9c1.5-4.1,10.1-23.5,8-29.4l-6.2,1.2v0.4
		C260.6,18.5,252.4,36.5,250.4,41.5z"/>
	<path class="st0" d="M239.8,43l-27.1,69.9c-2.2,5-3.8,10.2-4.5,15.6c-1,11.5,9,20.9,28.8,21.6c-16.6-0.9-25.6-8.8-24.7-19.1
		c0.8-5.5,2.4-10.9,4.7-16l28-71.9c2.5-6.6,10-22.7,5.9-28.1l-6.4,1.3v0.4C248.9,22.5,242.7,35.8,239.8,43L239.8,43z"/>
	<path class="st0" d="M236.6,150.5c-22.3-1-33.6-11.9-32.4-24.5c0.7-5.1,2-10,4.1-14.7l25.8-66.8c3.2-8.3,9.3-20.9,4.5-27.1
		l-5.9,1.2V19c5,5.6,0.4,14.8-3.1,24.1l-25.7,66.1c-2.1,4.6-3.4,9.4-4,14.4c-1.2,13.8,11,26.2,36.5,27L236.6,150.5z M207.2,66.3
		c-0.5-8.9-5.7-12.9-12.1-12.9c-11.6,0-21.6,9.1-27.9,21.6v-4.4c-0.5-9.7-7.2-17.2-19.1-17.2c-25.2,0-37.6,16.6-41.7,35.3h0.2
		c4.4-17.6,16.1-33.4,38.7-33.4c0.5,0,0.9-0.1,1.4-0.1c8.6,0,15.7,7,15.8,15.6c0.6,11.4-3.2,20.3-7.2,30.5L137,149.2h4.9l18.3-47.5
		c1.2-3.3,2.4-6.3,3.4-9.3c3.6-7.5,8.1-15.3,10.4-15.3c1.7,0,2.3,1.5,2.4,2.8c0,7.2-1.9,14.2-5.4,20.4l0.2,0.2
		c5.6-6.3,8.9-14.3,9.5-22.6c0-2.5-1.2-4.2-3.6-4.2c-3.9,0-8.9,8.1-12.6,16.6c0.4-1.4,0.8-2.7,1.2-4.1c3.9-8.5,9.3-15.8,14.4-15.8
		c3.1,0,5,2.1,5.1,5.6c0.4,8.5-7.2,20.9-13.6,24.9l0.2,0.2c8.7-3.9,18.3-16.6,17.7-27.1c-0.3-4.6-2.7-7.2-6.6-7.2
		c-6.4,0-12.6,7.4-16.9,16.6c0-0.7,0.3-1.4,0.4-2.2c4.8-9.9,11.8-17.7,19.6-17.7c4.2,0,7.5,2.9,7.8,8.5c0.7,12.4-11,25.5-21.6,29.4
		l0.2,0.2c13-3.3,26.5-17.2,25.8-31.5c-0.4-6.8-4.2-10-9.2-10c-9,0-17,8.1-22,18.9v-1.8c5.7-11.6,14.7-20.3,25.2-20.3
		c5.6,0,10.2,3.6,10.8,11.4c0.9,16.4-14.4,30.3-29.9,33.8l0.2,0.2C191.4,99.6,208.2,84.7,207.2,66.3L207.2,66.3z"/>
	<path class="st0" d="M158.2,71.2c-0.1-7.8-6.6-14.1-14.4-14.1c-0.3,0-0.7,0-1,0c-20.1,0-31.6,14.9-35.7,31.7h0.3
		c4.5-15.6,14.7-29.7,32.6-29.7c0.4,0,0.8-0.1,1.2-0.1c6.8,0,12.4,5.6,12.4,12.4c0.5,9.5-4,19.9-7.5,29.4l-18.9,48.5h5l18.5-48.1
		C154.6,91.2,158.7,81.4,158.2,71.2L158.2,71.2z"/>
	<path class="st0" d="M149.2,71.5L149.2,71.5c0-6-4.9-10.8-10.8-10.8c-0.3,0-0.7,0-1,0c-15.7,0-25.4,13.6-29.5,28h0.2
		c4.4-13.4,13.5-26.1,26.6-26.1c0.2,0,0.4,0,0.6,0c5,0,9.2,4.1,9.2,9.1c0.4,7.5-4.8,19.7-8.2,28.2l-19.4,49.2h5.2l19.1-48.9
		C144.5,91.5,149.6,80.2,149.2,71.5L149.2,71.5z"/>
	<path class="st0" d="M140,72.1L140,72.1c0-4.2-3.4-7.5-7.5-7.5c-0.2,0-0.4,0-0.6,0c-10.8,0-19.4,11.7-23.5,24.1h0.3
		c4.3-11.1,11.6-22.2,20.4-22.2c0.2,0,0.4,0,0.7,0c3.1,0,5.6,2.5,5.6,5.6c0,0.1,0,0.1,0,0.2c0.3,6-5.7,19.5-8.6,27l-20,49.9h5
		l19.6-49.5C134.8,91.9,140.4,79,140,72.1L140,72.1z"/>
	<path class="st0" d="M131,72.7c0-0.1,0-0.2,0-0.4c0-2.3-1.9-4.1-4.1-4.1c-0.1,0-0.2,0-0.3,0c-6.4,0-13.2,10-17.4,20.5h0.3
		c4.2-9.3,10.6-18.5,14.4-18.5c1.5,0,2.6,0.8,2.7,2.7c0.2,4.1-6.5,19.3-9.3,25.9L97,149.1h5l20.2-50C124.9,92,131.2,77.6,131,72.7
		L131,72.7z M76,115.4l3.2-6.8l-11-55.9c-3.1-15.7,0.6-22.6,13-25v-0.2H69.8c-3.3,1.7-10.3,6.6-6.4,25.2L76,115.4z"/>
	<path class="st0" d="M69.5,128.9l3.2-6.8L58.3,52.3c-2.7-13.6-1.5-20.6,2.9-24.6v-0.2h-7.8C51,32.6,50.3,37.6,53,51L69.5,128.9z
		 M62.9,142.4l3.2-6.7l-18-84.9c-3.2-13.2-2.4-19.2-1.2-23.4H40c-0.1,7.1,0.8,14.3,2.7,21.1L62.9,142.4z M33.8,27.4h-8.1v0.2
		c3.6,4.4,4.7,9.7,7.5,21.6l21.6,100h4.9L38.2,48.9C36.3,41.8,34.9,34.7,33.8,27.4L33.8,27.4z M17.7,27.4H9v0.2
		c7.9,3.1,11.8,9.1,14.9,23.2l21.3,98.4h4.9l-21.5-99C24.9,33,21,29.9,17.7,27.4z M127.9,27.4c-10.2,6-16.3,17-29,44.4l0.3,0.2
		c14.7-27.5,23.1-38.5,42.1-44.2v-0.3h-13.4V27.4z M98.2,71.3l0.3,0.2c12.1-28.4,15.2-36.4,20.2-43.8v-0.2h-9.8v0.3
		C109.9,39.1,106.1,49.6,98.2,71.3L98.2,71.3z"/>
	<path class="st0" d="M97.5,70.8l0.3,0.2c7.7-25.5,10.1-36.7,3.4-43.6h-9.5v0.2C102.5,31.5,104.7,42.4,97.5,70.8L97.5,70.8z
		 M447.6,60.2v4.9h-0.7v-4.9h-2.1v-0.7h5v0.7H447.6z M455.9,65v-4.7l-1.7,4.6h-0.8l-1.5-4.6V65h-0.7l0.2-5.5h1.3l1.4,4.6l1.7-4.6
		h1.2l0.2,5.5H455.9z"/>
</g>
</svg>
